<svg width="19" height="19" viewBox="0 0 19 19" fill="none" xmlns="http://www.w3.org/2000/svg">
<path d="M9.49849 0.253906C6.45849 0.253906 2.78516 2.15391 2.78516 6.96724C2.78516 9.75391 6.58516 15.7072 8.61182 18.3672C8.99182 18.8739 9.75182 18.8739 10.1318 18.3672C12.0318 15.7072 16.0852 9.88057 16.0852 6.96724C16.2118 2.15391 12.5385 0.253906 9.49849 0.253906Z" fill="#85AAED"/>
<path d="M14.4386 7.22016V8.36016L10.1319 7.72682L10.0053 10.8935L11.9053 12.0335V12.6668L9.49859 12.2868L7.21859 12.6668V12.0335L9.11859 10.8935L8.86526 7.72682L4.55859 8.36016V7.22016L8.86526 5.70016V3.67349C8.86526 3.67349 8.86526 2.66016 9.49859 2.66016C10.1319 2.66016 10.1319 3.67349 10.1319 3.67349V5.57349L14.4386 7.22016Z" fill="white"/>
</svg>
