<svg width="19" height="19" viewBox="0 0 19 19" fill="none" xmlns="http://www.w3.org/2000/svg">
<path d="M9.49849 0.253906C6.45849 0.253906 2.78516 2.15391 2.78516 6.96724C2.78516 9.75391 6.58516 15.7072 8.61182 18.3672C8.99182 18.8739 9.75182 18.8739 10.1318 18.3672C12.0318 15.7072 16.0852 9.88057 16.0852 6.96724C16.2118 2.15391 12.5385 0.253906 9.49849 0.253906Z" fill="#84CEEF"/>
<path d="M8.99359 3.16682H7.72693C7.22026 3.16682 7.22026 2.66016 7.72693 2.66016H11.4003C11.9069 2.66016 11.9069 3.16682 11.4003 3.16682H10.0069C10.0069 3.16682 10.5136 3.54682 10.5136 4.43349V5.32016H14.4403V6.71349L10.5136 7.98016L10.1336 11.4002L11.7803 12.2868V12.6668H7.22026V12.2868L8.86693 11.4002L8.48693 7.98016L4.43359 6.71349V5.32016H8.48693V4.43349C8.48693 3.54682 8.99359 3.16682 8.99359 3.16682Z" fill="white"/>
</svg>
