<svg width="21" height="21" viewBox="0 0 21 21" fill="none" xmlns="http://www.w3.org/2000/svg">
<g clip-path="url(#clip0_28_491)">
<path d="M0 10.5V21H10.5H21V10.5V-9.46224e-07H10.5H0V10.5ZM13.9857 1.37127C16.5934 1.9903 17.2906 4.42724 15.6037 6.99739C14.8377 8.16492 13.2111 9.53619 11.4553 10.5C9.57049 11.5265 8.15902 11.4168 7.88361 10.2257C7.7373 9.60672 8.55492 8.16492 9.26066 7.78881C9.69959 7.55373 10.259 7.46754 10.6033 7.59291C10.9131 7.70261 11.1369 8.01604 11.068 8.25895C11.0422 8.36082 10.6377 8.8153 10.173 9.26194C9.3209 10.0847 9.0541 10.4687 9.15738 10.7037C9.29508 11.025 10.5 10.5549 11.7824 9.67724C13.0389 8.8153 14.0287 7.82015 14.4676 7.00522C15.0443 5.92388 15.0098 4.90522 14.3988 4.46642C14.1061 4.25485 13.409 4.25485 12.798 4.46642C12.1783 4.67798 10.259 5.75933 9.12295 6.53507C7.91803 7.35784 7.28115 7.63209 6.67008 7.58507C6.08484 7.53806 5.6459 7.24813 5.39631 6.74664C5.24139 6.43321 5.23279 6.33918 5.31885 5.97089C5.37049 5.74366 5.54262 5.35186 5.68893 5.10895C6.0418 4.53694 7.43607 3.26754 8.22787 2.80522C9.38975 2.11567 10.8873 1.50448 11.834 1.33209C12.4193 1.23022 13.452 1.24589 13.9857 1.37127ZM7.18648 13.7519C7.48771 14.0183 7.47049 14.3631 7.15205 14.6608C6.99713 14.794 6.80779 14.8881 6.67008 14.8881C6.39467 14.8881 5.93852 14.5041 5.93852 14.2612C5.93852 14.0575 6.15369 13.6578 6.3 13.6108C6.59262 13.5011 6.98852 13.5638 7.18648 13.7519ZM12.1352 14.5354V15.1231H12.4795H12.8238V15.5541V15.9851H12.4795H12.1352V17.2701C12.1352 18.6414 12.1439 18.6649 12.5914 18.7668C12.798 18.8138 12.8238 18.8608 12.8238 19.1664V19.5112H12.4193C11.9115 19.5112 11.309 19.2526 11.1455 18.9549C11.0422 18.7746 11.0164 18.3045 11.0164 16.4239V14.1123L11.4295 14.0653C11.6533 14.034 11.877 14.0026 11.9201 13.9869C11.9717 13.9713 12.032 13.9556 12.075 13.9556C12.1094 13.9478 12.1352 14.2142 12.1352 14.5354ZM18.418 16.1888C18.418 17.5444 18.4525 18.4847 18.5041 18.5709C18.5557 18.6571 18.7279 18.7433 18.8914 18.7746C19.184 18.8216 19.1926 18.8373 19.1926 19.1664V19.5112H18.7451C18.2115 19.5112 17.7725 19.331 17.523 19.0175C17.3508 18.806 17.3422 18.6806 17.3164 16.4631L17.2906 14.1201L17.7898 14.0418C18.0652 14.0026 18.3148 13.9634 18.3578 13.9556C18.3922 13.9556 18.418 14.9586 18.418 16.1888ZM10.6033 15.1075C10.741 15.1623 10.741 15.1937 10.543 15.5776C10.3451 15.9616 10.3193 15.9851 10.018 15.9851C9.8459 15.9851 9.55328 16.0243 9.37254 16.0791L9.03689 16.1653V17.8265V19.4799H8.47746H7.91803V17.7011V15.9224L8.21926 15.6795C8.58934 15.3896 8.925 15.225 9.35533 15.131C9.75123 15.0448 10.3967 15.0369 10.6033 15.1075ZM4.80246 15.3269C5.41352 15.656 5.5082 15.9224 5.5082 17.4896V18.7981L5.22418 18.994C4.69918 19.3623 4.21721 19.5112 3.5459 19.5112C2.83156 19.5112 2.55615 19.4172 2.16885 19.0097C1.68689 18.5082 1.61803 17.8265 2.01393 17.3015C2.38402 16.8 2.86598 16.6276 3.9418 16.6198C4.32049 16.6119 4.38934 16.5884 4.38934 16.4631C4.38934 16.3847 4.32049 16.2358 4.22582 16.134C4.09672 15.9851 3.99344 15.9537 3.64918 15.9616C3.4168 15.9694 3.08115 16.0243 2.90902 16.0948C2.72828 16.1653 2.54754 16.2201 2.50451 16.2201C2.38402 16.2201 2.13443 15.5776 2.22049 15.4993C2.42705 15.3112 3.18443 15.131 3.77828 15.1231C4.31189 15.1231 4.47541 15.1545 4.80246 15.3269ZM15.793 15.272C15.9824 15.3504 16.2061 15.4836 16.2836 15.5619C16.5418 15.8284 16.7656 16.4004 16.8258 16.941L16.8861 17.4739H15.5434H14.2094L14.2611 17.7246C14.3816 18.328 14.7947 18.7276 15.2852 18.7276C15.4488 18.7276 15.7758 18.6571 16.0254 18.5709C16.275 18.4847 16.4902 18.4142 16.4988 18.4142C16.516 18.4142 16.602 18.5631 16.7053 18.7354C16.9119 19.1116 16.9119 19.1037 16.1803 19.3623C15.552 19.5739 14.7861 19.5817 14.2611 19.3701C13.0389 18.8765 12.6861 16.9097 13.607 15.7578C14.0717 15.1623 15.0357 14.9507 15.793 15.272ZM7.22951 17.3093V19.4172L6.73893 19.4563C6.46352 19.472 6.21393 19.4799 6.17951 19.4563C6.09344 19.4172 6.09344 15.5071 6.17951 15.3817C6.23115 15.3034 6.49795 15.2485 7.04016 15.2172L7.22951 15.2015V17.3093Z" fill="#EC1515"/>
<path d="M3.29634 17.5522C2.59061 17.8108 3.03815 18.7981 3.81274 18.7041C4.31192 18.6414 4.38938 18.5396 4.38938 17.9754V17.4739L3.94184 17.4817C3.69225 17.4817 3.39962 17.5131 3.29634 17.5522Z" fill="#EC1515"/>
<path d="M14.6914 15.9929C14.5537 16.0634 14.2869 16.5022 14.2869 16.6511C14.2869 16.6746 14.5967 16.6903 14.9754 16.6903C15.3541 16.6903 15.6639 16.659 15.6639 16.6198C15.6639 16.5884 15.6209 16.4474 15.5692 16.3063C15.4229 15.9381 15.0528 15.8049 14.6914 15.9929Z" fill="#EC1515"/>
<path d="M11.5242 1.44963C10.8529 1.59851 9.5705 2.11567 8.76149 2.56231C7.30698 3.36157 6.25698 4.28619 5.67173 5.28134C5.31026 5.8847 5.26722 6.58993 5.55985 6.95037C5.8869 7.35 6.25698 7.52239 6.79058 7.52239C7.43608 7.52239 7.90083 7.31082 9.10575 6.48806C10.2332 5.72015 12.0406 4.70149 12.7894 4.42724C14.0976 3.93358 14.9324 4.3959 14.9238 5.60261C14.9238 6.62127 14.3127 7.6556 13.0906 8.72127C10.9476 10.5862 8.59796 11.5265 9.15739 10.3041C9.22624 10.1552 9.60493 9.72425 10.0094 9.34813C11.1197 8.2903 11.223 8.0709 10.784 7.75746C10.4484 7.51455 9.70821 7.56157 9.21763 7.85933C8.65821 8.19627 7.91804 9.41866 7.91804 9.99067C7.91804 10.5157 8.34837 11.0407 8.87337 11.1504C10.1385 11.4325 13.607 9.45 15.0959 7.60075C15.6209 6.95037 16.1287 6.03358 16.3008 5.43022C16.473 4.82687 16.4816 3.83172 16.3094 3.32239C16.0254 2.45261 15.268 1.78657 14.2094 1.48097C13.5639 1.30075 12.273 1.28508 11.5242 1.44963Z" fill="#ECECEC"/>
<path d="M6.19672 13.791C5.96435 14.0026 5.96435 14.4414 6.21394 14.653C6.64427 15.0134 7.31558 14.7548 7.31558 14.222C7.31558 14.0496 7.24672 13.8851 7.14345 13.791C7.04017 13.697 6.85943 13.6343 6.67009 13.6343C6.48074 13.6343 6.3 13.697 6.19672 13.791Z" fill="#ECECEC"/>
<path d="M11.748 14.0653C11.705 14.081 11.5157 14.1123 11.3435 14.1437L11.0165 14.1907V16.322C11.0165 17.5444 11.0595 18.5787 11.1025 18.7433C11.2316 19.1507 11.6103 19.378 12.2386 19.4172L12.7378 19.4485V19.1272C12.7378 18.8373 12.7206 18.806 12.5226 18.806C12.1095 18.806 12.0407 18.5631 12.0665 17.1918L12.0923 15.9459L12.4193 15.9224C12.7378 15.8989 12.7378 15.891 12.7378 15.5463V15.2015H12.3935H12.0493V14.6138C12.0493 14.034 12.0234 13.9791 11.748 14.0653Z" fill="#ECECEC"/>
<path d="M17.9447 14.081C17.85 14.0966 17.6865 14.128 17.5832 14.1515L17.3853 14.1828V16.4395C17.3853 18.5317 17.3939 18.7041 17.5574 18.9392C17.7639 19.2526 18.091 19.4093 18.659 19.4798L19.1066 19.5347V19.2213C19.1066 18.9313 19.0807 18.9 18.7623 18.7825L18.418 18.6649L18.4008 18.0067C18.3922 17.6463 18.4008 16.7216 18.4094 15.9459C18.4266 15.1701 18.4094 14.4179 18.375 14.2769C18.3148 14.0261 18.2803 14.0104 17.9447 14.081Z" fill="#ECECEC"/>
<path d="M3.09842 15.2328C2.49596 15.3895 2.23776 15.5071 2.23776 15.5933C2.23776 15.6403 2.2894 15.797 2.35826 15.9459L2.48735 16.2201L2.85744 16.0634C3.21891 15.9145 3.81276 15.8597 4.08817 15.9537C4.24309 16.0086 4.47547 16.3769 4.47547 16.5728C4.47547 16.6668 4.35498 16.6903 3.8558 16.6903C3.06399 16.6903 2.65088 16.7922 2.2808 17.0899C1.92793 17.372 1.77301 17.7638 1.83326 18.2261C1.8935 18.7119 2.19473 19.0881 2.73694 19.331C3.13285 19.5034 3.26194 19.5269 3.70088 19.4877C4.29473 19.425 4.73367 19.2761 5.13817 18.994L5.42219 18.7981V17.4112C5.42219 16.1888 5.40498 15.9929 5.25867 15.7813C4.89719 15.2407 3.95047 14.9978 3.09842 15.2328ZM4.43244 17.7481C4.5185 18.3045 4.42383 18.5631 4.07957 18.6963C3.58899 18.8843 3.15867 18.7276 2.96072 18.281C2.71973 17.7716 3.14145 17.4034 3.96768 17.3955H4.37219L4.43244 17.7481Z" fill="#ECECEC"/>
<path d="M9.29512 15.1937C9.03693 15.2642 8.45168 15.5463 8.24512 15.6951C7.99553 15.8754 7.96111 16.134 7.98693 17.803L8.01275 19.4328H8.4775H8.95086V17.7951V16.1575L9.20045 16.0634C9.33816 16.0164 9.63939 15.9694 9.86316 15.9616C10.2763 15.9459 10.2849 15.9381 10.4742 15.5698C10.5861 15.3582 10.6722 15.1701 10.6722 15.1545C10.6722 15.0996 9.51889 15.131 9.29512 15.1937Z" fill="#ECECEC"/>
<path d="M14.287 15.2877C13.96 15.4052 13.6931 15.6638 13.4436 16.1026C13.237 16.4552 13.2112 16.5806 13.2112 17.3172C13.2112 18.0459 13.237 18.1869 13.4263 18.5239C13.8825 19.3388 14.7259 19.6444 15.7931 19.4093C16.1202 19.331 16.4731 19.2213 16.585 19.1586C16.7829 19.041 16.7829 19.0254 16.6452 18.7825C16.5677 18.6414 16.4903 18.5239 16.4817 18.5082C16.4645 18.4925 16.2149 18.5631 15.9136 18.6493C15.4575 18.7903 15.3112 18.806 15.0616 18.7354C14.5624 18.6022 14.2009 18.1086 14.2009 17.5836V17.3955H15.5005H16.8087L16.7485 16.8784C16.6538 16.0243 16.344 15.5306 15.7759 15.3112C15.4575 15.1858 14.6054 15.178 14.287 15.2877ZM15.2768 15.9067C15.4059 15.9537 15.5522 16.0948 15.621 16.2593C15.8534 16.7608 15.8362 16.7765 15.0013 16.753C14.2526 16.7295 14.244 16.7295 14.2698 16.5336C14.3128 16.2672 14.5194 15.9929 14.7431 15.9067C14.9927 15.8127 15.01 15.8127 15.2768 15.9067Z" fill="#ECECEC"/>
<path d="M6.43776 15.3347L6.19678 15.366V17.4034V19.4328H6.71317H7.22956V17.3563V15.2798L6.95415 15.2877C6.79924 15.2955 6.56686 15.319 6.43776 15.3347Z" fill="#ECECEC"/>
</g>
<defs>
<clipPath id="clip0_28_491">
<rect width="21" height="21" rx="3" fill="white"/>
</clipPath>
</defs>
</svg>
