<svg width="19" height="19" viewBox="0 0 19 19" fill="none" xmlns="http://www.w3.org/2000/svg">
<path d="M9.50044 0.253906C6.46044 0.253906 2.78711 2.15391 2.78711 6.96724C2.78711 9.75391 6.58711 15.7072 8.61378 18.3672C8.99378 18.8739 9.75378 18.8739 10.1338 18.3672C12.0338 15.7072 16.0871 9.88057 16.0871 6.96724C16.2138 2.15391 12.5404 0.253906 9.50044 0.253906Z" fill="#6ECD4A"/>
<path d="M14.0595 6.58734C14.0595 8.10734 13.2995 9.50068 12.1595 10.2607L12.9195 11.9073H6.07945L6.83945 10.2607C5.69945 9.50068 4.93945 8.10734 4.93945 6.58734C4.93945 4.05401 6.96612 2.02734 9.49945 2.02734C12.0328 2.02734 14.0595 4.05401 14.0595 6.58734ZM13.1728 6.71401H10.6395C10.6395 6.96734 10.5128 7.22068 10.3861 7.34734L12.1595 9.12068C12.7928 8.48734 13.1728 7.60068 13.1728 6.71401ZM12.0328 9.24734L10.2595 7.47401C10.1328 7.60068 10.0061 7.60068 9.87945 7.72734V10.2607C10.6395 10.134 11.3995 9.75401 12.0328 9.24734ZM8.35945 6.71401H5.82612C5.82612 7.60068 6.20612 8.48734 6.83945 9.12068L8.61279 7.34734C8.48612 7.22068 8.35945 6.96734 8.35945 6.71401ZM6.96612 9.24734C7.59945 9.75401 8.35945 10.134 9.11945 10.2607V7.72734C8.99279 7.60068 8.86612 7.60068 8.73945 7.47401L6.96612 9.24734ZM13.1728 6.46068C13.1728 5.57401 12.7928 4.68734 12.1595 4.05401L10.3861 5.82734C10.5128 5.95401 10.6395 6.20734 10.6395 6.46068H13.1728ZM12.0328 3.92734C11.3995 3.42068 10.5128 3.04068 9.62612 2.91401V5.44734C9.87945 5.44734 10.1328 5.57401 10.2595 5.70068L12.0328 3.92734ZM9.37279 5.44734V2.91401C8.48612 3.04068 7.59945 3.42068 6.96612 3.92734L8.73945 5.70068C8.99279 5.57401 9.11945 5.44734 9.37279 5.44734ZM8.61279 5.82734L6.83945 4.05401C6.20612 4.68734 5.82612 5.57401 5.82612 6.46068H8.35945C8.35945 6.20734 8.48612 6.08068 8.61279 5.82734Z" fill="white"/>
</svg>
