<svg width="19" height="19" viewBox="0 0 19 19" fill="none" xmlns="http://www.w3.org/2000/svg">
<path d="M9.50044 0.253906C6.46044 0.253906 2.78711 2.15391 2.78711 6.96724C2.78711 9.75391 6.58711 15.7072 8.61378 18.3672C8.99378 18.8739 9.75378 18.8739 10.1338 18.3672C12.0338 15.7072 16.0871 9.88057 16.0871 6.96724C16.2138 2.15391 12.5404 0.253906 9.50044 0.253906Z" fill="#85EDCC"/>
<path d="M9.24641 2.40794L10.3864 3.2946H11.1464L12.2864 2.40794C12.4131 2.28127 12.6664 2.40794 12.6664 2.5346V5.06794C12.6664 5.70127 12.2864 5.9546 11.9064 6.3346V9.3746L12.5397 11.1479L13.0464 11.4013C13.2997 11.5279 13.4264 11.7813 13.4264 12.0346C13.4264 12.1613 13.2997 12.4146 13.0464 12.4146H6.71307C5.82641 12.2879 5.06641 11.5279 5.06641 10.5146C5.06641 8.86794 5.44641 7.72794 5.69974 6.84127C5.82641 6.46127 5.95307 6.08127 5.95307 5.9546C5.95307 5.82794 6.07974 5.70127 6.07974 5.5746C6.45974 4.94127 7.34641 5.44794 7.09307 6.08127C7.09307 6.20794 7.09307 6.3346 6.96641 6.3346C6.96641 6.46127 6.83974 6.84127 6.71307 7.22127C6.58641 7.8546 6.33307 8.86794 6.20641 10.2613C6.45974 8.74127 8.10641 7.0946 9.24641 5.9546C9.11974 5.82794 8.86641 5.44794 8.86641 5.06794V2.5346C8.86641 2.40794 9.11974 2.28127 9.24641 2.40794Z" fill="white"/>
</svg>
