<svg width="19" height="19" viewBox="0 0 19 19" fill="none" xmlns="http://www.w3.org/2000/svg">
<path d="M9.50044 0.253906C6.46044 0.253906 2.78711 2.15391 2.78711 6.96724C2.78711 9.75391 6.58711 15.7072 8.61378 18.3672C8.99378 18.8739 9.75378 18.8739 10.1338 18.3672C12.0338 15.7072 16.0871 9.88057 16.0871 6.96724C16.2138 2.15391 12.5404 0.253906 9.50044 0.253906Z" fill="#AF825D"/>
<path d="M5.95312 2.15234V10.8923H9.87979V8.48568H12.2865V10.8923H13.0465V2.15234H5.95312ZM9.11979 10.1323H6.71313V8.48568H9.11979V10.1323ZM9.11979 7.72568H6.71313V6.20568H9.11979V7.72568ZM9.11979 5.31901H6.71313V3.79901H9.11979V5.31901ZM12.2865 7.72568H9.87979V6.20568H12.2865V7.72568ZM12.2865 5.31901H9.87979V3.79901H12.2865V5.31901Z" fill="white"/>
</svg>
