<svg width="19" height="19" viewBox="0 0 19 19" fill="none" xmlns="http://www.w3.org/2000/svg">
<path d="M9.50044 0.253906C6.46044 0.253906 2.78711 2.15391 2.78711 6.96724C2.78711 9.75391 6.58711 15.7072 8.61378 18.3672C8.99378 18.8739 9.75378 18.8739 10.1338 18.3672C12.0338 15.7072 16.0871 9.88057 16.0871 6.96724C16.2138 2.15391 12.5404 0.253906 9.50044 0.253906Z" fill="#6CA3D8"/>
<path d="M4.0539 7.34792C4.68724 5.44792 6.84057 2.28125 10.8939 2.28125C12.9206 2.28125 13.9339 3.04125 13.9339 3.04125C13.9339 3.04125 12.1606 3.04125 11.2739 3.42125L11.1472 3.54792C11.0206 3.80125 10.6406 4.68792 11.1472 5.57458C11.1472 5.70125 11.4006 5.70125 11.5272 5.70125C11.9072 5.57458 12.6672 5.32125 13.3006 4.94125C13.4272 4.81458 13.6806 4.81458 13.8072 5.06792C14.0606 5.82792 14.0606 7.34792 13.8072 8.10792C13.8072 8.36125 13.5539 8.36125 13.3006 8.23458C12.6672 7.72792 11.9072 7.47458 11.5272 7.34792C11.4006 7.34792 11.1472 7.34792 11.1472 7.60125C10.7672 8.48792 11.1472 9.37458 11.2739 9.62792L11.4006 9.75458C12.1606 10.0079 13.9339 10.0079 13.9339 10.0079C13.5539 10.2613 12.2872 10.7679 10.1339 10.7679C6.7139 10.7679 4.8139 8.74125 4.18057 7.98125C3.92724 7.85458 3.92724 7.60125 4.0539 7.34792ZM6.96724 7.72792C7.47391 7.72792 7.98057 7.34792 7.98057 6.71458C7.98057 6.08125 7.47391 5.82792 6.96724 5.82792C6.46057 5.82792 5.9539 6.20792 5.9539 6.84125C5.9539 7.47458 6.46057 7.72792 6.96724 7.72792Z" fill="white"/>
</svg>
