<svg width="19" height="19" viewBox="0 0 19 19" fill="none" xmlns="http://www.w3.org/2000/svg">
<path d="M9.50002 0.253326C6.46002 0.253326 2.78668 2.15333 2.78668 6.96666C2.78668 9.75333 6.58668 15.7067 8.61335 18.3667C8.99335 18.8733 9.75335 18.8733 10.1333 18.3667C12.0333 15.7067 16.0867 9.87999 16.0867 6.96666C16.2133 2.15333 12.54 0.253326 9.50002 0.253326Z" fill="#7986CB"/>
<path d="M5.47003 2.63522C4.97013 2.74312 4.57374 3.14612 4.46803 3.64822C4.42179 3.87064 4.42179 5.36372 4.46803 5.58614C4.56713 6.05961 4.94811 6.4582 5.41497 6.57712C5.50746 6.60134 5.65941 6.61015 5.93689 6.61015H6.32888L6.32447 6.01336L6.31787 5.41437L6.22537 5.38794C6.01176 5.32408 5.79815 5.1413 5.70566 4.9409C5.66822 4.85722 5.65941 4.79335 5.65721 4.61718C5.65721 4.41678 5.66382 4.38595 5.72107 4.26703C5.8444 4.01378 6.06902 3.85302 6.3575 3.81118C6.53808 3.78476 12.4642 3.78696 12.6469 3.81338C12.9266 3.85302 13.1711 4.0292 13.2856 4.27584C13.3362 4.38155 13.3428 4.42559 13.3428 4.61718C13.3428 4.79556 13.334 4.85722 13.2944 4.9409C13.2041 5.1391 12.9883 5.32408 12.7747 5.38794L12.6822 5.41437L12.6756 6.01336L12.6712 6.61015H13.0631C13.3406 6.61015 13.4926 6.60134 13.5851 6.57712C14.0541 6.456 14.4329 6.06181 14.532 5.58614C14.5782 5.36372 14.5782 3.87064 14.532 3.64822C14.4373 3.19017 14.1202 2.83341 13.6687 2.67486L13.497 2.6132L9.55507 2.60879C6.24299 2.60659 5.59115 2.61099 5.47003 2.63522Z" fill="white"/>
<path d="M6.26062 4.30448C6.22099 4.3309 6.16373 4.38816 6.1351 4.43C6.09106 4.49386 6.08445 4.5269 6.09106 4.6348C6.10867 4.87924 6.25402 4.98054 6.58655 4.98054H6.79135L6.79575 7.83677L6.80236 10.6952L6.87063 10.8383C6.98734 11.0806 7.18995 11.2435 7.4476 11.2986C7.61056 11.3338 11.3895 11.3338 11.5525 11.2986C11.8101 11.2435 12.0127 11.0806 12.1294 10.8383L12.1977 10.6952L12.2043 7.83677L12.2087 4.98054H12.4135C12.746 4.98054 12.8914 4.87924 12.909 4.6348C12.9156 4.5269 12.909 4.49386 12.865 4.43C12.8363 4.38816 12.7791 4.3309 12.7394 4.30448L12.6646 4.25383H9.50003H6.3355L6.26062 4.30448ZM9.61675 5.82618C9.73567 5.87683 9.80614 5.97153 9.83476 6.11907L9.85899 6.2512L10.0175 6.26442C10.2025 6.27763 10.2906 6.31727 10.3633 6.41637C10.4338 6.51767 10.4338 6.70265 10.3633 6.80395C10.2708 6.93388 10.2113 6.94929 9.80834 6.9581C9.60794 6.96031 9.42296 6.96911 9.39433 6.97572C9.32826 6.98893 9.25779 7.10785 9.25779 7.20695C9.25779 7.3567 9.3613 7.43377 9.58812 7.45359C10.0748 7.49764 10.4536 7.94028 10.4205 8.42255C10.3985 8.72645 10.2554 8.9709 10.0065 9.13826L9.86339 9.23516L9.84578 9.3805C9.81715 9.62715 9.69823 9.75928 9.50223 9.75928C9.31285 9.75928 9.18512 9.63155 9.15649 9.41353L9.14328 9.29682H8.98913C8.80194 9.29682 8.69183 9.24397 8.62136 9.12064C8.53328 8.96209 8.57732 8.78812 8.73588 8.6714C8.79313 8.62956 8.83718 8.62515 9.20714 8.61414L9.61455 8.60313L9.67841 8.53046C9.7731 8.42696 9.7687 8.30584 9.6674 8.20454C9.60794 8.14508 9.57491 8.12966 9.50664 8.12966C9.38772 8.12966 9.18072 8.07241 9.05739 8.00414C8.93187 7.93587 8.76891 7.77952 8.69844 7.65619C8.44739 7.22897 8.60154 6.65861 9.03537 6.40095C9.13447 6.34149 9.14768 6.32608 9.14768 6.25781C9.14989 6.0464 9.23357 5.89225 9.37891 5.82618C9.4648 5.78875 9.52866 5.78875 9.61675 5.82618Z" fill="white"/>
</svg>
