<svg width="19" height="19" viewBox="0 0 19 19" fill="none" xmlns="http://www.w3.org/2000/svg">
<path d="M9.50044 0.253906C6.46044 0.253906 2.78711 2.15391 2.78711 6.96724C2.78711 9.75391 6.58711 15.7072 8.61378 18.3672C8.99378 18.8739 9.75378 18.8739 10.1338 18.3672C12.0338 15.7072 16.0871 9.88057 16.0871 6.96724C16.2138 2.15391 12.5404 0.253906 9.50044 0.253906Z" fill="#B266ED"/>
<path d="M8.36026 2.40625C7.98026 2.40625 7.72693 2.78625 7.60026 3.16625L7.09359 3.92625H5.57359C4.94026 3.92625 4.43359 4.43292 4.43359 5.06625V8.99292C4.43359 9.62625 4.94026 10.1329 5.57359 10.1329H13.5536C14.1869 10.1329 14.6936 9.62625 14.6936 8.99292V5.19292C14.6936 4.55958 14.1869 4.05292 13.5536 4.05292H11.9069L11.5269 3.16625C11.2736 2.78625 11.1469 2.40625 10.6403 2.40625H8.36026ZM5.57359 4.81292C5.82693 4.81292 5.95359 4.93958 5.95359 5.19292C5.95359 5.44625 5.70026 5.57292 5.57359 5.57292C5.44693 5.57292 5.19359 5.31958 5.19359 5.19292C5.19359 5.06625 5.32026 4.81292 5.57359 4.81292ZM9.50026 4.81292C10.7669 4.81292 11.9069 5.82625 11.9069 7.21958C11.9069 8.61292 10.7669 9.49958 9.50026 9.49958C8.23359 9.49958 7.09359 8.48625 7.09359 7.09292C7.09359 5.69958 8.23359 4.81292 9.50026 4.81292ZM9.50026 5.95292C8.86693 5.95292 8.36026 6.45958 8.36026 7.09292C8.36026 7.72625 8.86693 8.23292 9.50026 8.23292C10.1336 8.23292 10.6403 7.72625 10.6403 7.09292C10.6403 6.45958 10.1336 5.95292 9.50026 5.95292Z" fill="white"/>
</svg>
