<svg width="19" height="19" viewBox="0 0 19 19" fill="none" xmlns="http://www.w3.org/2000/svg">
<path d="M9.50044 0.253906C6.46044 0.253906 2.78711 2.15391 2.78711 6.96724C2.78711 9.75391 6.58711 15.7072 8.61378 18.3672C8.99378 18.8739 9.75378 18.8739 10.1338 18.3672C12.0338 15.7072 16.0871 9.88057 16.0871 6.96724C16.2138 2.15391 12.5404 0.253906 9.50044 0.253906Z" fill="#F29900"/>
<path d="M7.85245 4.1813L8.35911 7.9813C8.35911 8.3613 8.61245 8.7413 9.11911 8.7413H9.87911C10.2591 8.7413 10.6391 8.48797 10.6391 7.9813L11.1458 4.1813C11.1458 3.16797 9.49911 3.16797 9.49911 3.16797C9.49911 3.16797 7.85245 3.16797 7.85245 4.1813ZM6.58578 4.68797C5.44578 4.68797 5.44578 5.44797 5.44578 5.44797L6.20578 8.3613H7.34578C7.59911 8.3613 7.97911 8.10797 7.97911 7.85464L7.34578 4.68797H6.58578ZM5.06578 6.4613C4.81245 6.4613 4.55911 6.58797 4.30578 6.71464C4.17911 6.96797 4.05245 7.2213 3.92578 7.47464V9.1213H4.55911C4.93911 9.1213 5.31911 8.86797 5.31911 8.48797L5.06578 6.4613ZM12.4124 4.68797C13.5524 4.68797 13.5524 5.44797 13.5524 5.44797L12.7924 8.3613H11.6524C11.3991 8.3613 11.1458 8.10797 11.1458 7.72797L11.7791 4.5613H12.4124V4.68797ZM13.9324 6.4613C14.1858 6.4613 14.4391 6.58797 14.6924 6.71464C14.8191 6.8413 14.9458 7.09464 15.0724 7.34797V8.99464H14.4391C14.0591 8.99464 13.6791 8.7413 13.6791 8.3613L13.9324 6.4613Z" fill="white"/>
</svg>
