<svg width="21" height="21" viewBox="0 0 21 21" fill="none" xmlns="http://www.w3.org/2000/svg">
<rect width="21" height="21" rx="3" fill="white"/>
<path d="M16.7939 15.273H4.01566C3.36372 15.273 2.80957 14.7819 2.80957 14.1373V2.13569C2.80957 1.5218 3.33109 1 4.01566 1H16.7939C17.4459 1 17.9999 1.49107 17.9999 2.13569V14.1679C17.9999 14.7819 17.4459 15.273 16.7939 15.273Z" fill="#F16522"/>
<path d="M3.78742 19.1712C3.55919 19.1712 3.3637 19.1099 3.23327 18.9257C3.10284 18.7723 3.03768 18.5574 3.03768 18.3117C3.03768 18.0356 3.10284 17.8206 3.23327 17.6672C3.3637 17.5137 3.55919 17.4523 3.78742 17.4523C4.01554 17.4523 4.1785 17.5445 4.30893 17.6978C4.43936 17.882 4.50453 18.0662 4.50453 18.3117C4.50453 18.5574 4.43936 18.7723 4.30893 18.9257C4.1785 19.1099 4.01554 19.1712 3.78742 19.1712ZM3.78742 17.2681C3.55919 17.2681 3.3637 17.3296 3.23327 17.4217C3.16811 17.483 3.10284 17.5445 3.07031 17.6058V16.5622H2.80945V19.3247H3.03768V19.0178C3.10284 19.1099 3.13547 19.1712 3.23327 19.2019C3.39623 19.3247 3.55919 19.3861 3.78742 19.3861C4.0807 19.3861 4.30893 19.294 4.47189 19.0792C4.63496 18.895 4.73275 18.6187 4.73275 18.3117C4.73275 18.0048 4.63496 17.7593 4.50453 17.5751C4.30893 17.3909 4.0807 17.2681 3.78742 17.2681Z" fill="#231F20"/>
<path d="M5.15653 18.4652C5.25432 18.4039 5.38465 18.3732 5.58025 18.3732C5.841 18.3732 6.0366 18.3732 6.16703 18.3425C6.23219 18.3425 6.26482 18.3118 6.29746 18.3118V18.4959C6.29746 18.68 6.23219 18.8336 6.10186 18.9564C5.97143 19.0791 5.77584 19.1406 5.54761 19.1406C5.35212 19.1406 5.22169 19.1099 5.15653 19.0178C5.09136 18.9564 5.0262 18.8642 5.0262 18.7415C4.99357 18.6494 5.05873 18.5267 5.15653 18.4652ZM6.49305 19.1099V19.0791V17.8821C6.49305 17.6672 6.42778 17.5137 6.26482 17.4216C6.13439 17.3296 5.97143 17.2988 5.74321 17.2988C5.48245 17.2988 5.28685 17.3603 5.12389 17.483C4.96093 17.6058 4.89577 17.79 4.89577 17.9742V18.0355H5.12389V17.9742C5.12389 17.8207 5.18906 17.6979 5.28685 17.6058C5.38465 17.5137 5.54761 17.483 5.74321 17.483C5.97143 17.483 6.10186 17.5137 6.16703 17.6058C6.23219 17.6979 6.26482 17.79 6.26482 17.9435C6.26482 18.0969 6.19966 18.1277 6.13439 18.1277C6.0366 18.1583 5.841 18.1891 5.54761 18.1891C5.31949 18.1891 5.15653 18.2197 5.0262 18.3118C4.86314 18.4039 4.79797 18.5573 4.79797 18.8029C4.79797 18.987 4.86314 19.1406 4.99357 19.2326C5.12389 19.3248 5.31949 19.3861 5.51508 19.3861C5.71068 19.3861 5.90627 19.3248 6.06923 19.2326C6.13439 19.2019 6.19966 19.1406 6.26482 19.0791C6.26482 19.1712 6.29746 19.2326 6.32999 19.2633C6.39525 19.2939 6.46042 19.3248 6.59085 19.3248H6.72117V19.1406H6.55821C6.52558 19.1406 6.52558 19.1406 6.49305 19.1099Z" fill="#231F20"/>
<path d="M7.66655 17.2681C7.47096 17.2681 7.27536 17.3296 7.14504 17.4216C7.07977 17.4523 7.04724 17.5137 7.0146 17.5444V17.2988H6.78638V19.3247H7.0146V18.189C7.0146 17.9741 7.07977 17.7899 7.17756 17.6671C7.308 17.5444 7.43843 17.4523 7.66655 17.4523C7.82951 17.4523 7.95994 17.4829 8.09027 17.6058C8.18806 17.6979 8.25323 17.8207 8.25323 18.0048V19.3247H8.44882V18.0048C8.44882 17.7593 8.38366 17.5751 8.2207 17.4523C8.09027 17.3296 7.89467 17.2681 7.66655 17.2681Z" fill="#231F20"/>
<path d="M9.03556 18.8336C8.90523 18.6801 8.83996 18.496 8.83996 18.2811C8.83996 18.0662 8.90523 17.8513 9.03556 17.7286C9.16588 17.5752 9.32895 17.5137 9.55707 17.5137C9.7853 17.5137 9.94826 17.5752 10.0787 17.7286C10.209 17.8821 10.2743 18.0662 10.2743 18.2811C10.2743 18.496 10.209 18.6801 10.0787 18.8336C9.94826 18.987 9.7853 19.0484 9.55707 19.0484C9.32895 19.0178 9.16588 18.9564 9.03556 18.8336ZM10.2743 17.6058C10.2416 17.5444 10.1765 17.483 10.1112 17.4524C9.94826 17.3295 9.7853 17.2988 9.5897 17.2988C9.29631 17.2988 9.06809 17.391 8.90523 17.5752C8.74217 17.7593 8.677 18.0049 8.677 18.2811C8.677 18.5574 8.74217 18.7722 8.90523 18.9564C9.06809 19.1406 9.29631 19.2326 9.5897 19.2326C9.7853 19.2326 9.98089 19.1712 10.1439 19.0791C10.209 19.0178 10.2743 18.987 10.3394 18.9257V19.2019C10.3394 19.4167 10.2743 19.5703 10.1765 19.6623C10.0461 19.7545 9.8831 19.8158 9.65487 19.8158C9.45927 19.8158 9.32895 19.7851 9.19852 19.6931C9.10072 19.6316 9.03556 19.5089 9.03556 19.3554V19.2939H8.80743V19.3554C8.80743 19.5703 8.90523 19.7545 9.03556 19.8465C9.19852 19.9386 9.39411 20 9.62223 20C9.91562 20 10.1439 19.9386 10.2743 19.7851C10.4372 19.6316 10.5024 19.4475 10.5024 19.1712V17.2682H10.2743V17.6058Z" fill="#231F20"/>
<path d="M10.7633 16.5929H10.9914V19.3555H10.7633V16.5929Z" fill="#231F20"/>
<path d="M11.5129 18.4652C11.6107 18.4039 11.741 18.3732 11.9366 18.3732C12.1974 18.3732 12.393 18.3732 12.5234 18.3425C12.5885 18.3425 12.6213 18.3118 12.6538 18.3118V18.4959C12.6538 18.68 12.5885 18.8336 12.4582 18.9564C12.3278 19.0791 12.1322 19.1406 11.9041 19.1406C11.7085 19.1406 11.5781 19.1099 11.5129 19.0178C11.4152 18.987 11.3825 18.9257 11.3825 18.8029C11.3825 18.6494 11.4152 18.5267 11.5129 18.4652ZM12.8494 19.1099V19.0791V17.8821C12.8494 17.6672 12.7841 17.5137 12.6213 17.4216C12.4908 17.3296 12.3278 17.2988 12.0997 17.2988C11.8389 17.2988 11.6433 17.3603 11.4803 17.483C11.3173 17.6058 11.2521 17.79 11.2521 17.9742V18.0355H11.4803V17.9742C11.4803 17.8207 11.5454 17.6979 11.6433 17.6058C11.741 17.5137 11.9041 17.483 12.0997 17.483C12.3278 17.483 12.4582 17.5137 12.5234 17.6058C12.5885 17.6979 12.6213 17.79 12.6213 17.9435C12.6213 18.0969 12.556 18.1277 12.4908 18.1277C12.393 18.1583 12.1974 18.1891 11.9041 18.1891C11.6758 18.1891 11.5129 18.2197 11.3825 18.3118C11.2196 18.4039 11.1544 18.588 11.1544 18.8029C11.1544 18.987 11.2196 19.1406 11.3499 19.2326C11.4803 19.3248 11.6758 19.3861 11.8714 19.3861C12.067 19.3861 12.2626 19.3248 12.4257 19.2326C12.4908 19.2019 12.556 19.1406 12.6213 19.0791C12.6213 19.1712 12.6538 19.2326 12.6864 19.2633C12.7516 19.2939 12.8169 19.3248 12.9472 19.3248H13.0776V19.1406H12.9146C12.9146 19.1406 12.882 19.1406 12.8494 19.1099Z" fill="#231F20"/>
<path d="M13.1754 16.5929H13.4035V19.3555H13.1754V16.5929Z" fill="#231F20"/>
<path d="M13.6646 16.5929H13.8927V17.084H13.6646V16.5929Z" fill="#231F20"/>
<path d="M13.6646 17.3296H13.8927V19.3555H13.6646V17.3296Z" fill="#231F20"/>
<path d="M15.066 17.2681C14.8704 17.2681 14.6748 17.3296 14.5445 17.4216C14.4792 17.4523 14.4467 17.5137 14.414 17.5444V17.2988H14.1859V19.3247H14.414V18.189C14.414 17.9741 14.4792 17.7899 14.5771 17.6671C14.7075 17.5444 14.8379 17.4523 15.066 17.4523C15.2289 17.4523 15.3594 17.4829 15.4897 17.6058C15.5876 17.6979 15.6528 17.8207 15.6528 18.0048V19.3247H15.8809V18.0048C15.8809 17.7593 15.8157 17.5751 15.6528 17.4523C15.4897 17.3296 15.2941 17.2681 15.066 17.2681Z" fill="#231F20"/>
<path d="M16.9569 18.0969L17.9674 17.3296L17.6415 17.2988L16.3376 18.3117V16.5929H16.142V19.3248H16.3376V18.5881L16.794 18.2503L17.7066 19.3248H18L16.9569 18.0969Z" fill="#231F20"/>
<path d="M12.5236 14.5363C14.6098 12.2649 15.7834 9.62519 16.3702 6.70919C16.4353 6.34084 16.3049 5.97258 16.2723 5.5735C16.2071 5.5735 16.1418 5.54277 16.0767 5.54277C15.9464 5.69632 15.8159 5.84977 15.6855 6.00321C15.6203 6.06457 15.6203 6.15666 15.5878 6.21802C15.0662 7.84488 14.3164 9.31829 13.1104 10.6688C12.2954 11.5589 11.8065 12.7254 11.2523 13.7997C10.8285 14.5669 10.8285 14.6284 9.81799 14.5057C10.1114 13.8918 10.3721 13.2779 10.7308 12.7254C11.6435 11.344 12.654 10.0243 13.5992 8.64295C14.0231 7.99833 14.3164 7.29235 14.7076 6.64773C15.0336 6.12593 15.4899 5.69632 15.7834 5.17442C16.0767 4.68335 16.3049 4.13082 16.5005 3.60902C16.6635 3.14857 16.7613 2.6575 16.8591 2.16633C16.9242 2.16633 16.9895 2.19706 17.0872 2.19706C16.9895 2.71886 16.8591 3.24066 16.7939 3.79319C16.6961 4.37635 16.6635 4.99034 16.5983 5.5735C16.5657 5.88049 16.4679 6.24875 17.022 6.4022C17.1198 6.43293 17.185 6.86264 17.1523 7.04682C16.7939 8.30532 16.4679 9.59446 15.979 10.8222C15.6855 11.5589 15.164 12.2343 14.7403 12.9402C14.5772 13.1857 14.4142 13.4007 14.2839 13.6769C13.7623 14.6898 13.7297 14.7205 12.5236 14.5363Z" fill="black"/>
<path d="M11.8064 1.73662C12.0672 2.28915 11.7739 2.56541 11.5456 2.87231C10.7633 3.88528 9.91574 4.86752 9.2638 5.97248C8.67701 6.95473 8.22066 7.99833 7.82947 9.07266C7.47092 10.1163 6.91677 11.0679 6.23219 11.9579C5.67805 12.664 5.15653 13.4007 4.60228 14.1066C4.47195 14.2908 4.30899 14.4442 4.17856 14.5978C4.1134 14.5669 4.08076 14.5669 4.0156 14.5363C4.0156 14.3214 3.98297 14.1066 4.04813 13.9224C4.34152 13.2472 4.60228 12.5412 4.96094 11.8966C5.51509 10.9451 5.71068 9.96281 5.54761 8.88848C5.31949 7.4459 5.51509 6.03384 5.87364 4.65262C5.97144 4.2229 6.00407 3.76246 6.06923 3.24066C4.96094 3.60901 4.50448 4.49917 3.65694 5.17442C3.55915 4.59126 3.46135 4.19217 3.98297 3.79319C4.73271 3.21003 5.38465 2.53468 6.1344 1.95152C6.32999 1.79798 6.62338 1.76735 7.0472 1.6139C6.91677 2.07424 6.85161 2.35051 6.78634 2.62677C6.52558 3.79319 6.26483 4.99034 6.06923 6.15666C5.97144 6.70919 6.00407 7.26172 6.0366 7.81415C6.06923 8.61222 6.16703 9.41028 6.26483 10.2697C6.85161 10.2084 7.11237 9.8401 7.27533 9.37965C7.73168 8.30532 8.1554 7.20026 8.64438 6.12593C9.2638 4.77543 9.91574 3.45557 11.1545 2.47332C11.4152 2.35051 11.5456 2.07424 11.8064 1.73662Z" fill="black"/>
<path d="M5.58032 14.4749C5.74328 14.1679 5.87371 13.8918 6.03667 13.6155C6.75378 12.5718 7.63395 11.6203 8.22074 10.5153C9.16607 8.79639 10.47 7.35381 11.7086 5.84976C11.8716 5.63486 12.0346 5.38932 12.0672 5.14379C12.2302 4.28426 12.6866 3.57828 13.3385 2.93376C13.6645 2.59604 13.9579 2.25842 14.4143 1.95152C14.2512 2.22779 14.1209 2.56541 13.8928 2.74959C13.1104 3.39411 12.7517 4.19217 12.491 5.11306C12.2628 5.88049 11.7739 6.55574 11.4153 7.29235C11.0241 8.05978 10.6329 8.82712 10.2744 9.59446C9.42683 11.3134 8.35106 12.8788 6.81905 14.1373C6.49302 14.4443 6.167 14.6898 5.58032 14.4749Z" fill="black"/>
<path d="M9.32898 13.063C9.81786 12.357 10.5677 11.6818 10.8285 10.8837C11.2197 9.68656 11.9041 8.5816 12.1649 7.44591C12.5235 5.75759 13.5015 4.52991 14.5772 3.2714C14.8705 2.93378 15.0987 2.53469 15.3269 2.10498C15.4899 1.76736 15.7507 1.7059 16.044 1.82872C16.1092 1.85944 16.0767 2.25843 15.9789 2.38125C15.4899 3.08722 14.9032 3.76247 14.4141 4.49918C13.9578 5.1437 13.5992 5.84968 13.208 6.55575C12.8496 7.16964 12.4909 7.7528 12.1976 8.39742C11.839 9.1033 11.4804 9.80938 11.2522 10.5767C10.9589 11.7124 10.2417 12.4798 9.32898 13.063Z" fill="black"/>
<path d="M9.23112 1.82871C8.51401 2.65751 8.12282 3.51693 7.92723 4.49918C7.699 5.57351 7.24265 6.58638 6.91673 7.62998C6.85146 7.62998 6.81893 7.59935 6.75366 7.59935C6.81893 7.26173 6.88409 6.95473 6.94926 6.61711C7.27528 5.32797 7.56867 4.0081 7.92723 2.7496C8.15535 1.89007 8.38358 1.76735 9.23112 1.82871Z" fill="black"/>
<path d="M17.1197 10.9144C17.4457 13.0017 16.8589 14.5056 15.6528 14.5364C16.1417 13.3086 16.6308 12.1114 17.1197 10.9144Z" fill="black"/>
<path d="M4.92851 5.05166C4.83072 5.20511 4.73292 5.38928 4.60249 5.54273C4.01581 6.24871 3.88538 7.04678 3.88538 7.93693C3.88538 8.58155 3.85275 9.2568 3.82022 9.90142C3.82022 9.9935 3.75495 10.0856 3.65715 10.1777C3.72242 8.36674 3.13564 6.46362 4.76555 4.9903C4.83072 5.02103 4.86335 5.02103 4.92851 5.05166Z" fill="black"/>
<path d="M12.9146 1.85943C12.3605 3.1793 12.0671 4.62198 10.9261 5.60423C11.5129 4.37635 12.1322 3.05648 12.7517 1.76734C12.7842 1.79807 12.8495 1.8287 12.9146 1.85943Z" fill="black"/>
<path d="M3.68962 2.84167C3.59182 2.04361 3.75478 1.85943 4.40672 1.8287C4.1785 2.1357 3.95037 2.44269 3.68962 2.84167Z" fill="black"/>
</svg>
