<svg width="19" height="19" viewBox="0 0 19 19" fill="none" xmlns="http://www.w3.org/2000/svg">
<path d="M9.50044 0.253906C6.46044 0.253906 2.78711 2.15391 2.78711 6.96724C2.78711 9.75391 6.58711 15.7072 8.61378 18.3672C8.99378 18.8739 9.75378 18.8739 10.1338 18.3672C12.0338 15.7072 16.0871 9.88057 16.0871 6.96724C16.2138 2.15391 12.5404 0.253906 9.50044 0.253906Z" fill="#7986CB"/>
<path d="M4.93997 3.16797C4.55997 3.16797 4.30664 3.4213 4.30664 3.8013V8.7413C4.30664 9.1213 4.55997 9.37464 4.93997 9.37464H13.9333C14.3133 9.37464 14.6933 9.1213 14.6933 8.7413V3.92797C14.6933 3.54797 14.44 3.29464 13.9333 3.29464H4.93997V3.16797ZM4.93997 3.92797H5.95331C6.20664 3.92797 6.33331 4.05464 6.33331 4.1813C6.33331 4.43464 6.20664 4.5613 5.95331 4.5613C5.69997 4.5613 5.69997 4.43464 5.69997 4.1813L5.31997 4.5613C5.57331 4.5613 5.69997 4.68797 5.69997 4.9413C5.69997 5.19464 5.57331 5.3213 5.31997 5.3213C5.06664 5.3213 4.93997 5.19464 4.93997 4.9413V3.92797ZM9.49997 3.92797C10.5133 3.92797 11.2733 5.06797 11.2733 6.33464C11.2733 7.72797 10.5133 8.7413 9.49997 8.7413C8.48664 8.7413 7.72664 7.72797 7.72664 6.33464C7.72664 4.9413 8.48664 3.92797 9.49997 3.92797ZM13.0466 3.92797H14.06V4.9413C14.06 5.19464 13.9333 5.3213 13.68 5.3213C13.4266 5.3213 13.3 5.19464 13.3 4.9413C13.3 4.68797 13.4266 4.5613 13.68 4.5613L13.3 4.1813C13.3 4.43464 13.1733 4.5613 12.92 4.5613C12.6666 4.5613 12.6666 4.43464 12.6666 4.1813C12.6666 4.05464 12.7933 3.92797 13.0466 3.92797ZM9.49997 4.9413C9.24664 4.9413 9.11997 5.06797 8.99331 5.06797H9.87997C9.87997 5.06797 9.75331 4.9413 9.49997 4.9413ZM8.86664 5.3213C8.86664 5.44797 8.86664 5.44797 8.86664 5.44797H10.1333V5.3213H8.86664ZM8.73997 5.57464V5.7013H10.1333V5.57464H8.73997ZM8.73997 5.95464V6.0813H10.1333V5.95464H8.73997ZM8.73997 6.33464V6.4613H10.1333V6.33464H8.73997ZM8.73997 6.71464L8.61331 6.8413H10.0066L10.1333 6.71464H8.73997ZM8.48664 6.96797C8.48664 6.96797 8.48664 7.09464 8.61331 7.09464H10.1333L9.87997 6.96797H8.48664ZM5.31997 7.34797C5.57331 7.34797 5.69997 7.47464 5.69997 7.72797C5.69997 7.9813 5.57331 8.10797 5.31997 8.10797L5.69997 8.48797C5.69997 8.23464 5.82664 8.10797 6.07997 8.10797C6.33331 8.10797 6.33331 8.23464 6.33331 8.3613C6.33331 8.48797 6.20664 8.7413 6.07997 8.7413H4.93997V7.72797C4.93997 7.47464 5.06664 7.34797 5.31997 7.34797ZM8.61331 7.34797C8.61331 7.34797 8.61331 7.47464 8.73997 7.47464H10.26C10.26 7.34797 10.3866 7.34797 10.3866 7.34797H8.61331ZM13.68 7.34797C13.9333 7.34797 14.06 7.47464 14.06 7.72797V8.7413H13.0466C12.7933 8.7413 12.6666 8.61464 12.6666 8.3613C12.6666 8.10797 12.7933 7.9813 13.0466 7.9813C13.3 7.9813 13.4266 8.10797 13.4266 8.3613L13.8066 7.9813C13.5533 7.9813 13.4266 7.85464 13.4266 7.6013C13.3 7.47464 13.4266 7.34797 13.68 7.34797ZM8.86664 7.72797C8.86664 7.85464 8.99331 7.85464 8.99331 7.85464H10.0066C10.1333 7.85464 10.1333 7.72797 10.26 7.72797H8.86664Z" fill="white"/>
</svg>
