<svg width="19" height="19" viewBox="0 0 19 19" fill="none" xmlns="http://www.w3.org/2000/svg">
<path d="M9.50044 0.253906C6.46044 0.253906 2.78711 2.15391 2.78711 6.96724C2.78711 9.75391 6.58711 15.7072 8.61378 18.3672C8.99378 18.8739 9.75378 18.8739 10.1338 18.3672C12.0338 15.7072 16.0871 9.88057 16.0871 6.96724C16.2138 2.15391 12.5404 0.253906 9.50044 0.253906Z" fill="#C69774"/>
<path d="M9.49939 2.15234C8.23272 2.15234 4.93939 2.27901 5.31939 2.65901L9.24605 6.71234V9.24568C9.24605 9.87901 7.34605 9.62568 7.34605 10.5123H11.9061C11.9061 9.49901 10.0061 9.87901 10.0061 9.24568V6.71234L13.9327 2.65901C14.0594 2.27901 10.7661 2.15234 9.49939 2.15234ZM9.49939 2.78568C11.1461 2.78568 12.5394 2.91234 12.5394 2.91234L12.0327 3.41901H6.96605L6.45939 2.91234C6.45939 2.91234 7.85272 2.78568 9.49939 2.78568Z" fill="white"/>
</svg>
