<svg width="21" height="21" viewBox="0 0 21 21" fill="none" xmlns="http://www.w3.org/2000/svg">
<g clip-path="url(#clip0_606_16)">
<path d="M6.08923 5.03804C7.04334 4.16086 8.42529 2.89047 9.15224 2.22124C9.88297 1.54824 10.4925 1 10.5077 1C10.5228 1 11.2233 1.6352 12.0638 2.40651C12.9043 3.1816 14.2825 4.45577 15.1306 5.23465C16.1831 6.20257 16.6716 6.67518 16.664 6.71677C16.6564 6.75458 16.4974 6.95119 16.3119 7.15914C16.1264 7.36709 15.9408 7.53724 15.9068 7.53724C15.8689 7.54102 14.9981 6.76592 13.919 5.77532C12.8589 4.80362 11.6663 3.70715 11.2687 3.33662C10.8674 2.96609 10.5266 2.66361 10.5115 2.66361C10.4925 2.66361 9.44377 3.61641 8.17162 4.78472C6.89947 5.95302 5.69546 7.06084 5.49101 7.24232C5.24112 7.47296 5.10861 7.57126 5.07075 7.55236C5.04046 7.53345 4.86251 7.35197 4.66941 7.14402C4.46875 6.92472 4.32866 6.73946 4.33623 6.70165C4.3438 6.66762 5.13133 5.919 6.08923 5.03804Z" fill="#23A885"/>
<path d="M6.19524 7.8019C6.3429 7.66579 7.36895 6.71677 8.47451 5.69214C9.57629 4.67129 10.4925 3.8357 10.5077 3.8357C10.5228 3.8357 11.1816 4.43309 11.9691 5.16659C12.7529 5.89631 13.7865 6.85289 14.2598 7.29147C14.9451 7.92667 15.1268 8.11572 15.1571 8.22158C15.176 8.29342 15.195 8.92484 15.1987 9.62053C15.2025 10.4637 15.1912 10.993 15.1609 11.2085C15.1344 11.3862 15.0965 11.5601 15.0776 11.598C15.0587 11.632 15.0511 11.6774 15.0624 11.7C15.0738 11.7227 15.07 11.7379 15.0549 11.7379C15.0359 11.7379 15.0246 11.3598 15.0246 10.8985C15.0246 10.2557 15.0094 10.0289 14.9716 9.94191C14.9413 9.88141 14.9224 9.8058 14.9224 9.78311C14.9261 9.75664 14.9148 9.73396 14.8921 9.73396C14.8693 9.73396 14.8618 9.71883 14.8731 9.69615C14.8845 9.67346 14.8618 9.58272 14.8277 9.4882C14.7898 9.39367 14.7444 9.3294 14.7293 9.34452C14.7103 9.35965 14.7065 9.3483 14.7217 9.31806C14.7368 9.28781 14.6876 9.14413 14.6157 8.99668C14.54 8.853 14.3923 8.60346 14.2825 8.44844C14.1727 8.29342 13.9114 7.99473 13.6994 7.78678C13.4874 7.57883 13.1959 7.32928 13.052 7.23476C12.9081 7.13646 12.6809 7.00412 12.5446 6.93607C12.4083 6.86801 12.1282 6.75836 11.9199 6.68652C11.7117 6.61847 11.3785 6.53529 11.1816 6.50126C10.9847 6.47101 10.6781 6.44455 10.5001 6.44455C10.3222 6.44455 10.0155 6.47101 9.8186 6.50126C9.62172 6.53529 9.27339 6.62603 9.04244 6.70165C8.81148 6.78105 8.48208 6.92472 8.30413 7.01925C8.12618 7.11755 7.84222 7.3066 7.67184 7.44271C7.49768 7.57883 7.36516 7.7036 7.37274 7.7225C7.3841 7.73763 7.34245 7.77922 7.27808 7.81702C7.2175 7.85105 7.06227 8.01363 6.93733 8.17621C6.8086 8.33501 6.64958 8.55431 6.58521 8.65639C6.51706 8.76226 6.39969 8.98911 6.32018 9.16682C6.23689 9.34452 6.17252 9.53357 6.16874 9.59028C6.16495 9.64322 6.1498 9.67724 6.12709 9.6659C6.10437 9.65078 6.10058 9.6659 6.11952 9.70749C6.13466 9.74152 6.13087 9.77177 6.10816 9.77177C6.08544 9.77177 6.07787 9.79445 6.08544 9.82092C6.0968 9.84361 6.08923 9.8852 6.0703 9.9041C6.04758 9.92679 6.00972 10.0856 5.97564 10.2633C5.93399 10.5166 5.93021 10.596 5.96807 10.6338C6.00214 10.6716 6.00214 10.6905 5.96428 10.7283C5.93778 10.7548 5.91885 10.8191 5.91885 10.8796C5.91885 10.9439 5.94914 11.0044 6.00593 11.0384C6.07408 11.0875 6.22931 11.0951 7.77407 11.0762V11.2766C7.77407 11.3824 7.80057 11.5261 7.83086 11.5866C7.86115 11.6471 7.88008 11.7189 7.86872 11.7379C7.85737 11.7605 7.89901 11.9004 7.96338 12.0517C8.02396 12.1991 8.15647 12.4411 8.2587 12.5886C8.36093 12.736 8.50859 12.9175 8.59188 13.0007C8.67139 13.0801 8.8342 13.2086 8.94778 13.288C9.06137 13.3674 9.25068 13.4733 9.36426 13.5225C9.47785 13.5754 9.67473 13.6472 9.79967 13.685C9.96248 13.738 10.1556 13.7569 10.4812 13.7569C10.8636 13.7607 10.9847 13.7455 11.246 13.6661C11.4202 13.6132 11.5678 13.5829 11.5792 13.6019C11.5905 13.617 11.564 13.6926 11.5224 13.772C11.4845 13.8476 11.4504 13.8968 11.4504 13.8741C11.4467 13.8514 11.3028 14.0972 11.1248 14.4148C10.9317 14.755 10.8144 15.0084 10.8295 15.0386C10.8497 15.0689 10.8434 15.0752 10.8106 15.0575C10.7803 15.0348 10.6894 15.152 10.5304 15.4167C10.4017 15.6284 10.2578 15.8969 10.2124 16.0103C10.1669 16.1237 10.1026 16.3544 10.0685 16.5207C10.0268 16.7173 10.0193 16.8346 10.0458 16.861C10.0685 16.8875 10.0647 16.914 10.0344 16.948C10.0041 16.9807 9.9915 17.1194 9.99655 17.3639C9.99655 17.5643 10.0268 17.8932 10.0609 18.0898C10.095 18.2864 10.1669 18.604 10.2199 18.7893C10.2729 18.9783 10.3297 19.1485 10.3487 19.1674C10.3676 19.1901 10.3752 19.2279 10.3638 19.2544C10.3562 19.277 10.3638 19.2997 10.3865 19.2997C10.4092 19.2997 10.413 19.33 10.3979 19.3678C10.3752 19.4169 10.379 19.4245 10.4244 19.3942C10.4698 19.364 10.4736 19.3678 10.4471 19.4131C10.4282 19.4472 10.4055 19.4547 10.3903 19.4321C10.3752 19.4131 10.201 19.1901 10.0041 18.9405C9.81103 18.691 9.63687 18.4717 9.62172 18.449C9.60279 18.4301 9.44377 18.207 9.26203 17.9575C9.0803 17.7079 8.72061 17.19 8.46315 16.8043C8.20569 16.4186 7.85358 15.8666 7.67942 15.5755C7.50904 15.2844 7.24401 14.8155 7.09256 14.5357C6.94111 14.256 6.75938 13.8968 6.68744 13.7417C6.6155 13.5867 6.48299 13.2805 6.39212 13.0612C6.30504 12.8419 6.17631 12.494 6.10816 12.2861C6.04001 12.0781 5.97185 11.8929 5.95292 11.8702C5.93778 11.8513 5.93021 11.8173 5.94157 11.7946C5.95292 11.7757 5.94157 11.6811 5.91506 11.5866C5.89235 11.4921 5.85827 11.0497 5.83934 10.6036C5.82419 10.1574 5.80905 9.76421 5.80905 9.73396C5.80526 9.70371 5.81662 9.35586 5.82798 8.95887C5.83934 8.56565 5.86206 8.1989 5.88477 8.14597C5.9037 8.09303 6.04379 7.93801 6.19524 7.8019Z" fill="#23A885"/>
<g filter="url(#filter0_d_606_16)">
<path d="M9.04552 6.69864C9.27648 6.61924 9.60587 6.53227 9.78382 6.50203C9.96177 6.47178 10.2685 6.44909 10.4653 6.44531C10.6622 6.44531 10.9878 6.468 11.1847 6.49825C11.3816 6.53227 11.7148 6.61545 11.923 6.68351C12.1312 6.75535 12.4114 6.865 12.5477 6.93305C12.684 7.00111 12.9112 7.13344 13.0551 7.23175C13.1989 7.32627 13.4905 7.57581 13.7025 7.78376C13.9145 7.99171 14.1758 8.29041 14.2856 8.44543C14.3954 8.60045 14.543 8.84999 14.6188 8.99366C14.6907 9.14112 14.7399 9.28479 14.7248 9.31504C14.7096 9.34529 14.7134 9.35663 14.7323 9.34151C14.7475 9.32638 14.7929 9.39066 14.827 9.48518C14.8649 9.57971 14.8876 9.67045 14.8762 9.69314C14.8649 9.71582 14.8724 9.73094 14.8951 9.73094C14.9179 9.73094 14.9292 9.75363 14.9254 9.7801C14.9254 9.80278 14.9444 9.8784 14.9747 9.9389C15.0163 10.0259 15.0277 10.2678 15.0239 11.9428L14.88 12.3776C14.8005 12.6158 14.6604 12.9901 14.5658 13.2094C14.4749 13.4287 14.2856 13.8295 14.1493 14.0979C14.013 14.3664 13.7858 14.7936 13.6457 15.0432C13.5056 15.2927 13.2557 15.7086 13.0967 15.9695C12.9339 16.2304 12.6651 16.6463 12.4985 16.8958C12.3319 17.1454 12.0139 17.5953 11.7981 17.8978C11.5823 18.2002 11.3854 18.48 11.3627 18.5216C11.3399 18.5632 11.1582 18.8127 10.95 19.0812C10.7455 19.3459 10.5676 19.5614 10.5524 19.5614C10.5335 19.5652 10.4994 19.5387 10.4767 19.5047C10.4502 19.4744 10.4388 19.4253 10.454 19.4026C10.4767 19.3648 10.4691 19.3648 10.4275 19.3912C10.382 19.4215 10.3783 19.4139 10.401 19.3648C10.4161 19.327 10.4123 19.2967 10.3896 19.2967C10.3669 19.2967 10.3593 19.274 10.3669 19.2513C10.3783 19.2249 10.3707 19.1871 10.3517 19.1644C10.3328 19.1417 10.276 18.9715 10.223 18.7863C10.17 18.601 10.0981 18.2834 10.064 18.0868C10.0299 17.8902 9.99963 17.5613 9.99963 17.3609C9.99459 17.1164 10.0072 16.9777 10.0375 16.945C10.0678 16.9109 10.0716 16.8845 10.0489 16.858C10.0224 16.8315 10.0299 16.7143 10.0716 16.5177C10.1056 16.3514 10.17 16.1207 10.2154 16.0073C10.2609 15.8939 10.4048 15.6254 10.5335 15.4137C10.6925 15.149 10.7834 15.0318 10.8137 15.0545C10.8465 15.0721 10.8528 15.0658 10.8326 15.0356C10.8174 15.0053 10.9348 14.752 11.1279 14.4117C11.3059 14.0941 11.4497 13.8484 11.4535 13.8711C11.4535 13.8938 11.4876 13.8446 11.5255 13.769C11.5671 13.6896 11.5936 13.614 11.5823 13.5988C11.5709 13.5799 11.6958 13.493 11.8586 13.4022C12.0366 13.3001 12.26 13.1262 12.4379 12.9485C12.5969 12.7897 12.7938 12.544 12.8809 12.3965C12.9642 12.249 13.0816 11.9768 13.1346 11.7916C13.2027 11.5609 13.233 11.3492 13.2406 11.1299C13.2444 10.9522 13.2179 10.6648 13.1838 10.4871C13.1497 10.3094 13.0664 10.0372 12.9945 9.88218C12.9112 9.69692 12.7711 9.49275 12.6007 9.29614C12.4531 9.12978 12.241 8.93317 12.1275 8.85755C12.0139 8.78193 11.8208 8.66094 11.6958 8.58532C11.5709 8.5097 11.3324 8.41518 11.1658 8.36981C10.9651 8.32066 10.7455 8.29419 10.5221 8.29419C10.3366 8.29419 10.0602 8.32066 9.91634 8.3509C9.77246 8.38493 9.56801 8.45299 9.462 8.50592C9.35977 8.55885 9.12124 8.70253 8.93572 8.81974C8.70098 8.9672 8.53817 9.10331 8.41323 9.25833C8.311 9.3831 8.16334 9.61374 8.08383 9.76875C8.00054 9.92377 7.90967 10.1468 7.87559 10.2603C7.84152 10.3737 7.81502 10.5741 7.81502 10.7064C7.81502 10.8917 7.79987 10.956 7.73929 11.0165C7.66735 11.0883 7.61435 11.0921 6.87983 11.0921C6.23997 11.0921 6.07716 11.0807 6.00901 11.0354C5.95222 11.0013 5.92193 10.9408 5.92193 10.8766C5.92193 10.8161 5.91991 10.7629 5.93931 10.7242C5.93925 10.6662 5.93925 10.6855 5.95864 10.6275C5.93925 10.5502 5.93708 10.5136 5.97872 10.2603C6.0128 10.0826 6.05066 9.92377 6.07338 9.90109C6.09231 9.8784 6.09988 9.84059 6.08852 9.81791C6.08095 9.79144 6.08852 9.76875 6.11124 9.76875C6.13396 9.76875 6.13774 9.73851 6.1226 9.70448C6.10367 9.66289 6.10745 9.64776 6.13017 9.66289C6.15289 9.67423 6.16803 9.6402 6.17182 9.58727C6.1756 9.53055 6.23997 9.34151 6.32327 9.1638C6.40277 8.9861 6.52015 8.75924 6.5883 8.65338C6.65266 8.55129 6.81168 8.332 6.94041 8.1732C7.06535 8.01062 7.22059 7.84804 7.28117 7.81401C7.34553 7.7762 7.38718 7.73461 7.37582 7.71949C7.36825 7.70058 7.50076 7.57581 7.67114 7.4397C7.8453 7.30358 8.12927 7.11454 8.30722 7.01623C8.48517 6.92171 8.81456 6.77803 9.04552 6.69864Z" fill="#2DDBAC"/>
</g>
</g>
<defs>
<filter id="filter0_d_606_16" x="-32.0781" y="-22.5547" width="77.1016" height="81.1172" filterUnits="userSpaceOnUse" color-interpolation-filters="sRGB">
<feFlood flood-opacity="0" result="BackgroundImageFix"/>
<feColorMatrix in="SourceAlpha" type="matrix" values="0 0 0 0 0 0 0 0 0 0 0 0 0 0 0 0 0 0 127 0" result="hardAlpha"/>
<feOffset dx="-4" dy="5"/>
<feGaussianBlur stdDeviation="17"/>
<feComposite in2="hardAlpha" operator="out"/>
<feColorMatrix type="matrix" values="0 0 0 0 0 0 0 0 0 0 0 0 0 0 0 0 0 0 0.61 0"/>
<feBlend mode="normal" in2="BackgroundImageFix" result="effect1_dropShadow_606_16"/>
<feBlend mode="normal" in="SourceGraphic" in2="effect1_dropShadow_606_16" result="shape"/>
</filter>
<clipPath id="clip0_606_16">
<rect width="21" height="21" fill="white"/>
</clipPath>
</defs>
</svg>
