<svg width="19" height="19" viewBox="0 0 19 19" fill="none" xmlns="http://www.w3.org/2000/svg">
<g clip-path="url(#clip0_606_26)">
<path d="M5.5644 4.60301C6.41573 3.82033 7.6488 2.6868 8.29743 2.08967C8.94943 1.48917 9.49334 1 9.50685 1C9.52036 1 10.1453 1.56677 10.8953 2.25498C11.6453 2.94657 12.875 4.08347 13.6317 4.77844C14.5709 5.64208 15.0067 6.06378 14.9999 6.10089C14.9932 6.13463 14.8513 6.31005 14.6857 6.4956C14.5202 6.68115 14.3547 6.83296 14.3243 6.83296C14.2905 6.83634 13.5135 6.14475 12.5507 5.26086C11.6048 4.39385 10.5406 3.4155 10.1859 3.08489C9.82778 2.75427 9.52374 2.48439 9.51023 2.48439C9.49334 2.48439 8.55755 3.33453 7.42245 4.37698C6.28735 5.41942 5.21306 6.40789 5.03063 6.56982C4.80767 6.77561 4.68943 6.86333 4.65565 6.84646C4.62862 6.82959 4.46984 6.66766 4.29755 6.48211C4.1185 6.28644 3.9935 6.12113 4.00026 6.0874C4.00702 6.05703 4.7097 5.38906 5.5644 4.60301Z" fill="#23A885"/>
<path d="M5.65899 7.06911C5.79075 6.94766 6.70626 6.10089 7.69271 5.18664C8.67579 4.27577 9.49334 3.5302 9.50685 3.5302C9.52036 3.5302 10.1082 4.06323 10.8109 4.71771C11.5102 5.36882 12.4324 6.22234 12.8547 6.61368C13.4662 7.18044 13.6283 7.34912 13.6554 7.44358C13.6723 7.50768 13.6892 8.07108 13.6925 8.69182C13.6959 9.44413 13.6858 9.91644 13.6587 10.1087C13.6351 10.2673 13.6013 10.4225 13.5844 10.4562C13.5675 10.4866 13.5608 10.5271 13.5709 10.5473C13.581 10.5675 13.5777 10.581 13.5642 10.581C13.5473 10.581 13.5371 10.2437 13.5371 9.8321C13.5371 9.25858 13.5236 9.05617 13.4898 8.97857C13.4628 8.9246 13.4459 8.85713 13.4459 8.83688C13.4493 8.81327 13.4392 8.79303 13.4189 8.79303C13.3986 8.79303 13.3919 8.77953 13.402 8.75929C13.4121 8.73905 13.3919 8.65808 13.3615 8.57374C13.3277 8.4894 13.2871 8.43205 13.2736 8.44555C13.2567 8.45904 13.2534 8.44892 13.2669 8.42193C13.2804 8.39494 13.2365 8.26674 13.1723 8.13517C13.1047 8.00698 12.973 7.78432 12.875 7.646C12.777 7.50768 12.5439 7.24117 12.3547 7.05562C12.1656 6.87007 11.9054 6.64741 11.777 6.56307C11.6487 6.47536 11.446 6.35728 11.3244 6.29656C11.2027 6.23583 10.9527 6.138 10.7669 6.0739C10.5811 6.01318 10.2839 5.93896 10.1082 5.90859C9.93251 5.88161 9.65887 5.85799 9.50009 5.85799C9.34131 5.85799 9.06767 5.88161 8.892 5.90859C8.71633 5.93896 8.40553 6.01992 8.19946 6.0874C7.99338 6.15824 7.69947 6.28644 7.54069 6.37078C7.38191 6.45849 7.12854 6.62717 6.97652 6.74862C6.82112 6.87007 6.70288 6.9814 6.70964 6.99827C6.71977 7.01176 6.68261 7.04887 6.62518 7.08261C6.57113 7.11297 6.43262 7.25804 6.32114 7.4031C6.20627 7.54479 6.06439 7.74046 6.00696 7.83155C5.94615 7.92601 5.84142 8.12843 5.77048 8.28699C5.69615 8.44555 5.63872 8.61423 5.63535 8.66483C5.63197 8.71206 5.61845 8.74242 5.59818 8.7323C5.57792 8.71881 5.57454 8.7323 5.59143 8.76941C5.60494 8.79977 5.60156 8.82676 5.58129 8.82676C5.56102 8.82676 5.55427 8.847 5.56102 8.87062C5.57116 8.89086 5.5644 8.92797 5.54751 8.94484C5.52724 8.96508 5.49346 9.10677 5.46305 9.26533C5.42589 9.49136 5.42251 9.56221 5.4563 9.59594C5.4867 9.62968 5.4867 9.64655 5.45292 9.68028C5.42927 9.7039 5.41238 9.76125 5.41238 9.81523C5.41238 9.87258 5.43941 9.92656 5.49008 9.95692C5.55089 10.0008 5.6894 10.0075 7.06773 9.99066V10.1695C7.06773 10.2639 7.09138 10.3921 7.11841 10.4461C7.14543 10.5001 7.16233 10.5642 7.15219 10.581C7.14206 10.6013 7.17922 10.7261 7.23665 10.861C7.2907 10.9926 7.40894 11.2085 7.50015 11.3401C7.59137 11.4717 7.72312 11.6336 7.79744 11.7078C7.86839 11.7787 8.01365 11.8934 8.115 11.9642C8.21635 12.0351 8.38526 12.1295 8.48661 12.1734C8.58796 12.2206 8.76363 12.2847 8.87511 12.3184C9.02038 12.3657 9.19267 12.3825 9.4832 12.3825C9.82441 12.3859 9.93251 12.3724 10.1656 12.3016C10.321 12.2543 10.4528 12.2274 10.4629 12.2442C10.473 12.2577 10.4494 12.3252 10.4122 12.396C10.3784 12.4635 10.348 12.5074 10.348 12.4871C10.3447 12.4669 10.2163 12.6862 10.0575 12.9695C9.88521 13.2732 9.78049 13.4992 9.794 13.5262C9.81202 13.5532 9.80639 13.5588 9.77711 13.5431C9.75008 13.5228 9.66901 13.6274 9.52712 13.8636C9.41226 14.0525 9.28388 14.292 9.24334 14.3932C9.2028 14.4944 9.14537 14.7002 9.11497 14.8486C9.07781 15.0241 9.07105 15.1287 9.0947 15.1523C9.11497 15.1759 9.11159 15.1995 9.08456 15.2299C9.05754 15.2591 9.04628 15.3828 9.05078 15.601C9.05078 15.7798 9.07781 16.0733 9.10821 16.2487C9.13862 16.4241 9.2028 16.7075 9.2501 16.8728C9.2974 17.0415 9.34807 17.1933 9.36496 17.2102C9.38185 17.2304 9.38861 17.2641 9.37847 17.2878C9.37172 17.308 9.37847 17.3282 9.39874 17.3282C9.41901 17.3282 9.42239 17.3552 9.40888 17.389C9.38861 17.4328 9.39199 17.4396 9.43253 17.4126C9.47307 17.3856 9.47644 17.389 9.4528 17.4295C9.4359 17.4598 9.41563 17.4666 9.40212 17.4463C9.38861 17.4295 9.23321 17.2304 9.05754 17.0078C8.88525 16.7851 8.72985 16.5894 8.71633 16.5692C8.69944 16.5523 8.55755 16.3533 8.3954 16.1306C8.23324 15.908 7.9123 15.4458 7.68258 15.1017C7.45286 14.7576 7.13868 14.265 6.98328 14.0052C6.83125 13.7455 6.59478 13.3272 6.45964 13.0775C6.32451 12.8279 6.16236 12.5074 6.09817 12.369C6.03398 12.2307 5.91574 11.9575 5.83466 11.7618C5.75696 11.5661 5.6421 11.2558 5.58129 11.0702C5.52048 10.8847 5.45968 10.7194 5.44278 10.6991C5.42927 10.6822 5.42251 10.6519 5.43265 10.6316C5.44278 10.6148 5.43265 10.5304 5.409 10.4461C5.38873 10.3618 5.35833 9.96704 5.34144 9.56896C5.32792 9.17087 5.31441 8.82002 5.31441 8.79303C5.31103 8.76604 5.32117 8.45567 5.3313 8.10144C5.34144 7.75058 5.36171 7.42334 5.38198 7.37611C5.39887 7.32888 5.52386 7.19056 5.65899 7.06911Z" fill="#23A885"/>
<g filter="url(#filter0_d_606_26)">
<path d="M8.20119 6.08541C8.40726 6.01456 8.70117 5.93697 8.85995 5.90998C9.01873 5.88299 9.29237 5.86275 9.46804 5.85938C9.64371 5.85938 9.93424 5.87962 10.1099 5.90661C10.2856 5.93697 10.5829 6.01119 10.7687 6.07191C10.9545 6.13601 11.2045 6.23385 11.3261 6.29457C11.4477 6.35529 11.6504 6.47337 11.7788 6.56108C11.9072 6.64542 12.1673 6.86808 12.3565 7.05363C12.5457 7.23918 12.7788 7.50569 12.8767 7.64401C12.9747 7.78233 13.1064 8.00499 13.174 8.13318C13.2382 8.26476 13.2821 8.39295 13.2686 8.41994C13.2551 8.44693 13.2585 8.45705 13.2754 8.44356C13.2889 8.43006 13.3294 8.48741 13.3598 8.57175C13.3936 8.65609 13.4139 8.73706 13.4037 8.7573C13.3936 8.77754 13.4004 8.79104 13.4206 8.79104C13.4409 8.79104 13.451 8.81128 13.4476 8.83489C13.4476 8.85514 13.4645 8.92261 13.4916 8.97659C13.5287 9.05418 13.5389 9.27009 13.5355 10.7646L13.4071 11.1526C13.3362 11.3651 13.2112 11.6991 13.1267 11.8948C13.0456 12.0904 12.8767 12.448 12.7551 12.6876C12.6335 12.9271 12.4308 13.3083 12.3058 13.531C12.1808 13.7536 11.9578 14.1247 11.8159 14.3575C11.6707 14.5903 11.4308 14.9614 11.2822 15.184C11.1335 15.4067 10.8498 15.8081 10.6572 16.078C10.4646 16.3479 10.289 16.5976 10.2687 16.6347C10.2484 16.6718 10.0863 16.8944 9.90046 17.134C9.71803 17.3701 9.55926 17.5624 9.54574 17.5624C9.52885 17.5658 9.49845 17.5422 9.47818 17.5118C9.45453 17.4848 9.44439 17.441 9.45791 17.4207C9.47818 17.387 9.47142 17.387 9.43426 17.4106C9.39372 17.4376 9.39034 17.4308 9.41061 17.387C9.42412 17.3532 9.42075 17.3263 9.40048 17.3263C9.38021 17.3263 9.37345 17.306 9.38021 17.2858C9.39034 17.2622 9.38359 17.2284 9.36669 17.2082C9.3498 17.1879 9.29913 17.0361 9.25183 16.8708C9.20454 16.7055 9.14035 16.4221 9.10995 16.2467C9.07954 16.0713 9.05251 15.7778 9.05251 15.599C9.04801 15.3808 9.05927 15.2571 9.0863 15.2279C9.11332 15.1975 9.1167 15.1739 9.09643 15.1503C9.07278 15.1267 9.07954 15.0221 9.1167 14.8467C9.14711 14.6982 9.20454 14.4924 9.24508 14.3912C9.28562 14.29 9.41399 14.0505 9.52885 13.8616C9.67074 13.6254 9.75182 13.5208 9.77884 13.5411C9.80812 13.5568 9.81375 13.5512 9.79573 13.5242C9.78222 13.4972 9.88695 13.2712 10.0592 12.9676C10.218 12.6842 10.3464 12.4649 10.3498 12.4851C10.3498 12.5054 10.3802 12.4615 10.414 12.394C10.4511 12.3232 10.4748 12.2557 10.4646 12.2422C10.4545 12.2254 10.566 12.1478 10.7112 12.0668C10.87 11.9757 11.0693 11.8205 11.2281 11.662C11.37 11.5203 11.5457 11.301 11.6234 11.1694C11.6977 11.0379 11.8024 10.795 11.8497 10.6297C11.9105 10.4239 11.9376 10.2349 11.9443 10.0393C11.9477 9.88071 11.924 9.62432 11.8936 9.46576C11.8632 9.3072 11.7889 9.0643 11.7247 8.92598C11.6504 8.76068 11.5254 8.5785 11.3734 8.40307C11.2416 8.25463 11.0525 8.07921 10.9511 8.01173C10.8498 7.94426 10.6775 7.83631 10.566 7.76884C10.4545 7.70136 10.2417 7.61702 10.093 7.57654C9.91397 7.53268 9.71803 7.50907 9.51872 7.50907C9.35318 7.50907 9.10657 7.53268 8.97819 7.55967C8.84982 7.59003 8.66739 7.65076 8.5728 7.69799C8.48159 7.74522 8.26875 7.87342 8.10322 7.978C7.89377 8.10957 7.7485 8.23102 7.63702 8.36934C7.5458 8.48067 7.41405 8.68646 7.34311 8.82477C7.26879 8.96309 7.18771 9.16213 7.1573 9.26334C7.1269 9.36455 7.10325 9.54335 7.10325 9.66143C7.10325 9.82673 7.08974 9.88409 7.03568 9.93806C6.9715 10.0022 6.9242 10.0055 6.26882 10.0055C5.69789 10.0055 5.55262 9.99541 5.49181 9.95493C5.44114 9.92457 5.41411 9.87059 5.41411 9.81324C5.41411 9.75926 5.41231 9.71181 5.42962 9.6773C5.42956 9.62553 5.42956 9.64279 5.44686 9.59102C5.42956 9.522 5.42763 9.48937 5.46479 9.26334C5.49519 9.10478 5.52897 8.96309 5.54924 8.94285C5.56614 8.92261 5.57289 8.88887 5.56276 8.86863C5.556 8.84502 5.56276 8.82477 5.58303 8.82477C5.6033 8.82477 5.60667 8.79778 5.59316 8.76742C5.57627 8.73031 5.57965 8.71682 5.59992 8.73031C5.62019 8.74043 5.6337 8.71007 5.63708 8.66284C5.64046 8.61224 5.69789 8.44356 5.77221 8.285C5.84315 8.12644 5.94788 7.92402 6.00869 7.82956C6.06612 7.73847 6.20801 7.5428 6.32287 7.40111C6.43435 7.25605 6.57286 7.11098 6.62691 7.08062C6.68434 7.04688 6.72151 7.00977 6.71137 6.99628C6.70461 6.97941 6.82285 6.86808 6.97488 6.74663C7.13028 6.62518 7.38365 6.4565 7.54243 6.36879C7.7012 6.28445 7.99511 6.15625 8.20119 6.08541Z" fill="#2DDBAC"/>
</g>
</g>
<defs>
<filter id="filter0_d_606_26" x="-32.5859" y="-23.1406" width="76.1211" height="79.7031" filterUnits="userSpaceOnUse" color-interpolation-filters="sRGB">
<feFlood flood-opacity="0" result="BackgroundImageFix"/>
<feColorMatrix in="SourceAlpha" type="matrix" values="0 0 0 0 0 0 0 0 0 0 0 0 0 0 0 0 0 0 127 0" result="hardAlpha"/>
<feOffset dx="-4" dy="5"/>
<feGaussianBlur stdDeviation="17"/>
<feComposite in2="hardAlpha" operator="out"/>
<feColorMatrix type="matrix" values="0 0 0 0 0 0 0 0 0 0 0 0 0 0 0 0 0 0 0.61 0"/>
<feBlend mode="normal" in2="BackgroundImageFix" result="effect1_dropShadow_606_26"/>
<feBlend mode="normal" in="SourceGraphic" in2="effect1_dropShadow_606_26" result="shape"/>
</filter>
<clipPath id="clip0_606_26">
<rect width="19" height="19" fill="white"/>
</clipPath>
</defs>
</svg>
