<svg width="512" height="512" viewBox="0 0 512 512" fill="none" xmlns="http://www.w3.org/2000/svg">
<g clip-path="url(#clip0_444_6)">
<rect width="512" height="512" fill="white"/>
<path d="M142.332 120.405C167.001 97.7254 202.732 64.8789 221.528 47.5757C240.421 30.1749 256.182 16 256.573 16C256.965 16 275.075 32.4233 296.807 52.3659C318.539 72.4062 354.173 105.351 376.101 125.489C403.315 150.515 415.943 162.734 415.747 163.81C415.551 164.787 411.44 169.871 406.643 175.247C401.846 180.624 397.05 185.023 396.169 185.023C395.19 185.121 372.674 165.081 344.775 139.468C317.365 114.344 286.528 85.9945 276.25 76.4143C265.873 66.834 257.063 59.0134 256.671 59.0134C256.182 59.0134 229.065 83.6483 196.173 113.855C163.281 144.063 132.151 172.706 126.865 177.398C120.404 183.361 116.978 185.903 115.999 185.414C115.216 184.925 110.615 180.233 105.622 174.856C100.434 169.186 96.8118 164.396 97.0076 163.419C97.2034 162.539 117.565 143.183 142.332 120.405Z" fill="#23A885"/>
<path d="M145.073 191.866C148.891 188.347 175.42 163.81 204.005 137.317C232.492 110.923 256.182 89.3183 256.573 89.3183C256.965 89.3183 273.998 104.764 294.36 123.729C314.624 142.596 341.349 167.329 353.585 178.669C371.304 195.092 376.003 199.98 376.786 202.717C377.275 204.575 377.765 220.9 377.863 238.888C377.961 260.688 377.667 274.374 376.884 279.946C376.199 284.54 375.22 289.037 374.73 290.015C374.241 290.895 374.045 292.068 374.339 292.654C374.632 293.241 374.534 293.632 374.143 293.632C373.653 293.632 373.36 283.856 373.36 271.93C373.36 255.311 372.968 249.445 371.989 247.197C371.206 245.633 370.716 243.678 370.716 243.091C370.814 242.407 370.521 241.82 369.933 241.82C369.346 241.82 369.15 241.429 369.444 240.843C369.738 240.256 369.15 237.91 368.269 235.466C367.29 233.022 366.116 231.36 365.724 231.751C365.234 232.142 365.137 231.849 365.528 231.067C365.92 230.285 364.647 226.57 362.787 222.758C360.829 219.043 357.011 212.591 354.173 208.583C351.334 204.575 344.579 196.852 339.097 191.475C333.615 186.098 326.077 179.646 322.357 177.202C318.637 174.661 312.764 171.239 309.24 169.48C305.715 167.72 298.471 164.885 293.087 163.028C287.703 161.268 279.089 159.117 273.998 158.237C268.908 157.455 260.978 156.771 256.377 156.771C251.776 156.771 243.847 157.455 238.757 158.237C233.666 159.117 224.66 161.463 218.689 163.419C212.717 165.472 204.2 169.186 199.599 171.63C194.998 174.172 187.657 179.06 183.251 182.579C178.748 186.098 175.322 189.324 175.518 189.813C175.811 190.204 174.735 191.28 173.07 192.257C171.504 193.137 167.491 197.341 164.26 201.544C160.932 205.65 156.82 211.32 155.156 213.959C153.394 216.697 150.359 222.562 148.304 227.157C146.15 231.751 144.486 236.639 144.388 238.106C144.29 239.474 143.898 240.354 143.311 240.061C142.724 239.67 142.626 240.061 143.115 241.136C143.507 242.016 143.409 242.798 142.822 242.798C142.234 242.798 142.038 243.384 142.234 244.069C142.528 244.655 142.332 245.731 141.843 246.219C141.255 246.806 140.276 250.912 139.395 255.506C138.318 262.056 138.221 264.109 139.199 265.087C140.081 266.064 140.081 266.553 139.102 267.531C138.416 268.215 137.927 269.877 137.927 271.441C137.927 273.103 138.71 274.667 140.178 275.547C141.94 276.818 145.954 277.013 185.894 276.524V281.705C185.894 284.443 186.58 288.157 187.363 289.722C188.146 291.286 188.635 293.143 188.342 293.632C188.048 294.218 189.125 297.835 190.789 301.746C192.355 305.558 195.782 311.815 198.425 315.627C201.068 319.44 204.886 324.132 207.039 326.283C209.095 328.336 213.304 331.66 216.241 333.713C219.178 335.765 224.073 338.503 227.01 339.774C229.946 341.142 235.037 343 238.267 343.977C242.477 345.346 247.469 345.835 255.888 345.835C265.775 345.932 268.908 345.541 275.662 343.488C280.165 342.12 283.983 341.338 284.277 341.826C284.571 342.217 283.885 344.173 282.809 346.226C281.83 348.181 280.949 349.452 280.949 348.865C280.851 348.278 277.131 354.633 272.53 362.844C267.537 371.643 264.503 378.192 264.894 378.974C265.416 379.756 265.253 379.919 264.405 379.463C263.622 378.877 261.272 381.907 257.161 388.75C253.832 394.225 250.112 401.165 248.938 404.098C247.763 407.031 246.099 412.994 245.218 417.295C244.141 422.379 243.945 425.409 244.63 426.094C245.218 426.778 245.12 427.462 244.337 428.342C243.553 429.189 243.227 432.774 243.358 439.095C243.358 444.277 244.141 452.781 245.022 457.865C245.903 462.948 247.763 471.16 249.133 475.95C250.504 480.838 251.972 485.237 252.462 485.726C252.951 486.312 253.147 487.29 252.853 487.974C252.657 488.561 252.853 489.147 253.441 489.147C254.028 489.147 254.126 489.929 253.734 490.907C253.147 492.178 253.245 492.373 254.42 491.591C255.594 490.809 255.692 490.907 255.007 492.08C254.517 492.96 253.93 493.155 253.539 492.569C253.147 492.08 248.644 486.312 243.553 479.86C238.561 473.408 234.058 467.738 233.666 467.152C233.177 466.663 229.065 460.895 224.366 454.443C219.668 447.991 210.368 434.599 203.711 424.627C197.054 414.656 187.95 400.383 183.447 392.856C179.042 385.329 172.189 373.207 168.274 365.973C164.358 358.739 159.659 349.452 157.799 345.444C155.939 341.435 152.513 333.517 150.163 327.847C147.912 322.177 144.584 313.183 142.822 307.807C141.059 302.43 139.297 297.64 138.808 297.053C138.416 296.565 138.221 295.685 138.514 295.098C138.808 294.609 138.514 292.166 137.829 289.722C137.242 287.278 136.361 275.84 135.871 264.305C135.48 252.769 135.088 242.602 135.088 241.82C134.99 241.038 135.284 232.045 135.577 221.78C135.871 211.613 136.458 202.131 137.046 200.762C137.535 199.393 141.157 195.385 145.073 191.866Z" fill="#23A885"/>
<g filter="url(#filter0_d_444_6)">
<path d="M218.689 163.417C224.66 161.364 233.177 159.116 237.778 158.334C242.379 157.551 250.308 156.965 255.399 156.867C260.489 156.867 268.908 157.454 273.999 158.236C279.089 159.116 287.704 161.266 293.088 163.026C298.472 164.883 305.716 167.718 309.24 169.478C312.764 171.238 318.638 174.659 322.358 177.201C326.078 179.645 333.615 186.097 339.097 191.473C344.579 196.85 351.334 204.573 354.173 208.581C357.012 212.589 360.83 219.041 362.788 222.756C364.648 226.568 365.92 230.283 365.529 231.065C365.137 231.847 365.235 232.141 365.724 231.75C366.116 231.359 367.291 233.02 368.172 235.464C369.151 237.908 369.738 240.255 369.444 240.841C369.151 241.428 369.346 241.819 369.934 241.819C370.521 241.819 370.815 242.405 370.717 243.089C370.717 243.676 371.206 245.631 371.989 247.195C373.066 249.444 373.36 255.7 373.262 299.007L369.542 310.249C367.486 316.408 363.864 326.086 361.417 331.756C359.068 337.426 354.173 347.788 350.649 354.729C347.125 361.67 341.251 372.716 337.629 379.168C334.007 385.62 327.546 396.374 323.435 403.119C319.225 409.864 312.275 420.617 307.967 427.069C303.66 433.521 295.437 445.155 289.857 452.975C284.277 460.796 279.187 468.03 278.6 469.105C278.012 470.181 273.313 476.633 267.929 483.573C262.643 490.417 258.042 495.989 257.65 495.989C257.161 496.086 256.28 495.402 255.693 494.522C255.007 493.74 254.714 492.469 255.105 491.883C255.693 490.905 255.497 490.905 254.42 491.59C253.245 492.372 253.147 492.176 253.735 490.905C254.126 489.928 254.028 489.146 253.441 489.146C252.854 489.146 252.658 488.559 252.854 487.973C253.147 487.288 252.952 486.311 252.462 485.724C251.973 485.138 250.504 480.738 249.134 475.948C247.763 471.158 245.903 462.947 245.022 457.863C244.141 452.78 243.358 444.275 243.358 439.094C243.228 432.772 243.554 429.188 244.337 428.34C245.12 427.461 245.218 426.776 244.631 426.092C243.945 425.408 244.141 422.377 245.218 417.294C246.099 412.992 247.763 407.029 248.938 404.096C250.113 401.164 253.833 394.223 257.161 388.748C261.272 381.905 263.622 378.875 264.405 379.461C265.253 379.918 265.417 379.755 264.894 378.973C264.503 378.191 267.538 371.641 272.53 362.843C277.131 354.631 280.851 348.277 280.949 348.863C280.949 349.45 281.83 348.179 282.809 346.224C283.886 344.171 284.571 342.216 284.277 341.825C283.984 341.336 287.214 339.088 291.424 336.741C296.024 334.102 301.8 329.605 306.401 325.01C310.513 320.905 315.603 314.55 317.855 310.738C320.008 306.925 323.043 299.887 324.413 295.097C326.176 289.133 326.959 283.659 327.154 277.989C327.252 273.394 326.567 265.965 325.686 261.37C324.805 256.776 322.651 249.737 320.791 245.729C318.638 240.939 315.016 235.66 310.611 230.576C306.793 226.275 301.311 221.192 298.374 219.237C295.437 217.281 290.445 214.153 287.214 212.198C283.984 210.243 277.816 207.799 273.509 206.626C268.321 205.355 262.643 204.671 256.867 204.671C252.071 204.671 244.924 205.355 241.204 206.137C237.484 207.017 232.198 208.777 229.457 210.145C226.814 211.514 220.647 215.229 215.85 218.259C209.781 222.072 205.571 225.591 202.341 229.599C199.698 232.825 195.88 238.788 193.824 242.796C191.671 246.804 189.321 252.572 188.44 255.505C187.559 258.437 186.874 263.619 186.874 267.04C186.874 271.83 186.482 273.492 184.916 275.056C183.056 276.914 181.685 277.011 162.694 277.011C146.15 277.011 141.941 276.718 140.179 275.545C138.71 274.665 137.927 273.101 137.927 271.439C137.927 269.875 137.875 268.5 138.376 267.5C138.375 266 138.375 266.5 138.876 265C138.375 263 138.319 262.054 139.396 255.505C140.277 250.91 141.256 246.804 141.843 246.218C142.332 245.631 142.528 244.654 142.235 244.067C142.039 243.383 142.235 242.796 142.822 242.796C143.409 242.796 143.507 242.014 143.116 241.134C142.626 240.059 142.724 239.668 143.311 240.059C143.899 240.352 144.29 239.472 144.388 238.104C144.486 236.637 146.15 231.75 148.304 227.155C150.36 222.56 153.394 216.695 155.156 213.958C156.821 211.318 160.932 205.648 164.26 201.542C167.491 197.339 171.505 193.135 173.071 192.255C174.735 191.278 175.812 190.203 175.518 189.812C175.322 189.323 178.749 186.097 183.154 182.577C187.657 179.058 194.999 174.17 199.6 171.629C204.201 169.185 212.718 165.47 218.689 163.417Z" fill="#2DDBAC"/>
</g>
</g>
<defs>
<filter id="filter0_d_444_6" x="99.9258" y="127.867" width="303.355" height="407.129" filterUnits="userSpaceOnUse" color-interpolation-filters="sRGB">
<feFlood flood-opacity="0" result="BackgroundImageFix"/>
<feColorMatrix in="SourceAlpha" type="matrix" values="0 0 0 0 0 0 0 0 0 0 0 0 0 0 0 0 0 0 127 0" result="hardAlpha"/>
<feOffset dx="-4" dy="5"/>
<feGaussianBlur stdDeviation="17"/>
<feComposite in2="hardAlpha" operator="out"/>
<feColorMatrix type="matrix" values="0 0 0 0 0 0 0 0 0 0 0 0 0 0 0 0 0 0 0.61 0"/>
<feBlend mode="normal" in2="BackgroundImageFix" result="effect1_dropShadow_444_6"/>
<feBlend mode="normal" in="SourceGraphic" in2="effect1_dropShadow_444_6" result="shape"/>
</filter>
<clipPath id="clip0_444_6">
<rect width="512" height="512" fill="white"/>
</clipPath>
</defs>
</svg>
