<svg width="19" height="19" viewBox="0 0 19 19" fill="none" xmlns="http://www.w3.org/2000/svg">
<path d="M9.50044 0.253906C6.46044 0.253906 2.78711 2.15391 2.78711 6.96724C2.78711 9.75391 6.58711 15.7072 8.61378 18.3672C8.99378 18.8739 9.75378 18.8739 10.1338 18.3672C12.0338 15.7072 16.0871 9.88057 16.0871 6.96724C16.2138 2.15391 12.5404 0.253906 9.50044 0.253906Z" fill="#B9C170"/>
<path d="M13.4258 2.40625H5.5725C5.31917 2.40625 5.1925 2.53292 5.06583 2.65958C4.93917 2.78625 4.8125 2.91292 4.8125 3.16625V7.47292C4.8125 7.59958 4.93917 7.72625 5.06583 7.85292C5.1925 7.97958 5.31917 8.10625 5.5725 8.10625H6.3325V9.87958C6.3325 10.0063 6.3325 10.1329 6.3325 10.1329C6.45917 10.2596 6.45917 10.2596 6.58583 10.2596C6.7125 10.2596 6.7125 10.2596 6.83917 10.1329C6.96583 10.1329 6.96583 10.0063 6.96583 9.87958V9.49958H11.9058V9.87958C11.9058 10.0063 11.9058 10.0062 12.0325 10.1329C12.1592 10.2596 12.1592 10.2596 12.2858 10.2596C12.4125 10.2596 12.4125 10.2596 12.5392 10.1329C12.6658 10.1329 12.6658 10.0063 12.6658 9.87958V8.10625H13.4258C13.5525 8.10625 13.8058 7.97958 13.9325 7.85292C14.0592 7.72625 14.1858 7.59958 14.1858 7.34625V3.16625C14.1858 3.03958 14.0592 2.78625 13.9325 2.65958C13.8058 2.53292 13.6792 2.40625 13.4258 2.40625ZM13.4258 3.16625V4.55958L12.0325 3.16625H13.4258ZM10.8925 3.16625L13.4258 5.69958V7.47292L9.11917 3.16625H10.8925ZM8.10583 7.34625L5.5725 4.81292V3.16625L9.87917 7.47292H8.10583V7.34625ZM5.5725 7.34625V5.95292L6.96583 7.34625H5.5725ZM12.0325 8.86625H6.96583V8.10625H11.9058V8.86625H12.0325ZM11.9058 7.34625H10.8925L6.58583 3.16625H7.97917L12.2858 7.47292H11.9058V7.34625Z" fill="white"/>
</svg>
