<svg width="19" height="19" viewBox="0 0 19 19" fill="none" xmlns="http://www.w3.org/2000/svg">
<path d="M9.50044 0.253906C6.46044 0.253906 2.78711 2.15391 2.78711 6.96724C2.78711 9.75391 6.58711 15.7072 8.61378 18.3672C8.99378 18.8739 9.75378 18.8739 10.1338 18.3672C12.0338 15.7072 16.0871 9.88057 16.0871 6.96724C16.2138 2.15391 12.5404 0.253906 9.50044 0.253906Z" fill="#B9C170"/>
<path d="M10.514 3.54729C10.514 4.05396 10.0073 4.56062 9.50065 4.56062C8.99398 4.56062 8.48732 4.05396 8.48732 3.54729C8.48732 3.04062 8.99398 2.53396 9.50065 2.53396C10.0073 2.53396 10.514 3.04062 10.514 3.54729ZM8.48732 1.39396C8.48732 1.26729 8.36065 1.14062 8.23398 1.14062C8.23398 1.26729 8.10732 1.26729 8.10732 1.26729L6.46065 4.30729C6.46065 4.30729 6.46065 4.30729 6.46065 4.43396C6.46065 4.56062 6.58732 4.68729 6.71398 4.68729C6.84065 4.68729 6.84065 4.68729 6.84065 4.56062L8.48732 1.39396ZM12.5407 10.894L10.514 5.57396C10.514 5.44729 10.3873 5.32062 10.134 5.32062H6.71398C6.58732 5.32062 6.33398 5.44729 6.33398 5.70062C6.33398 5.82729 6.46065 6.08063 6.71398 6.08063H8.36065L9.37398 7.85396L6.58732 10.894C6.46065 10.894 6.46065 11.0206 6.46065 11.1473C6.46065 11.274 6.58732 11.5273 6.84065 11.5273C6.96732 11.5273 6.96732 11.5273 7.09398 11.4006L10.134 8.61396L12.034 11.4006C12.034 11.4006 12.1607 11.4006 12.2873 11.4006C12.5407 11.4006 12.6673 11.274 12.6673 11.0206C12.5407 11.0206 12.5407 11.0206 12.5407 10.894Z" fill="white"/>
</svg>
