<svg width="19" height="19" viewBox="0 0 19 19" fill="none" xmlns="http://www.w3.org/2000/svg">
<path d="M9.50044 0.253906C6.46044 0.253906 2.78711 2.15391 2.78711 6.96724C2.78711 9.75391 6.58711 15.7072 8.61378 18.3672C8.99378 18.8739 9.75378 18.8739 10.1338 18.3672C12.0338 15.7072 16.0871 9.88057 16.0871 6.96724C16.2138 2.15391 12.5404 0.253906 9.50044 0.253906Z" fill="#7175BF"/>
<path d="M6.33302 5.82677H5.06635C5.06635 5.06677 5.44635 4.1801 5.82635 3.54677C6.20635 4.30677 6.33302 5.06677 6.33302 5.82677ZM7.21969 5.82677H9.11969V1.77344C8.10635 1.9001 7.21969 2.2801 6.58635 2.91344C6.96635 3.8001 7.21969 4.81344 7.21969 5.82677ZM9.87969 1.77344V5.82677H11.7797C11.7797 4.81344 12.033 3.8001 12.5397 2.91344C11.7797 2.2801 10.893 1.77344 9.87969 1.77344ZM13.173 3.54677C12.793 4.30677 12.6664 5.06677 12.6664 5.82677H13.933C13.933 5.06677 13.553 4.1801 13.173 3.54677ZM14.8197 7.09344C14.8197 7.34677 14.693 7.47344 14.4397 7.47344H13.0464L12.413 8.7401V10.6401V10.7668L12.2864 10.8934H12.1597H12.033C12.033 10.8934 11.9064 10.8934 11.9064 10.7668L11.0197 10.0068L9.75302 10.8934H9.62635H9.49969L8.23302 10.0068L7.21969 10.8934L7.09302 11.0201H6.96635L6.83969 10.8934V10.7668V8.7401L6.20635 7.47344H4.55969C4.30635 7.47344 4.17969 7.34677 4.17969 7.09344C4.17969 6.8401 4.30635 6.71344 4.55969 6.71344H14.313C14.5664 6.58677 14.8197 6.8401 14.8197 7.09344ZM8.99302 7.47344H6.71302L7.21969 8.48677V8.61344V9.8801L7.72635 9.37344L8.99302 7.47344ZM10.6397 9.5001L9.49969 7.72677L8.35969 9.5001L9.49969 10.2601L10.6397 9.5001ZM12.2864 7.47344H10.0064L11.273 9.5001L11.7797 10.0068V8.7401V8.61344L12.2864 7.47344Z" fill="white"/>
</svg>
