<svg width="19" height="19" viewBox="0 0 19 19" fill="none" xmlns="http://www.w3.org/2000/svg">
<path d="M9.50044 0.253906C6.46044 0.253906 2.78711 2.15391 2.78711 6.96724C2.78711 9.75391 6.58711 15.7072 8.61378 18.3672C8.99378 18.8739 9.75378 18.8739 10.1338 18.3672C12.0338 15.7072 16.0871 9.88057 16.0871 6.96724C16.2138 2.15391 12.5404 0.253906 9.50044 0.253906Z" fill="#6ECD4A"/>
<path d="M7.85417 2.15372V5.19372C7.60083 5.19372 7.3475 5.06705 7.09417 5.06705C6.84083 5.19372 6.5875 5.57372 6.2075 5.70039C5.95417 4.30705 6.5875 2.91372 7.85417 2.15372ZM9.75417 1.77372L11.2742 4.30705C11.4008 4.18039 11.6542 3.92705 11.7808 3.80039C12.1608 3.80039 12.5408 3.92705 12.7942 3.92705C12.4142 2.53372 11.1475 1.64705 9.75417 1.77372ZM4.6875 10.6404H14.3142C13.8075 10.1337 12.4142 9.88039 11.1475 9.62705L9.75417 4.43372C10.1342 4.43372 10.6408 4.43372 10.8942 4.43372L9.2475 1.77372C9.12083 1.77372 8.8675 1.77372 8.74083 1.90039C8.61417 1.90039 8.36083 2.02705 8.23417 2.02705V5.06705C8.4875 4.94039 8.8675 4.68705 9.2475 4.56039L10.6408 9.62705C10.2608 9.62705 9.88083 9.62705 9.50083 9.62705C8.36083 9.50039 5.4475 9.88039 4.6875 10.6404Z" fill="white"/>
</svg>
