<svg width="19" height="19" viewBox="0 0 19 19" fill="none" xmlns="http://www.w3.org/2000/svg">
<path d="M9.50044 0.253906C6.46044 0.253906 2.78711 2.15391 2.78711 6.96724C2.78711 9.75391 6.58711 15.7072 8.61378 18.3672C8.99378 18.8739 9.75378 18.8739 10.1338 18.3672C12.0338 15.7072 16.0871 9.88057 16.0871 6.96724C16.2138 2.15391 12.5404 0.253906 9.50044 0.253906Z" fill="#70932C"/>
<path d="M11.2727 2.02734C10.8927 2.02734 10.5127 2.40734 10.5127 2.78734C10.5127 3.16734 10.8927 3.54734 11.2727 3.54734C11.6527 3.54734 12.0327 3.16734 12.0327 2.78734C12.0327 2.40734 11.6527 2.02734 11.2727 2.02734ZM10.0061 3.42068C9.8794 3.42068 9.8794 3.42068 9.75273 3.54734L7.85273 5.32068C7.5994 5.44734 7.5994 5.70068 7.85273 5.95401L9.1194 6.96734V8.86734C9.1194 9.37401 9.8794 9.37401 9.8794 8.86734V6.71401C9.8794 6.58734 9.8794 6.46068 9.75273 6.46068L9.1194 5.95401L10.3861 4.68734L10.8927 5.44734C11.0194 5.57401 11.0194 5.57401 11.1461 5.57401H12.2861C12.7927 5.57401 12.7927 4.81401 12.2861 4.81401H11.5261L10.8927 4.18068L10.5127 3.54734C10.3861 3.54734 10.3861 3.42068 10.2594 3.42068H10.0061ZM6.20607 6.33401C5.06607 6.33401 4.05273 7.34734 4.05273 8.48734C4.05273 9.62734 5.06607 10.6407 6.20607 10.6407C7.34607 10.6407 8.3594 9.62734 8.3594 8.48734C8.3594 7.34734 7.47273 6.33401 6.20607 6.33401ZM12.7927 6.33401C11.5261 6.33401 10.6394 7.34734 10.6394 8.48734C10.6394 9.62734 11.6527 10.6407 12.7927 10.6407C13.9327 10.6407 14.9461 9.62734 14.9461 8.48734C14.9461 7.34734 13.9327 6.33401 12.7927 6.33401ZM6.20607 7.09401C6.96607 7.09401 7.5994 7.72734 7.5994 8.48734C7.5994 9.24734 7.09273 10.0073 6.20607 10.0073C5.3194 10.0073 4.81273 9.24734 4.81273 8.48734C4.81273 7.72734 5.44607 7.09401 6.20607 7.09401ZM12.7927 7.09401C13.5527 7.09401 14.1861 7.72734 14.1861 8.48734C14.1861 9.24734 13.5527 9.88068 12.7927 9.88068C12.0327 9.88068 11.3994 9.24734 11.3994 8.48734C11.3994 7.72734 11.9061 7.09401 12.7927 7.09401Z" fill="white"/>
</svg>
