<svg width="21" height="21" viewBox="0 0 21 21" fill="none" xmlns="http://www.w3.org/2000/svg">
<rect width="21" height="21" rx="3" fill="white"/>
<path d="M10.4799 10.9252L18.9434 8.7585L7.48853 2L10.4799 10.9252Z" fill="#EC1D7F"/>
<path d="M2 6.47733L10.3899 10.9868L7.38928 2.03409L2 6.47733Z" fill="#DB1B60"/>
<path d="M2.3092 8.0145L9.85378 10.8218L3.33851 7.31997L2.3092 8.0145Z" fill="#EC1D7F"/>
<path d="M18.9997 8.99442L13.8536 13.6428L19.0001 10.0684L18.9997 8.99442Z" fill="#EC1D7F"/>
<path d="M12.4809 14.699L18.9861 8.84736L10.4895 11.0419L12.4809 14.699Z" fill="#DB1B60"/>
<path d="M14.6592 6.06941L18.9503 8.64235L17.2798 3.75641L14.6592 6.06941Z" fill="#DB1B60"/>
<path d="M17.9779 5.44138L18.9705 4.10115L17.3726 3.67082L17.9779 5.44138Z" fill="#DB1B60"/>
<path d="M10.479 11.2761L8.59387 19L12.6803 15.3185L10.479 11.2761Z" fill="#DB1B60"/>
</svg>
