<svg width="19" height="19" viewBox="0 0 19 19" fill="none" xmlns="http://www.w3.org/2000/svg">
<path d="M9.50044 0.253906C6.46044 0.253906 2.78711 2.15391 2.78711 6.96724C2.78711 9.75391 6.58711 15.7072 8.61378 18.3672C8.99378 18.8739 9.75378 18.8739 10.1338 18.3672C12.0338 15.7072 16.0871 9.88057 16.0871 6.96724C16.2138 2.15391 12.5404 0.253906 9.50044 0.253906Z" fill="#D83636"/>
<path d="M13.0476 6.33344L9.62755 1.77344L6.33422 6.33344C5.82755 6.96677 5.57422 7.72677 5.57422 8.61344C5.57422 10.7668 7.34755 12.5401 9.62755 12.5401C11.9076 12.5401 13.6809 10.7668 13.6809 8.61344C13.6809 7.72677 13.4276 6.96677 13.0476 6.33344ZM11.9076 8.99344H10.1342V10.7668H9.24755V8.99344H7.34755V8.10677H9.12089V6.20677H10.1342V7.9801H11.9076V8.99344Z" fill="white"/>
</svg>
