<svg width="19" height="19" viewBox="0 0 19 19" fill="none" xmlns="http://www.w3.org/2000/svg">
<path d="M9.50044 0.253906C6.46044 0.253906 2.78711 2.15391 2.78711 6.96724C2.78711 9.75391 6.58711 15.7072 8.61378 18.3672C8.99378 18.8739 9.75378 18.8739 10.1338 18.3672C12.0338 15.7072 16.0871 9.88057 16.0871 6.96724C16.2138 2.15391 12.5404 0.253906 9.50044 0.253906Z" fill="#AE3DB7"/>
<path d="M12.0343 3.29344C12.0343 4.05344 11.781 4.5601 11.5276 5.19344C11.2743 5.95344 10.8943 6.71344 10.8943 7.85344C10.8943 9.37344 11.401 10.8934 11.9076 10.8934H12.921C13.4276 10.8934 13.9343 9.37344 13.9343 7.85344C13.9343 6.71344 13.681 5.95344 13.301 5.19344C13.0476 4.5601 12.7943 3.92677 12.7943 3.29344C12.7943 2.78677 12.921 2.78677 12.921 2.2801C12.921 2.02677 12.6676 1.77344 12.4143 1.77344C12.161 1.77344 11.9076 2.02677 11.9076 2.2801C11.9076 2.78677 12.0343 2.78677 12.0343 3.29344ZM10.261 7.85344C10.261 6.96677 10.3876 6.33344 10.641 5.7001C9.50096 4.30677 7.47429 4.1801 6.20763 5.3201C4.94096 6.4601 4.68763 8.48677 5.82763 9.8801C6.96763 11.2734 8.9943 11.2734 10.261 10.1334C10.3876 10.1334 10.3876 10.0068 10.5143 10.0068C10.3876 9.37344 10.261 8.61344 10.261 7.85344ZM7.98096 6.0801C7.98096 6.33344 7.85429 6.4601 7.60096 6.4601C7.34763 6.4601 7.09429 6.33344 7.09429 6.0801C7.09429 5.82677 7.34763 5.7001 7.47429 5.7001C7.85429 5.57344 7.98096 5.82677 7.98096 6.0801ZM7.34763 7.47344C7.34763 7.72677 7.09429 7.85344 6.96763 7.85344C6.84096 7.85344 6.46096 7.72677 6.46096 7.47344C6.46096 7.2201 6.71429 7.09344 6.84096 7.09344C7.09429 7.09344 7.34763 7.2201 7.34763 7.47344ZM8.74096 7.47344C8.74096 7.72677 8.48763 7.85344 8.36096 7.85344C8.10763 7.85344 7.98096 7.6001 7.98096 7.47344C7.98096 7.2201 8.23429 7.09344 8.36096 7.09344C8.48763 7.09344 8.74096 7.2201 8.74096 7.47344Z" fill="white"/>
</svg>
