<svg width="19" height="19" viewBox="0 0 19 19" fill="none" xmlns="http://www.w3.org/2000/svg">
<path d="M9.50044 0.253906C6.46044 0.253906 2.78711 2.15391 2.78711 6.96724C2.78711 9.75391 6.58711 15.7072 8.61378 18.3672C8.99378 18.8739 9.75378 18.8739 10.1338 18.3672C12.0338 15.7072 16.0871 9.88057 16.0871 6.96724C16.2138 2.15391 12.5404 0.253906 9.50044 0.253906Z" fill="#5C95B7"/>
<path d="M4.05273 5.82792V8.86792H5.44607V8.10792C5.44607 7.34792 6.0794 6.71459 6.8394 6.71459C7.5994 6.71459 8.23273 7.34792 8.23273 8.10792V8.86792H10.3861V8.10792C10.3861 7.34792 11.0194 6.71459 11.7794 6.71459C12.5394 6.71459 13.1727 7.34792 13.1727 8.10792V8.86792H14.5661V5.82792C11.7794 1.64792 6.33273 2.53459 4.05273 5.82792ZM10.8927 3.54792C11.2727 3.67459 11.6527 3.80125 12.0327 3.92792V5.95459H10.8927V3.54792ZM10.6394 3.54792V5.95459H9.4994V3.42125C9.8794 3.42125 10.2594 3.42125 10.6394 3.54792ZM6.58607 4.05459C6.96607 3.92792 7.34607 3.80125 7.72607 3.67459V5.95459H6.58607V4.05459ZM8.10607 5.95459V3.54792C8.48607 3.42125 8.86607 3.42125 9.24607 3.42125V5.95459H8.10607ZM6.20607 4.30792V5.95459H4.43273C4.9394 5.32125 5.57273 4.68792 6.20607 4.30792ZM12.4127 5.95459V4.18125C13.2994 4.56125 14.0594 5.19459 14.6927 6.08125H12.4127V5.95459Z" fill="white"/>
</svg>
