<svg width="19" height="19" viewBox="0 0 19 19" fill="none" xmlns="http://www.w3.org/2000/svg">
<rect x="3" y="2" width="14" height="14" rx="2" fill="#4461C8"/>
<path d="M7.6876 4.01904C7.23967 4.10695 6.78347 4.5133 6.58017 5.00366C6.45124 5.31037 6.41322 5.5155 6.41322 5.88669V6.12307L6.36364 6.13479C6.33554 6.14066 6.29256 6.15238 6.26612 6.15824C6.18182 6.17582 6.0843 6.27741 6.03967 6.38681L6 6.4884V7.68986V8.89133L6.03967 8.99292C6.10083 9.1453 6.19835 9.21953 6.36364 9.23907L6.40496 9.24298L6.41322 11.0813L6.42149 12.9177L6.46777 12.9998C6.49256 13.0447 6.5438 13.1052 6.58182 13.1346L6.64959 13.1893L7.06116 13.1951L7.47107 13.201V13.412C7.47107 13.6562 7.49752 13.7675 7.57521 13.8632C7.67603 13.9863 7.72231 14 8.08264 14C8.43802 14 8.49091 13.9863 8.58182 13.8711C8.6595 13.7734 8.68264 13.6777 8.69091 13.4295L8.69752 13.199H10H11.3025L11.3091 13.4295C11.3174 13.6777 11.3405 13.7734 11.4182 13.8711C11.5091 13.9863 11.562 14 11.9174 14C12.2727 14 12.3223 13.9863 12.4182 13.8711C12.5058 13.7675 12.519 13.7167 12.5256 13.4491L12.5322 13.201L12.9405 13.1951L13.3504 13.1893L13.4182 13.1346C13.4562 13.1052 13.5074 13.0447 13.5322 12.9998L13.5785 12.9177L13.5868 11.0813L13.595 9.24298L13.6364 9.23907C13.8017 9.21953 13.8992 9.1453 13.9603 8.99292L14 8.89133V7.68986V6.4884L13.9603 6.38681C13.9157 6.27741 13.8182 6.17582 13.7339 6.15824C13.7074 6.15238 13.6645 6.14066 13.6364 6.13479L13.5868 6.12307V5.88669C13.5868 5.61904 13.5702 5.47057 13.519 5.28498C13.3421 4.63052 12.8529 4.12454 12.2975 4.01904C12.1636 3.99365 7.81818 3.99365 7.6876 4.01904ZM12.2529 4.93528C12.514 5.03101 12.719 5.27912 12.795 5.5956C12.8215 5.705 12.8264 5.79096 12.8264 6.13089V6.53724H10H7.17355V6.13089C7.17355 5.79096 7.17851 5.705 7.20496 5.5956C7.28099 5.28498 7.47107 5.04664 7.73223 4.94114L7.84298 4.89816L9.99339 4.89621C12.1025 4.89621 12.1471 4.89621 12.2529 4.93528ZM12.8264 8.6569V9.8779H10H7.17355V8.6569V7.43589H10H12.8264V8.6569ZM12.8264 11.5385V12.3004H10H7.17355V11.5385V10.7766H10H12.8264V11.5385Z" fill="white"/>
<path d="M8.72719 5.25959C8.59165 5.32797 8.50735 5.48425 8.5057 5.66789C8.50405 5.87107 8.59661 6.03126 8.75528 6.09964C8.83793 6.13285 10.9685 6.13871 11.0826 6.1055C11.1801 6.0762 11.2958 5.95507 11.3305 5.84372C11.3999 5.63077 11.3239 5.38462 11.1586 5.28303L11.071 5.22833H9.92719C8.94371 5.23029 8.77677 5.23419 8.72719 5.25959Z" fill="white"/>
<path d="M7.92233 11.0618C7.83638 11.0989 7.72563 11.222 7.68431 11.3294C7.64299 11.4388 7.64299 11.6381 7.68431 11.7475C7.81324 12.0796 8.19175 12.148 8.40001 11.8745C8.46117 11.7944 8.51241 11.64 8.51241 11.5385C8.51241 11.4369 8.46117 11.2825 8.40001 11.2024C8.28101 11.0462 8.09258 10.9914 7.92233 11.0618Z" fill="white"/>
<path d="M11.7437 11.0774C11.5966 11.1575 11.4875 11.3548 11.4875 11.5385C11.4875 11.64 11.5388 11.7944 11.5999 11.8745C11.8082 12.148 12.1867 12.0796 12.3156 11.7475C12.357 11.6381 12.357 11.4388 12.3156 11.3294C12.2181 11.0774 11.9537 10.9602 11.7437 11.0774Z" fill="white"/>
</svg>
