<svg width="19" height="19" viewBox="0 0 19 19" fill="none" xmlns="http://www.w3.org/2000/svg">
<path d="M9.50044 0.253906C6.46044 0.253906 2.78711 2.15391 2.78711 6.96724C2.78711 9.75391 6.58711 15.7072 8.61378 18.3672C8.99378 18.8739 9.75378 18.8739 10.1338 18.3672C12.0338 15.7072 16.0871 9.88057 16.0871 6.96724C16.2138 2.15391 12.5404 0.253906 9.50044 0.253906Z" fill="#C69774"/>
<path d="M13.047 4.30516H11.527V2.78516H5.32031V5.95182C5.32031 7.72516 6.71365 9.11849 8.48698 9.11849C9.62698 9.11849 10.6403 8.48516 11.147 7.59849H13.1736C14.0603 7.59849 14.6936 6.83849 14.6936 6.07849C14.6936 5.31849 13.9336 4.30516 13.047 4.30516ZM13.047 6.71182H11.4003C11.527 6.45849 11.527 6.20516 11.527 5.95182V5.06516H13.047C13.5536 5.06516 13.9336 5.44516 13.9336 5.82516C13.9336 6.33182 13.5536 6.71182 13.047 6.71182ZM11.527 10.1318C11.527 10.3852 11.4003 10.5118 11.147 10.5118H5.70031C5.44698 10.5118 5.32031 10.3852 5.32031 10.1318C5.32031 9.87849 5.44698 9.75182 5.70031 9.75182H11.147C11.4003 9.75182 11.527 10.0052 11.527 10.1318Z" fill="white"/>
</svg>
