<svg width="19" height="19" viewBox="0 0 19 19" fill="none" xmlns="http://www.w3.org/2000/svg">
<path d="M9.50044 0.253906C6.46044 0.253906 2.78711 2.15391 2.78711 6.96724C2.78711 9.75391 6.58711 15.7072 8.61378 18.3672C8.99378 18.8739 9.75378 18.8739 10.1338 18.3672C12.0338 15.7072 16.0871 9.88057 16.0871 6.96724C16.2138 2.15391 12.5404 0.253906 9.50044 0.253906Z" fill="#5EA59E"/>
<path d="M14.82 9.11927V9.87927C14.82 10.3859 14.44 10.6393 14.06 10.6393H5.06664C4.55997 10.6393 4.30664 10.2593 4.30664 9.87927V9.11927C4.30664 8.6126 4.68664 8.35927 5.06664 8.35927H5.31997L9.24664 2.02594C9.37331 1.7726 9.87997 1.7726 10.0066 2.02594L13.9333 8.35927C14.44 8.2326 14.82 8.6126 14.82 9.11927ZM11.9066 8.2326L9.49997 4.17927L7.09331 8.2326H11.9066Z" fill="white"/>
</svg>
