<svg width="19" height="19" viewBox="0 0 19 19" fill="none" xmlns="http://www.w3.org/2000/svg">
<path d="M9.50044 0.253906C6.46044 0.253906 2.78711 2.15391 2.78711 6.96724C2.78711 9.75391 6.58711 15.7072 8.61378 18.3672C8.99378 18.8739 9.75378 18.8739 10.1338 18.3672C12.0338 15.7072 16.0871 9.88057 16.0871 6.96724C16.2138 2.15391 12.5404 0.253906 9.50044 0.253906Z" fill="#476577"/>
<path d="M6.20612 5.32125C6.71279 5.32125 7.21945 5.06792 7.47279 4.56125H12.7928C13.1728 4.56125 13.5528 4.18125 13.5528 3.80125C13.5528 3.42125 13.1728 3.04125 12.7928 3.04125H7.47279C7.21945 2.66125 6.71279 2.28125 6.20612 2.28125C5.69945 2.28125 5.19279 2.53458 4.93945 3.04125H6.20612V4.56125H4.93945C5.19279 4.94125 5.69945 5.32125 6.20612 5.32125ZM5.57279 8.48792C5.57279 8.61458 5.44612 8.74125 5.44612 8.74125V11.5279C5.44612 11.7813 5.57279 11.9079 5.82612 11.9079H6.96612C7.21945 11.9079 7.34612 11.7813 7.34612 11.5279V11.2746H11.7795V11.6546C11.7795 11.9079 11.9061 12.0346 12.1595 12.0346H13.2995C13.5528 12.0346 13.6795 11.9079 13.6795 11.6546V8.74125C13.6795 8.61458 13.6795 8.48792 13.5528 8.48792L12.9195 7.85458L11.9061 6.20792C11.7795 6.08125 11.6528 6.08125 11.5261 6.08125H7.59945C7.47279 6.08125 7.34612 6.20792 7.21945 6.20792L6.20612 7.85458L5.57279 8.48792ZM12.2861 8.23458H6.83945L7.72612 6.71458H11.3995L12.2861 8.23458ZM8.10612 9.62792V9.88125C8.10612 10.0079 7.97945 10.1346 7.85279 10.1346H6.45945C6.33279 10.1346 6.20612 10.0079 6.20612 9.88125V9.24792C6.20612 9.12125 6.33279 8.99458 6.45945 8.99458L7.85279 9.24792C7.97945 9.37458 8.10612 9.50125 8.10612 9.62792ZM12.9195 9.37458V9.88125C12.9195 10.0079 12.7928 10.1346 12.6661 10.1346H11.2728C11.1461 10.1346 11.0195 10.0079 11.0195 9.88125V9.50125C11.0195 9.37458 11.1461 9.24792 11.1461 9.24792L12.4128 8.99458C12.6661 8.99458 12.9195 9.12125 12.9195 9.37458Z" fill="white"/>
</svg>
