<svg width="19" height="19" viewBox="0 0 19 19" fill="none" xmlns="http://www.w3.org/2000/svg">
<path d="M9.50044 0.253906C6.46044 0.253906 2.78711 2.15391 2.78711 6.96724C2.78711 9.75391 6.58711 15.7072 8.61378 18.3672C8.99378 18.8739 9.75378 18.8739 10.1338 18.3672C12.0338 15.7072 16.0871 9.88057 16.0871 6.96724C16.2138 2.15391 12.5404 0.253906 9.50044 0.253906Z" fill="#629E5F"/>
<path d="M11.5264 2.02734C11.1464 2.02734 10.7664 2.40734 10.7664 2.78734H5.06641V3.54734L5.82641 4.30734L6.58641 3.54734L7.34641 4.30734L8.10641 3.54734L8.86641 4.30734H10.7664C10.7664 4.68734 11.1464 5.06734 11.5264 5.06734H13.0464C13.2997 5.06734 13.4264 4.94068 13.4264 4.68734V2.40734C13.4264 2.15401 13.2997 2.02734 13.0464 2.02734H11.5264ZM11.9064 3.16734C11.9064 2.91401 12.0331 2.78734 12.2864 2.78734C12.5397 2.78734 12.6664 2.91401 12.6664 3.16734V3.92734C12.6664 4.18068 12.5397 4.30734 12.2864 4.30734C12.0331 4.30734 11.9064 4.18068 11.9064 3.92734V3.16734ZM5.19307 8.36068C5.06641 8.48734 5.06641 8.61401 5.06641 8.61401V11.5273C5.06641 11.7807 5.19307 11.9073 5.44641 11.9073H6.58641C6.83974 11.9073 6.96641 11.7807 6.96641 11.5273V11.1473H11.5264V11.5273C11.5264 11.7807 11.6531 11.9073 11.9064 11.9073H13.0464C13.2997 11.9073 13.4264 11.7807 13.4264 11.5273V8.61401C13.4264 8.48734 13.4264 8.36068 13.2997 8.36068L12.6664 7.72734L11.6531 5.95401C11.6531 5.82734 11.5264 5.82734 11.3997 5.82734H7.21974C7.09307 5.82734 6.96641 5.95401 6.83974 5.95401L5.82641 7.72734L5.19307 8.36068ZM12.0331 8.10734H6.45974L7.34641 6.58734H11.0197L12.0331 8.10734ZM7.72641 9.50068V9.75401C7.72641 9.88068 7.59974 10.0073 7.47307 10.0073H6.07974C5.95307 10.0073 5.82641 9.88068 5.82641 9.75401V9.12068C5.82641 8.99401 5.95307 8.86734 6.07974 8.86734L7.47307 9.12068C7.59974 9.24734 7.72641 9.37401 7.72641 9.50068ZM12.6664 9.24734V9.75401C12.6664 9.88068 12.5397 10.0073 12.4131 10.0073H11.0197C10.8931 10.0073 10.7664 9.88068 10.7664 9.75401V9.50068C10.7664 9.37401 10.8931 9.24734 10.8931 9.24734L12.2864 8.99401C12.5397 8.86734 12.6664 9.12068 12.6664 9.24734Z" fill="white"/>
</svg>
