<svg width="19" height="19" viewBox="0 0 19 19" fill="none" xmlns="http://www.w3.org/2000/svg">
<path d="M9.50044 0.253906C6.46044 0.253906 2.78711 2.15391 2.78711 6.96724C2.78711 9.75391 6.58711 15.7072 8.61378 18.3672C8.99378 18.8739 9.75378 18.8739 10.1338 18.3672C12.0338 15.7072 16.0871 9.88057 16.0871 6.96724C16.2138 2.15391 12.5404 0.253906 9.50044 0.253906Z" fill="#9FA05F"/>
<path d="M14.5666 5.82516L13.5533 4.93849L12.6666 3.16516C12.54 2.91182 12.2866 2.78516 11.9066 2.78516H7.09331C6.71331 2.78516 6.45997 2.91182 6.33331 3.16516L5.44664 4.93849L4.43331 5.82516C4.43331 5.95182 4.30664 5.95182 4.30664 6.07849V9.49849C4.30664 9.75182 4.43331 9.87849 4.68664 9.87849H6.33331C6.45997 9.87849 6.71331 9.75182 6.71331 9.49849V9.11849H12.2866V9.49849C12.2866 9.62516 12.4133 9.87849 12.6666 9.87849H14.3133C14.5666 9.87849 14.6933 9.75182 14.6933 9.49849V6.07849C14.6933 5.95182 14.5666 5.95182 14.5666 5.82516ZM7.09331 3.54516H11.9066L12.6666 5.19182H6.33331L7.09331 3.54516ZM7.47331 7.21849C7.47331 7.34516 7.21997 7.59849 7.09331 7.59849H5.44664C5.31997 7.59849 5.06664 7.34516 5.06664 7.21849V6.20516C5.19331 5.95182 5.31997 5.82516 5.57331 5.82516L7.21997 6.20516C7.34664 6.20516 7.59997 6.45849 7.59997 6.58516V7.21849H7.47331ZM13.8066 7.09182C13.8066 7.21849 13.68 7.47182 13.4266 7.47182H11.9066C11.78 7.47182 11.5266 7.34516 11.5266 7.09182V6.58516C11.5266 6.45849 11.6533 6.20516 11.9066 6.20516L13.5533 5.82516C13.8066 5.69849 13.9333 5.95182 14.06 6.20516V7.09182H13.8066Z" fill="white"/>
</svg>
