<svg width="19" height="19" viewBox="0 0 19 19" fill="none" xmlns="http://www.w3.org/2000/svg">
<path d="M9.50044 0.253906C6.46044 0.253906 2.78711 2.15391 2.78711 6.96724C2.78711 9.75391 6.58711 15.7072 8.61378 18.3672C8.99378 18.8739 9.75378 18.8739 10.1338 18.3672C12.0338 15.7072 16.0871 9.88057 16.0871 6.96724C16.2138 2.15391 12.5404 0.253906 9.50044 0.253906Z" fill="#A585BA"/>
<path d="M10.2597 8.74177C10.6397 9.24844 11.1464 9.50177 11.9064 9.50177C13.0464 9.62844 13.9331 8.74177 13.9331 7.60177C13.9331 7.0951 13.8064 6.7151 13.5531 6.46177L9.49974 1.64844L5.57307 6.46177C5.31974 6.7151 5.06641 7.0951 5.06641 7.60177C5.06641 8.74177 5.95307 9.62844 7.09307 9.62844C7.72641 9.62844 8.35974 9.3751 8.73974 8.86844C8.86641 8.74177 8.99307 8.6151 9.11974 8.36177V10.1351C9.11974 11.2751 7.09307 11.2751 7.09307 11.2751C6.83974 11.1484 6.71307 11.4018 6.71307 11.6551C6.71307 11.9084 6.83974 12.0351 7.09307 12.0351H9.11974H9.87974H11.9064C12.1597 12.0351 12.2864 11.9084 12.2864 11.6551C12.2864 11.4018 12.1597 11.2751 11.9064 11.2751C11.9064 11.2751 9.87974 11.2751 9.87974 10.1351V8.2351C10.0064 8.48844 10.2597 8.74177 10.2597 8.74177Z" fill="white"/>
</svg>
