<svg width="19" height="19" viewBox="0 0 19 19" fill="none" xmlns="http://www.w3.org/2000/svg">
<path d="M9.50044 0.253906C6.46044 0.253906 2.78711 2.15391 2.78711 6.96724C2.78711 9.75391 6.58711 15.7072 8.61378 18.3672C8.99378 18.8739 9.75378 18.8739 10.1338 18.3672C12.0338 15.7072 16.0871 9.88057 16.0871 6.96724C16.2138 2.15391 12.5404 0.253906 9.50044 0.253906Z" fill="#C6859C"/>
<path d="M11.7803 4.43344H7.22031C6.84031 4.43344 6.58698 4.05344 6.58698 3.8001V2.15344C6.58698 2.02677 6.71365 1.77344 6.96698 1.77344C7.09365 1.77344 7.34698 1.9001 7.34698 2.15344V3.16677H7.98031V2.40677C7.98031 2.02677 8.23365 1.77344 8.61365 1.77344C8.99365 1.77344 9.24698 2.02677 9.24698 2.40677V3.0401H9.88031V2.40677C9.88031 2.02677 10.1336 1.77344 10.5136 1.77344C10.8936 1.77344 11.147 2.02677 11.147 2.40677V3.0401H11.7803V2.15344C11.7803 2.02677 11.907 1.77344 12.1603 1.77344C12.4136 1.77344 12.5403 1.9001 12.5403 2.15344V3.8001C12.4136 4.05344 12.1603 4.43344 11.7803 4.43344ZM13.6803 11.2734C13.6803 11.4001 13.5536 11.6534 13.3003 11.6534H5.57365C5.44698 11.5268 5.32031 11.4001 5.32031 11.2734C5.32031 11.1468 5.44698 10.8934 5.70031 10.8934H6.08031C6.46031 10.8934 6.71365 10.6401 6.71365 10.2601C6.71365 10.2601 7.34698 6.33344 7.34698 5.7001C7.22031 5.3201 7.47365 5.06677 7.85365 5.06677H11.147C11.527 5.06677 11.7803 5.3201 11.7803 5.7001C11.7803 6.33344 12.4136 10.2601 12.4136 10.2601C12.4136 10.6401 12.667 10.8934 13.047 10.8934H13.427C13.5536 10.8934 13.6803 11.0201 13.6803 11.2734ZM10.5136 8.61344C10.5136 8.10677 10.007 7.6001 9.50031 7.6001C8.99365 7.6001 8.48698 8.10677 8.48698 8.61344V10.8934H10.387V8.61344H10.5136Z" fill="white"/>
</svg>
