<svg width="19" height="19" viewBox="0 0 19 19" fill="none" xmlns="http://www.w3.org/2000/svg">
<path d="M9.50044 0.253906C6.46044 0.253906 2.78711 2.15391 2.78711 6.96724C2.78711 9.75391 6.58711 15.7072 8.61378 18.3672C8.99378 18.8739 9.75378 18.8739 10.1338 18.3672C12.0338 15.7072 16.0871 9.88057 16.0871 6.96724C16.2138 2.15391 12.5404 0.253906 9.50044 0.253906Z" fill="#5257A8"/>
<path d="M13.5539 11.0196C13.0472 11.0196 12.7939 10.6396 12.7939 10.2596V6.45958H11.5272C11.0205 6.45958 10.7672 6.07958 10.7672 5.69958V4.05292H8.23388V5.69958C8.23388 6.20625 7.85388 6.45958 7.47388 6.45958H6.20721V10.1329C6.20721 10.6396 5.82721 10.8929 5.44721 10.8929C5.06721 10.8929 4.56055 10.6396 4.56055 10.1329V5.69958C4.56055 5.19292 4.94055 4.93958 5.32055 4.93958H6.58721V3.16625C6.58721 2.65958 6.96721 2.40625 7.34721 2.40625H11.4005C11.9072 2.40625 12.1605 2.78625 12.1605 3.16625V4.81292H13.4272C13.9339 4.81292 14.1872 5.19292 14.1872 5.57292V10.1329C14.4405 10.6396 14.0605 11.0196 13.5539 11.0196Z" fill="white"/>
</svg>
