<svg width="19" height="19" viewBox="0 0 19 19" fill="none" xmlns="http://www.w3.org/2000/svg">
<path d="M9.50044 0.253906C6.46044 0.253906 2.78711 2.15391 2.78711 6.96724C2.78711 9.75391 6.58711 15.7072 8.61378 18.3672C8.99378 18.8739 9.75378 18.8739 10.1338 18.3672C12.0338 15.7072 16.0871 9.88057 16.0871 6.96724C16.2138 2.15391 12.5404 0.253906 9.50044 0.253906Z" fill="#D3AC4A"/>
<path d="M5.06682 9.49885L9.12015 2.15219C9.37348 1.77219 9.88015 1.77219 10.0068 2.15219L13.9335 9.49885C14.1868 9.87885 13.9335 10.2589 13.4268 10.2589H5.44682C5.06682 10.2589 4.81348 9.87885 5.06682 9.49885ZM10.0068 6.83885L10.3868 5.06552C10.3868 4.81219 10.2602 4.68552 10.0068 4.68552H8.99348C8.74015 4.68552 8.61348 4.93885 8.61348 5.06552L8.86682 6.71219H10.0068V6.83885ZM10.2602 8.10552C10.2602 7.72552 9.88015 7.34552 9.50015 7.34552C9.12015 7.34552 8.74015 7.72552 8.74015 8.10552C8.74015 8.61219 9.12015 8.86552 9.50015 8.86552C9.88015 8.86552 10.2602 8.61219 10.2602 8.10552Z" fill="white"/>
</svg>
