<svg width="19" height="19" viewBox="0 0 19 19" fill="none" xmlns="http://www.w3.org/2000/svg">
<path d="M9.50044 0.253906C6.46044 0.253906 2.78711 2.15391 2.78711 6.96724C2.78711 9.75391 6.58711 15.7072 8.61378 18.3672C8.99378 18.8739 9.75378 18.8739 10.1338 18.3672C12.0338 15.7072 16.0871 9.88057 16.0871 6.96724C16.2138 2.15391 12.5404 0.253906 9.50044 0.253906Z" fill="#8F4DCE"/>
<path d="M12.92 10.0051H10.3867V2.7851C10.3867 2.27844 10.1334 1.89844 9.62669 1.89844H9.50003C8.99336 1.89844 8.61336 2.15177 8.61336 2.65844V2.7851V10.1318H6.08003C5.57336 10.1318 5.19336 10.5118 5.19336 11.0184C5.19336 11.5251 5.57336 11.9051 6.08003 11.9051H12.92C13.4267 11.9051 13.8067 11.6518 13.8067 11.1451V11.0184C13.8067 10.3851 13.4267 10.0051 12.92 10.0051Z" fill="white"/>
</svg>
