<svg width="19" height="19" viewBox="0 0 19 19" fill="none" xmlns="http://www.w3.org/2000/svg">
<path d="M9.50044 0.253906C6.46044 0.253906 2.78711 2.15391 2.78711 6.96724C2.78711 9.75391 6.58711 15.7072 8.61378 18.3672C8.99378 18.8739 9.75378 18.8739 10.1338 18.3672C12.0338 15.7072 16.0871 9.88057 16.0871 6.96724C16.2138 2.15391 12.5404 0.253906 9.50044 0.253906Z" fill="#D14B74"/>
<path d="M12.6662 10.259H12.1595L13.1728 3.41896C13.1728 3.16563 13.0462 3.03896 12.7928 2.91229H11.7795C11.7795 2.15229 10.7662 1.26562 9.49951 1.26562C8.23284 1.26562 7.34617 2.27896 7.34617 2.91229H6.33284C6.07951 2.91229 5.95284 3.03896 5.95284 3.29229L6.96617 10.1323H6.33284C6.07951 10.1323 5.95284 10.259 5.82617 10.5123V11.779H13.0462V10.5123C13.1728 10.3856 12.9195 10.259 12.6662 10.259ZM7.09284 4.55896H11.9062V5.31896H7.09284V4.55896Z" fill="white"/>
</svg>
