<svg width="19" height="19" viewBox="0 0 19 19" fill="none" xmlns="http://www.w3.org/2000/svg">
<path d="M9.50044 0.253906C6.46044 0.253906 2.78711 2.15391 2.78711 6.96724C2.78711 9.75391 6.58711 15.7072 8.61378 18.3672C8.99378 18.8739 9.75378 18.8739 10.1338 18.3672C12.0338 15.7072 16.0871 9.88057 16.0871 6.96724C16.2138 2.15391 12.5404 0.253906 9.50044 0.253906Z" fill="#CC7A4E"/>
<path d="M5.57422 7.2212L9.62755 1.64786C9.75422 1.5212 10.0076 1.39453 10.1342 1.39453C10.5142 1.39453 10.8942 1.77453 10.7676 2.2812L10.0076 5.57453C10.0076 5.7012 10.0076 5.82786 10.2609 5.82786H12.9209C13.3009 5.82786 13.5542 6.0812 13.5542 6.4612C13.5542 6.58786 13.5542 6.71453 13.4276 6.8412L9.24755 12.2879C9.12089 12.5412 8.99422 12.6679 8.74089 12.6679C8.36089 12.6679 7.98089 12.2879 8.10755 11.7812L8.99422 8.48786C8.99422 8.3612 8.99422 8.23453 8.74089 8.23453H6.08089C5.82755 8.23453 5.57422 7.9812 5.57422 7.6012C5.57422 7.47453 5.57422 7.34786 5.57422 7.2212Z" fill="white"/>
</svg>
