<svg width="19" height="19" viewBox="0 0 19 19" fill="none" xmlns="http://www.w3.org/2000/svg">
<path d="M9.50044 0.253906C6.46044 0.253906 2.78711 2.15391 2.78711 6.96724C2.78711 9.75391 6.58711 15.7072 8.61378 18.3672C8.99378 18.8739 9.75378 18.8739 10.1338 18.3672C12.0338 15.7072 16.0871 9.88057 16.0871 6.96724C16.2138 2.15391 12.5404 0.253906 9.50044 0.253906Z" fill="#6ECD4A"/>
<path d="M14.4405 6.45844V8.1051C14.4405 8.35844 14.3139 8.4851 14.0605 8.4851C13.8072 8.4851 13.6805 8.35844 13.6805 8.1051C13.6805 8.1051 13.6805 7.7251 12.7939 7.7251H12.0339V9.75177C12.0339 10.0051 11.9072 10.1318 11.6539 10.1318H4.94055C4.68721 10.1318 4.56055 10.0051 4.56055 9.75177V6.45844C4.56055 6.2051 4.68721 6.07844 4.94055 6.07844H11.6539C11.9072 6.07844 12.0339 6.2051 12.0339 6.45844V6.83844H12.9205C13.8072 6.83844 13.8072 6.45844 13.8072 6.45844C13.8072 6.2051 13.9339 6.07844 14.1872 6.07844C14.4405 6.07844 14.4405 6.33177 14.4405 6.45844ZM6.20721 2.7851C5.32055 2.7851 4.56055 3.5451 4.56055 4.43177C4.56055 5.31844 5.32055 6.07844 6.20721 6.07844C7.09388 6.07844 7.85388 5.31844 7.85388 4.43177C7.85388 3.5451 7.09388 2.7851 6.20721 2.7851ZM6.20721 5.31844C5.70055 5.31844 5.32055 4.93844 5.32055 4.43177C5.32055 3.9251 5.70055 3.5451 6.20721 3.5451C6.71388 3.5451 7.09388 3.9251 7.09388 4.43177C7.09388 4.93844 6.58721 5.31844 6.20721 5.31844ZM9.88055 1.89844C8.74055 1.89844 7.85388 2.7851 7.85388 3.9251C7.85388 5.0651 8.74055 5.95177 9.88055 5.95177C11.0205 5.95177 11.9072 5.0651 11.9072 3.9251C11.9072 2.7851 11.0205 1.89844 9.88055 1.89844ZM9.88055 5.31844C9.24721 5.31844 8.61388 4.81177 8.61388 4.05177C8.61388 3.29177 9.12055 2.7851 9.88055 2.7851C10.6405 2.7851 11.1472 3.29177 11.1472 4.05177C11.1472 4.81177 10.6405 5.31844 9.88055 5.31844Z" fill="white"/>
</svg>
