<svg width="19" height="19" viewBox="0 0 19 19" fill="none" xmlns="http://www.w3.org/2000/svg">
<path d="M9.50044 0.253906C6.46044 0.253906 2.78711 2.15391 2.78711 6.96724C2.78711 9.75391 6.58711 15.7072 8.61378 18.3672C8.99378 18.8739 9.75378 18.8739 10.1338 18.3672C12.0338 15.7072 16.0871 9.88057 16.0871 6.96724C16.2138 2.15391 12.5404 0.253906 9.50044 0.253906Z" fill="#94A842"/>
<path d="M9.50083 10.2584C7.60083 10.2584 5.95417 8.61177 5.95417 6.71177C5.95417 4.81177 7.60083 3.1651 9.50083 3.1651C11.4008 3.1651 13.0475 4.81177 13.0475 6.71177C13.0475 8.61177 11.4008 10.2584 9.50083 10.2584ZM9.50083 11.5251C12.1608 11.5251 14.3142 9.37177 14.3142 6.71177C14.3142 4.05177 12.1608 1.89844 9.50083 1.89844C6.84083 1.89844 4.6875 4.05177 4.6875 6.71177C4.6875 9.37177 6.84083 11.5251 9.50083 11.5251Z" fill="white"/>
</svg>
