<svg width="19" height="19" viewBox="0 0 19 19" fill="none" xmlns="http://www.w3.org/2000/svg">
<path d="M9.50044 0.253906C6.46044 0.253906 2.78711 2.15391 2.78711 6.96724C2.78711 9.75391 6.58711 15.7072 8.61378 18.3672C8.99378 18.8739 9.75378 18.8739 10.1338 18.3672C12.0338 15.7072 16.0871 9.88057 16.0871 6.96724C16.2138 2.15391 12.5404 0.253906 9.50044 0.253906Z" fill="#37B59D"/>
<path d="M13.427 3.80125H12.1603V2.53458C12.1603 2.40792 12.0336 2.28125 11.907 2.28125H11.6536C11.527 2.28125 11.4003 2.40792 11.4003 2.53458V3.80125H10.1336C10.007 3.80125 9.88031 3.92792 9.88031 4.05458V8.36125H7.09365C6.96698 8.36125 6.84031 8.48792 6.84031 8.61458V10.3879C6.84031 10.5146 6.96698 10.6412 7.09365 10.6412H13.427C13.5536 10.6412 13.6803 10.5146 13.6803 10.3879V4.05458C13.6803 3.92792 13.5536 3.80125 13.427 3.80125ZM8.36031 9.88125H7.60031V9.12125H8.36031V9.88125ZM9.88031 9.88125H9.12031V9.12125H9.88031V9.88125ZM11.4003 9.88125H10.6403V9.12125H11.4003V9.88125ZM11.4003 8.36125H10.6403V7.60125H11.4003V8.36125ZM11.4003 6.84125H10.6403V6.08125H11.4003V6.84125ZM11.4003 5.32125H10.6403V4.56125H11.4003V5.32125ZM12.9203 9.88125H12.1603V9.12125H12.9203V9.88125ZM12.9203 8.36125H12.1603V7.60125H12.9203V8.36125ZM12.9203 6.84125H12.1603V6.08125H12.9203V6.84125ZM12.9203 5.32125H12.1603V4.56125H12.9203V5.32125ZM9.12031 2.53458C9.12031 2.40792 8.99365 2.28125 8.86698 2.28125H7.09365C6.96698 2.28125 6.84031 2.40792 6.84031 2.53458V3.80125H5.57365C5.44698 3.80125 5.32031 3.92792 5.32031 4.05458V10.3879C5.32031 10.5146 5.44698 10.6412 5.57365 10.6412H6.08031V7.60125H9.12031V2.53458ZM6.84031 6.84125H6.08031V6.08125H6.84031V6.84125ZM6.84031 5.32125H6.08031V4.56125H6.84031V5.32125ZM8.36031 6.84125H7.60031V6.08125H8.36031V6.84125ZM8.36031 5.32125H7.60031V4.56125H8.36031V5.32125ZM8.36031 3.80125H7.60031V3.04125H8.36031V3.80125Z" fill="white"/>
</svg>
