<svg width="19" height="19" viewBox="0 0 19 19" fill="none" xmlns="http://www.w3.org/2000/svg">
<path d="M9.50044 0.253906C6.46044 0.253906 2.78711 2.15391 2.78711 6.96724C2.78711 9.75391 6.58711 15.7072 8.61378 18.3672C8.99378 18.8739 9.75378 18.8739 10.1338 18.3672C12.0338 15.7072 16.0871 9.88057 16.0871 6.96724C16.2138 2.15391 12.5404 0.253906 9.50044 0.253906Z" fill="#BC47BF"/>
<path d="M13.5542 3.0412H10.2608V2.15453C10.2608 1.64786 9.88083 1.39453 9.50083 1.39453C9.12083 1.39453 8.74083 1.77453 8.74083 2.15453V2.91453H5.4475C5.0675 3.0412 4.6875 3.4212 4.6875 3.8012C4.6875 4.30786 5.0675 4.5612 5.4475 4.5612H5.95417C6.33417 5.7012 6.84083 6.8412 7.60083 7.72786C7.85417 8.10786 8.1075 8.3612 8.36083 8.7412C7.7275 9.24786 7.09417 9.8812 6.33417 10.3879C5.95417 10.5145 5.70083 11.0212 5.95417 11.4012C6.2075 11.7812 6.71417 11.9079 7.09417 11.7812C7.98083 11.2745 8.74083 10.6412 9.50083 9.8812C10.2608 10.6412 11.0208 11.2745 11.9075 11.7812C12.2875 12.0345 12.7942 11.9079 13.0475 11.4012C13.3008 10.8945 13.1742 10.5145 12.6675 10.2612C11.9075 9.8812 11.2742 9.24786 10.6408 8.61453C10.8942 8.3612 11.1475 7.9812 11.4008 7.72786C12.1608 6.8412 12.6675 5.82786 13.0475 4.68786H13.5542C14.0608 4.68786 14.3142 4.30786 14.3142 3.92786C14.3142 3.54786 13.9342 3.0412 13.5542 3.0412ZM10.1342 6.71453C9.88083 6.96786 9.75417 7.2212 9.50083 7.47453C9.2475 7.2212 9.12083 6.96786 8.8675 6.71453C8.36083 6.0812 7.98083 5.3212 7.7275 4.5612H11.2742C11.0208 5.3212 10.6408 6.0812 10.1342 6.71453Z" fill="white"/>
</svg>
