<svg width="19" height="19" viewBox="0 0 19 19" fill="none" xmlns="http://www.w3.org/2000/svg">
<path d="M9.50044 0.253906C6.46044 0.253906 2.78711 2.15391 2.78711 6.96724C2.78711 9.75391 6.58711 15.7072 8.61378 18.3672C8.99378 18.8739 9.75378 18.8739 10.1338 18.3672C12.0338 15.7072 16.0871 9.88057 16.0871 6.96724C16.2138 2.15391 12.5404 0.253906 9.50044 0.253906Z" fill="#78909C"/>
<path d="M9.4994 1.39453L4.05273 3.92786L5.57273 4.5612V5.82786C5.06607 5.95453 4.81273 6.4612 4.81273 6.8412C4.81273 7.2212 5.06607 7.72786 5.44607 7.85453V7.9812L4.81273 9.5012C4.5594 10.1345 4.81273 10.8945 5.82607 10.8945C6.8394 10.8945 7.09273 10.1345 6.8394 9.5012L6.20607 7.9812C6.58607 7.72787 6.96607 7.34787 6.96607 6.8412C6.96607 6.33453 6.71273 5.95453 6.20607 5.82786V4.9412L9.4994 6.4612L14.9461 3.92786L9.4994 1.39453ZM12.6661 6.0812L9.37273 7.6012L7.72607 6.8412V6.96787C7.72607 7.47453 7.47273 7.85453 7.09273 8.23453L7.47273 9.24787V9.37453C7.5994 9.5012 7.72607 9.8812 7.5994 10.1345C8.10607 10.3879 8.7394 10.5145 9.37273 10.5145C11.7794 10.5145 12.6661 8.99453 12.6661 8.3612V6.0812Z" fill="white"/>
</svg>
