<svg width="19" height="19" viewBox="0 0 19 19" fill="none" xmlns="http://www.w3.org/2000/svg">
<path d="M9.50044 0.253906C6.46044 0.253906 2.78711 2.15391 2.78711 6.96724C2.78711 9.75391 6.58711 15.7072 8.61378 18.3672C8.99378 18.8739 9.75378 18.8739 10.1338 18.3672C12.0338 15.7072 16.0871 9.88057 16.0871 6.96724C16.2138 2.15391 12.5404 0.253906 9.50044 0.253906Z" fill="#49AFBA"/>
<path d="M12.6676 6.08068L12.2876 5.82734C13.0476 4.81401 13.0476 3.42068 12.5409 2.28068V2.15401L12.7942 2.02734L12.9209 2.15401C13.5542 3.42068 13.4276 4.81401 12.6676 6.08068ZM13.4276 11.1473V11.4007H5.57422V11.1473H7.34755L8.48755 5.95401C8.48755 5.82734 8.61422 5.70068 8.86755 5.70068H9.37422V4.68734C8.99422 4.56068 8.74089 4.30734 8.74089 3.92734C8.74089 3.42068 9.12089 3.04068 9.62755 3.04068C10.1342 3.04068 10.5142 3.42068 10.5142 3.92734C10.5142 4.30734 10.2609 4.68734 9.88089 4.68734V5.70068H10.3876C10.5142 5.70068 10.7676 5.82734 10.7676 5.95401L11.9076 11.1473H13.4276ZM10.1342 7.72734H8.86755L8.61422 8.74068H10.5142L10.1342 7.72734ZM8.48755 9.12068L8.23422 10.2607H10.6409L10.5142 9.12068H8.48755ZM9.12089 6.46068L8.86755 7.34734H10.1342L9.88089 6.46068H9.12089ZM8.10755 11.1473H11.0209L10.7676 10.6407H8.23422L8.10755 11.1473ZM7.85422 4.94068C7.47422 4.30734 7.47422 3.42068 7.85422 2.78734L7.60089 2.53401C7.09422 3.29401 7.09422 4.30734 7.60089 5.19401L7.85422 4.94068ZM11.9076 3.92734C11.9076 3.42068 11.7809 3.04068 11.5276 2.66068L11.1476 2.78734C11.5276 3.42068 11.5276 4.30734 11.1476 4.94068L11.4009 5.19401C11.6542 4.81401 11.9076 4.43401 11.9076 3.92734ZM6.58755 5.82734C5.82755 4.68734 5.82755 3.29401 6.46089 2.15401L6.20755 2.02734C5.44755 3.29401 5.57422 4.81401 6.33422 5.95401L6.58755 5.82734Z" fill="white"/>
</svg>
