<svg width="19" height="19" viewBox="0 0 19 19" fill="none" xmlns="http://www.w3.org/2000/svg">
<path d="M9.50044 0.253906C6.46044 0.253906 2.78711 2.15391 2.78711 6.96724C2.78711 9.75391 6.58711 15.7072 8.61378 18.3672C8.99378 18.8739 9.75378 18.8739 10.1338 18.3672C12.0338 15.7072 16.0871 9.88057 16.0871 6.96724C16.2138 2.15391 12.5404 0.253906 9.50044 0.253906Z" fill="#5491F5"/>
<path d="M14.8197 5.82849H4.17969C4.30635 4.68849 4.55969 3.54849 5.06635 2.53516H13.933C14.4397 3.54849 14.693 4.68849 14.8197 5.82849ZM5.82635 6.58849H13.173V11.4018H12.2864V7.47516H9.87969V11.5285H5.82635V6.58849ZM6.71302 9.12182H9.11969V7.47516H6.71302V9.12182Z" fill="white"/>
</svg>
