<svg width="19" height="19" viewBox="0 0 19 19" fill="none" xmlns="http://www.w3.org/2000/svg">
<path d="M9.50044 0.253906C6.46044 0.253906 2.78711 2.15391 2.78711 6.96724C2.78711 9.75391 6.58711 15.7072 8.61378 18.3672C8.99378 18.8739 9.75378 18.8739 10.1338 18.3672C12.0338 15.7072 16.0871 9.88057 16.0871 6.96724C16.2138 2.15391 12.5404 0.253906 9.50044 0.253906Z" fill="#D14343"/>
<path d="M14.1872 3.29286C14.1872 2.7862 13.8072 2.4062 13.3005 2.4062C13.3005 1.89953 12.9205 1.51953 12.4138 1.51953C11.9072 1.51953 11.5272 1.89953 11.5272 2.4062V4.17953C10.3872 2.91286 8.48716 2.91286 7.22049 4.05286C6.33383 5.0662 6.08049 6.45953 6.58716 7.59953H4.56049C4.05383 7.59953 3.67383 7.97953 3.67383 8.4862C3.67383 8.99286 4.05383 9.37286 4.56049 9.37286C4.56049 9.87953 4.94049 10.2595 5.44716 10.2595C5.44716 10.7662 5.82716 11.1462 6.33383 11.1462C6.84049 11.1462 7.22049 10.7662 7.22049 10.2595V8.4862C8.36049 9.75286 10.2605 9.75286 11.5272 8.61286C12.4138 7.59953 12.6672 6.2062 12.1605 5.0662H14.1872C14.6938 5.0662 15.0738 4.6862 15.0738 4.17953C15.0738 3.67286 14.6938 3.29286 14.1872 3.29286ZM9.37383 8.4862C8.23383 8.4862 7.22049 7.59953 7.22049 6.33286C7.22049 5.57286 7.60049 4.81286 8.36049 4.43286C8.48716 4.43286 8.74049 4.55953 8.86716 4.6862C9.12049 5.0662 9.24716 5.4462 9.24716 5.95286V6.83953C9.24716 7.3462 9.37383 7.97953 9.75383 8.35953C9.88049 8.4862 9.88049 8.4862 10.0072 8.61286C9.62716 8.4862 9.50049 8.4862 9.37383 8.4862ZM10.3872 8.23286C10.2605 8.23286 10.0072 8.1062 9.88049 7.97953C9.62716 7.59953 9.50049 7.21953 9.62716 6.71287V5.8262C9.62716 5.31953 9.50049 4.6862 9.12049 4.3062C9.12049 4.3062 8.99383 4.3062 8.86716 4.17953C10.0072 3.9262 11.1472 4.6862 11.4005 5.8262C11.6538 6.83953 11.2738 7.7262 10.3872 8.23286Z" fill="white"/>
</svg>
