<svg width="19" height="19" viewBox="0 0 19 19" fill="none" xmlns="http://www.w3.org/2000/svg">
<path d="M9.50044 0.253906C6.46044 0.253906 2.78711 2.15391 2.78711 6.96724C2.78711 9.75391 6.58711 15.7072 8.61378 18.3672C8.99378 18.8739 9.75378 18.8739 10.1338 18.3672C12.0338 15.7072 16.0871 9.88057 16.0871 6.96724C16.2138 2.15391 12.5404 0.253906 9.50044 0.253906Z" fill="#455FCE"/>
<path d="M13.6795 9.1192H12.4128L9.87945 1.64587C9.87945 1.26587 9.11945 1.26587 8.99279 1.77254L6.45945 9.24587H5.19279C5.06612 9.1192 4.93945 9.24587 4.93945 9.4992V10.2592C4.93945 10.5125 5.06612 10.6392 5.31945 10.6392H13.8061C14.0595 10.6392 14.1861 10.5125 14.1861 10.2592V9.4992C14.0595 9.24587 13.9328 9.1192 13.6795 9.1192ZM9.11945 3.54587H9.87945L10.3861 4.9392H8.73945L9.11945 3.54587ZM8.23279 6.33254H10.7661L11.2728 7.72587H7.72612L8.23279 6.33254Z" fill="white"/>
</svg>
