<svg width="19" height="19" viewBox="0 0 19 19" fill="none" xmlns="http://www.w3.org/2000/svg">
<path d="M9.50044 0.253906C6.46044 0.253906 2.78711 2.15391 2.78711 6.96724C2.78711 9.75391 6.58711 15.7072 8.61378 18.3672C8.99378 18.8739 9.75378 18.8739 10.1338 18.3672C12.0338 15.7072 16.0871 9.88057 16.0871 6.96724C16.2138 2.15391 12.5404 0.253906 9.50044 0.253906Z" fill="#46CCA6"/>
<path d="M5.82664 3.29344C5.82664 3.29344 5.95331 2.40677 6.58664 2.40677H7.34664V2.15344C7.34664 1.9001 7.47331 1.77344 7.72664 1.77344H10.8933C11.1466 1.77344 11.2733 1.9001 11.2733 2.15344V2.40677H12.0333C12.2866 2.40677 12.4133 2.53344 12.54 2.6601C12.6666 2.78677 12.7933 3.0401 12.7933 3.29344C12.7933 3.29344 13.0466 4.5601 13.3 5.7001H12.54L12.2866 3.29344H6.58664L6.20664 5.57344H5.44664L5.82664 3.29344ZM14.6933 7.2201C14.6933 7.72677 14.3133 7.9801 13.9333 7.9801L13.1733 11.1468C13.1733 11.1468 13.0466 12.0334 12.4133 12.0334H6.71331C6.07997 12.0334 5.95331 11.1468 5.95331 11.1468L5.06664 7.9801C4.68664 7.9801 4.30664 7.6001 4.30664 7.2201C4.30664 6.8401 4.68664 6.4601 5.06664 6.4601H13.9333C14.3133 6.4601 14.6933 6.8401 14.6933 7.2201ZM7.47331 10.5134V9.62677L7.21997 8.3601C7.21997 8.10677 6.96664 7.9801 6.71331 7.9801C6.45997 8.10677 6.33331 8.3601 6.33331 8.61344L6.45997 9.75344L6.58664 10.7668C6.58664 11.0201 6.83997 11.1468 7.09331 11.1468C7.34664 11.0201 7.59997 10.7668 7.47331 10.5134ZM9.11997 8.48677C9.11997 8.23344 8.86664 8.10677 8.73997 8.10677C8.61331 8.10677 8.48664 8.10677 8.48664 8.23344C8.35997 8.23344 8.23331 8.3601 8.23331 8.48677V10.6401C8.23331 10.8934 8.35997 11.0201 8.61331 11.0201C8.86664 11.0201 8.99331 10.8934 8.99331 10.6401L9.11997 8.48677ZM10.7666 8.48677C10.7666 8.3601 10.64 8.10677 10.5133 8.10677C10.3866 8.10677 10.26 8.10677 10.26 8.10677C10.0066 8.10677 9.87997 8.3601 9.87997 8.48677V10.6401C9.87997 10.8934 10.1333 11.0201 10.26 11.0201C10.5133 11.0201 10.64 10.7668 10.64 10.6401L10.7666 8.48677ZM12.6666 8.61344C12.6666 8.3601 12.54 8.10677 12.2866 8.10677C12.0333 8.10677 11.78 8.23344 11.78 8.48677L11.5266 9.75344V10.6401C11.5266 10.8934 11.6533 11.1468 11.9066 11.1468C12.16 11.1468 12.4133 11.0201 12.4133 10.7668L12.6666 8.61344Z" fill="white"/>
</svg>
