<svg width="19" height="19" viewBox="0 0 19 19" fill="none" xmlns="http://www.w3.org/2000/svg">
<path d="M9.50044 0.253906C6.46044 0.253906 2.78711 2.15391 2.78711 6.96724C2.78711 9.75391 6.58711 15.7072 8.61378 18.3672C8.99378 18.8739 9.75378 18.8739 10.1338 18.3672C12.0338 15.7072 16.0871 9.88057 16.0871 6.96724C16.2138 2.15391 12.5404 0.253906 9.50044 0.253906Z" fill="#6ECD4A"/>
<path d="M9.2475 2.02672C9.2475 2.66005 8.74083 3.16672 8.1075 3.16672C7.47417 3.16672 6.9675 2.66005 6.9675 2.02672C6.9675 1.39339 7.47417 0.886719 8.1075 0.886719C8.74083 0.886719 9.2475 1.39339 9.2475 2.02672ZM11.4008 6.33339L9.88083 4.81339C9.75417 4.81339 9.75417 4.68672 9.6275 4.68672H5.95417C5.70083 4.68672 5.4475 4.94005 5.32083 5.19339L4.6875 11.0201V11.1467C4.6875 11.4001 4.81417 11.5267 5.0675 11.5267C5.19417 11.5267 5.4475 11.4001 5.4475 11.2734L6.33417 8.36005L6.5875 7.72672L6.84083 8.10672L7.7275 8.99339V11.1467C7.7275 11.4001 7.85417 11.5267 8.1075 11.5267C8.36083 11.5267 8.4875 11.4001 8.4875 11.1467V8.86672V8.74005L7.3475 7.34672L8.1075 5.44672H9.37417L10.8942 6.84005C11.0208 6.96672 11.0208 6.96672 11.1475 6.96672C11.4008 6.96672 11.5275 6.71339 11.5275 6.58672C11.5275 6.46005 11.5275 6.46005 11.4008 6.33339ZM13.8075 9.50005C13.5542 9.50005 13.1742 9.75339 13.1742 10.1334C13.1742 10.3867 13.4275 10.7667 13.8075 10.7667C14.1875 10.7667 14.4408 10.5134 14.4408 10.1334C14.3142 9.75339 14.0608 9.50005 13.8075 9.50005ZM11.2742 8.36005V7.72672C11.2742 7.60005 11.2742 7.60005 11.1475 7.60005C11.0208 7.60005 10.8942 7.60005 10.8942 7.72672V8.23339C10.7675 8.36005 10.7675 8.48672 10.7675 8.61339V11.1467C10.7675 11.4001 10.8942 11.5267 11.1475 11.5267C11.4008 11.5267 11.5275 11.4001 11.5275 11.1467V8.61339C11.5275 8.48672 11.4008 8.36005 11.2742 8.36005Z" fill="white"/>
</svg>
