<svg width="19" height="19" viewBox="0 0 19 19" fill="none" xmlns="http://www.w3.org/2000/svg">
<path d="M9.50044 0.253906C6.46044 0.253906 2.78711 2.15391 2.78711 6.96724C2.78711 9.75391 6.58711 15.7072 8.61378 18.3672C8.99378 18.8739 9.75378 18.8739 10.1338 18.3672C12.0338 15.7072 16.0871 9.88057 16.0871 6.96724C16.2138 2.15391 12.5404 0.253906 9.50044 0.253906Z" fill="#E2446A"/>
<path d="M6.46003 2.40568L9.50003 5.44568L12.54 2.40568C12.6667 2.27901 12.92 2.15234 13.0467 2.15234C13.4267 2.15234 13.8067 2.53234 13.8067 2.91234C13.8067 3.16568 13.68 3.29234 13.5534 3.41901L10.5134 6.45901L13.5534 9.49901C13.68 9.62568 13.8067 9.75234 13.8067 10.0057C13.8067 10.3857 13.4267 10.7657 13.0467 10.7657C12.7934 10.7657 12.6667 10.639 12.54 10.5123L9.50003 7.59901L6.46003 10.639C6.33336 10.7657 6.08003 10.8923 5.95336 10.8923C5.44669 10.8923 5.19336 10.5123 5.19336 10.1323C5.19336 9.87901 5.32003 9.75234 5.44669 9.62568L8.48669 6.58568L5.32003 3.41901C5.19336 3.29234 5.19336 3.16568 5.19336 2.91234C5.19336 2.53234 5.57336 2.15234 5.95336 2.15234C6.08003 2.15234 6.33336 2.27901 6.46003 2.40568Z" fill="white"/>
</svg>
