<svg width="19" height="19" viewBox="0 0 19 19" fill="none" xmlns="http://www.w3.org/2000/svg">
<path d="M9.50044 0.253906C6.46044 0.253906 2.78711 2.15391 2.78711 6.96724C2.78711 9.75391 6.58711 15.7072 8.61378 18.3672C8.99378 18.8739 9.75378 18.8739 10.1338 18.3672C12.0338 15.7072 16.0871 9.88057 16.0871 6.96724C16.2138 2.15391 12.5404 0.253906 9.50044 0.253906Z" fill="#5C10BF"/>
<path d="M9.49911 2.15234C8.99245 2.15234 8.99245 2.91234 9.49911 2.91234H10.6391V3.79901L8.48578 5.69901L7.85245 3.67234H8.10578C8.61245 3.67234 8.61245 2.91234 8.10578 2.91234H6.45911C5.95245 2.91234 5.95245 3.67234 6.45911 3.67234H6.96578L7.59911 5.44568C7.34578 5.31901 6.96578 5.19234 6.45911 5.19234C5.06578 5.19234 3.92578 6.33234 3.92578 7.85234C3.92578 9.37234 5.06578 10.5123 6.45911 10.5123C7.85245 10.5123 9.11911 9.37234 9.11911 7.85234C9.11911 7.34568 8.99245 6.83901 8.73911 6.45901L10.8924 4.68568L11.2724 5.57234C10.5124 6.07901 10.0058 6.83901 10.0058 7.85234C10.0058 9.24568 11.1458 10.5123 12.6658 10.5123C14.1858 10.5123 15.3258 9.37234 15.3258 7.85234C15.3258 6.33234 13.9324 5.19234 12.5391 5.19234C12.2858 5.19234 12.1591 5.19234 11.9058 5.31901L11.3991 4.05234V2.53234C11.3991 2.27901 11.2724 2.15234 11.0191 2.15234H9.49911ZM6.45911 5.95234C6.96578 5.95234 7.34578 6.07901 7.59911 6.33234L6.20578 7.59901C5.82578 7.85234 6.33245 8.48568 6.71245 8.10568L8.10578 6.96568C8.23245 7.21901 8.35911 7.47234 8.35911 7.85234C8.35911 8.86568 7.59911 9.75234 6.45911 9.75234C5.31911 9.75234 4.55911 8.86568 4.55911 7.85234C4.55911 6.83901 5.44578 5.95234 6.45911 5.95234ZM12.5391 5.95234C13.5524 5.95234 14.4391 6.83901 14.4391 7.85234C14.4391 8.86568 13.5524 9.75234 12.5391 9.75234C11.5258 9.75234 10.6391 8.86568 10.6391 7.85234C10.6391 7.21901 11.0191 6.58568 11.5258 6.33234L12.1591 7.97901C12.2858 8.48568 13.0458 8.10568 12.9191 7.72568L12.1591 5.95234C12.2858 5.95234 12.4124 5.95234 12.5391 5.95234Z" fill="white"/>
</svg>
