<svg width="19" height="19" viewBox="0 0 19 19" fill="none" xmlns="http://www.w3.org/2000/svg">
<path d="M9.50044 0.253906C6.46044 0.253906 2.78711 2.15391 2.78711 6.96724C2.78711 9.75391 6.58711 15.7072 8.61378 18.3672C8.99378 18.8739 9.75378 18.8739 10.1338 18.3672C12.0338 15.7072 16.0871 9.88057 16.0871 6.96724C16.2138 2.15391 12.5404 0.253906 9.50044 0.253906Z" fill="#5C46E0"/>
<path d="M14.0595 8.36125C14.0595 8.61458 13.9328 8.74125 13.6795 8.74125C13.5528 8.74125 13.2995 8.86792 13.1728 8.99458C12.9195 9.24792 12.7928 9.37458 12.4128 9.37458C12.0328 9.50125 11.5261 9.37458 11.1461 9.12125L11.0195 8.86792C10.7661 8.61458 10.5128 8.61458 10.2595 8.86792C10.1328 8.86792 10.0061 8.99458 10.0061 9.12125C9.49945 9.50125 8.73945 9.50125 8.23279 9.12125L7.97945 8.74125H7.85279L8.10612 9.62792L8.48612 11.0212C8.48612 11.1479 8.48612 11.4013 8.23279 11.5279H8.10612H5.31945C5.06612 11.5279 4.93945 11.4012 4.93945 11.1479V2.66125C4.93945 2.40792 5.06612 2.28125 5.31945 2.28125H6.07945C6.20612 2.28125 6.33279 2.40792 6.33279 2.53458L6.96612 5.19458V5.32125C7.47279 5.06792 8.10612 5.06792 8.48612 5.44792C8.61279 5.57458 8.73945 5.70125 8.86612 5.70125C9.11945 5.82792 9.37279 5.82792 9.62612 5.70125C9.75279 5.57458 9.87945 5.44792 10.0061 5.44792C10.5128 5.06792 11.2728 5.06792 11.7795 5.44792C11.9061 5.57458 12.0328 5.70125 12.0328 5.70125C12.2861 5.82792 12.5395 5.82792 12.7928 5.70125L13.1728 5.44792C13.1728 5.19458 13.4261 5.06792 13.6795 5.06792C13.9328 5.06792 14.0595 5.19458 14.0595 5.44792C14.0595 5.70125 13.9328 5.82792 13.6795 5.82792C13.5528 5.82792 13.2995 5.95458 13.1728 6.08125C12.9195 6.33458 12.7928 6.46125 12.4128 6.46125C12.0328 6.58792 11.5261 6.46125 11.1461 6.20792L11.0195 5.95458C10.7661 5.70125 10.5128 5.70125 10.2595 5.95458C10.1328 6.08125 10.1328 6.20792 10.0061 6.20792C9.49945 6.58792 8.73945 6.58792 8.23279 6.20792L7.97945 5.95458C7.72612 5.82792 7.47279 5.82792 7.21945 5.95458L7.72612 7.85458C7.97945 7.85458 8.23279 7.98125 8.48612 8.10792C8.61279 8.23458 8.73945 8.36125 8.86612 8.36125C9.11945 8.48792 9.37279 8.48792 9.62612 8.36125C9.75279 8.23458 9.87945 8.10792 10.0061 8.10792C10.5128 7.72792 11.2728 7.72792 11.7795 8.10792C11.9061 8.23458 12.0328 8.36125 12.0328 8.36125C12.2861 8.48792 12.5395 8.48792 12.7928 8.36125L13.1728 8.10792C13.4261 7.98125 13.6795 7.85458 13.9328 7.85458C13.9328 7.98125 14.0595 8.10792 14.0595 8.36125Z" fill="white"/>
</svg>
