<svg width="19" height="19" viewBox="0 0 19 19" fill="none" xmlns="http://www.w3.org/2000/svg">
<path d="M9.50044 0.253906C6.46044 0.253906 2.78711 2.15391 2.78711 6.96724C2.78711 9.75391 6.58711 15.7072 8.61378 18.3672C8.99378 18.8739 9.75378 18.8739 10.1338 18.3672C12.0338 15.7072 16.0871 9.88057 16.0871 6.96724C16.2138 2.15391 12.5404 0.253906 9.50044 0.253906Z" fill="#DC143C"/>
<path d="M13.8064 11.0184C13.8064 11.1451 13.6797 11.2717 13.4264 11.2717H13.2997L9.49974 9.62505L5.57307 11.2717C5.44641 11.3984 5.19307 11.2717 5.19307 11.0184C5.06641 10.8917 5.06641 10.6384 5.31974 10.6384L8.61307 9.24505L5.31974 7.85172C5.19307 7.85172 5.06641 7.59839 5.06641 7.47172C5.06641 7.34505 5.31974 7.21839 5.44641 7.21839L9.49974 8.86505L13.4264 7.21839C13.5531 7.09172 13.8064 7.21839 13.9331 7.34505C13.9331 7.59839 13.9331 7.72505 13.6797 7.85172L10.3864 9.24505L13.6797 10.6384C13.8064 10.6384 13.9331 10.7651 13.8064 11.0184ZM12.5397 3.92505V4.17839C12.5397 4.30505 12.5397 4.43172 12.4131 4.55839C12.0331 5.06505 11.6531 5.44505 11.1464 5.82505V6.58505C11.1464 6.71172 11.0197 6.83839 10.8931 6.96505L9.49974 7.47172L7.97974 6.96505C7.85307 6.96505 7.72641 6.83839 7.85307 6.58505V5.82505C7.34641 5.44505 6.96641 5.06505 6.58641 4.68505C6.45974 4.55839 6.45974 4.43172 6.45974 4.30505V3.92505C6.58641 2.40505 7.72641 1.26505 9.24641 1.01172H9.49974H9.75307C11.2731 1.26505 12.4131 2.40505 12.5397 3.92505ZM8.48641 3.79839C8.48641 3.41839 8.23307 3.16505 7.85307 3.16505C7.47307 3.16505 7.09307 3.41839 7.09307 3.79839C7.09307 4.17839 7.34641 4.43172 7.72641 4.43172C8.10641 4.43172 8.48641 4.17839 8.48641 3.79839ZM9.11974 5.82505C9.11974 5.69839 8.99307 5.44505 8.73974 5.44505C8.61307 5.44505 8.35974 5.57172 8.35974 5.82505V6.20505C8.48641 6.33172 8.61307 6.45839 8.86641 6.45839C8.99307 6.45839 9.24641 6.33172 9.24641 6.07839V5.82505H9.11974ZM10.5131 5.82505C10.5131 5.69839 10.3864 5.44505 10.1331 5.44505C10.0064 5.44505 9.75307 5.57172 9.75307 5.82505V6.20505C9.87974 6.33172 10.0064 6.45839 10.1331 6.45839C10.2597 6.45839 10.5131 6.33172 10.5131 6.07839V5.82505ZM11.9064 3.79839C11.9064 3.41839 11.6531 3.16505 11.2731 3.16505C10.7664 3.16505 10.5131 3.41839 10.5131 3.79839C10.5131 4.17839 10.7664 4.43172 11.1464 4.43172C11.5264 4.43172 11.9064 4.17839 11.9064 3.79839Z" fill="white"/>
</svg>
