<svg width="19" height="19" viewBox="0 0 19 19" fill="none" xmlns="http://www.w3.org/2000/svg">
<path d="M9.50044 0.253906C6.46044 0.253906 2.78711 2.15391 2.78711 6.96724C2.78711 9.75391 6.58711 15.7072 8.61378 18.3672C8.99378 18.8739 9.75378 18.8739 10.1338 18.3672C12.0338 15.7072 16.0871 9.88057 16.0871 6.96724C16.2138 2.15391 12.5404 0.253906 9.50044 0.253906Z" fill="#AD6F45"/>
<path d="M4.68585 6.71371C2.78585 3.04037 7.59918 0.50704 9.49918 4.30704C11.3992 0.633707 16.2125 3.04037 14.3125 6.71371C14.1858 6.84037 14.1858 6.96704 14.0592 7.09371H12.5392L11.1458 4.94037C11.1458 4.81371 11.0192 4.81371 10.8925 4.81371C10.7658 4.81371 10.7658 4.81371 10.6392 4.81371C10.5125 4.81371 10.5125 4.81371 10.3858 4.94037C10.3858 4.81371 10.2592 4.94037 10.2592 5.06704L8.86585 8.36037L7.85251 7.22037C7.72585 7.22037 7.59918 7.09371 7.47251 7.09371H4.93918C4.81251 6.96704 4.81251 6.84037 4.68585 6.71371ZM12.2858 8.10704C12.1592 8.10704 12.1592 8.10704 12.0325 8.10704C11.9058 8.10704 11.9058 7.98037 11.9058 7.98037L10.7658 6.33371L9.49918 9.50037C9.49918 9.62704 9.37251 9.62704 9.37251 9.75371C9.24585 9.75371 9.24585 9.88037 9.11918 9.88037H8.99251C8.86585 9.88037 8.73918 9.88037 8.61251 9.75371L7.21918 8.10704H5.69918C6.83918 9.50037 7.97918 10.767 9.24585 11.907C9.37251 11.907 9.37251 12.0337 9.49918 12.0337C9.62585 12.0337 9.62585 12.0337 9.75251 11.907C11.0192 10.767 12.2858 9.50037 13.2992 8.10704H12.2858Z" fill="white"/>
</svg>
