<svg width="19" height="19" viewBox="0 0 19 19" fill="none" xmlns="http://www.w3.org/2000/svg">
<path d="M9.50044 0.253906C6.46044 0.253906 2.78711 2.15391 2.78711 6.96724C2.78711 9.75391 6.58711 15.7072 8.61378 18.3672C8.99378 18.8739 9.75378 18.8739 10.1338 18.3672C12.0338 15.7072 16.0871 9.88057 16.0871 6.96724C16.2138 2.15391 12.5404 0.253906 9.50044 0.253906Z" fill="#E34E3D"/>
<path d="M7.09323 11.9085C6.33323 11.9085 6.58656 9.88181 6.4599 8.10848C6.33323 7.47514 5.57323 6.96848 5.57323 6.46181C5.19323 4.94181 4.81323 2.28181 6.4599 1.90181C8.10656 1.52181 8.23323 3.42181 9.4999 3.42181C10.7666 3.42181 10.7666 1.64848 12.5399 1.90181C14.3132 2.15514 13.8066 4.94181 13.5532 6.46181C13.4266 6.84181 12.6666 7.60181 12.5399 8.10848C12.2866 10.0085 12.7932 12.0351 11.9066 12.0351C11.1466 12.0351 10.8932 9.88181 10.3866 8.61514C10.2599 7.85514 9.8799 7.34848 9.4999 7.34848C8.3599 7.34848 8.10656 11.9085 7.09323 11.9085Z" fill="white"/>
</svg>
