<svg width="19" height="19" viewBox="0 0 19 19" fill="none" xmlns="http://www.w3.org/2000/svg">
<path d="M9.50044 0.253906C6.46044 0.253906 2.78711 2.15391 2.78711 6.96724C2.78711 9.75391 6.58711 15.7072 8.61378 18.3672C8.99378 18.8739 9.75378 18.8739 10.1338 18.3672C12.0338 15.7072 16.0871 9.88057 16.0871 6.96724C16.2138 2.15391 12.5404 0.253906 9.50044 0.253906Z" fill="#C1733E"/>
<path d="M9.12083 1.39229L4.81417 6.20563C4.81417 6.20563 4.6875 6.33229 4.6875 6.45896C4.6875 6.58562 4.6875 6.58563 4.81417 6.71229L9.12083 12.2856C9.12083 12.4123 9.2475 12.4123 9.2475 12.4123C9.37417 12.4123 9.37417 12.4123 9.50083 12.4123C9.6275 12.4123 9.6275 12.4123 9.75417 12.4123C9.88083 12.4123 9.88083 12.2856 9.88083 12.2856L14.1875 6.71229C14.1875 6.58563 14.3142 6.58562 14.3142 6.45896C14.3142 6.33229 14.3142 6.33229 14.1875 6.20563L9.88083 1.39229L9.75417 1.26562C9.6275 1.26562 9.6275 1.26562 9.50083 1.26562C9.37417 1.26562 9.37417 1.26562 9.2475 1.26562C9.2475 1.39229 9.12083 1.39229 9.12083 1.39229Z" fill="white"/>
</svg>
