<svg width="19" height="19" viewBox="0 0 19 19" fill="none" xmlns="http://www.w3.org/2000/svg">
<path d="M9.50044 0.253906C6.46044 0.253906 2.78711 2.15391 2.78711 6.96724C2.78711 9.75391 6.58711 15.7072 8.61378 18.3672C8.99378 18.8739 9.75378 18.8739 10.1338 18.3672C12.0338 15.7072 16.0871 9.88057 16.0871 6.96724C16.2138 2.15391 12.5404 0.253906 9.50044 0.253906Z" fill="#9857DD"/>
<path d="M7.72641 6.4601C6.71307 6.4601 5.82641 5.57344 5.82641 4.5601V2.91344C5.82641 2.78677 5.95307 2.53344 6.20641 2.53344H6.58641C6.83974 2.53344 6.96641 2.40677 6.96641 2.15344C6.96641 1.9001 6.83974 1.77344 6.58641 1.77344H6.20641C5.57307 1.77344 5.06641 2.2801 5.06641 2.91344V4.43344C5.06641 5.3201 5.44641 6.0801 6.20641 6.58677C6.83974 7.2201 7.34641 8.10677 7.34641 8.99344C7.34641 10.5134 8.61307 11.6534 10.0064 11.6534C11.3997 11.6534 12.6664 10.3868 12.6664 8.99344V8.7401C13.5531 8.48677 13.9331 7.72677 13.8064 6.8401C13.5531 5.95344 12.7931 5.57344 11.9064 5.7001C11.1464 5.95344 10.6397 6.71344 10.8931 7.6001C11.0197 8.10677 11.3997 8.61344 12.0331 8.7401V9.1201C12.0331 10.1334 11.1464 11.0201 10.1331 11.0201C9.11974 11.0201 8.10641 10.2601 8.10641 9.1201C8.10641 8.23344 8.61307 7.34677 9.24641 6.71344C10.0064 6.20677 10.3864 5.44677 10.3864 4.5601V2.91344C10.3864 2.2801 9.87974 1.77344 9.24641 1.77344H8.86641C8.61307 1.77344 8.48641 1.9001 8.48641 2.15344C8.48641 2.40677 8.73974 2.53344 8.86641 2.53344H9.24641C9.49974 2.53344 9.62641 2.6601 9.62641 2.91344V4.43344C9.75307 5.57344 8.86641 6.4601 7.72641 6.4601ZM12.4131 7.9801C11.9064 7.9801 11.6531 7.6001 11.6531 7.2201C11.6531 6.8401 12.0331 6.4601 12.4131 6.4601C12.7931 6.4601 13.1731 6.8401 13.1731 7.2201C13.1731 7.6001 12.7931 7.9801 12.4131 7.9801Z" fill="white"/>
</svg>
