<svg width="19" height="19" viewBox="0 0 19 19" fill="none" xmlns="http://www.w3.org/2000/svg">
<path d="M9.50044 0.253906C6.46044 0.253906 2.78711 2.15391 2.78711 6.96724C2.78711 9.75391 6.58711 15.7072 8.61378 18.3672C8.99378 18.8739 9.75378 18.8739 10.1338 18.3672C12.0338 15.7072 16.0871 9.88057 16.0871 6.96724C16.2138 2.15391 12.5404 0.253906 9.50044 0.253906Z" fill="#588ADB"/>
<path d="M11.5261 1.51953C11.2727 1.51953 11.0194 1.51953 11.0194 2.0262L10.6394 3.9262L12.2861 5.31953H13.6794C14.6927 5.31953 14.6927 4.6862 14.6927 4.6862L13.2994 3.1662C12.9194 2.53286 12.4127 2.4062 12.0327 2.4062V2.15286C12.0327 2.15286 12.0327 1.51953 11.5261 1.51953ZM7.5994 1.77286C7.5994 1.77286 6.96607 1.77286 6.4594 1.89953C6.0794 2.0262 5.57273 2.53286 5.57273 3.29286V6.07953C5.57273 7.21953 5.06607 7.47286 4.81273 7.47286C4.81273 7.47286 4.05273 7.47286 4.05273 8.23286V9.75286C4.05273 9.75286 4.05273 10.2595 4.5594 10.2595H4.68607H5.06607H5.44607V9.87953V9.75286C5.44607 9.49953 5.3194 9.37286 5.06607 9.2462V8.4862C5.82607 8.4862 5.82607 8.35953 6.0794 8.23286L6.4594 9.75286C6.71273 10.0062 6.8394 10.1329 7.09273 10.2595H7.85273H8.48607V9.6262C8.48607 9.11953 7.72607 9.11953 7.72607 9.11953V7.3462H10.2594L10.7661 9.2462C11.0194 10.2595 11.6527 10.2595 11.6527 10.2595H12.0327H12.6661V9.6262C12.6661 9.11953 11.9061 9.11953 11.9061 9.11953L12.0327 6.33286L9.8794 4.55953H6.71273V3.1662C6.71273 2.91286 6.96607 2.7862 7.09273 2.7862C7.47273 2.7862 7.5994 2.7862 7.5994 2.7862C7.85273 2.7862 8.10607 2.53286 8.10607 2.27953C8.10607 2.0262 7.85273 1.77286 7.5994 1.77286ZM12.5394 3.5462C12.6661 3.5462 12.6661 3.5462 12.6661 3.67286C12.6661 3.79953 12.6661 3.9262 12.5394 3.9262C12.4127 3.9262 12.2861 3.79953 12.2861 3.67286C12.2861 3.5462 12.4127 3.5462 12.5394 3.5462Z" fill="white"/>
</svg>
