<svg width="19" height="19" viewBox="0 0 19 19" fill="none" xmlns="http://www.w3.org/2000/svg">
<path d="M9.50044 0.253906C6.46044 0.253906 2.78711 2.15391 2.78711 6.96724C2.78711 9.75391 6.58711 15.7072 8.61378 18.3672C8.99378 18.8739 9.75378 18.8739 10.1338 18.3672C12.0338 15.7072 16.0871 9.88057 16.0871 6.96724C16.2138 2.15391 12.5404 0.253906 9.50044 0.253906Z" fill="#4488AA"/>
<path d="M7.97945 2.15234C7.09279 2.15234 6.45945 2.78568 6.45945 3.67234V6.33234C6.45945 6.58568 6.58612 6.71234 6.83945 6.71234H8.35945C8.61279 6.71234 8.73945 6.58568 8.73945 6.33234V4.81234C8.73945 4.55901 8.86612 4.43234 9.11945 4.43234H14.0595V2.15234H7.97945ZM8.73945 12.6657H6.45945C6.33279 12.6657 6.20612 12.539 6.07945 12.4123L4.93945 7.85234C4.93945 7.59901 5.06612 7.47234 5.19279 7.34568H5.31945H9.87945C10.1328 7.34568 10.2595 7.59901 10.2595 7.72568V7.85234L9.11945 12.4123C9.11945 12.539 8.99279 12.6657 8.73945 12.6657ZM6.20612 9.62568H8.99279L9.37279 8.10568H5.82612L6.20612 9.62568Z" fill="white"/>
</svg>
