<svg width="19" height="19" viewBox="0 0 19 19" fill="none" xmlns="http://www.w3.org/2000/svg">
<path d="M9.50044 0.253906C6.46044 0.253906 2.78711 2.15391 2.78711 6.96724C2.78711 9.75391 6.58711 15.7072 8.61378 18.3672C8.99378 18.8739 9.75378 18.8739 10.1338 18.3672C12.0338 15.7072 16.0871 9.88057 16.0871 6.96724C16.2138 2.15391 12.5404 0.253906 9.50044 0.253906Z" fill="#382701"/>
<path d="M12.034 2.15234H6.96732C6.58732 2.15234 6.33398 2.40568 6.33398 2.91234V10.7657C6.33398 11.1457 6.58732 11.399 6.96732 11.399H12.034C12.414 11.399 12.6673 11.1457 12.6673 10.7657V2.91234C12.6673 2.40568 12.414 2.15234 12.034 2.15234ZM9.50065 10.3857L8.10732 7.47234H11.0207L9.50065 10.3857ZM8.10732 6.07901L9.50065 3.16568L10.894 6.07901H8.10732Z" fill="white"/>
</svg>
