<svg width="19" height="19" viewBox="0 0 19 19" fill="none" xmlns="http://www.w3.org/2000/svg">
<path d="M9.50044 0.253906C6.46044 0.253906 2.78711 2.15391 2.78711 6.96724C2.78711 9.75391 6.58711 15.7072 8.61378 18.3672C8.99378 18.8739 9.75378 18.8739 10.1338 18.3672C12.0338 15.7072 16.0871 9.88057 16.0871 6.96724C16.2138 2.15391 12.5404 0.253906 9.50044 0.253906Z" fill="#C6932C"/>
<path d="M8.99336 2.91234C8.10669 2.91234 7.34669 3.92568 7.09336 4.30568C7.09336 4.43234 6.96669 4.43234 6.96669 4.55901V7.85234C6.96669 7.97901 7.09336 8.23234 7.22003 8.23234C7.34669 8.23234 7.34669 8.23234 7.47336 8.10568C7.98003 7.59901 8.48669 7.21901 8.99336 7.09234C10.0067 7.09234 10.3867 7.97901 11.5267 7.97901C12.2867 7.85234 12.92 7.59901 13.5534 7.21901C13.68 7.09234 13.68 7.09234 13.68 6.96568V3.16568C13.68 3.03901 13.5534 2.78568 13.4267 2.78568H13.3C12.7934 3.16568 12.16 3.41901 11.5267 3.54568C10.5134 3.67234 10.1334 2.91234 8.99336 2.91234ZM5.95336 3.67234C5.57336 3.67234 5.19336 3.29234 5.19336 2.91234C5.19336 2.53234 5.57336 2.15234 5.95336 2.15234C6.33336 2.15234 6.71336 2.53234 6.71336 2.91234C6.71336 3.29234 6.33336 3.67234 5.95336 3.67234ZM6.33336 4.30568V11.399C6.33336 11.6523 6.20669 11.779 5.95336 11.779C5.70003 11.779 5.57336 11.6523 5.57336 11.399V4.30568C5.57336 4.05234 5.70003 3.92568 5.95336 3.92568C6.20669 3.92568 6.33336 4.17901 6.33336 4.30568Z" fill="white"/>
</svg>
