<svg width="19" height="19" viewBox="0 0 19 19" fill="none" xmlns="http://www.w3.org/2000/svg">
<path d="M9.50044 0.253906C6.46044 0.253906 2.78711 2.15391 2.78711 6.96724C2.78711 9.75391 6.58711 15.7072 8.61378 18.3672C8.99378 18.8739 9.75378 18.8739 10.1338 18.3672C12.0338 15.7072 16.0871 9.88057 16.0871 6.96724C16.2138 2.15391 12.5404 0.253906 9.50044 0.253906Z" fill="#2DC475"/>
<path d="M10.1342 9.49901C10.2608 9.62568 10.5142 9.62568 10.6408 9.49901L11.1475 8.99234L12.7942 10.639L12.6675 11.019C12.2875 11.2723 11.9075 11.5257 11.5275 11.5257H10.3875C10.0075 11.5257 9.50083 11.2723 9.2475 11.019L5.32083 6.96568C4.94083 6.71234 4.6875 6.33234 4.6875 5.82568V4.68568C4.6875 4.30568 4.94083 3.79901 5.19417 3.54568L5.4475 3.29234L7.09417 4.93901L6.71417 5.57234C6.5875 5.69901 6.5875 5.95234 6.71417 6.07901L10.1342 9.49901ZM13.8075 9.87901C14.0608 9.62568 14.1875 9.11901 13.8075 8.73901L13.3008 8.23234C13.0475 7.97901 12.5408 7.85234 12.1608 8.23234L13.8075 9.87901ZM8.1075 4.17901C8.36083 3.92568 8.4875 3.41901 8.1075 3.03901L7.47417 2.40568C7.22083 2.15234 6.71417 2.02568 6.33417 2.40568L8.1075 4.17901ZM11.7808 2.15234V3.67234H10.1342V4.43234H11.6542V5.95234H12.4142V4.43234H13.9342V3.67234H12.5408V2.15234H11.7808Z" fill="white"/>
</svg>
