<svg width="19" height="19" viewBox="0 0 19 19" fill="none" xmlns="http://www.w3.org/2000/svg">
<path d="M9.50044 0.253906C6.46044 0.253906 2.78711 2.15391 2.78711 6.96724C2.78711 9.75391 6.58711 15.7072 8.61378 18.3672C8.99378 18.8739 9.75378 18.8739 10.1338 18.3672C12.0338 15.7072 16.0871 9.88057 16.0871 6.96724C16.2138 2.15391 12.5404 0.253906 9.50044 0.253906Z" fill="#9853E0"/>
<path d="M9.11997 5.19281V4.30614C9.11997 4.17947 8.99331 3.92614 8.86664 3.79947C8.73997 3.67281 8.48664 3.54614 8.23331 3.54614C7.97997 3.54614 7.85331 3.67281 7.72664 3.79947C7.59997 3.92614 7.47331 4.17947 7.47331 4.30614V6.71281L9.11997 5.19281ZM7.47331 2.40614C7.47331 2.27947 7.47331 2.15281 7.59997 1.89947C7.72664 1.77281 7.85331 1.64614 7.97997 1.64614C8.10664 1.64614 8.23331 1.51947 8.48664 1.64614C8.61331 1.64614 8.73997 1.77281 8.86664 1.89947C8.99331 2.02614 8.99331 2.15281 9.11997 2.27947C9.11997 2.40614 9.11997 2.65947 9.11997 2.78614C9.11997 2.91281 8.99331 3.03947 8.86664 3.16614C8.61331 3.16614 8.48664 3.16614 8.23331 3.16614C7.97997 3.16614 7.85331 3.03947 7.72664 2.91281C7.59997 2.78614 7.47331 2.53281 7.47331 2.40614ZM14.6933 4.81281C14.6933 5.06614 14.5666 5.19281 14.44 5.31947C14.3133 5.44614 14.06 5.57281 13.9333 5.57281H12.6666C12.54 5.57281 12.4133 5.57281 12.4133 5.57281C12.2866 5.57281 12.2866 5.69947 12.16 5.69947L7.72664 10.1328C7.59997 10.2595 7.34664 10.3861 7.21997 10.3861H5.06664C4.81331 10.3861 4.68664 10.2595 4.55997 10.1328C4.30664 10.0061 4.30664 9.75281 4.30664 9.62614C4.30664 9.37281 4.43331 9.24614 4.55997 9.11947C4.68664 8.86614 4.81331 8.73947 5.06664 8.73947H6.33331C6.58664 8.73947 6.71331 8.61281 6.83997 8.48614L11.1466 4.17947C11.4 4.17947 11.4 4.05281 11.5266 4.05281C11.6533 4.05281 11.78 4.05281 11.78 4.05281H13.9333C14.1866 4.05281 14.3133 4.17947 14.44 4.30614C14.6933 4.30614 14.6933 4.55947 14.6933 4.81281Z" fill="white"/>
</svg>
