<svg width="19" height="19" viewBox="0 0 19 19" fill="none" xmlns="http://www.w3.org/2000/svg">
<path d="M9.50044 0.253906C6.46044 0.253906 2.78711 2.15391 2.78711 6.96724C2.78711 9.75391 6.58711 15.7072 8.61378 18.3672C8.99378 18.8739 9.75378 18.8739 10.1338 18.3672C12.0338 15.7072 16.0871 9.88057 16.0871 6.96724C16.2138 2.15391 12.5404 0.253906 9.50044 0.253906Z" fill="#DD54A6"/>
<path d="M9.12031 7.85234C8.99365 7.97901 8.99365 8.23234 9.12031 8.35901C9.24698 8.48568 9.50031 8.48568 9.62698 8.35901L11.4003 6.58568C11.4003 6.45901 11.4003 6.33234 11.4003 6.33234L9.62698 4.55901C9.50031 4.43234 9.24698 4.43234 9.12031 4.55901C8.99365 4.68568 8.99365 4.93901 9.12031 5.06568L10.2603 6.20568H5.70031C5.57365 6.20568 5.32031 6.33234 5.32031 6.58568C5.32031 6.71234 5.44698 6.96568 5.70031 6.96568H10.1336L9.12031 7.85234ZM12.7936 2.15234H8.36031C8.23365 2.15234 7.98031 2.27901 7.98031 2.53234C7.98031 2.78568 8.10698 2.91234 8.36031 2.91234H12.4136C12.5403 2.91234 12.7936 3.03901 12.7936 3.29234V10.0057C12.7936 10.0057 12.5403 10.1323 12.4136 10.1323H8.23365C8.10698 10.1323 7.85365 10.259 7.85365 10.3857C7.85365 10.5123 7.98031 10.7657 8.23365 10.7657H12.7936C13.1736 10.7657 13.427 10.5123 13.427 10.1323V2.78568C13.427 2.40568 13.047 2.15234 12.7936 2.15234Z" fill="#FCFCFC"/>
</svg>
