<svg width="19" height="19" viewBox="0 0 19 19" fill="none" xmlns="http://www.w3.org/2000/svg">
<path d="M9.50044 0.253906C6.46044 0.253906 2.78711 2.15391 2.78711 6.96724C2.78711 9.75391 6.58711 15.7072 8.61378 18.3672C8.99378 18.8739 9.75378 18.8739 10.1338 18.3672C12.0338 15.7072 16.0871 9.88057 16.0871 6.96724C16.2138 2.15391 12.5404 0.253906 9.50044 0.253906Z" fill="#267731"/>
<path d="M9.87945 5.70125L7.72612 4.30792L5.69945 5.70125L4.93945 7.09458V9.88125H6.33279V8.48792H9.11945V9.88125H10.5128V7.09458L9.87945 5.70125ZM8.48612 7.09458H7.09279V5.70125H8.48612V7.09458ZM14.0595 9.88125H11.9061V3.29458C11.9061 3.04125 12.0328 2.78792 12.1595 2.53458C12.2861 2.28125 12.6661 2.28125 12.9195 2.28125C13.1728 2.28125 13.4261 2.40792 13.6795 2.53458C13.9328 2.78792 13.9328 3.04125 13.9328 3.29458V9.88125H14.0595Z" fill="white"/>
</svg>
