<svg width="19" height="19" viewBox="0 0 19 19" fill="none" xmlns="http://www.w3.org/2000/svg">
<path d="M9.50044 0.253906C6.46044 0.253906 2.78711 2.15391 2.78711 6.96724C2.78711 9.75391 6.58711 15.7072 8.61378 18.3672C8.99378 18.8739 9.75378 18.8739 10.1338 18.3672C12.0338 15.7072 16.0871 9.88057 16.0871 6.96724C16.2138 2.15391 12.5404 0.253906 9.50044 0.253906Z" fill="#F29900"/>
<path d="M14.5669 7.09292C14.5669 7.47292 14.1869 7.85292 13.8069 7.85292H5.19359C4.81359 7.85292 4.43359 7.47292 4.43359 7.09292C4.43359 6.71292 4.81359 6.33292 5.19359 6.33292H13.8069C14.3136 6.20625 14.5669 6.58625 14.5669 7.09292ZM6.33359 8.61292H5.19359C5.19359 9.87958 6.20693 11.0196 7.60026 11.0196H11.5269C12.7936 11.0196 13.9336 10.0063 13.9336 8.61292H6.33359ZM5.95359 5.44625H5.19359V3.92625C5.19359 3.03958 5.95359 2.40625 6.71359 2.40625H12.2869C13.1736 2.40625 13.8069 3.16625 13.8069 3.92625V5.44625H5.95359ZM12.2869 4.30625C12.2869 4.55958 12.4136 4.68625 12.6669 4.68625C12.9203 4.68625 13.0469 4.55958 13.0469 4.30625C13.0469 4.05292 12.9203 3.92625 12.6669 3.92625C12.4136 3.92625 12.2869 4.05292 12.2869 4.30625ZM10.6403 3.54625C10.6403 3.79958 10.7669 3.92625 11.0203 3.92625C11.2736 3.92625 11.4003 3.79958 11.4003 3.54625C11.4003 3.29292 11.2736 3.16625 11.0203 3.16625C10.7669 3.16625 10.6403 3.29292 10.6403 3.54625ZM9.12026 4.30625C9.12026 4.55958 9.24693 4.68625 9.50026 4.68625C9.75359 4.68625 9.88026 4.55958 9.88026 4.30625C9.88026 4.05292 9.75359 3.92625 9.50026 3.92625C9.24693 3.92625 9.12026 4.05292 9.12026 4.30625ZM7.47359 3.54625C7.47359 3.79958 7.60026 3.92625 7.85359 3.92625C8.10693 3.92625 8.23359 3.79958 8.23359 3.54625C8.23359 3.29292 8.10693 3.16625 7.85359 3.16625C7.72693 3.03958 7.47359 3.29292 7.47359 3.54625ZM5.95359 4.30625C5.95359 4.55958 6.08026 4.68625 6.33359 4.68625C6.58693 4.68625 6.71359 4.55958 6.71359 4.30625C6.71359 4.05292 6.58693 3.92625 6.33359 3.92625C6.08026 3.92625 5.95359 4.05292 5.95359 4.30625Z" fill="white"/>
</svg>
