<svg width="19" height="19" viewBox="0 0 19 19" fill="none" xmlns="http://www.w3.org/2000/svg">
<path d="M9.50044 0.253906C6.46044 0.253906 2.78711 2.15391 2.78711 6.96724C2.78711 9.75391 6.58711 15.7072 8.61378 18.3672C8.99378 18.8739 9.75378 18.8739 10.1338 18.3672C12.0338 15.7072 16.0871 9.88057 16.0871 6.96724C16.2138 2.15391 12.5404 0.253906 9.50044 0.253906Z" fill="#556AFF"/>
<path d="M14.3133 7.98016H13.9333V5.70016H14.3133C14.44 5.70016 14.5666 5.70016 14.5666 5.57349C14.6933 5.44682 14.6933 5.44682 14.6933 5.32016C14.6933 5.19349 14.6933 5.06682 14.5666 5.06682C14.44 4.94016 14.44 4.94016 14.3133 4.94016H13.9333V3.29349L13.68 2.78682C13.68 2.78682 13.68 2.78682 13.5533 2.66016C13.5533 2.66016 13.5533 2.66016 13.4266 2.66016H13.3C13.3 2.66016 13.3 2.66016 13.1733 2.78682L12.92 3.29349V4.94016H12.2866V3.29349L12.0333 2.78682C12.0333 2.78682 12.0333 2.78682 11.9066 2.66016C11.9066 2.66016 11.9066 2.66016 11.78 2.66016C11.6533 2.66016 11.6533 2.66016 11.6533 2.66016C11.6533 2.66016 11.6533 2.66016 11.5266 2.78682V3.29349V4.94016H10.64V3.29349L10.5133 2.78682C10.5133 2.78682 10.5133 2.78682 10.3866 2.66016C10.3866 2.66016 10.3866 2.66016 10.26 2.66016H10.1333C10.1333 2.66016 10.1333 2.66016 10.0066 2.78682L9.87997 3.29349V4.94016H9.11997V3.29349L8.86664 2.78682C8.86664 2.78682 8.86664 2.78682 8.73997 2.66016C8.73997 2.66016 8.73997 2.66016 8.61331 2.66016H8.48664C8.48664 2.66016 8.48664 2.66016 8.35997 2.78682V3.29349V4.94016H7.47331V3.29349L7.21997 2.78682C7.21997 2.78682 7.21997 2.78682 7.09331 2.66016C7.09331 2.66016 7.09331 2.66016 6.96664 2.66016H6.83997C6.83997 2.66016 6.83997 2.66016 6.71331 2.78682V3.29349V4.94016H5.95331V3.29349L5.69997 2.78682C5.69997 2.78682 5.69997 2.78682 5.57331 2.66016C5.57331 2.66016 5.57331 2.66016 5.44664 2.66016H5.31997C5.31997 2.66016 5.31997 2.66016 5.19331 2.78682L5.06664 3.29349V4.94016H4.68664C4.55997 4.94016 4.43331 4.94016 4.43331 5.06682C4.30664 5.06682 4.30664 5.19349 4.30664 5.19349C4.30664 5.32016 4.30664 5.44682 4.43331 5.44682C4.55997 5.57349 4.55997 5.57349 4.68664 5.57349H5.06664V7.98016H4.68664C4.55997 7.98016 4.43331 7.98016 4.43331 8.10682C4.30664 8.23349 4.30664 8.36016 4.30664 8.48682C4.30664 8.61349 4.30664 8.74016 4.43331 8.74016C4.55997 8.74016 4.55997 8.86682 4.68664 8.86682H5.06664V10.0068C5.06664 10.1335 5.06664 10.2602 5.19331 10.2602C5.31997 10.3868 5.31997 10.3868 5.44664 10.3868C5.57331 10.3868 5.69997 10.3868 5.69997 10.2602C5.82664 10.2602 5.95331 10.1335 5.95331 10.0068V8.86682H6.71331V10.0068C6.71331 10.1335 6.71331 10.2602 6.83997 10.2602C6.96664 10.3868 6.96664 10.3868 7.09331 10.3868C7.21997 10.3868 7.34664 10.3868 7.34664 10.2602C7.47331 10.2602 7.47331 10.1335 7.47331 10.0068V8.86682H8.23331V10.0068C8.23331 10.1335 8.23331 10.2602 8.35997 10.2602C8.48664 10.3868 8.48664 10.3868 8.61331 10.3868C8.73997 10.3868 8.86664 10.3868 8.86664 10.2602C9.11997 10.2602 9.11997 10.1335 9.11997 10.0068V8.86682H9.87997V10.0068C9.87997 10.1335 9.87997 10.2602 10.0066 10.2602C10.1333 10.3868 10.1333 10.3868 10.26 10.3868C10.3866 10.3868 10.5133 10.3868 10.5133 10.2602C10.64 10.2602 10.64 10.1335 10.64 10.0068V8.86682H11.4V10.0068C11.4 10.1335 11.4 10.2602 11.5266 10.2602C11.6533 10.3868 11.6533 10.3868 11.78 10.3868C11.9066 10.3868 12.0333 10.3868 12.0333 10.2602C12.2866 10.2602 12.2866 10.1335 12.2866 10.0068V8.86682H13.0466V10.0068C13.0466 10.1335 13.0466 10.2602 13.1733 10.2602C13.3 10.3868 13.3 10.3868 13.4266 10.3868C13.5533 10.3868 13.68 10.3868 13.68 10.2602C13.8066 10.2602 13.9333 10.1335 13.9333 10.0068V8.86682H14.3133C14.44 8.86682 14.5666 8.86682 14.5666 8.74016C14.6933 8.61349 14.6933 8.61349 14.6933 8.48682C14.6933 8.36016 14.6933 8.23349 14.5666 8.23349C14.44 8.10682 14.44 7.98016 14.3133 7.98016ZM5.95331 7.98016V5.70016H6.71331V8.10682H5.95331V7.98016ZM7.47331 7.98016V5.70016H8.23331V8.10682H7.47331V7.98016ZM9.11997 7.98016V5.70016H9.87997V8.10682H9.11997V7.98016ZM10.64 7.98016V5.70016H11.4V8.10682H10.64V7.98016ZM12.2866 7.98016V5.70016H13.0466V8.10682H12.2866V7.98016Z" fill="white"/>
</svg>
