<svg width="19" height="19" viewBox="0 0 19 19" fill="none" xmlns="http://www.w3.org/2000/svg">
<path d="M9.50044 0.253906C6.46044 0.253906 2.78711 2.15391 2.78711 6.96724C2.78711 9.75391 6.58711 15.7072 8.61378 18.3672C8.99378 18.8739 9.75378 18.8739 10.1338 18.3672C12.0338 15.7072 16.0871 9.88057 16.0871 6.96724C16.2138 2.15391 12.5404 0.253906 9.50044 0.253906Z" fill="#6C9DD3"/>
<path d="M8.10727 8.35953C8.48727 8.35953 8.99393 8.4862 9.24727 8.73953L9.37393 8.8662L9.62727 8.73953C10.2606 8.23286 11.1473 8.23286 11.7806 8.61286L13.1739 5.8262L12.2873 5.31953V3.03953C12.2873 2.53286 11.9073 2.15286 11.4006 2.15286H11.0206C11.0206 1.77286 10.7673 1.51953 10.5139 1.51953C10.5139 1.51953 10.5139 1.51953 10.3873 1.51953H8.61393C8.23393 1.51953 7.9806 1.77286 7.9806 2.0262C7.9806 2.0262 7.9806 2.0262 7.9806 2.15286H7.6006C7.09393 2.15286 6.71393 2.53286 6.71393 3.03953V5.19286L5.7006 5.8262L7.09393 8.61286C7.47393 8.4862 7.85393 8.35953 8.10727 8.35953ZM7.34727 3.03953C7.34727 2.91286 7.47393 2.7862 7.6006 2.7862H11.4006C11.5273 2.7862 11.6539 2.91286 11.6539 3.03953V4.93953L9.5006 3.67286L7.34727 4.93953V3.03953ZM13.5539 9.6262V10.2595C13.4273 10.2595 13.3006 10.3862 13.1739 10.5129C13.0473 10.6395 12.7939 10.7662 12.5406 10.8929C12.1606 10.8929 11.6539 10.8929 11.4006 10.6395L11.1473 10.3862C11.0206 10.2595 10.6406 10.2595 10.5139 10.3862C10.3873 10.5129 10.2606 10.5129 10.2606 10.6395C9.75393 11.0195 9.1206 11.0195 8.7406 10.6395L8.3606 10.3862C8.23393 10.2595 7.85393 10.2595 7.72727 10.3862C7.72727 10.5129 7.6006 10.5129 7.47393 10.6395C7.09393 11.0195 6.4606 10.8929 5.95393 10.6395L5.82727 10.3862C5.7006 10.3862 5.57393 10.2595 5.44727 10.2595V9.6262C5.57393 9.6262 5.82727 9.6262 5.95393 9.75286C6.0806 9.87953 6.20727 10.0062 6.4606 10.1329C6.58727 10.2595 6.8406 10.3862 6.96727 10.2595C7.09393 10.2595 7.09393 10.2595 7.2206 10.1329C7.34727 10.0062 7.34727 10.0062 7.47393 9.87953C7.9806 9.49953 8.61393 9.49953 8.99393 9.87953C8.99393 10.0062 9.1206 10.0062 9.24727 10.1329C9.37393 10.2595 9.75393 10.2595 9.8806 10.1329C9.8806 10.0062 10.0073 10.0062 10.1339 9.87953C10.6406 9.49953 11.2739 9.49953 11.6539 9.87953C11.7806 10.0062 11.7806 10.0062 11.9073 10.1329C12.0339 10.2595 12.4139 10.2595 12.5406 10.1329L12.7939 9.87953C13.0473 9.75286 13.3006 9.6262 13.5539 9.6262Z" fill="#FCFCFC"/>
</svg>
