<svg width="19" height="19" viewBox="0 0 19 19" fill="none" xmlns="http://www.w3.org/2000/svg">
<path d="M9.50044 0.253906C6.46044 0.253906 2.78711 2.15391 2.78711 6.96724C2.78711 9.75391 6.58711 15.7072 8.61378 18.3672C8.99378 18.8739 9.75378 18.8739 10.1338 18.3672C12.0338 15.7072 16.0871 9.88057 16.0871 6.96724C16.2138 2.15391 12.5404 0.253906 9.50044 0.253906Z" fill="#6DBCD1"/>
<path d="M11.1462 10.7684H7.85289V7.22177C7.85289 6.3351 8.35956 5.1951 8.99289 4.18177C9.11956 3.80177 9.37289 3.54844 9.49956 3.2951C9.62622 3.54844 9.87956 3.80177 10.0062 4.0551C10.6396 5.1951 11.1462 6.3351 11.1462 7.22177V10.7684ZM9.49956 1.64844C9.11956 1.64844 6.71289 4.8151 6.71289 7.22177V10.7684C6.71289 11.4018 7.21956 11.9084 7.85289 11.9084H11.0196C11.6529 11.9084 12.1596 11.4018 12.1596 10.7684V7.22177C12.2862 4.8151 9.87956 1.64844 9.49956 1.64844Z" fill="white"/>
</svg>
