<svg width="19" height="19" viewBox="0 0 19 19" fill="none" xmlns="http://www.w3.org/2000/svg">
<path d="M9.50044 0.253906C6.46044 0.253906 2.78711 2.15391 2.78711 6.96724C2.78711 9.75391 6.58711 15.7072 8.61378 18.3672C8.99378 18.8739 9.75378 18.8739 10.1338 18.3672C12.0338 15.7072 16.0871 9.88057 16.0871 6.96724C16.2138 2.15391 12.5404 0.253906 9.50044 0.253906Z" fill="#CE6B28"/>
<path d="M9.50055 11.6518C12.1605 11.6518 14.4405 9.37177 14.4405 6.71177C14.4405 4.43177 12.5405 2.53177 12.5405 2.53177L11.7805 5.31844L9.50055 1.89844L7.22055 5.31844L6.46055 2.65844C6.46055 2.65844 4.56055 4.55844 4.56055 6.83844C4.56055 9.37177 6.84055 11.6518 9.50055 11.6518ZM9.50055 10.5118C8.48721 10.5118 7.60055 9.75177 7.60055 8.61177C7.60055 7.59844 9.50055 5.31844 9.50055 5.31844C9.50055 5.31844 11.4005 7.59844 11.4005 8.61177C11.4005 9.75177 10.5139 10.5118 9.50055 10.5118Z" fill="white"/>
</svg>
