<svg width="19" height="19" viewBox="0 0 19 19" fill="none" xmlns="http://www.w3.org/2000/svg">
<path d="M9.50044 0.253906C6.46044 0.253906 2.78711 2.15391 2.78711 6.96724C2.78711 9.75391 6.58711 15.7072 8.61378 18.3672C8.99378 18.8739 9.75378 18.8739 10.1338 18.3672C12.0338 15.7072 16.0871 9.88057 16.0871 6.96724C16.2138 2.15391 12.5404 0.253906 9.50044 0.253906Z" fill="#C6964F"/>
<path d="M10.5142 8.36016V11.7802C10.5142 12.2868 10.1342 12.7935 9.50083 12.7935C8.99417 12.7935 8.4875 12.4135 8.4875 11.7802V8.36016C6.2075 7.85349 4.6875 5.95349 4.6875 3.67349C4.6875 3.16682 5.0675 2.66016 5.70083 2.66016C6.2075 2.66016 6.71417 3.04016 6.71417 3.67349C6.71417 5.32016 7.98083 6.58682 9.6275 6.58682C11.2742 6.58682 12.5408 5.32016 12.5408 3.67349C12.5408 3.16682 12.9208 2.66016 13.5542 2.66016C14.1875 2.66016 14.5675 3.04016 14.5675 3.67349C14.3142 5.95349 12.6675 7.85349 10.5142 8.36016Z" fill="white"/>
</svg>
