<svg width="19" height="19" viewBox="0 0 19 19" fill="none" xmlns="http://www.w3.org/2000/svg">
<path d="M9.50044 0.253906C6.46044 0.253906 2.78711 2.15391 2.78711 6.96724C2.78711 9.75391 6.58711 15.7072 8.61378 18.3672C8.99378 18.8739 9.75378 18.8739 10.1338 18.3672C12.0338 15.7072 16.0871 9.88057 16.0871 6.96724C16.2138 2.15391 12.5404 0.253906 9.50044 0.253906Z" fill="#5491F5"/>
<path d="M14.9461 5.32073V6.08073H14.1861V7.60073H13.4261V8.36073H12.1594V6.08073H6.8394V8.36073H5.57273V7.60073H4.81273V6.08073H4.05273V5.32073H4.81273V3.80073H5.57273V2.91406H6.71273V5.19406H12.1594V2.91406H13.2994V3.80073H14.0594V5.32073H14.9461Z" fill="white"/>
</svg>
