<svg width="19" height="19" viewBox="0 0 19 19" fill="none" xmlns="http://www.w3.org/2000/svg">
<path d="M9.50044 0.253906C6.46044 0.253906 2.78711 2.15391 2.78711 6.96724C2.78711 9.75391 6.58711 15.7072 8.61378 18.3672C8.99378 18.8739 9.75378 18.8739 10.1338 18.3672C12.0338 15.7072 16.0871 9.88057 16.0871 6.96724C16.2138 2.15391 12.5404 0.253906 9.50044 0.253906Z" fill="#B58585"/>
<path d="M5.4475 2.15453C6.2075 2.15453 6.84083 2.6612 7.09417 3.4212L7.47417 1.39453L7.85417 3.4212C8.1075 2.6612 8.74083 2.15453 9.50083 2.15453C9.37417 2.15453 8.8675 2.2812 8.8675 3.4212C8.8675 4.1812 8.23417 4.68786 7.60083 4.68786C6.84083 4.68786 6.33417 4.05453 6.33417 3.4212C6.2075 2.2812 5.57417 2.15453 5.4475 2.15453ZM12.4142 8.61453L14.4408 8.23453L12.4142 7.9812C13.1742 7.72786 13.6808 7.09453 13.6808 6.33453C13.6808 6.4612 13.5542 6.96786 12.4142 6.96786C11.6542 6.96786 11.1475 7.6012 11.1475 8.23453C11.1475 8.86786 11.7808 9.5012 12.4142 9.5012C13.5542 9.5012 13.6808 10.0079 13.6808 10.1345C13.6808 9.5012 13.1742 8.86786 12.4142 8.61453ZM10.8942 5.06786C10.5142 5.06786 10.2608 4.81453 10.2608 4.43453C10.2608 4.05453 10.5142 3.8012 10.8942 3.8012C10.5142 3.8012 10.2608 3.54786 10.2608 3.16786C10.2608 2.78786 10.5142 2.53453 10.8942 2.53453C11.1475 2.53453 11.2742 2.6612 11.4008 2.78786C11.4008 2.6612 11.4008 2.6612 11.4008 2.53453C11.4008 2.15453 11.6542 1.9012 12.0342 1.9012C12.4142 1.9012 12.6675 2.15453 12.6675 2.53453C12.6675 2.6612 12.6675 2.78786 12.5408 2.78786C12.6675 2.6612 12.9208 2.53453 13.1742 2.53453C13.5542 2.53453 13.8075 2.78786 13.8075 3.16786C13.8075 3.54786 13.5542 3.8012 13.1742 3.8012C13.5542 3.8012 13.8075 4.05453 13.8075 4.43453C13.8075 4.81453 13.5542 5.06786 13.1742 5.06786C12.9208 5.06786 12.6675 4.9412 12.5408 4.81453C12.6675 4.81453 12.6675 4.9412 12.6675 5.06786C12.6675 5.44786 12.4142 5.7012 12.0342 5.7012C11.6542 5.7012 11.4008 5.44786 11.4008 5.06786C11.4008 4.9412 11.4008 4.81453 11.4008 4.81453C11.2742 4.9412 11.1475 5.06786 10.8942 5.06786ZM11.2742 3.8012C11.2742 4.1812 11.5275 4.43453 11.9075 4.43453C12.2875 4.43453 12.6675 4.1812 12.6675 3.8012C12.6675 3.4212 12.4142 3.16786 12.0342 3.16786C11.6542 3.0412 11.2742 3.4212 11.2742 3.8012ZM7.7275 8.99453L7.47417 8.61453L10.3875 5.7012C10.2608 5.7012 10.1342 5.57453 10.0075 5.57453L7.22083 8.3612L6.84083 8.10786C7.22083 7.2212 7.60083 6.33453 7.7275 5.44786C7.60083 5.44786 7.60083 5.44786 7.47417 5.44786C7.47417 5.44786 7.47417 5.44786 7.3475 5.44786C7.22083 6.20786 6.9675 6.96786 6.5875 7.72786L6.33417 7.47453C6.33417 7.47453 6.2075 7.47453 6.08083 7.47453L4.6875 10.8945C4.6875 11.0212 4.81417 11.0212 4.81417 11.0212C4.81417 11.0212 4.81417 11.0212 4.94083 11.0212L8.23417 9.62786C8.36083 9.62786 8.36083 9.5012 8.36083 9.37453L7.98083 9.24786C8.74083 8.86786 9.6275 8.61453 10.3875 8.3612V8.23453C10.3875 8.10786 10.3875 8.10786 10.3875 7.9812C9.50083 8.23453 8.61417 8.48786 7.7275 8.99453Z" fill="white"/>
</svg>
