<svg width="19" height="19" viewBox="0 0 19 19" fill="none" xmlns="http://www.w3.org/2000/svg">
<path d="M9.50044 0.253906C6.46044 0.253906 2.78711 2.15391 2.78711 6.96724C2.78711 9.75391 6.58711 15.7072 8.61378 18.3672C8.99378 18.8739 9.75378 18.8739 10.1338 18.3672C12.0338 15.7072 16.0871 9.88057 16.0871 6.96724C16.2138 2.15391 12.5404 0.253906 9.50044 0.253906Z" fill="#F29900"/>
<path d="M6.96569 2.0251L6.33236 5.8251C6.20569 6.33177 7.59903 6.5851 7.59903 7.21844L7.21903 11.6518C7.21903 12.2851 7.85236 12.2851 7.85236 12.2851C7.85236 12.2851 8.61236 12.2851 8.48569 11.6518V7.21844C8.48569 6.71177 9.62569 6.45844 9.75236 5.8251L9.11903 2.0251H8.61236L8.86569 4.6851L8.23236 5.0651L8.10569 2.0251H7.72569L7.59903 5.0651L7.09236 4.6851L7.21903 1.89844H6.96569V2.0251ZM12.7924 2.0251C12.2857 2.0251 11.399 2.4051 11.1457 3.1651C10.7657 3.67177 10.7657 4.81177 10.7657 5.4451V7.21844C10.7657 7.7251 11.5257 7.85177 11.779 7.85177L11.399 11.6518C11.399 12.2851 12.0324 12.2851 12.0324 12.2851C12.0324 12.2851 12.6657 12.2851 12.6657 11.6518V2.0251H12.7924Z" fill="white"/>
</svg>
