<svg width="19" height="19" viewBox="0 0 19 19" fill="none" xmlns="http://www.w3.org/2000/svg">
<path d="M9.50044 0.253906C6.46044 0.253906 2.78711 2.15391 2.78711 6.96724C2.78711 9.75391 6.58711 15.7072 8.61378 18.3672C8.99378 18.8739 9.75378 18.8739 10.1338 18.3672C12.0338 15.7072 16.0871 9.88057 16.0871 6.96724C16.2138 2.15391 12.5404 0.253906 9.50044 0.253906Z" fill="#6ECD4A"/>
<path d="M11.5267 2.40786C11.5267 3.0412 11.0201 3.4212 10.5134 3.4212C9.88008 3.4212 9.50008 2.91453 9.50008 2.40786C9.50008 1.9012 10.0067 1.39453 10.5134 1.39453C11.1467 1.39453 11.5267 1.77453 11.5267 2.40786ZM11.5267 8.86786C11.1467 8.86786 10.8934 9.24786 10.8934 9.62786C10.8934 10.0079 11.1467 10.2612 11.5267 10.2612C11.9067 10.2612 12.1601 10.0079 12.1601 9.62786C12.1601 9.24786 11.9067 8.86786 11.5267 8.86786ZM12.7934 5.57453L11.5267 4.30786C11.5267 4.1812 11.4001 4.1812 11.2734 4.1812H6.46008C6.20674 4.1812 6.08008 4.30786 6.08008 4.5612C6.08008 4.81453 6.20674 4.9412 6.46008 4.9412H8.36008L6.08008 9.1212V9.24786C6.08008 9.5012 6.20674 9.62786 6.33341 9.62786C6.58674 9.62786 6.71341 9.5012 6.71341 9.37453L7.34674 8.23453H8.86674L7.60008 11.1479V11.2745C7.60008 11.5279 7.72674 11.6545 7.85341 11.6545C8.10674 11.6545 8.23341 11.5279 8.23341 11.4012L11.4001 5.06786L12.4134 6.0812C12.5401 6.20786 12.7934 6.20786 12.9201 6.0812C12.9201 5.82786 12.9201 5.7012 12.7934 5.57453Z" fill="white"/>
</svg>
