<svg width="19" height="19" viewBox="0 0 19 19" fill="none" xmlns="http://www.w3.org/2000/svg">
<path d="M9.50044 0.253906C6.46044 0.253906 2.78711 2.15391 2.78711 6.96724C2.78711 9.75391 6.58711 15.7072 8.61378 18.3672C8.99378 18.8739 9.75378 18.8739 10.1338 18.3672C12.0338 15.7072 16.0871 9.88057 16.0871 6.96724C16.2138 2.15391 12.5404 0.253906 9.50044 0.253906Z" fill="#7986CB"/>
<path d="M13.0473 5.82682V9.37349C13.0473 9.50016 12.9206 9.75349 12.6673 9.75349C12.4139 9.75349 12.4139 9.50016 12.4139 9.37349V8.10682C12.4139 7.60016 11.9073 7.09349 11.4006 7.09349H10.5139V3.29349C10.5139 2.91349 10.2606 2.66016 9.8806 2.66016H6.0806C5.7006 2.66016 5.44727 2.91349 5.44727 3.29349V10.3868C5.44727 10.7668 5.7006 11.0202 6.0806 11.0202H9.8806C10.2606 11.0202 10.5139 10.7668 10.5139 10.3868V7.85349H11.4006C11.5273 7.85349 11.7806 7.98016 11.7806 8.23349V9.50016C11.7806 10.0068 12.1606 10.5135 12.7939 10.5135C13.4273 10.5135 13.8073 10.1335 13.8073 9.50016V5.19349C13.8073 4.81349 13.5539 4.56016 13.1739 4.56016V3.67349C13.1739 3.54682 13.0473 3.42016 12.7939 3.42016C12.6673 3.42016 12.4139 3.54682 12.4139 3.80016V5.32016C12.4139 5.57349 12.6673 5.82682 13.0473 5.82682C13.4273 5.82682 13.6806 5.57349 13.6806 5.19349C13.6806 4.81349 13.4273 4.56016 13.0473 4.56016V5.82682ZM9.8806 6.20682C9.8806 6.33349 9.75393 6.58682 9.5006 6.58682H6.33393C6.0806 6.46016 5.95393 6.33349 5.95393 6.20682V4.30682C5.95393 4.18016 6.0806 3.92682 6.33393 3.92682H9.5006C9.62727 3.92682 9.8806 4.05349 9.8806 4.30682V6.20682Z" fill="white"/>
</svg>
