<svg width="19" height="19" viewBox="0 0 19 19" fill="none" xmlns="http://www.w3.org/2000/svg">
<path d="M9.50044 0.253906C6.46044 0.253906 2.78711 2.15391 2.78711 6.96724C2.78711 9.75391 6.58711 15.7072 8.61378 18.3672C8.99378 18.8739 9.75378 18.8739 10.1338 18.3672C12.0338 15.7072 16.0871 9.88057 16.0871 6.96724C16.2138 2.15391 12.5404 0.253906 9.50044 0.253906Z" fill="#7176D8"/>
<path d="M10.2603 8.73901V7.59901C10.2603 7.47234 10.2603 7.34568 10.1336 7.34568C10.007 7.21901 10.007 7.21901 9.88031 7.21901H9.12031C8.99365 7.21901 8.86698 7.21901 8.86698 7.34568C8.86698 7.34568 8.74031 7.47234 8.74031 7.59901V8.86568C8.23365 8.86568 7.72698 9.24568 7.34698 9.62568C6.96698 10.1323 6.71365 10.639 6.58698 11.1457V11.2723C6.58698 11.2723 6.58698 11.399 6.71365 11.399C6.84031 11.399 6.84031 11.5257 6.84031 11.5257H6.96698H12.0336H12.1603C12.1603 11.5257 12.287 11.5257 12.287 11.399C12.287 11.2723 12.4136 11.399 12.4136 11.399V11.2723C12.287 10.639 12.0336 10.1323 11.6536 9.62568C11.2736 9.24568 10.767 8.86568 10.2603 8.73901ZM13.6803 5.95234L11.7803 2.27901L11.6536 2.15234C11.6536 2.15234 11.527 2.15234 11.4003 2.15234H7.47365C7.34698 2.15234 7.34698 2.15234 7.22031 2.15234L7.09365 2.27901L5.32031 5.95234V6.07901V6.20568L5.44698 6.33234H5.57365H11.527V7.59901C11.527 7.72568 11.527 7.85234 11.6536 7.85234C11.7803 7.97901 11.7803 7.97901 11.907 7.97901C12.0336 7.97901 12.1603 7.97901 12.1603 7.85234C12.4136 7.72568 12.4136 7.72568 12.4136 7.59901V6.45901H13.3003H13.427L13.5536 6.33234V6.20568C13.6803 6.07901 13.6803 5.95234 13.6803 5.95234Z" fill="white"/>
</svg>
