<svg width="19" height="19" viewBox="0 0 19 19" fill="none" xmlns="http://www.w3.org/2000/svg">
<path d="M9.50044 0.253906C6.46044 0.253906 2.78711 2.15391 2.78711 6.96724C2.78711 9.75391 6.58711 15.7072 8.61378 18.3672C8.99378 18.8739 9.75378 18.8739 10.1338 18.3672C12.0338 15.7072 16.0871 9.88057 16.0871 6.96724C16.2138 2.15391 12.5404 0.253906 9.50044 0.253906Z" fill="#EF6565"/>
<path d="M11.6525 3.79969L9.62583 1.89969C9.49917 1.77302 9.24583 1.77302 9.11917 1.89969L7.21917 3.79969H5.1925C4.93917 3.79969 4.8125 4.05302 4.8125 4.17969V10.513C4.8125 10.7664 4.93917 10.893 5.1925 10.893H13.6792C13.9325 10.893 14.0592 10.7664 14.0592 10.513V4.17969C14.0592 4.05302 13.9325 3.79969 13.6792 3.79969H11.6525ZM9.49917 2.53302L10.7658 3.79969H8.2325L9.49917 2.53302ZM13.2992 10.2597H5.5725V4.55969H13.2992V10.2597ZM7.72583 6.71302C7.21917 6.71302 6.96583 6.33302 6.96583 5.95302C6.96583 5.57302 7.34583 5.19302 7.72583 5.19302C8.10583 5.19302 8.48583 5.57302 8.48583 5.95302C8.48583 6.33302 8.10583 6.71302 7.72583 6.71302ZM12.6658 9.49969H7.34583L8.35917 7.34635L9.24583 9.11969L10.8925 5.95302L12.6658 9.49969Z" fill="white"/>
</svg>
