<svg width="19" height="19" viewBox="0 0 19 19" fill="none" xmlns="http://www.w3.org/2000/svg">
<path d="M9.50044 0.253906C6.46044 0.253906 2.78711 2.15391 2.78711 6.96724C2.78711 9.75391 6.58711 15.7072 8.61378 18.3672C8.99378 18.8739 9.75378 18.8739 10.1338 18.3672C12.0338 15.7072 16.0871 9.88057 16.0871 6.96724C16.2138 2.15391 12.5404 0.253906 9.50044 0.253906Z" fill="#6ECD4A"/>
<path d="M13.9333 10.3873C13.4266 10.6407 12.7933 10.514 12.54 10.0073L11.6533 8.86734H7.34664L6.45997 10.0073C6.07997 10.514 5.31997 10.6407 4.81331 10.2607C4.43331 9.88068 4.30664 9.37401 4.30664 8.99401L4.81331 6.08068C5.06664 5.19401 5.95331 4.43401 6.83997 4.43401H9.11997V3.16734C9.11997 2.53401 9.62664 2.02734 10.26 2.02734H12.6666C12.92 2.02734 13.0466 2.15401 13.0466 2.40734C13.0466 2.66068 12.92 2.78734 12.6666 2.78734H10.26C10.0066 2.78734 9.87997 2.91401 9.87997 3.16734V3.29401V4.43401H12.16C13.1733 4.43401 13.9333 5.19401 14.1866 6.08068L14.6933 8.99401C14.82 9.62734 14.5666 10.134 13.9333 10.3873ZM8.35997 6.46068C8.35997 5.82734 7.85331 5.32068 7.21997 5.32068C6.58664 5.32068 5.95331 5.82734 5.95331 6.46068C5.95331 7.09401 6.45997 7.60068 7.09331 7.60068C7.72664 7.60068 8.35997 7.09401 8.35997 6.46068ZM13.0466 6.46068C13.0466 6.20734 12.92 6.08068 12.6666 6.08068H12.2866V5.57401C12.2866 5.32068 12.16 5.19401 11.9066 5.19401C11.6533 5.19401 11.5266 5.32068 11.5266 5.57401V5.95401H11.1466C10.8933 5.95401 10.7666 6.08068 10.7666 6.33401C10.7666 6.58734 10.8933 6.71401 11.1466 6.71401H11.5266V7.09401C11.5266 7.47401 11.6533 7.60068 11.9066 7.60068C12.16 7.60068 12.2866 7.47401 12.2866 7.22068V6.84068H12.6666C12.92 6.84068 13.0466 6.58734 13.0466 6.46068Z" fill="white"/>
</svg>
