<svg width="19" height="19" viewBox="0 0 19 19" fill="none" xmlns="http://www.w3.org/2000/svg">
<path d="M9.50044 0.253906C6.46044 0.253906 2.78711 2.15391 2.78711 6.96724C2.78711 9.75391 6.58711 15.7072 8.61378 18.3672C8.99378 18.8739 9.75378 18.8739 10.1338 18.3672C12.0338 15.7072 16.0871 9.88057 16.0871 6.96724C16.2138 2.15391 12.5404 0.253906 9.50044 0.253906Z" fill="#7BAD7D"/>
<path d="M6.46023 4.56068V4.18068C6.46023 3.04068 7.3469 2.02734 8.61357 2.02734C9.88023 2.02734 10.7669 2.91401 10.7669 4.18068V9.12068L12.6669 6.96734L12.4136 5.95401C12.4136 5.82734 12.4136 5.70068 12.5402 5.57401C12.6669 5.44734 12.9202 5.44734 13.1736 5.57401L14.8202 7.22068C14.9469 7.34734 14.9469 7.60068 14.8202 7.85401C14.6936 7.98068 14.5669 7.98068 14.4402 7.98068L13.3002 7.60068L10.7669 10.134V10.3873C10.7669 10.894 10.3869 11.274 9.88023 11.274H7.3469C6.84023 11.274 6.46023 10.894 6.46023 10.3873V10.0073L4.56023 8.10734C3.80023 7.34734 3.80023 5.95401 4.56023 5.19401C4.94023 4.81401 5.4469 4.56068 6.08023 4.56068H6.46023ZM6.46023 5.44734H6.08023C5.70023 5.44734 5.4469 5.57401 5.19357 5.82734C4.6869 6.33401 4.6869 7.09401 5.19357 7.60068L6.46023 8.86734V5.44734ZM9.88023 4.56068V4.18068C9.88023 3.42068 9.37357 2.91401 8.61357 2.91401C7.85357 2.91401 7.3469 3.42068 7.3469 4.18068V4.56068H9.88023Z" fill="white"/>
</svg>
