<svg width="19" height="19" viewBox="0 0 19 19" fill="none" xmlns="http://www.w3.org/2000/svg">
<path d="M9.50044 0.253906C6.46044 0.253906 2.78711 2.15391 2.78711 6.96724C2.78711 9.75391 6.58711 15.7072 8.61378 18.3672C8.99378 18.8739 9.75378 18.8739 10.1338 18.3672C12.0338 15.7072 16.0871 9.88057 16.0871 6.96724C16.2138 2.15391 12.5404 0.253906 9.50044 0.253906Z" fill="#3DA342"/>
<path d="M13.5539 7.2207C13.5539 9.62736 11.9073 11.654 9.5006 11.654C7.09393 11.654 5.44727 9.62736 5.44727 7.2207C7.09393 7.2207 8.61393 8.3607 9.1206 9.8807V6.4607H7.34727C6.71393 6.4607 6.20727 5.95403 6.20727 5.3207V3.16736C6.20727 2.91403 6.33393 2.78736 6.58727 2.78736C6.71393 2.78736 6.8406 2.78736 6.8406 2.91403L7.9806 4.43403L9.24727 2.2807C9.37393 2.15403 9.62727 2.02736 9.75393 2.15403L9.8806 2.2807L11.1473 4.43403L12.2873 2.91403C12.2873 2.78736 12.5406 2.78736 12.6673 2.91403C12.7939 3.0407 12.7939 3.0407 12.7939 3.16736V5.3207C12.7939 5.95403 12.2873 6.4607 11.6539 6.4607H9.8806V9.8807C10.3873 8.23403 11.9073 7.2207 13.5539 7.2207Z" fill="white"/>
</svg>
