<svg width="19" height="19" viewBox="0 0 19 19" fill="none" xmlns="http://www.w3.org/2000/svg">
<path d="M9.50044 0.253906C6.46044 0.253906 2.78711 2.15391 2.78711 6.96724C2.78711 9.75391 6.58711 15.7072 8.61378 18.3672C8.99378 18.8739 9.75378 18.8739 10.1338 18.3672C12.0338 15.7072 16.0871 9.88057 16.0871 6.96724C16.2138 2.15391 12.5404 0.253906 9.50044 0.253906Z" fill="#A173AD"/>
<path d="M4.8125 2.78792C4.8125 2.53458 5.06583 2.28125 5.44583 2.28125H6.20583C6.3325 2.28125 6.3325 2.28125 6.3325 2.28125L8.73917 3.16792C8.9925 3.29458 9.11917 3.42125 9.11917 3.67458V7.98125C9.11917 8.23458 8.9925 8.36125 8.73917 8.48792L6.3325 9.50125V9.62792C6.3325 9.88125 6.07917 10.1346 5.69917 10.1346H5.44583C5.06583 10.1346 4.8125 9.88125 4.8125 9.62792V2.78792ZM6.96583 6.96792V3.42125C6.96583 3.29458 6.96583 3.29458 6.83917 3.29458L6.45917 3.16792C6.45917 3.04125 6.3325 3.16792 6.3325 3.29458V7.09458C6.3325 7.22125 6.45917 7.34792 6.58583 7.22125L6.96583 7.09458V6.96792ZM7.72583 3.80125V6.58792C7.72583 6.71458 7.8525 6.71458 7.8525 6.71458L8.2325 6.58792C8.35917 6.58792 8.35917 6.46125 8.35917 6.46125V3.92792C8.35917 3.80125 8.35917 3.80125 8.2325 3.80125L7.97917 3.67458C7.8525 3.67458 7.72583 3.67458 7.72583 3.80125ZM14.1858 2.78792C14.1858 2.53458 13.9325 2.28125 13.6792 2.28125H12.9192C12.7925 2.28125 12.7925 2.28125 12.7925 2.28125L10.2592 3.16792C10.0058 3.29458 9.87917 3.54792 9.87917 3.67458V7.98125C9.87917 8.23458 10.0058 8.36125 10.2592 8.48792L12.7925 9.37458V9.50125C12.6658 9.88125 12.9192 10.1346 13.2992 10.1346H13.6792C13.9325 10.1346 14.1858 9.88125 14.1858 9.62792V2.78792ZM12.1592 7.09458C12.0325 7.09458 12.0325 6.96792 12.0325 6.96792V3.42125C12.0325 3.29458 12.0325 3.29458 12.1592 3.29458L12.5392 3.16792C12.6658 3.16792 12.7925 3.16792 12.7925 3.29458V7.09458C12.7925 7.22125 12.6658 7.22125 12.6658 7.22125L12.1592 7.09458ZM11.2725 3.80125V6.58792C11.2725 6.71458 11.1458 6.71458 11.1458 6.71458L10.6392 6.58792C10.5125 6.58792 10.5125 6.46125 10.5125 6.46125V3.92792C10.5125 3.80125 10.5125 3.80125 10.6392 3.80125L11.0192 3.67458C11.1458 3.67458 11.2725 3.67458 11.2725 3.80125Z" fill="white"/>
</svg>
