<svg width="19" height="19" viewBox="0 0 19 19" fill="none" xmlns="http://www.w3.org/2000/svg">
<path d="M9.50044 0.253906C6.46044 0.253906 2.78711 2.15391 2.78711 6.96724C2.78711 9.75391 6.58711 15.7072 8.61378 18.3672C8.99378 18.8739 9.75378 18.8739 10.1338 18.3672C12.0338 15.7072 16.0871 9.88057 16.0871 6.96724C16.2138 2.15391 12.5404 0.253906 9.50044 0.253906Z" fill="#7287AA"/>
<path d="M11.6542 2.02734C10.6408 2.02734 9.75417 2.66068 9.50083 3.67401C9.2475 2.66068 8.36083 2.02734 7.3475 2.02734C6.08083 2.02734 5.70083 3.29401 6.08083 4.18068H5.0675C4.81417 4.18068 4.6875 4.30734 4.6875 4.56068V5.32068C4.6875 5.57401 4.81417 5.70068 5.0675 5.70068H13.9342C14.1875 5.70068 14.3142 5.57401 14.3142 5.32068V4.56068C14.3142 4.30734 14.1875 4.18068 13.9342 4.18068H12.9208C13.4275 3.42068 13.0475 2.02734 11.6542 2.02734ZM11.7808 4.18068H10.2608C10.2608 3.42068 10.8942 2.66068 11.7808 2.66068C12.5408 2.78734 12.6675 4.18068 11.7808 4.18068ZM8.74083 4.18068H7.09417C6.33417 4.18068 6.33417 2.78734 7.22083 2.78734H7.3475C8.1075 2.78734 8.74083 3.42068 8.74083 4.18068ZM5.4475 6.46068V9.75401C5.4475 10.3873 5.95417 10.894 6.5875 10.894H8.74083V6.46068H5.4475ZM10.2608 6.46068V10.894H12.4142C13.0475 10.894 13.5542 10.3873 13.5542 9.75401V6.46068H10.2608Z" fill="white"/>
</svg>
