<svg width="19" height="19" viewBox="0 0 19 19" fill="none" xmlns="http://www.w3.org/2000/svg">
<path d="M9.50044 0.253906C6.46044 0.253906 2.78711 2.15391 2.78711 6.96724C2.78711 9.75391 6.58711 15.7072 8.61378 18.3672C8.99378 18.8739 9.75378 18.8739 10.1338 18.3672C12.0338 15.7072 16.0871 9.88057 16.0871 6.96724C16.2138 2.15391 12.5404 0.253906 9.50044 0.253906Z" fill="#57AAAA"/>
<path d="M13.5529 8.48734L13.0462 7.98068C11.6529 9.62734 9.24624 9.75401 7.59957 8.36068C5.95291 6.96734 5.82624 4.56068 7.21957 2.91401C7.21957 2.91401 7.47291 2.66068 7.59957 2.53401L6.96624 2.02734C5.06624 3.67401 4.93957 6.58734 6.58624 8.48734C7.47291 9.37401 8.48624 10.0073 9.75291 10.134V11.274H9.37291C9.11957 11.274 8.86624 11.4007 8.86624 11.654C8.86624 11.9073 8.99291 12.034 9.24624 12.034H10.7662C11.0196 12.034 11.1462 11.9073 11.1462 11.654C11.1462 11.4007 11.0196 11.274 10.8929 11.274H10.5129V10.134C11.6529 10.0073 12.7929 9.37401 13.5529 8.48734ZM10.1329 8.23401C11.6529 8.23401 12.7929 6.96734 12.7929 5.57401C12.7929 4.18068 11.5262 2.78734 10.1329 2.78734C8.73957 2.78734 7.47291 4.05401 7.47291 5.44734C7.47291 6.84068 8.61291 8.23401 10.1329 8.23401ZM10.8929 4.30734L11.1462 3.80068C11.3996 4.05401 11.6529 4.30734 11.7796 4.56068L11.6529 5.06734H10.8929V4.30734ZM9.37291 3.67401L10.1329 4.30734V5.06734L10.5129 5.82734H12.0329C11.7796 6.46068 11.3996 6.96734 10.7662 7.22068L10.5129 6.58734H9.37291L8.23291 5.06734C8.35957 4.43401 8.86624 3.92734 9.37291 3.67401Z" fill="white"/>
</svg>
