<svg width="19" height="19" viewBox="0 0 19 19" fill="none" xmlns="http://www.w3.org/2000/svg">
<path d="M9.50044 0.253906C6.46044 0.253906 2.78711 2.15391 2.78711 6.96724C2.78711 9.75391 6.58711 15.7072 8.61378 18.3672C8.99378 18.8739 9.75378 18.8739 10.1338 18.3672C12.0338 15.7072 16.0871 9.88057 16.0871 6.96724C16.2138 2.15391 12.5404 0.253906 9.50044 0.253906Z" fill="#5869A8"/>
<path d="M6.58594 2.78734C6.58594 2.91401 6.58594 2.91401 6.58594 2.91401C6.58594 3.16734 6.83927 3.42068 7.0926 3.42068C7.34594 3.42068 7.4726 3.29401 7.4726 3.04068L7.59927 2.66068L11.5259 4.30734L8.86594 6.20734C8.6126 6.46068 8.6126 6.71401 8.6126 6.96734L9.24594 8.48734L8.35927 11.1473C8.2326 11.5273 8.48594 11.7807 8.73927 11.7807C8.9926 11.7807 9.11927 11.654 9.11927 11.4007L10.1326 8.61401L10.2593 8.86734V11.4007C10.2593 11.4007 10.2593 11.9073 10.7659 11.9073C11.2726 11.9073 11.2726 11.4007 11.2726 11.4007V8.99401C11.2726 8.86734 11.2726 8.74068 11.1459 8.61401L10.2593 6.20734L12.1593 4.81401C12.2859 4.68734 12.4126 4.56068 12.4126 4.43401C12.4126 4.18068 12.2859 4.05401 12.1593 4.05401L7.0926 2.02734C7.0926 2.02734 6.96594 2.02734 6.96594 2.15401L6.58594 2.78734ZM8.10594 4.05401C7.59927 4.05401 7.0926 4.56068 7.0926 5.06734C7.0926 5.57401 7.59927 6.08068 8.10594 6.08068C8.6126 6.08068 9.11927 5.57401 9.11927 5.06734C9.11927 4.56068 8.6126 4.05401 8.10594 4.05401Z" fill="white"/>
</svg>
