<svg width="21" height="21" viewBox="0 0 21 21" fill="none" xmlns="http://www.w3.org/2000/svg">
<path d="M16.7386 0.101165C15.8608 0.26268 14.1054 0.922196 14.0291 1.13755C14.0036 1.19139 13.9273 1.24522 13.8637 1.24522C13.6856 1.24522 13.4185 1.47404 12.6807 2.26815C11.9429 3.0488 11.3832 4.15248 11.0906 5.41767L10.8871 6.29254L9.42418 6.306C7.27438 6.34638 5.50621 6.88476 3.4073 8.14995C3.25465 8.24417 3.06384 8.39223 2.96207 8.47298C2.87303 8.5672 2.74582 8.64796 2.69494 8.64796C2.64406 8.64796 2.47869 8.76909 2.32604 8.91715C2.17339 9.07866 2.04619 9.14596 2.04619 9.09212C2.04619 8.87677 0.506983 10.7073 0.26529 11.2053C-0.243537 12.2551 0.0108768 13.8568 0.761397 14.4221C1.94442 15.3104 3.85252 14.5836 4.97194 12.8204C5.07371 12.6589 5.22636 12.4435 5.28996 12.3628C5.36628 12.282 5.6207 11.9455 5.86239 11.609C7.68145 9.1325 9.24609 7.70579 10.162 7.70579C10.7471 7.70579 10.8235 7.89422 10.8235 9.48245C10.8235 13.5338 12.2609 17.6927 14.3344 19.6713C15.1866 20.4789 16.446 21.0845 17.0948 20.9903C18.3923 20.8019 18.9011 19.8597 18.9011 17.6658C18.9011 16.1449 18.6976 15.2162 18.0997 13.9645C17.9089 13.5876 17.7689 13.2377 17.7562 13.1838C17.7562 13.13 17.6672 13.0223 17.5654 12.955C17.4637 12.8877 17.4128 12.8204 17.4764 12.8204C17.629 12.8204 16.9294 11.6898 16.3951 11.0572C16.2679 10.9226 16.2043 10.8015 16.2679 10.8015C16.3188 10.8015 16.2933 10.7476 16.2297 10.6938C16.1534 10.64 15.8481 10.2766 15.5428 9.88623C14.945 9.11904 13.4439 7.77309 12.4517 7.12703C11.9938 6.81746 11.8411 6.64249 11.8411 6.38676C11.8411 5.7407 12.5535 5.32346 14.7669 4.7447C16.0389 4.39475 16.2425 4.34091 16.5478 4.2467C16.7259 4.19286 16.9294 4.15248 16.993 4.13902C17.2474 4.1121 17.8834 3.89675 18.0106 3.80253C18.087 3.74869 18.3287 3.65448 18.5449 3.60064C19.677 3.34491 21 2.33544 21 1.72977C21 0.491491 18.9774 -0.289161 16.7386 0.101165Z" fill="#1596EC"/>
</svg>
