<svg width="19" height="19" viewBox="0 0 19 19" fill="none" xmlns="http://www.w3.org/2000/svg">
<path d="M9.50044 0.253906C6.46044 0.253906 2.78711 2.15391 2.78711 6.96724C2.78711 9.75391 6.58711 15.7072 8.61378 18.3672C8.99378 18.8739 9.75378 18.8739 10.1338 18.3672C12.0338 15.7072 16.0871 9.88057 16.0871 6.96724C16.2138 2.15391 12.5404 0.253906 9.50044 0.253906Z" fill="#5491F5"/>
<path d="M13.3 2.02734C13.3 2.02734 12.4134 2.02734 12.0334 2.40734C11.6534 2.66068 11.4 3.04068 11.4 3.67401H5.19336L6.08003 6.96734C6.33336 7.34734 6.71336 7.72734 7.22003 7.72734H11.5267V7.85401C11.5267 7.85401 11.5267 8.10734 11.4 8.36068C11.2734 8.61401 11.2734 8.74068 10.7667 8.74068H6.33336C5.70003 8.74068 5.70003 9.75401 6.33336 9.75401H7.09336H7.22003H10.5134H10.64H10.7667C11.4 9.75401 12.0334 9.24734 12.2867 8.86734C12.54 8.36068 12.54 7.98068 12.54 7.98068V7.72734V3.67401C12.54 3.29401 12.6667 3.04068 13.0467 3.04068H13.4267C13.68 3.04068 13.9334 2.78734 13.9334 2.53401C13.9334 2.28068 13.5534 2.02734 13.3 2.02734ZM10.5134 9.75401C10.1334 9.75401 9.88003 10.0073 9.88003 10.3873C9.88003 10.7673 10.1334 11.0207 10.5134 11.0207C10.8934 11.0207 11.1467 10.7673 11.1467 10.3873C11.2734 10.0073 11.02 9.75401 10.5134 9.75401ZM7.22003 9.75401C6.84003 9.75401 6.58669 10.0073 6.58669 10.3873C6.58669 10.7673 6.84003 11.0207 7.22003 11.0207C7.60003 11.0207 7.85336 10.7673 7.85336 10.3873C7.85336 10.0073 7.60003 9.75401 7.22003 9.75401Z" fill="white"/>
</svg>
