<svg width="19" height="19" viewBox="0 0 19 19" fill="none" xmlns="http://www.w3.org/2000/svg">
<path d="M9.50044 0.253906C6.46044 0.253906 2.78711 2.15391 2.78711 6.96724C2.78711 9.75391 6.58711 15.7072 8.61378 18.3672C8.99378 18.8739 9.75378 18.8739 10.1338 18.3672C12.0338 15.7072 16.0871 9.88057 16.0871 6.96724C16.2138 2.15391 12.5404 0.253906 9.50044 0.253906Z" fill="#4B4BBF"/>
<path d="M14.3142 3.41849C14.3142 3.41849 13.0475 3.03849 12.0342 3.79849L9.2475 5.69849C8.74083 5.31849 7.98083 4.81182 7.22083 4.55849V4.05182C7.22083 3.29182 6.5875 2.78516 5.95417 2.78516C5.32083 2.78516 4.6875 3.41849 4.6875 4.05182V5.06516C4.6875 5.31849 5.0675 5.31849 5.0675 5.31849H6.08083H6.33417C7.60083 5.31849 8.4875 6.33182 8.4875 6.33182C8.4875 6.33182 7.60083 7.21849 6.33417 7.21849H5.95417H5.0675C5.0675 7.21849 4.6875 7.21849 4.6875 7.59849V8.61182C4.6875 9.37182 5.32083 9.87849 5.95417 9.87849C6.5875 9.87849 7.22083 9.24516 7.22083 8.61182V7.97849C7.98083 7.72516 8.74083 7.21849 9.2475 6.83849L12.0342 8.86516C13.0475 9.62516 14.3142 9.24516 14.3142 9.24516L10.1342 6.33182L14.3142 3.41849ZM6.5875 4.68516H5.95417H5.32083V4.05182C5.32083 3.67182 5.57417 3.41849 5.95417 3.41849C6.33417 3.41849 6.5875 3.67182 6.5875 4.05182V4.68516ZM6.5875 8.48516C6.5875 8.86516 6.33417 9.11849 5.95417 9.11849C5.57417 9.11849 5.32083 8.86516 5.32083 8.48516V7.85182H5.95417H6.5875V8.48516ZM9.37417 6.58516C9.12083 6.58516 8.99417 6.45849 8.99417 6.33182C8.99417 6.20516 9.12083 5.95182 9.37417 5.95182C9.50083 5.95182 9.75417 6.07849 9.75417 6.33182C9.75417 6.58516 9.50083 6.58516 9.37417 6.58516Z" fill="white"/>
</svg>
