<svg width="19" height="19" viewBox="0 0 19 19" fill="none" xmlns="http://www.w3.org/2000/svg">
<path d="M9.50044 0.253906C6.46044 0.253906 2.78711 2.15391 2.78711 6.96724C2.78711 9.75391 6.58711 15.7072 8.61378 18.3672C8.99378 18.8739 9.75378 18.8739 10.1338 18.3672C12.0338 15.7072 16.0871 9.88057 16.0871 6.96724C16.2138 2.15391 12.5404 0.253906 9.50044 0.253906Z" fill="#57577F"/>
<path d="M9.49917 2.02734C8.2325 2.02734 7.34583 3.04068 7.34583 4.18068C7.34583 5.19401 7.97917 5.95401 8.86583 6.20734V9.88068C8.35917 9.88068 7.72583 9.62734 7.21917 9.12068C6.58583 8.48734 6.07917 7.60068 6.07917 5.95401C6.07917 5.57401 5.82583 5.32068 5.44583 5.32068C5.06583 5.32068 4.8125 5.57401 4.8125 5.95401C4.8125 7.85401 5.44583 9.12068 6.3325 10.0073C7.21917 10.894 8.35917 11.1473 9.3725 11.1473C10.3858 11.1473 11.5258 10.7673 12.4125 10.0073C13.2992 9.24734 13.9325 7.85401 13.9325 5.95401C13.9325 5.06734 12.6658 5.06734 12.6658 5.95401C12.6658 7.47401 12.1592 8.48734 11.5258 9.12068C11.2725 9.62734 10.6392 9.88068 10.1325 9.88068V6.20734C11.0192 5.95401 11.6525 5.06734 11.6525 4.18068C11.6525 3.04068 10.7658 2.02734 9.49917 2.02734ZM9.49917 3.29401C10.0058 3.29401 10.3858 3.67401 10.3858 4.18068C10.3858 4.68734 10.0058 5.06734 9.49917 5.06734C8.9925 5.06734 8.6125 4.68734 8.6125 4.18068C8.6125 3.67401 8.9925 3.29401 9.49917 3.29401Z" fill="white"/>
</svg>
