<svg width="19" height="19" viewBox="0 0 19 19" fill="none" xmlns="http://www.w3.org/2000/svg">
<path d="M9.50044 0.253906C6.46044 0.253906 2.78711 2.15391 2.78711 6.96724C2.78711 9.75391 6.58711 15.7072 8.61378 18.3672C8.99378 18.8739 9.75378 18.8739 10.1338 18.3672C12.0338 15.7072 16.0871 9.88057 16.0871 6.96724C16.2138 2.15391 12.5404 0.253906 9.50044 0.253906Z" fill="#895396"/>
<path d="M13.9336 3.67179C13.9336 3.67179 12.7936 4.81179 12.4136 5.19179C12.4136 5.19179 12.287 5.31846 12.1603 5.31846C12.0336 5.31846 11.907 5.31846 11.907 5.31846C11.6536 5.19179 11.4003 5.06512 11.0203 5.06512C11.0203 4.68512 10.8936 4.17846 10.8936 3.79846V3.67179C11.2736 3.29179 12.287 2.27846 12.4136 2.15179C12.0336 2.02512 11.527 1.89846 11.147 2.02512C9.62697 2.27846 8.7403 3.79846 9.24697 5.31846C9.24697 5.44512 9.24697 5.44512 9.24697 5.44512C7.9803 6.71179 6.58697 8.10512 5.3203 9.37179L5.19364 9.49846C4.68697 10.0051 4.81364 10.7651 5.3203 11.0185C5.7003 11.3985 6.33364 11.2718 6.71364 10.8918C7.9803 9.62512 9.37364 8.23179 10.6403 6.96512C10.767 6.83846 10.767 6.83846 10.8936 6.96512C11.2736 7.09179 11.7803 7.09179 12.287 6.96512C13.6803 6.58512 14.4403 5.31846 14.187 3.92512C14.0603 3.79846 13.9336 3.79846 13.9336 3.67179Z" fill="white"/>
</svg>
