<svg width="19" height="19" viewBox="0 0 19 19" fill="none" xmlns="http://www.w3.org/2000/svg">
<path d="M9.50044 0.253906C6.46044 0.253906 2.78711 2.15391 2.78711 6.96724C2.78711 9.75391 6.58711 15.7072 8.61378 18.3672C8.99378 18.8739 9.75378 18.8739 10.1338 18.3672C12.0338 15.7072 16.0871 9.88057 16.0871 6.96724C16.2138 2.15391 12.5404 0.253906 9.50044 0.253906Z" fill="#E24040"/>
<path d="M14.0594 6.46068C13.1727 8.10735 11.0194 10.2607 9.75272 11.4007C9.62605 11.5273 9.37272 11.5273 9.24605 11.4007C7.97938 10.2607 5.69938 7.98068 4.93938 6.46068C3.03938 2.91401 7.72605 0.634013 9.49938 4.18068C11.2727 0.634013 15.9594 2.91401 14.0594 6.46068Z" fill="white"/>
</svg>
