<svg width="19" height="19" viewBox="0 0 19 19" fill="none" xmlns="http://www.w3.org/2000/svg">
<path d="M9.50044 0.253906C6.46044 0.253906 2.78711 2.15391 2.78711 6.96724C2.78711 9.75391 6.58711 15.7072 8.61378 18.3672C8.99378 18.8739 9.75378 18.8739 10.1338 18.3672C12.0338 15.7072 16.0871 9.88057 16.0871 6.96724C16.2138 2.15391 12.5404 0.253906 9.50044 0.253906Z" fill="#5894DB"/>
<path d="M7.09331 2.66016C6.45997 2.66016 6.45997 3.29349 7.09331 3.29349H9.87997V3.92682C9.62664 3.92682 9.49997 4.05349 9.49997 4.30682V4.68682H7.72664H7.09331C6.83997 4.18016 6.33331 3.80016 5.69997 3.80016C4.93997 3.80016 4.30664 4.43349 4.30664 5.19349C4.30664 5.95349 4.93997 6.58682 5.69997 6.58682C5.95331 6.58682 6.20664 6.46016 6.45997 6.33349L8.10664 8.61349C8.86664 9.62682 10.0066 9.62682 10.5133 9.62682H13.9333C13.9333 9.62682 14.5666 9.62682 14.5666 8.99349V8.23349C14.5666 7.72682 14.44 7.47349 14.1866 7.22016L12.2866 5.19349C12.2866 5.19349 11.9066 4.81349 11.4 4.81349H10.8933V4.43349C10.8933 4.18016 10.7666 4.05349 10.5133 4.05349V3.42016H13.3C13.9333 3.42016 13.9333 2.78682 13.3 2.78682H7.09331V2.66016ZM5.69997 4.43349C6.07997 4.43349 6.33331 4.68682 6.33331 5.06682C6.33331 5.44682 6.07997 5.70016 5.69997 5.70016C5.31997 5.82682 5.06664 5.57349 5.06664 5.19349C5.06664 4.81349 5.31997 4.43349 5.69997 4.43349ZM11.2733 5.44682C11.6533 5.44682 11.78 5.70016 11.9066 5.82682L13.68 7.60016H11.2733C11.2733 7.60016 10.64 7.60016 10.64 6.96682V6.20682C10.5133 6.20682 10.5133 5.44682 11.2733 5.44682Z" fill="white"/>
</svg>
