<svg width="19" height="19" viewBox="0 0 19 19" fill="none" xmlns="http://www.w3.org/2000/svg">
<path d="M9.50044 0.253906C6.46044 0.253906 2.78711 2.15391 2.78711 6.96724C2.78711 9.75391 6.58711 15.7072 8.61378 18.3672C8.99378 18.8739 9.75378 18.8739 10.1338 18.3672C12.0338 15.7072 16.0871 9.88057 16.0871 6.96724C16.2138 2.15391 12.5404 0.253906 9.50044 0.253906Z" fill="#49933D"/>
<path d="M13.8058 10.6403H11.6525V7.72693H13.8058C14.0592 7.72693 14.1858 7.60026 14.1858 7.34693C14.1858 7.22026 14.1858 7.22026 14.0592 7.09359L12.5392 4.94026H13.1725C13.4258 4.94026 13.5525 4.81359 13.5525 4.56026C13.5525 4.43359 13.5525 4.43359 13.4258 4.30693L11.5258 2.15359C11.3992 2.02693 11.1458 2.02693 11.0192 2.15359L9.24583 4.30693C9.11917 4.43359 9.11917 4.68693 9.24583 4.81359C9.3725 4.81359 9.3725 4.94026 9.49917 4.94026H10.1325L8.48583 7.22026C8.35917 7.34693 8.35917 7.60026 8.6125 7.72693C8.6125 7.72693 8.73917 7.85359 8.86583 7.85359H11.0192V10.7669H6.96583V9.24693H8.10583C8.35917 9.24693 8.48583 9.12026 8.48583 8.86693C8.48583 8.61359 8.35917 8.48693 8.10583 8.48693H5.1925C4.93917 8.48693 4.8125 8.61359 4.8125 8.86693C4.8125 9.12026 4.93917 9.24693 5.1925 9.24693H6.3325V10.6403H5.1925C4.93917 10.6403 4.8125 10.7669 4.8125 11.0203C4.8125 11.1469 4.93917 11.4003 5.1925 11.4003H13.8058C14.0592 11.4003 14.1858 11.2736 14.1858 11.0203C14.1858 10.7669 14.0592 10.6403 13.8058 10.6403Z" fill="white"/>
</svg>
