<svg width="19" height="19" viewBox="0 0 19 19" fill="none" xmlns="http://www.w3.org/2000/svg">
<path d="M9.50044 0.253906C6.46044 0.253906 2.78711 2.15391 2.78711 6.96724C2.78711 9.75391 6.58711 15.7072 8.61378 18.3672C8.99378 18.8739 9.75378 18.8739 10.1338 18.3672C12.0338 15.7072 16.0871 9.88057 16.0871 6.96724C16.2138 2.15391 12.5404 0.253906 9.50044 0.253906Z" fill="#6ECD4A"/>
<path d="M9.49917 2.28125C8.73917 2.28125 8.73917 3.04125 8.10583 3.04125H5.5725C5.1925 3.04125 4.8125 3.42125 4.8125 3.80125V8.86792C4.8125 9.24792 5.1925 9.62792 5.5725 9.62792H9.11917V11.4012C9.11917 11.4012 9.11917 11.7812 9.49917 11.7812C9.87917 11.7812 9.87917 11.4012 9.87917 11.4012V9.50125H13.4258C13.8058 9.50125 14.1858 9.12125 14.1858 8.74125V3.67458C14.1858 3.29458 13.8058 2.91458 13.4258 2.91458H10.8925C10.2592 3.04125 10.2592 2.28125 9.49917 2.28125ZM6.20583 5.19458V4.43458H12.6658V5.19458H6.20583ZM6.20583 5.82792H9.11917V6.58792H6.20583V5.82792ZM6.20583 7.34792H11.2725V8.10792H6.20583V7.34792Z" fill="white"/>
</svg>
