<svg width="19" height="19" viewBox="0 0 19 19" fill="none" xmlns="http://www.w3.org/2000/svg">
<path d="M9.50044 0.253906C6.46044 0.253906 2.78711 2.15391 2.78711 6.96724C2.78711 9.75391 6.58711 15.7072 8.61378 18.3672C8.99378 18.8739 9.75378 18.8739 10.1338 18.3672C12.0338 15.7072 16.0871 9.88057 16.0871 6.96724C16.2138 2.15391 12.5404 0.253906 9.50044 0.253906Z" fill="#3CBC9E"/>
<path d="M8.4875 2.66068C8.4875 2.28068 8.74083 2.02734 9.12083 2.02734C9.50083 2.02734 9.75417 2.28068 9.75417 2.66068C9.75417 3.04068 9.50083 3.29401 9.12083 3.29401C8.74083 3.29401 8.4875 3.04068 8.4875 2.66068ZM9.88083 4.30734C9.88083 4.05401 9.75417 3.92734 9.50083 3.92734H8.8675C8.74083 3.92734 8.61417 4.05401 8.61417 4.30734V6.58734H9.88083V4.30734ZM14.3142 6.71401L13.0475 5.19401V4.81401C13.0475 4.68734 12.9208 4.68734 12.9208 4.68734H12.7942L10.5142 6.58734H9.88083L10.5142 7.22068V8.23401C10.5142 8.36068 10.3875 8.61401 10.1342 8.61401C10.0075 8.61401 9.75417 8.48734 9.75417 8.23401V7.47401L8.4875 6.46068H7.22083C6.84083 6.46068 6.5875 6.58734 6.46083 6.84068C6.2075 6.71401 5.95417 6.58734 5.70083 6.58734C5.0675 6.58734 4.6875 6.96734 4.6875 7.47401C4.6875 7.85401 4.81417 8.36068 5.0675 8.74068C5.0675 8.74068 5.0675 8.86734 5.19417 8.86734C5.32083 8.86734 5.32083 8.74068 5.32083 8.74068V7.85401C5.32083 7.85401 5.32083 7.22068 5.8275 7.22068C6.2075 7.22068 6.33417 7.34734 6.33417 7.60068V9.24734L5.95417 10.514V11.654C5.95417 11.7807 6.08083 11.7807 6.08083 11.7807C6.2075 11.7807 6.2075 11.654 6.2075 11.654V10.3873L7.22083 9.12068V9.75401L7.60083 11.654C7.60083 11.654 7.60083 11.7807 7.7275 11.7807C7.85417 11.7807 7.85417 11.654 7.85417 11.654V10.0073L8.23417 9.12068H9.88083V9.75401L10.1342 11.654C10.1342 11.7807 10.2608 11.7807 10.2608 11.7807C10.3875 11.7807 10.3875 11.654 10.3875 11.654V9.75401L10.6408 9.12068C10.8942 9.12068 11.0208 8.86734 11.0208 8.74068L12.4142 6.33401C12.5408 6.58734 12.7942 6.71401 13.0475 6.58734L13.6808 7.09401C13.8075 7.09401 13.8075 7.22068 13.9342 7.22068C14.0608 7.22068 14.1875 7.09401 14.1875 6.96734C14.3142 6.84068 14.3142 6.71401 14.3142 6.71401Z" fill="white"/>
</svg>
