<svg width="19" height="19" viewBox="0 0 19 19" fill="none" xmlns="http://www.w3.org/2000/svg">
<path d="M9.50044 0.253906C6.46044 0.253906 2.78711 2.15391 2.78711 6.96724C2.78711 9.75391 6.58711 15.7072 8.61378 18.3672C8.99378 18.8739 9.75378 18.8739 10.1338 18.3672C12.0338 15.7072 16.0871 9.88057 16.0871 6.96724C16.2138 2.15391 12.5404 0.253906 9.50044 0.253906Z" fill="#E23D3D"/>
<path d="M9.12083 2.02734C8.61417 2.02734 8.36083 2.28068 8.36083 2.78734V5.70068H5.4475C4.94083 5.70068 4.6875 5.95401 4.6875 6.46068V7.22068C4.6875 7.72734 4.94083 7.98068 5.4475 7.98068H8.36083V10.894C8.36083 11.4007 8.61417 11.654 9.12083 11.654H9.88083C10.3875 11.654 10.6408 11.4007 10.6408 10.894V7.98068H13.5542C14.0608 7.98068 14.3142 7.72734 14.3142 7.22068V6.46068C14.3142 5.95401 14.0608 5.70068 13.5542 5.70068H10.6408V2.78734C10.6408 2.28068 10.3875 2.02734 9.88083 2.02734H9.12083Z" fill="white"/>
</svg>
