<svg width="19" height="19" viewBox="0 0 19 19" fill="none" xmlns="http://www.w3.org/2000/svg">
<path d="M9.50044 0.253906C6.46044 0.253906 2.78711 2.15391 2.78711 6.96724C2.78711 9.75391 6.58711 15.7072 8.61378 18.3672C8.99378 18.8739 9.75378 18.8739 10.1338 18.3672C12.0338 15.7072 16.0871 9.88057 16.0871 6.96724C16.2138 2.15391 12.5404 0.253906 9.50044 0.253906Z" fill="#E03FBE"/>
<path d="M13.6803 2.53516H5.32026C5.06693 2.53516 4.81359 2.66182 4.68693 2.78849C4.56026 3.04182 4.43359 3.16849 4.43359 3.42182V8.10849C4.43359 8.23516 4.43359 8.36182 4.56026 8.61516C4.68693 8.61516 4.81359 8.74182 4.94026 8.86849L8.99359 11.2752C9.12026 11.2752 9.24693 11.4018 9.50026 11.4018C9.75359 11.4018 9.88026 11.4018 10.0069 11.2752L14.0603 8.86849C14.1869 8.74182 14.3136 8.74182 14.4403 8.61516C14.5669 8.48849 14.5669 8.36182 14.5669 8.10849V3.42182C14.5669 3.29516 14.5669 3.16849 14.5669 3.04182C14.5669 2.91516 14.4403 2.78849 14.4403 2.78849C14.3136 2.66182 14.3136 2.66182 14.1869 2.66182C13.9336 2.53516 13.8069 2.53516 13.6803 2.53516ZM12.0336 7.22182H10.3869V8.86849H8.61359V7.22182H6.96693V5.44849H8.61359V3.80182H10.2603V5.44849H11.9069V7.22182H12.0336Z" fill="white"/>
</svg>
