<svg width="19" height="19" viewBox="0 0 19 19" fill="none" xmlns="http://www.w3.org/2000/svg">
<path d="M9.50044 0.253906C6.46044 0.253906 2.78711 2.15391 2.78711 6.96724C2.78711 9.75391 6.58711 15.7072 8.61378 18.3672C8.99378 18.8739 9.75378 18.8739 10.1338 18.3672C12.0338 15.7072 16.0871 9.88057 16.0871 6.96724C16.2138 2.15391 12.5404 0.253906 9.50044 0.253906Z" fill="#757575"/>
<path d="M4.81359 2.91406C4.56026 2.91406 4.43359 3.04073 4.43359 3.29406V8.36073V9.75406C4.43359 10.0074 4.56026 10.1341 4.81359 10.1341C4.94026 9.88073 5.06693 9.75406 5.06693 9.6274V8.61406H13.9336V9.6274C13.9336 9.88073 14.0603 10.0074 14.3136 10.0074C14.5669 10.0074 14.6936 9.88073 14.6936 9.6274V8.23406C14.6936 7.98073 14.5669 7.85406 14.3136 7.85406H5.06693V3.1674C5.06693 3.04073 4.94026 2.91406 4.81359 2.91406ZM6.84026 3.1674C6.33359 3.1674 5.82693 3.67406 5.82693 4.18073C5.82693 4.6874 6.33359 5.19406 6.84026 5.19406C7.34693 5.19406 7.85359 4.6874 7.85359 4.18073C7.85359 3.67406 7.34693 3.1674 6.84026 3.1674ZM9.12026 3.80073C8.10693 3.80073 8.10693 4.81406 8.10693 4.81406V5.8274H6.08026C5.82693 5.8274 5.70026 5.95406 5.70026 6.2074V6.84073C5.70026 7.09406 5.82693 7.22073 6.08026 7.22073H8.48693H14.5669V5.57406C14.5669 3.80073 12.9203 3.80073 12.9203 3.80073H9.12026Z" fill="white"/>
</svg>
