<svg width="19" height="19" viewBox="0 0 19 19" fill="none" xmlns="http://www.w3.org/2000/svg">
<path d="M9.50044 0.253906C6.46044 0.253906 2.78711 2.15391 2.78711 6.96724C2.78711 9.75391 6.58711 15.7072 8.61378 18.3672C8.99378 18.8739 9.75378 18.8739 10.1338 18.3672C12.0338 15.7072 16.0871 9.88057 16.0871 6.96724C16.2138 2.15391 12.5404 0.253906 9.50044 0.253906Z" fill="#E8924B"/>
<path d="M8.8675 6.33401C8.4875 5.70068 8.36083 5.44734 8.4875 4.56068C8.61417 3.67401 8.99417 3.42068 9.37417 3.04068C9.6275 2.78734 9.88083 2.53401 10.0075 2.02734C10.2608 2.53401 10.0075 3.16734 9.75417 3.67401C9.50083 4.18068 9.37417 4.56068 9.6275 4.94068C10.3875 5.82734 11.0208 7.09401 10.3875 8.36068C10.1342 8.61401 10.0075 8.86734 9.75417 9.12068C9.37417 9.37401 9.12083 9.62734 8.99417 10.0073C8.74083 9.50068 8.99417 8.99401 9.2475 8.48734C9.50083 7.98068 9.75417 7.34734 9.37417 6.84068C9.12083 6.58734 8.99417 6.46068 8.8675 6.33401ZM11.4008 5.44734C11.2742 4.94068 11.4008 4.43401 11.6542 4.05401C11.9075 3.80068 12.1608 3.54734 12.4142 3.42068C12.6675 3.29401 12.9208 3.16734 13.0475 2.78734C13.3008 3.29401 13.0475 3.67401 12.7942 4.05401C12.6675 4.30734 12.5408 4.43401 12.5408 4.56068C12.4142 5.06734 12.6675 5.19401 12.9208 5.44734C13.1742 5.70068 13.5542 5.95401 13.5542 6.58734C13.5542 7.09401 13.5542 7.47401 13.3008 7.85401C13.0475 8.23401 12.7942 8.36068 12.5408 8.48734C12.2875 8.74068 12.0342 8.86734 11.9075 9.24734C11.6542 8.74068 11.9075 8.36068 12.1608 7.85401C12.2875 7.72734 12.4142 7.60068 12.4142 7.47401C12.4142 7.09401 12.2875 6.84068 12.0342 6.58734C11.7808 6.20734 11.4008 5.95401 11.4008 5.44734ZM5.4475 5.44734C5.32083 4.94068 5.4475 4.43401 5.70083 4.05401C6.08083 3.67401 6.33417 3.54734 6.46083 3.42068C6.71417 3.29401 6.84083 3.16734 7.09417 2.78734C7.3475 3.29401 7.09417 3.67401 6.84083 4.05401C6.71417 4.30734 6.71417 4.43401 6.5875 4.56068C6.46083 4.94068 6.71417 5.32068 6.9675 5.57401C7.7275 6.20734 7.85417 7.22068 7.3475 8.10734C7.09417 8.36068 6.84083 8.48734 6.5875 8.61401C6.33417 8.74068 6.2075 8.86734 5.95417 9.24734C5.70083 8.74068 5.95417 8.36068 6.2075 7.98068C6.33417 7.85401 6.46083 7.60068 6.46083 7.47401C6.5875 7.09401 6.33417 6.84068 6.08083 6.46068C5.8275 6.20734 5.57417 5.95401 5.4475 5.44734ZM13.5542 8.61401C14.0608 10.514 11.0208 10.7673 9.50083 10.7673C7.98083 10.7673 4.94083 10.514 5.4475 8.61401C4.94083 8.86734 4.6875 9.37401 4.6875 9.75401C4.6875 10.894 6.84083 11.9073 9.50083 11.9073C12.1608 11.9073 14.3142 10.894 14.3142 9.75401C14.3142 9.37401 14.0608 8.86734 13.5542 8.61401Z" fill="white"/>
</svg>
