<svg width="19" height="19" viewBox="0 0 19 19" fill="none" xmlns="http://www.w3.org/2000/svg">
<path d="M9.50044 0.253906C6.46044 0.253906 2.78711 2.15391 2.78711 6.96724C2.78711 9.75391 6.58711 15.7072 8.61378 18.3672C8.99378 18.8739 9.75378 18.8739 10.1338 18.3672C12.0338 15.7072 16.0871 9.88057 16.0871 6.96724C16.2138 2.15391 12.5404 0.253906 9.50044 0.253906Z" fill="#5745AD"/>
<path d="M12.0331 6.0801H11.9064H11.7797L10.0064 7.6001C10.0064 7.6001 10.0064 7.6001 10.0064 7.72677C10.0064 7.72677 10.0064 7.72677 10.0064 7.85344V11.6534V11.7801H10.1331H11.3997H11.5264V11.6534V10.1334H12.2864V11.5268V11.6534H12.4131H13.6797H13.8064V11.5268V7.72677C13.8064 7.72677 13.8064 7.72677 13.8064 7.6001C13.8064 7.6001 13.8064 7.6001 13.8064 7.47344L12.0331 6.0801ZM11.5264 9.24677H10.7664V8.48677H11.5264V9.24677ZM13.1731 9.24677H12.2864V8.48677H13.0464V9.24677H13.1731ZM8.10641 1.77344C7.97974 1.77344 7.97974 1.77344 8.10641 1.77344C7.97974 1.77344 7.85307 1.77344 7.85307 1.77344H7.72641C7.72641 1.77344 7.72641 1.77344 7.59974 1.9001L5.06641 5.19344V5.3201V11.5268C5.06641 11.5268 5.06641 11.5268 5.06641 11.6534C5.06641 11.6534 5.06641 11.6534 5.06641 11.7801C5.06641 11.7801 5.06641 11.7801 5.19307 11.7801C5.19307 11.7801 5.19307 11.7801 5.31974 11.7801H7.34641H7.47307V11.6534V10.1334H8.23307V11.5268V11.6534H8.35974H8.99307V6.8401V6.71344L9.11974 6.58677L10.6397 5.3201C10.7664 5.19344 8.10641 1.77344 8.10641 1.77344ZM6.71307 8.48677H5.82641V7.6001H6.58641V8.48677H6.71307ZM6.71307 6.0801H5.82641V5.19344H6.58641V6.0801H6.71307ZM8.23307 8.48677H7.47307V7.6001H8.23307V8.48677ZM8.23307 6.0801H7.47307V5.19344H8.23307V6.0801Z" fill="white"/>
</svg>
