<svg width="19" height="19" viewBox="0 0 19 19" fill="none" xmlns="http://www.w3.org/2000/svg">
<path d="M9.50044 0.253906C6.46044 0.253906 2.78711 2.15391 2.78711 6.96724C2.78711 9.75391 6.58711 15.7072 8.61378 18.3672C8.99378 18.8739 9.75378 18.8739 10.1338 18.3672C12.0338 15.7072 16.0871 9.88057 16.0871 6.96724C16.2138 2.15391 12.5404 0.253906 9.50044 0.253906Z" fill="#343AA5"/>
<path d="M5.57244 11.1457C5.57244 11.2723 5.69911 11.2723 5.69911 11.2723H8.35911V9.24568H10.5124V11.399H13.1724C13.2991 11.399 13.2991 11.2723 13.2991 11.2723V7.09234H5.57244V11.1457ZM14.0591 6.07901L13.4258 5.44568V2.91234C13.4258 2.53234 13.1724 2.15234 12.6658 2.15234C12.1591 2.15234 11.9058 2.53234 11.9058 2.91234V4.30568L9.62578 2.27901C9.49911 2.15234 9.49911 2.15234 9.37244 2.27901L4.93911 6.07901C4.81244 6.20568 4.93911 6.20568 4.93911 6.33234C5.06578 6.33234 5.06578 6.33234 5.06578 6.33234H6.33244H13.9324C13.9324 6.33234 14.0591 6.33234 14.0591 6.07901Z" fill="white"/>
</svg>
