<svg width="19" height="19" viewBox="0 0 19 19" fill="none" xmlns="http://www.w3.org/2000/svg">
<path d="M9.50044 0.253906C6.46044 0.253906 2.78711 2.15391 2.78711 6.96724C2.78711 9.75391 6.58711 15.7072 8.61378 18.3672C8.99378 18.8739 9.75378 18.8739 10.1338 18.3672C12.0338 15.7072 16.0871 9.88057 16.0871 6.96724C16.2138 2.15391 12.5404 0.253906 9.50044 0.253906Z" fill="#F29900"/>
<path d="M7.98094 8.23238C8.4876 8.23238 9.12094 8.10571 9.50094 7.72571C9.88094 7.97904 10.2609 8.10571 10.6409 8.23238H11.0209L9.88094 12.539C9.88094 12.6657 9.6276 12.7924 9.37427 12.6657C9.2476 12.6657 9.2476 12.539 9.12094 12.4124L7.98094 8.23238ZM12.5409 5.57238C12.5409 6.45904 11.9076 7.09238 11.0209 7.09238C10.1343 7.09238 9.50094 6.45904 9.50094 5.57238C9.50094 6.45904 8.8676 7.09238 7.98094 7.09238C7.09427 7.09238 6.46094 6.45904 6.46094 5.57238C6.46094 4.68571 7.09427 4.05238 7.98094 4.05238H8.1076C7.7276 3.29238 8.23427 2.40571 8.99427 2.15238C9.75427 1.89904 10.6409 2.27904 11.0209 3.03904C11.1476 3.41904 11.1476 3.79904 11.0209 4.05238H11.1476C11.9076 4.05238 12.5409 4.81238 12.5409 5.57238Z" fill="white"/>
</svg>
