<svg width="19" height="19" viewBox="0 0 19 19" fill="none" xmlns="http://www.w3.org/2000/svg">
<path d="M9.50044 0.253906C6.46044 0.253906 2.78711 2.15391 2.78711 6.96724C2.78711 9.75391 6.58711 15.7072 8.61378 18.3672C8.99378 18.8739 9.75378 18.8739 10.1338 18.3672C12.0338 15.7072 16.0871 9.88057 16.0871 6.96724C16.2138 2.15391 12.5404 0.253906 9.50044 0.253906Z" fill="#38514C"/>
<path d="M14.0595 2.28125V10.6412H4.93945V7.72792C4.93945 7.60125 5.06612 7.47458 5.06612 7.47458L7.09279 5.19458C7.34612 5.06792 7.59945 5.06792 7.72612 5.19458C7.72612 5.32125 7.85279 5.32125 7.85279 5.44792V7.60125L10.0061 5.32125C10.1328 5.06792 10.2595 5.06792 10.3861 5.19458C10.3861 5.32125 10.5128 5.32125 10.5128 5.44792V9.24792H12.6661V2.28125H14.0595Z" fill="white"/>
</svg>
