<svg width="19" height="19" viewBox="0 0 19 19" fill="none" xmlns="http://www.w3.org/2000/svg">
<path d="M9.50044 0.253906C6.46044 0.253906 2.78711 2.15391 2.78711 6.96724C2.78711 9.75391 6.58711 15.7072 8.61378 18.3672C8.99378 18.8739 9.75378 18.8739 10.1338 18.3672C12.0338 15.7072 16.0871 9.88057 16.0871 6.96724C16.2138 2.15391 12.5404 0.253906 9.50044 0.253906Z" fill="#6988B5"/>
<path d="M9.49956 2.15234C8.86622 2.15234 8.23289 2.65901 8.23289 3.41901C8.23289 4.17901 8.73956 4.68568 9.49956 4.68568C10.2596 4.68568 10.7662 4.17901 10.7662 3.41901C10.7662 2.65901 10.1329 2.15234 9.49956 2.15234ZM6.71289 5.31901V6.07901C6.71289 6.07901 8.35956 6.07901 8.35956 7.72568V9.37234C8.35956 11.019 6.71289 11.019 6.71289 11.019V11.779H12.4129V11.019C12.4129 11.019 10.7662 11.019 10.7662 9.37234V6.20568C10.7662 5.82568 10.3862 5.44568 10.0062 5.44568H6.71289V5.31901Z" fill="white"/>
</svg>
