<svg width="19" height="19" viewBox="0 0 19 19" fill="none" xmlns="http://www.w3.org/2000/svg">
<path d="M9.50044 0.253906C6.46044 0.253906 2.78711 2.15391 2.78711 6.96724C2.78711 9.75391 6.58711 15.7072 8.61378 18.3672C8.99378 18.8739 9.75378 18.8739 10.1338 18.3672C12.0338 15.7072 16.0871 9.88057 16.0871 6.96724C16.2138 2.15391 12.5404 0.253906 9.50044 0.253906Z" fill="#6988B5"/>
<path d="M13.1728 8.23401C13.1728 10.2607 11.5262 11.9073 9.49951 11.9073C7.47284 11.9073 5.82617 10.2607 5.82617 8.23401C5.82617 6.71401 6.71284 5.44734 8.10617 4.81401L8.23284 4.94068L8.86617 5.44734C7.59951 5.70068 6.58617 6.84068 6.58617 8.23401C6.58617 9.88068 7.85284 11.1473 9.49951 11.1473C11.1462 11.1473 12.4128 9.88068 12.4128 8.23401C12.4128 6.84068 11.5262 5.70068 10.2595 5.44734L11.0195 4.81401C12.2862 5.32068 13.1728 6.71401 13.1728 8.23401ZM9.49951 4.94068L11.5262 3.29401L10.6395 2.02734H8.10617L7.21951 3.29401L8.48617 4.30734L9.49951 4.94068Z" fill="white"/>
</svg>
