<svg width="19" height="19" viewBox="0 0 19 19" fill="none" xmlns="http://www.w3.org/2000/svg">
<path d="M9.50044 0.253906C6.46044 0.253906 2.78711 2.15391 2.78711 6.96724C2.78711 9.75391 6.58711 15.7072 8.61378 18.3672C8.99378 18.8739 9.75378 18.8739 10.1338 18.3672C12.0338 15.7072 16.0871 9.88057 16.0871 6.96724C16.2138 2.15391 12.5404 0.253906 9.50044 0.253906Z" fill="#69ADB2"/>
<path d="M13.5526 3.04125C12.5393 2.02792 10.766 2.02792 9.75263 3.04125C9.24596 3.54792 8.99263 4.18125 8.99263 4.81458L11.7793 7.60125C13.2993 7.47458 14.4393 6.33458 14.3126 4.81458C14.3126 4.18125 13.9326 3.54792 13.5526 3.04125ZM6.8393 7.85458L4.9393 9.75458C4.5593 10.1346 4.5593 10.6412 4.9393 11.0212L5.57263 11.6546C5.95263 12.0346 6.4593 12.0346 6.8393 11.6546L8.7393 9.75458L10.6393 7.85458L8.7393 5.95458L6.8393 7.85458ZM7.47263 9.75458L6.8393 9.12125L8.7393 7.22125L9.37263 7.85458L7.47263 9.75458Z" fill="white"/>
</svg>
