<svg width="19" height="19" viewBox="0 0 19 19" fill="none" xmlns="http://www.w3.org/2000/svg">
<path d="M9.50044 0.253906C6.46044 0.253906 2.78711 2.15391 2.78711 6.96724C2.78711 9.75391 6.58711 15.7072 8.61378 18.3672C8.99378 18.8739 9.75378 18.8739 10.1338 18.3672C12.0338 15.7072 16.0871 9.88057 16.0871 6.96724C16.2138 2.15391 12.5404 0.253906 9.50044 0.253906Z" fill="#3C3633"/>
<path d="M10.5125 4.17901C10.5125 4.30568 10.6392 4.30568 10.6392 4.30568V6.96568V7.09234H10.5125H8.6125H8.48583V6.96568V5.69901H7.72583V6.96568V7.09234H7.59917H5.69917H5.5725V6.96568V4.30568C5.5725 4.30568 5.5725 4.30568 5.5725 4.17901L7.97917 2.15234H8.10583H8.2325L10.5125 4.17901ZM9.62583 8.23234L7.72583 9.75234H6.96583V8.23234C6.96583 8.10568 6.96583 8.10568 6.83917 7.97901C6.83917 7.97901 6.7125 7.85234 6.58583 7.85234C6.45917 7.85234 6.45917 7.97901 6.3325 7.97901C6.3325 8.10568 6.20583 8.10568 6.20583 8.23234V9.62568H5.5725V8.23234C5.5725 8.10568 5.5725 8.10568 5.44583 7.97901C5.31917 7.97901 5.1925 7.85234 5.1925 7.85234C5.06583 7.85234 5.06583 7.85234 4.93917 7.97901C4.8125 8.10568 4.8125 8.10568 4.8125 8.23234V11.2723V11.399H4.93917H9.62583H9.7525V11.2723V8.48568C9.7525 8.48568 9.7525 8.48568 9.7525 8.35901C9.7525 8.23234 9.7525 8.23234 9.62583 8.23234C9.7525 8.23234 9.7525 8.23234 9.62583 8.23234ZM14.1858 5.95234V10.639V10.7657H14.0592H11.5258H11.3992V10.639V5.95234C11.3992 5.95234 11.3992 5.95234 11.3992 5.82568C11.3992 5.82568 11.3992 5.82568 11.5258 5.82568H12.0325V5.19234V5.06568H12.1592H13.2992H13.4258V5.19234V5.69901H13.9325C14.0592 5.69901 14.1858 5.69901 14.1858 5.95234C14.1858 5.82568 14.1858 5.82568 14.1858 5.95234ZM13.4258 9.37234H12.0325V10.1323H13.4258V9.37234ZM13.4258 7.85234H12.0325V8.61234H13.4258V7.85234ZM13.4258 6.45901H12.0325V7.21901H13.4258V6.45901Z" fill="white"/>
</svg>
