<svg width="19" height="19" viewBox="0 0 19 19" fill="none" xmlns="http://www.w3.org/2000/svg">
<path d="M9.50044 0.253906C6.46044 0.253906 2.78711 2.15391 2.78711 6.96724C2.78711 9.75391 6.58711 15.7072 8.61378 18.3672C8.99378 18.8739 9.75378 18.8739 10.1338 18.3672C12.0338 15.7072 16.0871 9.88057 16.0871 6.96724C16.2138 2.15391 12.5404 0.253906 9.50044 0.253906Z" fill="#64D89E"/>
<path d="M11.1465 3.67401C11.1465 4.05401 11.0198 4.30734 10.8932 4.56068C10.7665 4.94068 10.3865 5.06734 10.1332 5.19401C9.87984 5.32068 9.49984 5.44734 9.11984 5.32068C8.86651 5.32068 8.48651 5.06734 8.35984 4.94068C8.10651 4.68734 7.97984 4.30734 7.85318 4.05401C7.72651 3.67401 7.85318 3.42068 7.97984 3.04068C8.10651 2.78734 8.23318 2.53401 8.61318 2.28068C8.99318 2.02734 9.24651 2.02734 9.49984 2.02734C10.0065 2.02734 10.3865 2.15401 10.6398 2.53401C11.0198 2.78734 11.1465 3.29401 11.1465 3.67401ZM6.20651 7.09401C5.82651 7.09401 5.57318 7.22068 5.31984 7.34734C4.93984 7.47401 4.68651 7.72734 4.55984 8.10734C4.43318 8.36068 4.43318 8.74068 4.55984 9.12068C4.68651 9.50068 4.81318 9.75401 5.06651 10.0073C5.19318 10.134 5.44651 10.2607 5.82651 10.3873C6.20651 10.514 6.45984 10.3873 6.83984 10.2607C7.09318 10.134 7.34651 10.0073 7.59984 9.62734C7.72651 9.37401 7.85318 8.99401 7.85318 8.74068C7.85318 8.23401 7.59984 7.85401 7.34651 7.60068C6.96651 7.22068 6.58651 7.09401 6.20651 7.09401ZM12.7932 7.09401C12.4132 7.09401 12.1598 7.22068 11.9065 7.34734C11.6532 7.47401 11.3998 7.72734 11.2732 8.10734C11.1465 8.36068 11.1465 8.74068 11.2732 9.12068C11.2732 9.37401 11.3998 9.75401 11.6532 9.88068C11.9065 10.134 12.1598 10.2607 12.5398 10.3873C12.9198 10.514 13.1732 10.3873 13.5532 10.2607C13.8065 10.134 14.0598 9.88068 14.3132 9.62734C14.4398 9.37401 14.5665 8.99401 14.5665 8.74068C14.5665 8.23401 14.4398 7.85401 14.0598 7.60068C13.6798 7.22068 13.2998 7.09401 12.7932 7.09401Z" fill="white"/>
</svg>
