<svg width="19" height="19" viewBox="0 0 19 19" fill="none" xmlns="http://www.w3.org/2000/svg">
<path d="M9.50044 0.253906C6.46044 0.253906 2.78711 2.15391 2.78711 6.96724C2.78711 9.75391 6.58711 15.7072 8.61378 18.3672C8.99378 18.8739 9.75378 18.8739 10.1338 18.3672C12.0338 15.7072 16.0871 9.88057 16.0871 6.96724C16.2138 2.15391 12.5404 0.253906 9.50044 0.253906Z" fill="#B563DB"/>
<path d="M13.4267 10.7657H13.0467V10.3857C13.0467 10.1323 12.92 10.0057 12.6667 10.0057H12.2867V6.07901H13.0467L13.8067 4.55901C13.0467 4.68568 12.2867 4.68568 11.4 4.55901C10.8934 4.05234 10.3867 3.54568 9.88003 2.91234V2.53234C9.88003 2.27901 9.75336 2.15234 9.50003 2.15234C9.24669 2.15234 9.12003 2.27901 9.12003 2.53234V2.91234C8.61336 3.54568 8.10669 4.05234 7.60003 4.55901C6.84003 4.68568 6.08003 4.68568 5.19336 4.55901L5.95336 6.07901H6.71336V10.0057H6.33336C6.08003 10.0057 5.95336 10.1323 5.95336 10.3857V10.7657H5.57336C5.32003 10.7657 5.19336 10.8923 5.19336 11.1457V11.5257H13.8067V11.1457C13.8067 10.8923 13.68 10.7657 13.4267 10.7657ZM9.12003 10.0057H7.60003V6.07901H9.12003V10.0057ZM11.4 10.0057H9.88003V6.07901H11.4V10.0057Z" fill="white"/>
</svg>
