<svg width="19" height="19" viewBox="0 0 19 19" fill="none" xmlns="http://www.w3.org/2000/svg">
<path d="M9.50044 0.253906C6.46044 0.253906 2.78711 2.15391 2.78711 6.96724C2.78711 9.75391 6.58711 15.7072 8.61378 18.3672C8.99378 18.8739 9.75378 18.8739 10.1338 18.3672C12.0338 15.7072 16.0871 9.88057 16.0871 6.96724C16.2138 2.15391 12.5404 0.253906 9.50044 0.253906Z" fill="#C46E43"/>
<path d="M9.87951 2.02734L8.48617 3.42068H6.45951C6.45951 3.42068 5.82617 3.42068 5.82617 4.05401V10.134C5.82617 10.7673 6.45951 10.7673 6.45951 10.7673H12.5395C12.5395 10.7673 13.1728 10.7673 13.1728 10.134V2.66068C13.1728 2.02734 12.5395 2.02734 12.5395 2.02734H9.87951ZM10.1328 2.66068H11.5262C11.6528 2.66068 11.9062 2.78734 11.9062 3.04068C11.9062 3.29401 11.7795 3.42068 11.5262 3.42068H10.1328C10.0062 3.42068 9.75284 3.29401 9.75284 3.04068C9.75284 2.78734 10.0062 2.66068 10.1328 2.66068ZM9.49951 5.44734C10.6395 5.44734 11.5262 6.33401 11.5262 7.47401C11.5262 8.61401 10.6395 9.50068 9.49951 9.50068C8.35951 9.50068 7.47284 8.61401 7.47284 7.47401C7.47284 6.33401 8.35951 5.44734 9.49951 5.44734Z" fill="white"/>
</svg>
