<svg width="19" height="19" viewBox="0 0 19 19" fill="none" xmlns="http://www.w3.org/2000/svg">
<path d="M9.50044 0.253906C6.46044 0.253906 2.78711 2.15391 2.78711 6.96724C2.78711 9.75391 6.58711 15.7072 8.61378 18.3672C8.99378 18.8739 9.75378 18.8739 10.1338 18.3672C12.0338 15.7072 16.0871 9.88057 16.0871 6.96724C16.2138 2.15391 12.5404 0.253906 9.50044 0.253906Z" fill="#95A553"/>
<path d="M4.43331 8.36016C4.30664 8.36016 4.30664 8.2335 4.30664 8.2335L4.68664 3.2935C4.68664 3.2935 4.68664 3.2935 4.68664 3.16683C4.68664 3.16683 4.68664 3.16683 4.81331 3.16683C5.19331 3.04016 7.47331 1.7735 8.61331 2.9135C8.86664 3.04016 9.11997 3.42016 9.11997 3.6735V7.8535C9.11997 7.8535 9.11997 7.98016 8.99331 7.98016C8.99331 7.98016 8.86664 7.98016 8.73997 7.98016C7.09331 7.0935 5.06664 8.10683 4.55997 8.36016C4.55997 8.48683 4.43331 8.36016 4.43331 8.36016ZM14.44 8.36016C13.9333 8.10683 11.9066 7.0935 10.1333 7.98016C10.0066 7.98016 10.0066 7.98016 9.87997 7.98016C9.75331 7.98016 9.75331 7.8535 9.75331 7.8535V3.6735C9.75331 3.42016 10.0066 3.04016 10.1333 2.9135C11.2733 1.7735 13.5533 3.04016 13.9333 3.16683C13.9333 3.16683 13.9333 3.16683 14.06 3.16683V3.2935L14.44 8.2335C14.44 8.2335 14.44 8.36016 14.3133 8.36016C14.5666 8.36016 14.44 8.48683 14.44 8.36016ZM10.64 10.5135C10.7666 10.3868 10.7666 10.3868 10.7666 10.3868C10.7666 9.62683 12.0333 8.9935 14.44 10.3868C14.44 10.3868 14.5666 10.3868 14.6933 10.3868C14.82 10.3868 14.82 10.2602 14.82 10.2602V9.7535C14.82 9.7535 14.82 9.7535 14.82 9.62683C14.82 9.62683 14.82 9.62683 14.6933 9.50016C13.0466 8.48683 11.02 7.98016 10.0066 9.3735C10.0066 9.3735 10.0066 9.3735 10.0066 9.50016H9.87997H9.24664C9.24664 9.50016 9.24664 9.50016 9.11997 9.50016C9.11997 9.50016 9.11997 9.50016 9.11997 9.3735C8.10664 8.10683 6.07997 8.6135 4.43331 9.62683C4.43331 9.62683 4.43331 9.62683 4.30664 9.7535V9.88016V10.2602C4.30664 10.2602 4.30664 10.3868 4.43331 10.3868C4.43331 10.3868 4.55997 10.3868 4.68664 10.3868C7.09331 8.9935 8.35997 9.62683 8.35997 10.3868C8.35997 10.3868 8.35997 10.3868 8.35997 10.5135H8.48664C8.99331 10.6402 9.87997 10.7668 10.64 10.5135Z" fill="white"/>
</svg>
