<svg width="19" height="19" viewBox="0 0 19 19" fill="none" xmlns="http://www.w3.org/2000/svg">
<path d="M9.50044 0.253906C6.46044 0.253906 2.78711 2.15391 2.78711 6.96724C2.78711 9.75391 6.58711 15.7072 8.61378 18.3672C8.99378 18.8739 9.75378 18.8739 10.1338 18.3672C12.0338 15.7072 16.0871 9.88057 16.0871 6.96724C16.2138 2.15391 12.5404 0.253906 9.50044 0.253906Z" fill="#54A374"/>
<path d="M4.43359 4.05516C4.43359 3.16849 5.19359 2.53516 6.08026 2.53516C6.96693 2.53516 7.60026 3.16849 7.60026 4.05516V10.2618C7.60026 10.6418 7.22026 11.0218 6.84026 11.0218H5.32026C4.94026 11.0218 4.56026 10.6418 4.56026 10.2618V4.05516H4.43359ZM6.84026 4.05516C6.84026 3.67516 6.46026 3.29516 6.08026 3.29516C5.70026 3.29516 5.32026 3.67516 5.32026 4.05516C5.32026 4.43516 5.70026 4.81516 6.08026 4.81516C6.46026 4.81516 6.84026 4.43516 6.84026 4.05516ZM10.2603 5.57516L9.12026 3.29516H8.36026V5.57516H10.2603ZM11.4003 5.57516H12.5403L11.4003 3.29516H10.2603L11.4003 5.57516ZM13.9336 5.57516H13.6803L12.5403 3.29516H13.9336C14.3136 3.29516 14.5669 3.54849 14.5669 3.92849V5.06849C14.5669 5.32182 14.1869 5.57516 13.9336 5.57516Z" fill="white"/>
</svg>
