<svg width="19" height="19" viewBox="0 0 19 19" fill="none" xmlns="http://www.w3.org/2000/svg">
<path d="M9.50044 0.253906C6.46044 0.253906 2.78711 2.15391 2.78711 6.96724C2.78711 9.75391 6.58711 15.7072 8.61378 18.3672C8.99378 18.8739 9.75378 18.8739 10.1338 18.3672C12.0338 15.7072 16.0871 9.88057 16.0871 6.96724C16.2138 2.15391 12.5404 0.253906 9.50044 0.253906Z" fill="#AA9141"/>
<path d="M11.0208 6.96568C11.0208 7.72568 10.3875 8.48568 9.50083 8.48568C8.61417 8.48568 7.98083 7.85234 7.98083 6.96568C7.98083 6.07901 8.61417 5.44568 9.50083 5.44568C10.3875 5.44568 11.0208 6.20568 11.0208 6.96568ZM14.3142 7.09234C14.3142 7.34568 14.1875 7.47234 13.9342 7.47234H12.7942C12.6675 8.10568 12.5408 8.61234 12.1608 9.11901L12.9208 9.87901C13.0475 10.0057 13.0475 10.259 12.9208 10.3857C12.7942 10.5123 12.5408 10.5123 12.4142 10.3857L11.6542 9.62568C11.1475 10.0057 10.5142 10.259 9.88083 10.3857V11.5257C9.88083 11.779 9.75417 11.9057 9.50083 11.9057C9.2475 11.9057 9.12083 11.779 9.12083 11.5257V10.3857C8.4875 10.259 7.85417 10.1323 7.3475 9.75234L6.5875 10.5123C6.46083 10.639 6.2075 10.639 6.08083 10.5123C5.95417 10.3857 5.95417 10.1323 6.08083 10.0057L6.9675 9.24568C6.46083 8.73901 6.2075 8.10568 6.08083 7.47234H5.0675C4.81417 7.47234 4.6875 7.34568 4.6875 7.09234C4.6875 6.83901 4.81417 6.71234 5.0675 6.71234H6.2075C6.33417 6.07901 6.46083 5.44568 6.9675 4.93901L6.08083 4.17901C5.95417 3.92568 5.95417 3.79901 6.08083 3.54568C6.2075 3.29234 6.46083 3.41901 6.5875 3.54568L7.3475 4.30568C7.85417 3.92568 8.4875 3.79901 9.12083 3.67234V2.53234C9.12083 2.27901 9.2475 2.15234 9.50083 2.15234C9.75417 2.15234 9.88083 2.27901 9.88083 2.53234V3.67234C10.5142 3.79901 11.1475 4.05234 11.6542 4.43234L12.4142 3.67234C12.5408 3.54568 12.7942 3.54568 12.9208 3.67234C13.0475 3.79901 13.0475 4.05234 12.9208 4.17901L12.1608 4.93901C12.5408 5.44568 12.7942 5.95234 12.7942 6.71234H13.9342C14.1875 6.71234 14.3142 6.83901 14.3142 7.09234ZM12.1608 6.96568C12.1608 5.44568 11.0208 4.30568 9.50083 4.30568C7.98083 4.30568 6.71417 5.57234 6.71417 6.96568C6.71417 8.35901 7.85417 9.62568 9.37417 9.62568C10.8942 9.62568 12.1608 8.48568 12.1608 6.96568Z" fill="white"/>
</svg>
