<svg width="19" height="19" viewBox="0 0 19 19" fill="none" xmlns="http://www.w3.org/2000/svg">
<path d="M9.50044 0.253906C6.46044 0.253906 2.78711 2.15391 2.78711 6.96724C2.78711 9.75391 6.58711 15.7072 8.61378 18.3672C8.99378 18.8739 9.75378 18.8739 10.1338 18.3672C12.0338 15.7072 16.0871 9.88057 16.0871 6.96724C16.2138 2.15391 12.5404 0.253906 9.50044 0.253906Z" fill="#ADA240"/>
<path d="M7.47359 6.08068L4.43359 6.84068V6.46068L7.47359 5.82734V6.08068ZM7.47359 4.43401L4.43359 3.80068V4.18068L7.47359 4.81401V4.43401ZM11.5269 4.43401V4.81401L14.5669 4.18068V3.80068L11.5269 4.43401ZM11.5269 6.08068L14.5669 6.71401V6.46068L11.5269 5.82734V6.08068ZM9.88026 6.84068V3.42068H11.5269C11.6536 3.42068 11.9069 3.29401 11.9069 3.16734C11.9069 3.04068 11.9069 2.78734 11.6536 2.78734L9.62693 2.02734C9.50026 2.02734 9.50026 2.02734 9.37359 2.02734L7.34693 2.78734C7.22026 2.78734 7.09359 3.04068 7.09359 3.16734C7.09359 3.29401 7.34693 3.42068 7.47359 3.42068H9.12026V6.84068H7.85359L6.46026 11.5273H12.5403L11.1469 6.84068H9.88026Z" fill="white"/>
</svg>
