<svg width="19" height="19" viewBox="0 0 19 19" fill="none" xmlns="http://www.w3.org/2000/svg">
<path d="M9.50044 0.253906C6.46044 0.253906 2.78711 2.15391 2.78711 6.96724C2.78711 9.75391 6.58711 15.7072 8.61378 18.3672C8.99378 18.8739 9.75378 18.8739 10.1338 18.3672C12.0338 15.7072 16.0871 9.88057 16.0871 6.96724C16.2138 2.15391 12.5404 0.253906 9.50044 0.253906Z" fill="#729B46"/>
<path d="M14.1875 4.05458L13.9342 3.80125L14.0608 3.54792C14.1875 3.42125 14.1875 3.29458 14.1875 3.04125C14.1875 2.66125 13.8075 2.28125 13.4275 2.28125C13.3008 2.28125 13.1742 2.28125 13.0475 2.40792C13.0475 2.40792 13.0475 2.40792 12.9208 2.40792L12.6675 2.53458L12.5408 2.40792C12.4142 2.28125 12.2875 2.28125 12.1608 2.40792C12.0342 2.53458 12.0342 2.66125 12.1608 2.78792L12.4142 3.04125L12.0342 3.42125L11.7808 3.16792C11.6542 3.04125 11.5275 3.04125 11.4008 3.16792C11.2742 3.29458 11.2742 3.42125 11.4008 3.54792L11.6542 3.80125L11.2742 4.18125L11.0208 3.92792C10.8942 3.80125 10.7675 3.80125 10.6408 3.92792C10.5142 4.05458 10.5142 4.18125 10.6408 4.30792L10.8942 4.56125L10.6408 4.94125L10.2608 4.56125C10.1342 4.43458 10.0075 4.43458 9.88083 4.56125C9.75417 4.68792 9.75417 4.81458 9.88083 4.94125L10.1342 5.19458L9.88083 5.57458L9.6275 5.32125C9.50083 5.19458 9.37417 5.19458 9.2475 5.32125C9.12083 5.44792 9.12083 5.57458 9.2475 5.70125L9.50083 5.95458L9.12083 6.33458L8.8675 6.08125C8.74083 5.95458 8.61417 5.95458 8.4875 6.08125C8.36083 6.20792 8.36083 6.33458 8.4875 6.46125L8.74083 6.71458L8.36083 7.09458L8.1075 6.84125C7.98083 6.71458 7.85417 6.71458 7.7275 6.84125L8.61417 7.60125L12.9208 3.29458L13.1742 3.04125H13.5542V3.42125L13.1742 3.80125L8.99417 7.98125L9.75417 8.86792C9.88083 8.74125 9.88083 8.61458 9.75417 8.48792L9.50083 8.23458L9.88083 7.85458L10.1342 8.10792C10.2608 8.23458 10.3875 8.23458 10.5142 8.10792C10.6408 7.98125 10.6408 7.85458 10.5142 7.72792L10.2608 7.47458L10.6408 7.09458L10.8942 7.34792C11.0208 7.47458 11.1475 7.47458 11.2742 7.34792C11.4008 7.22125 11.4008 7.09458 11.2742 6.96792L11.0208 6.71458L11.2742 6.33458L11.5275 6.58792C11.5275 6.58792 11.6542 6.71458 11.7808 6.71458C11.9075 6.71458 12.0342 6.58792 12.0342 6.46125C12.0342 6.33458 12.0342 6.33458 11.9075 6.20792L11.6542 5.95458L12.0342 5.57458L12.2875 5.82792C12.4142 5.95458 12.5408 5.95458 12.6675 5.82792C12.7942 5.70125 12.7942 5.57458 12.6675 5.44792L12.4142 5.32125L12.7942 4.94125L13.0475 5.19458C13.1742 5.32125 13.3008 5.32125 13.4275 5.19458C13.5542 5.06792 13.5542 4.94125 13.4275 4.81458L13.1742 4.56125L13.5542 4.18125L13.8075 4.43458C13.9342 4.56125 14.0608 4.56125 14.1875 4.43458C14.3142 4.43458 14.3142 4.18125 14.1875 4.05458ZM7.22083 7.34792C6.84083 7.09458 6.71417 6.71458 6.2075 6.71458H5.0675C4.81417 6.71458 4.6875 6.84125 4.6875 7.09458V9.24792C4.6875 9.62792 4.81417 10.1346 5.0675 10.3879L5.70083 11.0213C6.33417 11.6546 7.3475 11.6546 7.98083 11.1479L9.50083 9.62792L7.22083 7.34792ZM6.5875 8.86792L5.70083 9.88125C5.57417 9.62792 5.4475 9.50125 5.4475 9.24792V7.47458H6.2075C6.33417 7.47458 6.33417 7.47458 6.46083 7.60125C6.5875 7.72792 6.5875 7.72792 6.5875 7.85458V8.86792Z" fill="white"/>
</svg>
