<svg width="19" height="19" viewBox="0 0 19 19" fill="none" xmlns="http://www.w3.org/2000/svg">
<path d="M9.50044 0.253906C6.46044 0.253906 2.78711 2.15391 2.78711 6.96724C2.78711 9.75391 6.58711 15.7072 8.61378 18.3672C8.99378 18.8739 9.75378 18.8739 10.1338 18.3672C12.0338 15.7072 16.0871 9.88057 16.0871 6.96724C16.2138 2.15391 12.5404 0.253906 9.50044 0.253906Z" fill="#000"/>
<path d="M14.3142 6.71177C14.3142 9.37177 12.1608 11.3984 9.50083 11.3984C6.84083 11.3984 4.6875 9.37177 4.6875 6.71177C4.6875 4.05177 6.84083 1.89844 9.50083 1.89844C12.1608 1.89844 14.3142 4.05177 14.3142 6.71177Z" fill="white"/>
</svg>
