<svg width="19" height="19" viewBox="0 0 19 19" fill="none" xmlns="http://www.w3.org/2000/svg">
<path d="M9.50044 0.253906C6.46044 0.253906 2.78711 2.15391 2.78711 6.96724C2.78711 9.75391 6.58711 15.7072 8.61378 18.3672C8.99378 18.8739 9.75378 18.8739 10.1338 18.3672C12.0338 15.7072 16.0871 9.88057 16.0871 6.96724C16.2138 2.15391 12.5404 0.253906 9.50044 0.253906Z" fill="#47996A"/>
<path d="M7.47422 3.54734C7.98089 3.04068 8.86755 2.78734 9.50089 2.78734C10.1342 2.78734 11.0209 3.04068 11.5276 3.54734C12.0342 4.05401 12.5409 4.68734 12.5409 5.95401C12.5409 6.33401 12.4142 6.84068 12.1609 7.47401C11.7809 8.10734 11.4009 8.86734 11.0209 9.50068C10.5142 10.3873 9.88089 11.1473 9.50089 11.7807C8.99422 11.1473 8.48755 10.3873 7.98089 9.50068C7.47422 8.74068 7.09422 8.10734 6.84089 7.47401C6.58755 6.71401 6.46089 6.20734 6.46089 5.95401C6.46089 4.81401 6.84089 4.05401 7.47422 3.54734ZM10.0076 12.5407C11.1476 10.894 13.4276 7.60068 13.4276 5.95401C13.4276 3.16734 11.2742 2.02734 9.50089 2.02734C7.72755 2.02734 5.57422 3.16734 5.57422 5.95401C5.57422 7.60068 7.72755 10.894 8.99422 12.5407C9.24755 12.794 9.37422 13.0473 9.50089 13.3007C9.50089 13.174 9.62755 13.174 9.62755 13.0473C9.75422 12.9207 9.88089 12.794 10.0076 12.5407Z" fill="#FCFCFC"/>
</svg>
