<svg width="19" height="19" viewBox="0 0 19 19" fill="none" xmlns="http://www.w3.org/2000/svg">
<path d="M9.50044 0.253906C6.46044 0.253906 2.78711 2.15391 2.78711 6.96724C2.78711 9.75391 6.58711 15.7072 8.61378 18.3672C8.99378 18.8739 9.75378 18.8739 10.1338 18.3672C12.0338 15.7072 16.0871 9.88057 16.0871 6.96724C16.2138 2.15391 12.5404 0.253906 9.50044 0.253906Z" fill="#8ABA6E"/>
<path d="M12.6672 9.37203C10.8939 11.1454 8.10724 11.1454 6.33391 9.37203C4.56057 7.5987 4.56057 4.68536 6.33391 2.91203C8.10724 1.1387 11.0206 1.1387 12.7939 2.91203C12.9206 3.0387 13.0472 3.16536 13.1739 3.29203C11.6539 2.2787 9.62724 2.2787 8.36057 3.67203C6.96724 5.06537 6.96724 7.34537 8.36057 8.7387C9.62724 10.0054 11.6539 10.132 13.0472 8.99203C12.9206 9.1187 12.7939 9.24537 12.6672 9.37203ZM11.2739 5.44537H9.88057L11.0206 6.4587L10.5139 8.23203L11.9072 7.2187L13.3006 8.23203L12.7939 6.4587L13.9339 5.44537H12.5406L11.9072 4.05203L11.2739 5.44537Z" fill="white"/>
</svg>
