<svg width="19" height="19" viewBox="0 0 19 19" fill="none" xmlns="http://www.w3.org/2000/svg">
<rect x="3" y="2" width="14" height="14" rx="2" fill="#1A73E8"/>
<path d="M7.46096 4.10315C7.17449 4.22801 6.89376 4.50489 6.77345 4.77634C6.68751 4.97179 6 9.32042 6 9.66788C6 10.1293 6.31511 10.6125 6.7448 10.8188L7.00262 10.9437H10.0105L13.0183 10.9491L13.3048 10.7971C13.6543 10.618 13.9407 10.2379 13.998 9.87961C14.0381 9.60273 13.4595 5.48211 13.299 4.93378C13.1959 4.59176 12.8865 4.2443 12.56 4.10315C12.348 4.01085 12.1303 3.99999 10.0105 3.99999C7.87346 3.99999 7.67294 4.01085 7.46096 4.10315ZM12.2449 5.00979C12.3423 5.10208 12.3938 5.2921 12.5027 6.01416C12.5829 6.50277 12.6459 6.93709 12.6459 6.96966C12.6459 7.02395 12.0787 7.04024 10.0105 7.04024C7.94221 7.04024 7.37502 7.02395 7.37502 6.96966C7.37502 6.93709 7.43804 6.50277 7.51825 6.01959C7.65575 5.09665 7.71877 4.9555 7.97086 4.90664C8.03388 4.89035 9.00212 4.88492 10.1079 4.89035C12.073 4.89578 12.1303 4.90121 12.2449 5.00979ZM10.612 8.85353C10.824 8.94039 10.91 9.11412 10.8469 9.353C10.7954 9.54301 10.5032 9.64616 10.0105 9.64616C9.51775 9.64616 9.22556 9.54301 9.174 9.353C9.11671 9.11955 9.19691 8.94039 9.39744 8.85896C9.63807 8.75581 10.3599 8.75581 10.612 8.85353ZM8.46357 8.94039C8.52659 9.00011 8.57816 9.11955 8.57816 9.21184C8.57816 9.30414 8.52659 9.42358 8.46357 9.48329C8.40055 9.54301 8.27451 9.59187 8.17711 9.59187C8.07971 9.59187 7.95367 9.54301 7.89065 9.48329C7.82763 9.42358 7.77606 9.30414 7.77606 9.21184C7.77606 9.11955 7.82763 9.00011 7.89065 8.94039C7.95367 8.88067 8.07971 8.83181 8.17711 8.83181C8.27451 8.83181 8.40055 8.88067 8.46357 8.94039ZM12.1303 8.94039C12.1933 9.00011 12.2449 9.11955 12.2449 9.21184C12.2449 9.30414 12.1933 9.42358 12.1303 9.48329C12.0673 9.54301 11.9412 9.59187 11.8438 9.59187C11.7464 9.59187 11.6204 9.54301 11.5574 9.48329C11.4943 9.42358 11.4428 9.30414 11.4428 9.21184C11.4428 9.11955 11.4943 9.00011 11.5574 8.94039C11.6204 8.88067 11.7464 8.83181 11.8438 8.83181C11.9412 8.83181 12.0673 8.88067 12.1303 8.94039Z" fill="white"/>
<path d="M7.07136 12.5941C6.77344 13.4519 6.73906 13.7125 6.91667 13.8808C7.04844 14.0057 7.40938 14.0274 7.5698 13.9188C7.62137 13.8808 7.72449 13.6908 7.79897 13.5008L7.93647 13.1479H10.0105H12.0844L12.2219 13.5008C12.2964 13.6908 12.3996 13.8808 12.4511 13.9188C12.6115 14.0274 12.9725 14.0057 13.1042 13.8808C13.2819 13.7125 13.2475 13.4519 12.9496 12.5941L12.6803 11.8178H12.1761C11.6318 11.8178 11.6146 11.8286 11.7292 12.1109L11.7865 12.2521H10.0105H8.24012L8.32033 12.0349L8.40054 11.8178H7.87345H7.34063L7.07136 12.5941Z" fill="white"/>
</svg>
