<svg width="19" height="19" viewBox="0 0 19 19" fill="none" xmlns="http://www.w3.org/2000/svg">
<path d="M9.50044 0.253906C6.46044 0.253906 2.78711 2.15391 2.78711 6.96724C2.78711 9.75391 6.58711 15.7072 8.61378 18.3672C8.99378 18.8739 9.75378 18.8739 10.1338 18.3672C12.0338 15.7072 16.0871 9.88057 16.0871 6.96724C16.2138 2.15391 12.5404 0.253906 9.50044 0.253906Z" fill="#954A99"/>
<path d="M11.3998 2.65844V2.27844C11.3998 2.0251 11.2732 1.89844 11.0198 1.89844C10.7665 1.89844 10.6398 2.0251 10.6398 2.27844V2.65844H7.59984C7.21984 2.65844 6.83984 3.03844 6.83984 3.41844V11.1451C6.83984 11.5251 7.21984 11.9051 7.59984 11.9051H11.3998C11.7798 11.9051 12.1598 11.5251 12.1598 11.1451V3.41844C12.1598 2.91177 11.9065 2.65844 11.3998 2.65844ZM8.35984 11.1451H7.59984V10.3851H8.35984V11.1451ZM8.35984 9.6251H7.59984V8.8651H8.35984V9.6251ZM8.35984 7.97844H7.59984V7.21844H8.35984V7.97844ZM9.87984 11.1451H9.11984V10.3851H9.87984V11.1451ZM9.87984 9.6251H9.11984V8.8651H9.87984V9.6251ZM9.87984 7.97844H9.11984V7.21844H9.87984V7.97844ZM11.3998 11.1451H10.6398V10.3851H11.3998V11.1451ZM11.3998 9.6251H10.6398V8.8651H11.3998V9.6251ZM11.3998 7.97844H10.6398V7.21844H11.3998V7.97844ZM11.3998 6.07844C11.3998 6.33177 11.2732 6.45844 11.0198 6.45844H7.97984C7.72651 6.45844 7.59984 6.33177 7.59984 6.07844V3.79844C7.59984 3.5451 7.72651 3.41844 7.97984 3.41844H11.0198C11.2732 3.41844 11.3998 3.5451 11.3998 3.79844V6.07844Z" fill="white"/>
</svg>
