<svg width="19" height="19" viewBox="0 0 19 19" fill="none" xmlns="http://www.w3.org/2000/svg">
<path d="M9.50044 0.253906C6.46044 0.253906 2.78711 2.15391 2.78711 6.96724C2.78711 9.75391 6.58711 15.7072 8.61378 18.3672C8.99378 18.8739 9.75378 18.8739 10.1338 18.3672C12.0338 15.7072 16.0871 9.88057 16.0871 6.96724C16.2138 2.15391 12.5404 0.253906 9.50044 0.253906Z" fill="#4D8B99"/>
<path d="M12.7939 11.9057H6.20727C5.82727 11.9057 5.44727 11.5257 5.44727 11.1457V5.44568C5.44727 3.79901 6.0806 2.15234 8.7406 2.15234C11.2739 2.15234 12.0339 3.79901 12.0339 5.44568V10.3857H12.7939C13.1739 10.3857 13.5539 10.7657 13.5539 11.1457C13.5539 11.5257 13.1739 11.9057 12.7939 11.9057ZM7.09393 10.259H10.3873V5.44568C10.3873 4.68568 10.3873 3.79901 8.7406 3.79901C7.09393 3.79901 7.09393 4.55901 7.09393 5.44568V10.259Z" fill="white"/>
</svg>
