<svg width="19" height="19" viewBox="0 0 19 19" fill="none" xmlns="http://www.w3.org/2000/svg">
<path d="M9.50044 0.253906C6.46044 0.253906 2.78711 2.15391 2.78711 6.96724C2.78711 9.75391 6.58711 15.7072 8.61378 18.3672C8.99378 18.8739 9.75378 18.8739 10.1338 18.3672C12.0338 15.7072 16.0871 9.88057 16.0871 6.96724C16.2138 2.15391 12.5404 0.253906 9.50044 0.253906Z" fill="#915024"/>
<path d="M9.50055 2.02734C9.24721 2.02734 9.24721 2.15401 8.99388 2.28068L4.56055 9.62734C4.56055 9.75401 4.56055 9.88068 4.56055 9.88068C4.56055 10.2607 4.81388 10.3873 5.06721 10.3873H13.9339C14.1872 10.3873 14.4405 10.2607 14.4405 9.88068C14.4405 9.75401 14.4405 9.75401 14.3139 9.62734L10.0072 2.28068C9.88055 2.15401 9.75388 2.02734 9.50055 2.02734ZM9.50055 3.16734L12.0339 7.34734H11.4005L10.2605 6.20734L9.50055 7.34734L8.74055 6.20734L7.60055 7.34734H6.84055L9.50055 3.16734Z" fill="white"/>
</svg>
