<svg width="19" height="19" viewBox="0 0 19 19" fill="none" xmlns="http://www.w3.org/2000/svg">
<path d="M9.50044 0.253906C6.46044 0.253906 2.78711 2.15391 2.78711 6.96724C2.78711 9.75391 6.58711 15.7072 8.61378 18.3672C8.99378 18.8739 9.75378 18.8739 10.1338 18.3672C12.0338 15.7072 16.0871 9.88057 16.0871 6.96724C16.2138 2.15391 12.5404 0.253906 9.50044 0.253906Z" fill="#6ECD4A"/>
<path d="M9.49974 2.15234L5.06641 4.55901V4.93901H13.9331V4.55901L9.49974 2.15234ZM5.69974 5.57234V8.99234L5.06641 10.1323V11.1457H13.9331V10.1323L13.2997 8.99234V5.57234H5.69974ZM7.09307 6.20568H7.72641V10.0057H7.09307V6.20568ZM9.11974 6.20568H9.75307V10.0057H9.11974V6.20568ZM11.2731 6.20568H11.9064V10.0057H11.2731V6.20568Z" fill="white"/>
</svg>
