<svg width="19" height="19" viewBox="0 0 19 19" fill="none" xmlns="http://www.w3.org/2000/svg">
<path d="M9.50044 0.253906C6.46044 0.253906 2.78711 2.15391 2.78711 6.96724C2.78711 9.75391 6.58711 15.7072 8.61378 18.3672C8.99378 18.8739 9.75378 18.8739 10.1338 18.3672C12.0338 15.7072 16.0871 9.88057 16.0871 6.96724C16.2138 2.15391 12.5404 0.253906 9.50044 0.253906Z" fill="#BC5333"/>
<path d="M13.4267 2.40625H13.3L7.47336 4.05292C7.34669 4.05292 7.09336 4.17958 7.09336 4.43292V8.61292C6.96669 8.48625 6.71336 8.35958 6.46003 8.35958C5.70003 8.35958 5.19336 8.99292 5.19336 9.62625C5.19336 10.2596 5.82669 10.8929 6.46003 10.8929C7.09336 10.8929 7.72669 10.2596 7.72669 9.62625V6.58625L13.0467 5.06625V7.59958C12.92 7.47292 12.6667 7.34625 12.54 7.34625C11.78 7.34625 11.2734 7.97958 11.2734 8.61292C11.2734 9.24625 11.9067 9.87958 12.54 9.87958C13.1734 9.87958 13.8067 9.24625 13.8067 8.61292V2.78625C13.8067 2.53292 13.68 2.40625 13.4267 2.40625ZM13.1734 4.55958L7.85336 5.95292V4.68625L13.1734 3.16625V4.55958Z" fill="white"/>
</svg>
