<svg width="21" height="21" viewBox="0 0 21 21" fill="none" xmlns="http://www.w3.org/2000/svg">
<rect width="21" height="21" fill="white"/>
<g clip-path="url(#clip0_2551_174)">
<rect width="19" height="19" transform="translate(1 1)" fill="white"/>
<path d="M9.06867 9.55261C9.06867 9.55261 8.54854 9.66956 8.55874 9.39312C8.55874 9.29743 8.61993 9.26553 8.67093 9.27616C8.72192 9.2868 8.56894 9.07415 8.80351 9.01036C8.8731 8.92896 8.92835 8.83537 8.96669 8.73391C8.96669 8.65949 9.05847 8.5638 9.26245 8.61696C9.44356 8.66579 9.60679 8.76937 9.73158 8.91466C9.85396 8.91466 9.97635 8.91466 9.93555 8.96783C9.89476 9.02099 9.85396 9.04225 9.86416 9.05289C9.87436 9.06352 9.94575 9.05289 9.73158 9.05289C9.73158 9.10605 9.78257 9.11668 9.81317 9.13794C9.84377 9.15921 9.81317 9.19111 9.81317 9.20174C9.81317 9.21237 9.81317 9.31869 9.74178 9.27616C9.67039 9.23364 9.6194 9.19111 9.599 9.20174C9.5786 9.21237 9.48681 9.20174 9.49701 9.20174C9.50721 9.20174 9.6194 9.30806 9.49701 9.32933C9.37463 9.35059 9.49701 9.39312 9.49701 9.41439C9.49701 9.43565 9.21145 9.62703 9.10947 9.66956C9.00748 9.71209 8.96669 9.73335 8.96669 9.69083C8.97384 9.66366 8.99016 9.6401 9.01264 9.62447C9.03512 9.60884 9.06226 9.6022 9.08907 9.60577C9.08907 9.60577 9.08907 9.54197 9.06867 9.55261Z" fill="#ED1C24"/>
<path d="M9.0287 10.137C8.97771 10.137 8.82473 10.0307 8.90632 9.96692C8.98791 9.90313 9.33466 9.67985 9.41625 9.64795C9.49784 9.61605 9.59982 9.73301 9.49784 9.81807C9.34666 9.93249 9.19009 10.0389 9.0287 10.137Z" fill="#ED1C24"/>
<path d="M9.5625 9.86997C9.57609 9.75534 9.59652 9.64171 9.62369 9.52974C9.62369 9.52974 9.80727 9.46594 9.76647 9.65733C9.72568 9.84871 9.5727 9.9763 9.5625 9.86997Z" fill="#ED1C24"/>
<path d="M9.81073 9.44426C10.1503 9.41962 10.491 9.41962 10.8306 9.44426C10.9547 9.58721 11.0488 9.75565 11.1068 9.93876C11.1647 10.1219 11.1853 10.3156 11.1671 10.5075C11.0856 10.986 10.9428 11.1135 10.3105 11.188C10.3079 10.9615 10.2771 10.7363 10.2187 10.5181C10.1575 10.4118 9.94331 10.1673 9.84133 10.1673C9.73934 10.1673 9.84133 10.6138 9.84133 10.6138C9.84133 10.6138 9.53537 10.6138 9.48438 10.6138V10.1141C9.48438 10.1141 9.78013 9.84829 9.79033 9.7845C9.80053 9.7207 9.85152 9.96525 10.1983 9.93335C10.2085 9.85892 9.80053 9.90145 9.81073 9.44426Z" fill="#ED1C24"/>
<path d="M9.44714 9.89062L9.06979 10.2096C9.06979 10.3053 9.0086 10.5817 9.40635 10.5817C9.43694 10.4116 9.44714 9.89062 9.44714 9.89062Z" fill="#ED1C24"/>
<path d="M8.7031 10.3052C8.61132 10.3052 8.52973 10.3052 8.53993 10.1989C8.55576 10.1513 8.58654 10.1108 8.62726 10.0837C8.66799 10.0567 8.71628 10.0448 8.7643 10.05C8.85608 10.05 8.99886 10.1138 8.99886 10.4647C9.13359 10.6004 9.31141 10.6798 9.4986 10.688C9.73316 10.688 9.87594 10.688 9.87594 10.7517V11.2196C9.50005 11.136 9.14974 10.9571 8.85608 10.6986C8.82365 10.6658 8.7986 10.6259 8.78273 10.5817C8.76686 10.5376 8.76057 10.4904 8.7643 10.4434C8.78469 10.3584 8.7337 10.3052 8.7031 10.3052Z" fill="#ED1C24"/>
<path d="M8.48065 10.3574C8.35826 10.3574 8.02171 10.6551 8.27667 10.7827C8.32532 10.7376 8.36972 10.6878 8.40926 10.6339C8.40926 10.6339 8.34806 10.804 8.48065 10.8465C8.61323 10.889 8.56224 10.7615 8.63363 10.7721C8.70502 10.7827 8.68462 10.8784 8.75601 10.8784C8.8274 10.8784 8.8376 10.6764 8.75601 10.5488C8.67442 10.4212 8.61323 10.3681 8.48065 10.3574Z" fill="#ED1C24"/>
<path d="M9.98047 10.3986V11.3342C9.98047 11.3342 10.2762 11.2385 10.3068 11.1641C10.3374 11.0897 10.2048 10.3879 9.98047 10.3986Z" fill="#ED1C24"/>
<path d="M9.22266 11.0391C9.40425 11.1678 9.59521 11.2815 9.79378 11.3793C9.79378 11.3793 9.6204 11.6238 9.55921 11.6132C9.40497 11.4523 9.28962 11.2555 9.22266 11.0391Z" fill="#ED1C24"/>
<path d="M7.97799 11.5479H7.10091L7.07031 11.3672H7.97799V11.5479Z" fill="#ED1C24"/>
<path d="M10.3435 11.2637C10.3435 11.2637 10.6189 11.4232 10.5475 11.4551C10.3065 11.5786 10.0535 11.6749 9.79282 11.7421C9.73163 11.7421 9.79282 11.5614 9.79282 11.5295C9.98808 11.47 10.1737 11.3804 10.3435 11.2637Z" fill="#ED1C24"/>
<path d="M9.6475 11.7074C9.5761 11.7074 9.16816 12.0689 9.35174 12.1008C9.59317 12.1404 9.8317 12.1972 10.0656 12.2709C10.1676 12.2709 10.2594 12.1327 10.239 12.0902C10.2186 12.0477 10.4328 12.1965 10.5144 12.154C10.7343 12.017 10.9424 11.8605 11.1365 11.6862C11.0207 11.5772 10.8804 11.5004 10.7285 11.4629C10.6368 11.4735 9.98405 11.8776 9.6475 11.7074Z" fill="#ED1C24"/>
<path d="M9.44346 12.2176C9.66237 12.2981 9.88759 12.3586 10.1166 12.3984C10.2491 12.3984 10.2695 12.2389 10.3409 12.2495C10.4123 12.2602 10.4531 12.324 10.5755 12.2495C10.7081 12.1484 10.8341 12.0383 10.9528 11.9199C10.9528 12.005 10.9528 12.2283 10.4735 12.4515C9.99418 12.6748 8.96412 12.9938 8.89273 13.1639C8.98663 13.1596 9.07792 13.1303 9.15789 13.0788C9.2158 13.1348 9.25925 13.205 9.2842 13.283C9.30916 13.3611 9.31483 13.4445 9.30067 13.5254C9.30067 13.77 9.0967 14.1952 9.0967 14.3122C9.0967 14.4292 9.0967 14.9501 9.0967 15.0139C9.0967 15.0777 9.18849 15.3648 9.0967 15.3435C9.00534 15.3306 8.91271 15.3306 8.82134 15.3435C8.76015 15.3435 8.64796 15.4499 8.55618 15.4392C8.46439 15.4286 8.29101 15.3754 8.30121 15.3223C8.31141 15.2691 8.4134 15.2691 8.50518 15.2372C8.59697 15.2053 8.65816 15.0884 8.84174 15.0246C8.84174 14.897 8.78055 13.9613 8.78055 13.7912C8.73945 13.5414 8.73945 13.2861 8.78055 13.0363C8.83154 12.8343 9.24968 12.207 9.44346 12.2176Z" fill="#ED1C24"/>
<path d="M10.1094 12.7719C10.1094 12.7719 10.4255 13.6544 10.5581 13.665C11.1177 13.5602 11.6832 13.4927 12.2511 13.463C12.3327 13.5693 12.4856 13.7713 12.4755 13.8776C12.4858 13.973 12.4858 14.0693 12.4755 14.1647C12.5124 14.166 12.549 14.1568 12.5814 14.1381C12.6137 14.1193 12.6406 14.0918 12.659 14.0584C12.669 13.892 12.669 13.7251 12.659 13.5587C12.659 13.4949 12.8222 13.1653 12.608 13.1759C12.2686 13.2032 11.9276 13.2032 11.5882 13.1759C11.3472 13.0999 11.0947 13.071 10.8437 13.0908C10.7358 13.1629 10.6507 13.2664 10.5989 13.3886C10.5989 13.3886 10.5377 13.3886 10.5989 13.2184C10.7029 12.9691 10.765 12.7029 10.7825 12.4316C10.5529 12.5335 10.3282 12.647 10.1094 12.7719Z" fill="#ED1C24"/>
<path d="M9.36651 11.4627C9.37578 11.5154 9.40076 11.5638 9.4379 11.6009L8.41804 11.5371C8.41804 11.5371 8.29566 11.452 8.33645 11.4414L9.36651 11.4627Z" fill="#ED1C24"/>
<path d="M8.21071 11.3797H9.23057C9.18505 11.3177 9.14735 11.2498 9.11838 11.1777H8.19031C8.19031 11.1777 8.07812 11.1777 8.07812 11.3797C8.07812 11.5818 8.15971 11.5392 8.21071 11.3797Z" fill="#ED1C24"/>
<path d="M6.79305 11.5583H7.00722C7.00722 11.5583 7.07861 11.5583 7.00722 11.4414C6.93583 11.3244 6.80325 11.3031 6.89503 11.1543C6.80325 11.1543 6.65027 11.1543 6.67067 11.4414H6.56868C6.5504 11.3816 6.51319 11.3302 6.46315 11.2954C6.41312 11.2606 6.35323 11.2446 6.29332 11.25C6.00591 11.3005 5.72522 11.3862 5.45703 11.5052C5.73169 11.5871 6.011 11.651 6.29332 11.6965C6.35083 11.6905 6.40633 11.6712 6.45574 11.6399C6.50515 11.6086 6.54722 11.5662 6.57888 11.5158H6.66047C6.67958 11.583 6.70701 11.6473 6.74206 11.7072V11.9198C6.71356 11.9334 6.69013 11.9564 6.67538 11.9852C6.66064 12.014 6.6554 12.0471 6.66047 12.0793C6.66047 12.2069 6.73186 12.2069 6.75225 12.2069C6.77265 12.2069 6.75225 12.2069 6.88484 12.2069C6.90425 12.1669 6.90875 12.1209 6.89744 12.0777C6.88613 12.0344 6.85983 11.9971 6.82364 11.973C6.82606 11.9234 6.82606 11.8737 6.82364 11.8241C6.82364 11.8241 6.91543 11.8241 6.90523 11.7178C6.89503 11.6115 6.79305 11.6221 6.79305 11.5583Z" fill="#ED1C24"/>
<path d="M8.48431 12.611C8.51042 12.5951 8.53302 12.5736 8.55059 12.5479C8.56817 12.5223 8.58034 12.493 8.58629 12.4621C8.58629 12.4621 8.58629 11.973 8.58629 11.8242C8.58629 11.6753 8.32113 11.5584 8.31093 11.5477C8.2718 11.5873 8.22195 11.6132 8.16815 11.6222C8.12692 11.6344 8.08306 11.6327 8.04278 11.6174C8.00251 11.6022 7.96787 11.5741 7.94378 11.5371C7.72961 11.5371 7.62763 11.8029 7.62763 11.8135C7.61228 12.0117 7.61228 12.2108 7.62763 12.409C7.64744 12.4713 7.6786 12.5291 7.71941 12.5791C7.71941 12.7279 7.45425 13.5785 7.71941 13.6423V13.7912H8.42312V13.6423C8.70868 13.5573 8.5353 12.8236 8.48431 12.611ZM7.66842 11.8242C7.66842 11.8242 7.77041 11.5903 7.92338 11.5796C7.94817 11.6107 7.97942 11.6355 8.01477 11.652C8.05011 11.6686 8.08862 11.6766 8.12736 11.6753C8.18806 11.6627 8.2444 11.6333 8.29053 11.5903C8.37212 11.5903 8.5149 11.7072 8.5149 11.8029C8.5149 11.8986 8.5149 12.3877 8.5149 12.4409C8.50639 12.4824 8.48486 12.5198 8.45371 12.5472H8.32113V12.2707H7.85199V12.5365H7.75001C7.71252 12.498 7.68452 12.4506 7.66842 12.3983C7.65782 12.2071 7.65782 12.0154 7.66842 11.8242ZM8.15795 13.5679H8.02537L7.94378 13.5147C7.94378 13.5147 7.94378 13.4509 7.99478 13.4509H8.12736C8.12736 13.4509 8.12736 13.4509 8.12736 13.5147L8.15795 13.5679ZM8.42312 13.6317L8.07636 13.2277L7.76021 13.6423C7.54604 13.5785 7.67862 12.8874 7.76021 12.5791H8.42312C8.49451 12.8874 8.61689 13.5254 8.42312 13.6317Z" fill="#ED1C24"/>
<path d="M8.329 12.8867C8.35269 12.861 8.36592 12.8267 8.36592 12.791C8.36592 12.7553 8.35269 12.721 8.329 12.6953H7.94146C7.80888 12.6953 7.84967 12.8867 7.84967 12.8867L8.11483 13.11C8.19649 13.0471 8.26867 12.9718 8.329 12.8867Z" fill="#ED1C24"/>
<path d="M8.16016 13.1651L8.40492 13.4735V12.9844C8.31314 12.995 8.16016 13.1651 8.16016 13.1651Z" fill="#ED1C24"/>
<path d="M7.79297 12.9844C7.79297 13.1013 7.79297 13.4735 7.79297 13.4735L8.00714 13.1651C8.00714 13.1651 7.85416 12.995 7.79297 12.9844Z" fill="#ED1C24"/>
<path d="M7.70703 13.8789V13.9327H8.44133V13.8789H7.70703Z" fill="#ED1C24"/>
<path d="M10.7305 11.2734L11.067 11.5392H12.7294V11.2734H10.7305Z" fill="#ED1C24"/>
<path d="M19.9905 6.29893L17.808 9.97772C16.5367 8.60238 14.8629 7.70663 13.05 7.4314C11.237 7.15616 9.3877 7.51705 7.79297 8.4573C7.79297 8.4573 12.4537 0.833908 19.9905 6.29893Z" fill="white"/>
<path d="M19.8655 5.52212L17.683 9.20092C16.4111 7.82705 14.7381 6.93154 12.926 6.65451C11.1138 6.37747 9.26472 6.73455 7.66797 7.66986C7.66797 7.66986 12.3287 0.0464667 19.8655 5.52212Z" fill="#F7941D"/>
<path d="M15.6114 1.57319L15.795 5.90056C14.0017 5.51397 12.136 5.75953 10.4912 6.59864C8.84637 7.43775 7.51559 8.82285 6.70801 10.5363C6.70801 10.5363 6.42245 1.46687 15.6114 1.57319Z" fill="white"/>
<path d="M15.0856 1.00046L15.2793 5.32782C13.4849 4.94208 11.6184 5.1892 9.97341 6.03031C8.32843 6.87142 6.99834 8.25879 6.19239 9.97416C6.19239 9.97416 5.90683 0.92603 15.0856 1.00046Z" fill="#ED1C24"/>
<path d="M11.1081 3.91783L9.60889 1.06836C9.60889 1.06836 3.07158 4.33249 6.00878 11.6156C5.98191 9.93824 6.45913 8.29411 7.37358 6.91367C8.28803 5.53324 9.59387 4.48568 11.1081 3.91783Z" fill="white"/>
<path d="M10.5107 3.91783L8.97069 1.06836C8.97069 1.06836 2.44358 4.33249 5.38078 11.6156C5.35612 9.93439 5.83781 8.2874 6.75805 6.9065C7.67829 5.52561 8.99075 4.48034 10.5107 3.91783Z" fill="#F7941D"/>
<path d="M12.8604 7.84893C14.5864 7.90114 16.2528 8.51867 17.6231 9.6139C17.6231 9.6139 18.643 14.7281 12.8196 17.6945C11.3881 18.317 9.81249 18.4866 8.28916 18.1822C6.76583 17.8778 5.36207 17.1129 4.25276 15.9827C4.25276 15.9827 -1.07091 10.3901 4.79329 4.19141C4.02735 5.87065 3.73111 7.74102 3.93856 9.58783C4.14602 11.4346 4.84876 13.1831 5.96613 14.6324C6.45114 15.1706 7.04813 15.5856 7.71117 15.8455C8.3742 16.1054 9.0856 16.2033 9.7906 16.1315C10.6775 16.0574 11.5263 15.7235 12.2392 15.1683C12.952 14.6132 13.4999 13.8593 13.8197 12.9937C14.1394 12.128 14.2181 11.1858 14.0466 10.2755C13.875 9.36531 13.4603 8.52413 12.8502 7.84893H12.8604Z" fill="#F7941D"/>
<path d="M17.4403 9.28306C17.7371 10.9257 17.4546 12.6249 16.6448 14.0676C15.6663 15.8057 14.1586 17.153 12.3613 17.8953C12.3613 17.8953 5.90563 19.7134 3.29479 14.2271C3.29479 14.2271 0.0618337 8.91092 5.12034 3.99878L5.75265 2.93555C5.75265 2.93555 -0.93763 5.92324 1.55083 14.4929C2.24432 16.2018 3.4261 17.6464 4.93529 18.63C6.44448 19.6136 8.20776 20.0884 9.98508 19.9898C9.98508 19.9898 18.9394 19.405 18.2051 9.64456L17.4403 9.28306Z" fill="#ED1C24"/>
</g>
<defs>
<clipPath id="clip0_2551_174">
<rect width="19" height="19" fill="white" transform="translate(1 1)"/>
</clipPath>
</defs>
</svg>
