<svg width="19" height="19" viewBox="0 0 19 19" fill="none" xmlns="http://www.w3.org/2000/svg">
<path d="M9.50044 0.253906C6.46044 0.253906 2.78711 2.15391 2.78711 6.96724C2.78711 9.75391 6.58711 15.7072 8.61378 18.3672C8.99378 18.8739 9.75378 18.8739 10.1338 18.3672C12.0338 15.7072 16.0871 9.88057 16.0871 6.96724C16.2138 2.15391 12.5404 0.253906 9.50044 0.253906Z" fill="#359BBA"/>
<path d="M10.1325 6.08068C10.0058 6.20734 9.87917 6.20734 9.7525 6.08068C9.11917 5.57401 8.6125 4.94068 8.48583 4.05401C8.48583 3.67401 8.35917 3.29401 8.10583 2.91401V2.78734C8.10583 2.66068 8.2325 2.66068 8.2325 2.66068C8.6125 2.78734 8.9925 3.04068 9.24583 3.29401L9.7525 2.15401C9.7525 2.02734 9.87917 2.02734 10.0058 2.02734C10.0058 2.02734 10.0058 2.02734 10.1325 2.15401L10.6392 3.29401C10.8925 3.04068 11.2725 2.78734 11.6525 2.66068C11.6525 2.66068 11.6525 2.66068 11.7792 2.66068C11.9058 2.66068 11.9058 2.78734 11.9058 2.78734V2.91401C11.6525 3.29401 11.5258 3.67401 11.3992 4.05401C11.2725 4.81401 10.8925 5.57401 10.1325 6.08068ZM7.4725 7.22068H8.35917C8.48583 7.22068 8.48583 7.09401 8.48583 7.09401V6.96734L7.21917 5.32068C7.0925 5.19401 7.0925 5.19401 6.96583 5.32068L5.69917 6.96734V7.09401C5.69917 7.22068 5.82583 7.22068 5.82583 7.22068H6.7125L4.8125 9.12068V9.24734C4.8125 9.37401 4.93917 9.37401 4.93917 9.37401H5.9525L4.93917 10.514C4.8125 10.6407 4.8125 10.6407 4.93917 10.7673H5.06583H6.7125V11.5273H7.4725V10.894H9.11917C9.24583 10.894 9.24583 10.7673 9.24583 10.7673V10.6407L8.2325 9.37401H9.24583C9.3725 9.37401 9.3725 9.24734 9.3725 9.24734V9.12068L7.4725 7.22068ZM14.1858 9.88068C14.1858 10.0073 14.0592 10.134 13.9325 10.134H10.2592C10.1325 10.134 10.1325 10.0073 10.1325 9.88068C10.1325 9.88068 10.1325 9.88068 10.1325 9.75401L12.0325 6.08068C12.0325 5.95401 12.1592 5.95401 12.2858 5.95401C12.2858 5.95401 12.4125 5.95401 12.4125 6.08068L14.1858 9.88068ZM13.0458 8.74068L12.1592 6.84068L11.2725 8.74068H13.0458Z" fill="white"/>
</svg>
