<svg width="19" height="19" viewBox="0 0 19 19" fill="none" xmlns="http://www.w3.org/2000/svg">
<path d="M9.50044 0.253906C6.46044 0.253906 2.78711 2.15391 2.78711 6.96724C2.78711 9.75391 6.58711 15.7072 8.61378 18.3672C8.99378 18.8739 9.75378 18.8739 10.1338 18.3672C12.0338 15.7072 16.0871 9.88057 16.0871 6.96724C16.2138 2.15391 12.5404 0.253906 9.50044 0.253906Z" fill="#693EC6"/>
<path d="M12.7939 10.7673H12.4139L11.2739 8.23401V6.84068C12.0339 6.84068 12.0339 6.33401 12.0339 6.33401L12.4139 3.80068C12.4139 3.80068 12.4139 3.42068 12.0339 3.42068H11.2739C11.2739 3.42068 11.2739 3.04068 10.8939 3.04068H10.2606V2.78734C10.2606 2.78734 10.2606 2.02734 9.5006 2.02734C8.7406 2.02734 8.7406 2.78734 8.7406 2.78734V3.16734H7.9806C7.6006 3.16734 7.6006 3.54734 7.6006 3.54734H6.96727C6.58727 3.54734 6.58727 3.80068 6.58727 3.80068L6.96727 6.20734C6.96727 6.20734 6.96727 6.71401 7.72727 6.71401V8.23401L6.58727 10.7673H6.20727C6.20727 10.7673 5.44727 10.7673 5.44727 11.274C5.44727 11.7807 6.20727 11.7807 6.20727 11.7807H12.7939C12.7939 11.7807 13.5539 11.7807 13.5539 11.274C13.5539 10.7673 12.7939 10.7673 12.7939 10.7673ZM11.5273 4.18068L11.2739 5.32068H7.72727L7.47393 4.18068H11.5273ZM10.2606 6.84068V7.60068H8.7406V6.84068H10.2606ZM8.7406 8.61401H10.2606L11.0206 10.7673H7.9806L8.7406 8.61401Z" fill="white"/>
</svg>
