<svg width="19" height="19" viewBox="0 0 19 19" fill="none" xmlns="http://www.w3.org/2000/svg">
<path d="M9.50044 0.253906C6.46044 0.253906 2.78711 2.15391 2.78711 6.96724C2.78711 9.75391 6.58711 15.7072 8.61378 18.3672C8.99378 18.8739 9.75378 18.8739 10.1338 18.3672C12.0338 15.7072 16.0871 9.88057 16.0871 6.96724C16.2138 2.15391 12.5404 0.253906 9.50044 0.253906Z" fill="rgb(120,144,156)"/>
<path d="M7.22031 4.43234V2.91234C7.22031 2.53234 7.60031 2.15234 7.98031 2.15234H11.0203C11.4003 2.15234 11.7803 2.53234 11.7803 2.91234V4.43234H12.9203C13.3003 4.43234 13.6803 4.81234 13.6803 5.19234V9.75234C13.6803 10.1323 13.3003 10.5123 12.9203 10.5123H6.08031C5.70031 10.5123 5.32031 10.1323 5.32031 9.75234V5.19234C5.32031 4.81234 5.70031 4.43234 6.08031 4.43234H7.22031ZM7.98031 2.91234V4.43234H11.0203V2.91234H7.98031Z" fill="white"/>
</svg>
