<svg width="19" height="19" viewBox="0 0 19 19" fill="none" xmlns="http://www.w3.org/2000/svg">
<path d="M9.50044 0.253906C6.46044 0.253906 2.78711 2.15391 2.78711 6.96724C2.78711 9.75391 6.58711 15.7072 8.61378 18.3672C8.99378 18.8739 9.75378 18.8739 10.1338 18.3672C12.0338 15.7072 16.0871 9.88057 16.0871 6.96724C16.2138 2.15391 12.5404 0.253906 9.50044 0.253906Z" fill="#8E8535"/>
<path d="M4.94021 3.29349C5.19354 2.91349 5.57354 2.66016 5.95354 2.66016C6.20688 2.66016 6.58688 2.78682 6.71354 3.04016L7.22021 3.54682C7.60021 3.67349 7.60021 3.92682 7.34688 4.18016C7.22021 4.30682 6.96688 4.30682 6.84021 4.18016L6.33354 3.54682C6.20688 3.54682 6.08021 3.42016 6.08021 3.42016C5.95354 3.42016 5.82688 3.54682 5.70021 3.67349L4.56021 5.82682H7.72688C8.36021 5.82682 8.86687 6.33349 9.12021 6.84016C9.24687 6.84016 9.37354 6.84016 9.50021 6.84016C9.62688 6.84016 9.75354 6.84016 9.88021 6.84016C10.1335 6.33349 10.6402 5.82682 11.2735 5.82682H14.4402L13.3002 3.67349C13.3002 3.54682 13.0469 3.42016 12.9202 3.42016C12.7935 3.42016 12.6669 3.42016 12.6669 3.54682L12.1602 4.18016C12.0335 4.30682 11.7802 4.30682 11.6535 4.18016C11.4002 3.92682 11.4002 3.67349 11.6535 3.54682L12.1602 3.04016C12.4135 2.78682 12.6669 2.66016 12.9202 2.66016C13.3002 2.66016 13.8069 2.91349 13.9335 3.29349L15.3269 6.08016V6.20682V6.96682C15.3269 7.22016 15.2002 7.34682 14.9469 7.34682H14.5669V7.72682C14.5669 8.99349 13.8069 9.75349 12.4135 9.75349H12.0335C10.6402 9.75349 9.88021 8.99349 9.88021 7.72682C9.75354 7.60016 9.62688 7.60016 9.50021 7.60016C9.37354 7.60016 9.24687 7.60016 9.12021 7.72682V7.85349C9.12021 9.12016 8.36021 9.88016 6.96688 9.88016H6.58688C5.19354 9.88016 4.43354 9.12016 4.43354 7.85349V7.47349H3.92687C3.80021 7.47349 3.54688 7.22016 3.54688 6.96682V6.20682C3.54688 6.08016 3.54688 6.08016 3.54688 6.08016L4.94021 3.29349ZM11.2735 6.58682C10.8935 6.58682 10.6402 6.84016 10.6402 7.22016V7.85349C10.6402 8.36016 10.7669 8.99349 12.0335 8.99349H12.4135C13.6802 8.99349 13.8069 8.36016 13.8069 7.85349V7.22016C13.8069 6.84016 13.5535 6.58682 13.1735 6.58682H11.2735ZM5.70021 6.58682C5.32021 6.58682 5.06688 6.84016 5.06688 7.22016V7.85349C5.06688 8.36016 5.19354 8.99349 6.46021 8.99349H6.84021C8.10688 8.99349 8.23354 8.36016 8.23354 7.85349V7.22016C8.23354 6.84016 7.98021 6.58682 7.60021 6.58682H5.70021Z" fill="white"/>
</svg>
