<svg width="19" height="19" viewBox="0 0 19 19" fill="none" xmlns="http://www.w3.org/2000/svg">
<path d="M9.50044 0.253906C6.46044 0.253906 2.78711 2.15391 2.78711 6.96724C2.78711 9.75391 6.58711 15.7072 8.61378 18.3672C8.99378 18.8739 9.75378 18.8739 10.1338 18.3672C12.0338 15.7072 16.0871 9.88057 16.0871 6.96724C16.2138 2.15391 12.5404 0.253906 9.50044 0.253906Z" fill="#78909C"/>
<path d="M9.49951 2.02734C7.85284 2.02734 5.82617 3.04068 5.82617 5.70068C5.82617 7.60068 8.61284 11.5273 9.49951 12.6673C10.2595 11.654 13.1728 7.72734 13.1728 5.82734C13.1728 3.04068 11.1462 2.02734 9.49951 2.02734Z" fill="white"/>
</svg>
