<svg width="19" height="19" viewBox="0 0 19 19" fill="none" xmlns="http://www.w3.org/2000/svg">
<path d="M9.50044 0.253906C6.46044 0.253906 2.78711 2.15391 2.78711 6.96724C2.78711 9.75391 6.58711 15.7072 8.61378 18.3672C8.99378 18.8739 9.75378 18.8739 10.1338 18.3672C12.0338 15.7072 16.0871 9.88057 16.0871 6.96724C16.2138 2.15391 12.5404 0.253906 9.50044 0.253906Z" fill="#496D91"/>
<path d="M13.8058 3.42125H13.0458V2.66125C13.0458 2.40792 12.9192 2.28125 12.6658 2.28125H5.06583C4.93917 2.28125 4.8125 2.53458 4.8125 2.66125V4.81458C4.8125 5.06792 4.93917 5.19458 5.1925 5.19458H12.7925C13.0458 5.19458 13.1725 5.06792 13.1725 4.81458V4.18125H13.5525V6.33458L9.11917 7.34792C8.86583 7.47458 8.73917 7.60125 8.73917 7.72792V8.86792C8.6125 8.86792 8.35917 8.99458 8.35917 9.24792V11.4012C8.35917 11.6546 8.48583 11.7812 8.73917 11.7812H9.3725C9.62583 11.7812 9.7525 11.6546 9.7525 11.4012V9.24792C9.87917 8.99458 9.7525 8.86792 9.49917 8.86792V7.98125L13.9325 6.96792C14.0592 6.96792 14.1858 6.84125 14.1858 6.58792V3.80125C14.1858 3.54792 14.0592 3.42125 13.8058 3.42125Z" fill="white"/>
</svg>
