<svg width="19" height="19" viewBox="0 0 19 19" fill="none" xmlns="http://www.w3.org/2000/svg">
<path d="M9.50044 0.253906C6.46044 0.253906 2.78711 2.15391 2.78711 6.96724C2.78711 9.75391 6.58711 15.7072 8.61378 18.3672C8.99378 18.8739 9.75378 18.8739 10.1338 18.3672C12.0338 15.7072 16.0871 9.88057 16.0871 6.96724C16.2138 2.15391 12.5404 0.253906 9.50044 0.253906Z" fill="#5491F5"/>
<path d="M11.5275 8.73901C11.1475 9.11901 10.5142 9.24568 10.0075 9.24568H8.74085V11.399H7.47419V5.19234H10.1342C10.6409 5.19234 11.1475 5.31901 11.6542 5.69901C12.0342 6.07901 12.2875 6.58568 12.1609 7.21901C12.1609 7.72568 11.9075 8.35901 11.5275 8.73901ZM10.5142 6.58568C10.3875 6.33234 10.1342 6.33234 9.88085 6.33234H8.74085V8.10568H9.88085C10.1342 8.10568 10.3875 7.97901 10.5142 7.85234C10.6409 7.72568 10.7675 7.47234 10.7675 7.21901C10.7675 6.96568 10.7675 6.71234 10.5142 6.58568ZM14.1875 4.68568C14.3142 4.55901 14.1875 4.30568 14.0609 4.17901L9.50085 2.15234L4.94085 4.30568C4.81419 4.30568 4.68752 4.55901 4.81419 4.68568C4.81419 4.93901 5.06752 4.93901 5.19419 4.93901L9.50085 2.91234L13.8075 4.93901C13.9342 4.93901 14.1875 4.93901 14.1875 4.68568Z" fill="white"/>
</svg>
