<svg width="19" height="19" viewBox="0 0 19 19" fill="none" xmlns="http://www.w3.org/2000/svg">
<path d="M9.50044 0.253906C6.46044 0.253906 2.78711 2.15391 2.78711 6.96724C2.78711 9.75391 6.58711 15.7072 8.61378 18.3672C8.99378 18.8739 9.75378 18.8739 10.1338 18.3672C12.0338 15.7072 16.0871 9.88057 16.0871 6.96724C16.2138 2.15391 12.5404 0.253906 9.50044 0.253906Z" fill="#6C94C4"/>
<path d="M4.8125 10.8941V2.91406H8.10583C9.11917 2.91406 10.0058 3.5474 10.3858 4.43406C10.2592 4.56073 10.1325 4.81406 10.0058 4.94073C9.87917 5.19406 9.87917 5.57406 9.87917 5.70073L10.1325 6.9674C9.62583 7.60073 8.86583 7.98073 8.10583 7.98073H6.20583V10.8941H4.8125ZM8.10583 6.5874C8.73917 6.5874 9.24583 6.08073 9.24583 5.4474C9.24583 4.81406 8.6125 4.3074 8.10583 4.3074H6.20583V6.46073H8.10583V6.5874ZM10.6392 5.57406C10.6392 5.4474 10.6392 5.32073 10.6392 5.19406C10.7658 4.94073 11.2725 4.3074 12.4125 4.3074C13.5525 4.3074 13.9325 4.94073 14.1858 5.19406C14.1858 5.32073 14.3125 5.4474 14.1858 5.57406L13.5525 9.37406H12.7925V10.7674H12.0325V9.37406H11.2725L10.6392 5.57406ZM13.2992 6.5874L13.4258 5.57406C13.2992 5.32073 13.0458 5.0674 12.4125 5.0674C11.7792 5.0674 11.3992 5.4474 11.2725 5.57406L11.3992 6.5874H13.2992Z" fill="white"/>
</svg>
