<svg width="19" height="19" viewBox="0 0 19 19" fill="none" xmlns="http://www.w3.org/2000/svg">
<path d="M9.50044 0.253906C6.46044 0.253906 2.78711 2.15391 2.78711 6.96724C2.78711 9.75391 6.58711 15.7072 8.61378 18.3672C8.99378 18.8739 9.75378 18.8739 10.1338 18.3672C12.0338 15.7072 16.0871 9.88057 16.0871 6.96724C16.2138 2.15391 12.5404 0.253906 9.50044 0.253906Z" fill="#5491F5"/>
<path d="M6.08008 2.28125V11.6546H7.85341V8.23458H10.0067C11.6534 8.23458 13.0467 6.84125 13.0467 5.19458C13.0467 3.54792 11.5267 2.28125 9.88008 2.28125H6.08008ZM7.72674 6.58792V4.05458H9.88008C10.6401 4.05458 11.1467 4.68792 11.1467 5.32125C11.1467 5.95458 10.5134 6.58792 9.88008 6.58792H7.72674Z" fill="white"/>
</svg>
