<svg width="19" height="19" viewBox="0 0 19 19" fill="none" xmlns="http://www.w3.org/2000/svg">
<path d="M9.50044 0.253906C6.46044 0.253906 2.78711 2.15391 2.78711 6.96724C2.78711 9.75391 6.58711 15.7072 8.61378 18.3672C8.99378 18.8739 9.75378 18.8739 10.1338 18.3672C12.0338 15.7072 16.0871 9.88057 16.0871 6.96724C16.2138 2.15391 12.5404 0.253906 9.50044 0.253906Z" fill="#508E49"/>
<path d="M13.8071 5.57234C13.8071 5.06568 13.5538 4.55901 13.0471 4.43234C13.0471 3.92568 12.6671 3.54568 12.1604 3.54568C12.0338 3.54568 12.0338 3.54568 11.9071 3.54568C11.9071 3.03901 11.4004 2.65901 11.0204 2.78568C10.8938 2.78568 10.6404 2.91234 10.5138 3.03901C10.5138 2.53234 10.1338 2.15234 9.62711 2.15234C9.12044 2.15234 8.74044 2.53234 8.74044 3.03901C8.36044 2.65901 7.85378 2.78568 7.47378 3.16568C7.47378 3.29234 7.34711 3.54568 7.34711 3.67234C7.22044 3.67234 7.09378 3.67234 6.96711 3.67234C6.33378 3.54568 5.82711 4.05234 5.82711 4.68568C5.82711 4.81234 5.82711 4.93901 5.95378 5.06568C5.32044 5.31901 5.06711 5.82568 5.19378 6.45901C5.32044 6.83901 5.57378 7.09234 5.95378 7.21901C6.08044 7.72568 6.71378 8.10568 7.34711 7.85234C7.72711 7.72568 7.98044 7.34568 8.10711 6.96568C8.23378 7.09234 8.36044 7.09234 8.61378 7.21901V10.8923L7.34711 11.5257H11.0204L9.75378 10.8923V9.37234C10.2604 8.73901 11.0204 8.23234 11.7804 7.97901C12.4138 8.10568 12.9204 7.72568 13.0471 7.21901C13.0471 7.09234 13.0471 7.09234 13.0471 6.96568V6.83901C13.5538 6.58568 13.8071 6.07901 13.8071 5.57234ZM9.75378 8.86568V6.33234C10.0071 6.71234 10.2604 6.83901 10.7671 6.83901H11.0204C11.0204 7.21901 11.1471 7.59901 11.4004 7.72568C10.7671 7.97901 10.2604 8.35901 9.75378 8.86568Z" fill="white"/>
</svg>
