<svg width="19" height="19" viewBox="0 0 19 19" fill="none" xmlns="http://www.w3.org/2000/svg">
<path d="M9.50044 0.253906C6.46044 0.253906 2.78711 2.15391 2.78711 6.96724C2.78711 9.75391 6.58711 15.7072 8.61378 18.3672C8.99378 18.8739 9.75378 18.8739 10.1338 18.3672C12.0338 15.7072 16.0871 9.88057 16.0871 6.96724C16.2138 2.15391 12.5404 0.253906 9.50044 0.253906Z" fill="#6F6CC1"/>
<path d="M10.894 4.30786L11.654 3.16786H11.7807C12.2873 3.16786 12.6673 2.78786 12.6673 2.2812C12.6673 1.77453 12.2873 1.39453 11.7807 1.39453C11.274 1.39453 10.894 1.77453 10.894 2.2812C10.894 2.2812 10.894 2.2812 10.894 2.40786L9.12065 4.30786H10.894ZM12.6673 5.7012V5.06786H6.33398V5.82786L7.34732 8.3612L6.33398 10.7679V11.5279H12.6673V10.7679L11.9073 8.23453L12.6673 5.7012ZM11.274 8.61453H9.88065V10.0079H9.12065V8.61453H7.72732V7.85453H9.12065V6.4612H9.88065V7.85453H11.274V8.61453Z" fill="white"/>
</svg>
