<svg width="19" height="19" viewBox="0 0 19 19" fill="none" xmlns="http://www.w3.org/2000/svg">
<path d="M9.50044 0.253906C6.46044 0.253906 2.78711 2.15391 2.78711 6.96724C2.78711 9.75391 6.58711 15.7072 8.61378 18.3672C8.99378 18.8739 9.75378 18.8739 10.1338 18.3672C12.0338 15.7072 16.0871 9.88057 16.0871 6.96724C16.2138 2.15391 12.5404 0.253906 9.50044 0.253906Z" fill="#36722E"/>
<path d="M10.8936 8.8651V8.73844C10.8936 8.61177 11.0202 8.61177 11.0202 8.61177H12.1602C12.2869 8.61177 12.2869 8.4851 12.2869 8.4851V8.35844L10.6402 6.5851V6.45844C10.6402 6.33177 10.7669 6.33177 10.7669 6.33177H11.6536C11.7802 6.33177 11.7802 6.2051 11.7802 6.2051V6.07844L10.2602 4.3051V4.17844C10.2602 4.05177 10.3869 4.05177 10.3869 4.05177H11.0202C11.1469 4.05177 11.1469 3.9251 11.1469 3.9251V3.79844L9.6269 1.89844H9.50023H9.37357L7.85357 3.67177V3.79844C7.85357 3.9251 7.98023 3.9251 7.98023 3.9251H8.61357C8.74023 3.9251 8.74023 3.9251 8.8669 4.05177V4.17844L7.22023 5.95177V6.07844C7.22023 6.2051 7.3469 6.2051 7.3469 6.2051H8.23357C8.36023 6.2051 8.36023 6.33177 8.36023 6.33177V6.45844L6.71357 8.23177V8.35844C6.71357 8.4851 6.84023 8.4851 6.84023 8.4851H7.98023C8.1069 8.4851 8.1069 8.61177 8.1069 8.61177V8.73844L6.46023 10.3851C6.33357 10.5118 6.33357 10.6384 6.46023 10.7651H6.5869H9.12023V11.5251H9.88023V10.7651H12.4136C12.5402 10.7651 12.6669 10.6384 12.6669 10.5118V10.3851L10.8936 8.8651Z" fill="white"/>
</svg>
