<svg width="19" height="19" viewBox="0 0 19 19" fill="none" xmlns="http://www.w3.org/2000/svg">
<path d="M9.50044 0.253906C6.46044 0.253906 2.78711 2.15391 2.78711 6.96724C2.78711 9.75391 6.58711 15.7072 8.61378 18.3672C8.99378 18.8739 9.75378 18.8739 10.1338 18.3672C12.0338 15.7072 16.0871 9.88057 16.0871 6.96724C16.2138 2.15391 12.5404 0.253906 9.50044 0.253906Z" fill="#6DBC94"/>
<path d="M7.47336 3.41844C7.09336 3.41844 6.71336 3.03844 6.71336 2.65844C6.71336 2.27844 7.09336 1.89844 7.47336 1.89844C7.85336 1.89844 8.23336 2.27844 8.23336 2.65844C8.23336 3.03844 7.98003 3.41844 7.47336 3.41844ZM13.4267 8.99177H11.5267L10.64 6.5851L9.88003 5.19177L10.64 4.93844L12.4134 5.69844C12.6667 5.8251 12.92 5.69844 12.92 5.4451C13.0467 5.19177 12.92 4.93844 12.6667 4.93844L10.64 4.17844H9.12003L7.47336 4.93844L6.71336 5.8251H5.57336C5.32003 5.8251 5.19336 5.95177 5.19336 6.2051C5.19336 6.45844 5.32003 6.5851 5.57336 6.5851H7.60003L8.36003 5.8251L9.12003 7.3451L7.47336 8.99177V11.7784C7.47336 12.0318 7.60003 12.1584 7.85336 12.1584C8.10669 12.1584 8.23336 12.0318 8.23336 11.7784V9.2451L9.75336 8.1051L10.5134 9.6251H13.3C13.5534 9.6251 13.68 9.49844 13.68 9.2451C13.8067 9.11844 13.68 8.99177 13.4267 8.99177Z" fill="white"/>
</svg>
