<svg width="19" height="19" viewBox="0 0 19 19" fill="none" xmlns="http://www.w3.org/2000/svg">
<path d="M9.50044 0.253906C6.46044 0.253906 2.78711 2.15391 2.78711 6.96724C2.78711 9.75391 6.58711 15.7072 8.61378 18.3672C8.99378 18.8739 9.75378 18.8739 10.1338 18.3672C12.0338 15.7072 16.0871 9.88057 16.0871 6.96724C16.2138 2.15391 12.5404 0.253906 9.50044 0.253906Z" fill="#329340"/>
<path d="M5.70033 3.54627C5.827 3.0396 6.46033 2.6596 6.967 2.78627C7.47366 2.91294 7.85366 3.54627 7.727 4.05294C7.60033 4.5596 7.09366 4.9396 6.46033 4.81294C5.95366 4.68627 5.57366 4.1796 5.70033 3.54627ZM13.3003 11.2729C13.427 11.6529 13.1737 12.0329 12.7937 12.0329C12.5403 12.0329 12.1603 11.9063 12.0337 11.6529L10.8937 9.37294L9.88033 9.62627H9.75366V11.1463L10.1337 11.0196C10.387 11.0196 10.5137 11.1463 10.5137 11.3996C10.5137 11.5263 10.387 11.6529 10.2603 11.7796L6.84033 12.4129H6.71366C6.587 12.4129 6.33366 12.2863 6.33366 12.1596C6.33366 12.0329 6.46033 11.9063 6.587 11.7796L9.50033 11.1463V9.62627L7.22033 10.1329C7.09366 10.1329 6.967 10.1329 6.84033 10.1329C6.71366 10.0063 6.46033 9.8796 6.33366 9.62627L5.70033 6.8396C5.70033 6.71294 5.70033 6.58627 5.70033 6.58627C5.827 6.33293 5.95366 6.0796 6.207 6.0796L9.50033 5.6996V2.78627H9.627V5.6996H9.75366H10.007H10.1337C10.2603 5.6996 10.387 5.95294 10.387 6.0796C10.387 6.20627 10.2603 6.33294 10.007 6.33294H9.627H9.75366V8.3596H9.88033L11.147 8.10627C11.4003 8.10627 11.7803 8.23293 11.7803 8.48627L13.1737 11.2729C13.3003 11.1463 13.3003 11.2729 13.3003 11.2729ZM9.50033 6.33294L7.727 6.4596L8.23366 8.48627L9.50033 8.23293V6.33294Z" fill="white"/>
</svg>
