<svg width="204" height="181" viewBox="0 0 204 181" fill="none" xmlns="http://www.w3.org/2000/svg">
<path d="M200.847 144.913C194.76 161.246 189.604 165.038 183.517 165.038C177.43 165.004 123.974 166.269 98.0286 161.878C72.0828 157.487 38.952 157.953 23.0186 160.015C7.08521 162.044 0 165.004 0 161.113C0 157.221 3.92514 106.26 8.78166 101.737C8.78166 101.737 6.55298 94.6846 22.187 91.5578C26.8439 90.6265 32.898 89.7616 39.6505 89.0963C39.0851 85.6036 38.7857 82.0111 38.7857 78.3521C38.7857 41.5955 68.5901 11.7578 105.38 11.7578C142.137 11.7578 171.974 41.5622 171.974 78.3521C171.974 84.7055 171.076 90.826 169.413 96.6472C176.664 96.8468 182.985 96.7803 185.579 95.9487C190.901 94.219 201.513 95.0173 201.978 97.7449C202.411 100.473 206.935 128.581 200.847 144.913Z" fill="#EC2027"/>
<path d="M130.762 53.5381C130.762 53.5381 161.298 75.2927 165.989 76.2573C170.679 77.222 173.639 85.3384 171.943 87.9995C170.246 90.6606 160.999 89.2635 156.475 84.5733C151.951 79.8831 142.238 81.4465 141.772 85.3384C141.307 89.2302 144.434 94.9849 144.434 94.9849H137.548L124.109 55.0017L130.762 53.5381Z" fill="black"/>
<path d="M68.7913 85.3381C68.7913 85.3381 66.4629 69.5377 53.9557 63.4504C40.8164 57.3632 28.3092 48.016 27.5441 41.8289C26.7791 35.6418 32.9994 34.8768 41.3154 40.0327C49.6314 45.1886 65.9972 50.2114 80.4004 46.9183C77.3734 61.4213 68.7913 85.3381 68.7913 85.3381Z" fill="black"/>
<path d="M128.399 52.1743C128.399 52.1743 131.46 77.5879 135.917 83.4756C140.374 89.3633 139.243 94.9849 139.243 94.9849C139.243 94.9849 112.033 92.0244 93.8049 88.5317C80.9983 87.7666 66.9609 87.1679 66.9609 87.1679L72.8486 48.7148C72.8486 48.7148 93.4057 68.0744 113.431 59.6254C123.11 56.0329 128.399 52.1743 128.399 52.1743Z" fill="white"/>
<path d="M77.9718 25.4295C77.9718 10.1282 87.6183 -0.882184 105.481 0.614691C121.082 1.91198 136.683 10.0616 134.653 25.4295C134.653 25.4295 130.362 46.1862 128.666 47.6831C118.487 51.1425 99.0943 55.8327 87.9842 49.2465C76.8741 42.6602 76.3086 38.0365 76.3086 38.0365" fill="white"/>
<path d="M93.9541 23.8478C94.3821 21.5168 93.8062 19.4577 92.6678 19.2487C91.5294 19.0396 90.2596 20.7598 89.8316 23.0909C89.4036 25.4219 89.9795 27.481 91.1179 27.69C92.2563 27.899 93.5261 26.1788 93.9541 23.8478Z" fill="black"/>
<path d="M122.987 29.2111C123.415 26.8801 122.839 24.821 121.701 24.6119C120.563 24.4029 119.293 26.1231 118.865 28.4541C118.437 30.7851 119.013 32.8443 120.151 33.0533C121.29 33.2623 122.559 31.5421 122.987 29.2111Z" fill="black"/>
<path d="M92.7402 30.752L105.081 26.9932L115.792 35.675L111.568 35.9079C111.568 35.9079 107.642 46.1864 101.356 46.885C98.5281 41.8954 95.4346 35.675 95.3681 32.2489L92.7402 30.752Z" fill="#F3C844"/>
<path d="M98.1292 32.7812L103.651 36.7397L109.372 35.5754L109.206 36.7397L102.919 41.829L96.8984 33.6794L98.1292 32.7812Z" fill="#763F1C"/>
<path d="M111.802 31.517C111.802 31.517 115.361 18.2779 124.841 14.2863C129.598 12.1906 130.795 11.4588 130.795 11.4588C130.795 11.4588 115.128 -7.16893 90.0137 3.07634C94.2714 8.53161 98.5292 10.4277 99.0947 28.8558C105.215 27.991 105.215 27.991 105.215 27.991L111.369 32.781L111.802 31.517Z" fill="black"/>
<path d="M75.2429 35.3086C75.2429 35.3086 90.012 60.9218 130.96 45.7535C132.49 45.5539 132.856 45.7535 132.856 45.7535C132.856 45.7535 133.554 46.4187 134.918 44.689C136.282 42.9925 138.943 43.2254 138.843 45.0216C138.744 46.8179 143.101 47.9821 139.708 53.0715C136.315 58.1609 133.122 53.0715 133.122 53.0715C133.122 53.0715 120.814 63.4831 101.921 64.1484C83.0266 64.8136 71.6504 48.2815 71.6504 48.2815C71.6504 48.2815 72.1493 37.2712 75.2429 35.3086Z" fill="#F0B11D"/>
<path d="M75.2429 35.3086C75.2429 35.3086 90.012 60.9218 130.96 45.7535C132.49 45.5539 132.856 45.7535 132.856 45.7535C132.856 45.7535 133.554 46.4187 134.918 44.689C136.282 42.9925 138.943 43.2254 138.843 45.0216C138.744 46.8179 143.101 47.9821 139.708 53.0715C136.315 58.1609 133.122 53.0715 133.122 53.0715C133.122 53.0715 120.814 63.4831 101.921 64.1484C83.0266 64.8136 71.6504 48.2815 71.6504 48.2815C71.6504 48.2815 72.1493 37.2712 75.2429 35.3086Z" stroke="#F9A01B" stroke-miterlimit="10"/>
<path d="M139.343 52.3733C139.343 52.3733 139.443 52.6394 139.709 52.9055C140.574 53.7371 143.201 54.6685 150.719 48.7808C160.731 40.9305 167.551 39.4669 170.877 38.5023C174.203 37.5709 181.721 35.6749 181.721 35.6749C181.721 35.6749 171.709 24.9971 169.58 24.2986C167.451 23.6001 164.025 25.4961 160 29.8537C155.975 34.2112 151.617 45.3214 139.31 47.8827C127.002 50.444 139.409 52.5729 139.409 52.5729L139.343 52.3733Z" fill="#F0B11D"/>
<path d="M145.23 51.1094C145.23 51.1094 157.637 56.3983 167.018 55.7996C176.431 55.2008 182.153 53.9035 182.153 53.9035V67.9742C182.153 67.9742 175.899 71.5667 163.359 65.679C150.818 59.7912 141.737 52.3401 140.54 52.3401C139.342 52.3401 145.23 51.1094 145.23 51.1094Z" fill="#F0B11D"/>
<path d="M20.7203 175.848L19.8555 167.599L21.2858 167.399L22.1507 175.649L20.7203 175.848Z" fill="#ED1C24"/>
<path d="M90.7754 172.921L92.5717 173.753C92.1392 174.618 91.5405 175.25 90.8087 175.583C90.0769 175.915 89.1788 176.015 88.1808 175.849C86.9168 175.649 85.9189 175.084 85.2536 174.185C84.5551 173.287 84.3222 172.156 84.5218 170.826C84.7547 169.429 85.3201 168.398 86.2848 167.732C87.2162 167.067 88.3804 166.867 89.711 167.067C90.8752 167.267 91.7733 167.699 92.4053 168.431C92.7712 168.863 93.0374 169.429 93.1372 170.161L91.1746 170.26C91.1413 169.795 90.9417 169.429 90.6424 169.096C90.3097 168.797 89.9106 168.597 89.4116 168.497C88.7131 168.398 88.081 168.531 87.5821 168.897C87.0831 169.262 86.7505 169.961 86.5842 170.992C86.4178 172.057 86.5176 172.855 86.8835 173.387C87.2494 173.919 87.7817 174.219 88.4802 174.352C88.9792 174.418 89.4449 174.352 89.8773 174.119C90.1767 173.953 90.5093 173.52 90.7754 172.921Z" fill="#ED1C24"/>
<path d="M41.6454 170.526L43.3751 171.192C43.0092 172.057 42.5103 172.655 41.8117 173.021C41.1464 173.387 40.3148 173.52 39.3169 173.42C38.1194 173.287 37.1548 172.822 36.4562 172.023C35.7577 171.225 35.4583 170.161 35.5914 168.897C35.7244 167.533 36.2234 166.535 37.0882 165.87C37.9531 165.204 39.0176 164.938 40.2816 165.038C41.3793 165.138 42.2774 165.537 42.9094 166.169C43.2753 166.568 43.5414 167.067 43.7078 167.766L41.845 167.965C41.7785 167.533 41.5789 167.167 41.2795 166.901C40.9469 166.635 40.5477 166.468 40.082 166.402C39.4167 166.335 38.8512 166.502 38.3855 166.901C37.9198 167.3 37.6537 167.965 37.5539 168.93C37.4542 169.961 37.5872 170.693 37.9531 171.192C38.319 171.691 38.8512 171.924 39.5165 171.99C40.0155 172.023 40.4479 171.957 40.8138 171.691C41.1464 171.491 41.4458 171.092 41.6454 170.526Z" fill="#ED1C24"/>
<path d="M20.8275 164.348L19.6055 164.495L19.8394 166.444L21.0614 166.297L20.8275 164.348Z" fill="#ED1C24"/>
<path d="M128.729 176.514L130.991 176.88C130.692 177.711 130.226 178.343 129.594 178.776C128.962 179.208 128.164 179.441 127.232 179.441C125.735 179.441 124.638 178.942 123.906 177.978C123.34 177.179 123.041 176.215 123.041 175.017C123.041 173.587 123.407 172.456 124.172 171.657C124.904 170.859 125.868 170.46 126.999 170.46C128.297 170.46 129.295 170.892 130.026 171.724C130.758 172.556 131.124 173.853 131.091 175.616H125.369C125.369 176.281 125.569 176.813 125.935 177.179C126.301 177.545 126.733 177.745 127.266 177.745C127.631 177.745 127.931 177.645 128.164 177.445C128.396 177.246 128.629 176.946 128.729 176.514ZM128.862 174.186C128.862 173.52 128.663 173.021 128.363 172.689C128.031 172.356 127.631 172.156 127.166 172.156C126.667 172.156 126.268 172.323 125.935 172.689C125.602 173.055 125.436 173.553 125.469 174.152H128.862V174.186Z" fill="#ED1C24"/>
<path d="M61.4684 170.261L63.7303 170.726C63.3977 171.558 62.932 172.157 62.2667 172.589C61.6347 172.988 60.8364 173.188 59.8717 173.154C58.3749 173.088 57.2771 172.556 56.6119 171.558C56.0796 170.759 55.8468 169.762 55.8801 168.564C55.9466 167.134 56.3458 166.036 57.1441 165.238C57.9424 164.439 58.8738 164.107 60.038 164.14C61.3353 164.206 62.3 164.639 63.0318 165.537C63.7303 166.402 64.0297 167.732 63.9299 169.462L58.2085 169.229C58.2085 169.895 58.3749 170.427 58.7075 170.826C59.0401 171.225 59.4726 171.425 60.0048 171.458C60.3707 171.458 60.6701 171.391 60.9029 171.192C61.1358 170.992 61.3353 170.693 61.4684 170.261ZM61.7012 167.965C61.7012 167.3 61.5682 166.801 61.2355 166.435C60.9362 166.069 60.537 165.903 60.0713 165.87C59.5724 165.836 59.1399 166.003 58.8073 166.369C58.4746 166.735 58.2751 167.2 58.2751 167.832L61.7012 167.965Z" fill="#ED1C24"/>
<path d="M107.84 177.112L105.346 176.846L106.277 168.464L108.606 168.73L108.473 169.927C108.938 169.395 109.337 169.063 109.67 168.93C110.003 168.797 110.369 168.73 110.768 168.797C111.333 168.863 111.865 169.063 112.364 169.395L111.366 171.258C110.967 170.959 110.601 170.792 110.235 170.759C109.87 170.726 109.57 170.759 109.304 170.925C109.038 171.058 108.805 171.358 108.639 171.79C108.439 172.223 108.273 173.154 108.107 174.584L107.84 177.112Z" fill="#ED1C24"/>
<path d="M145.227 174.519L143.198 174.153C143.431 173.354 143.83 172.756 144.362 172.39C144.894 172.024 145.759 171.824 146.857 171.824C147.855 171.824 148.586 171.924 149.085 172.157C149.584 172.39 149.917 172.689 150.117 173.022C150.316 173.388 150.416 174.02 150.416 174.984L150.383 177.512C150.383 178.244 150.416 178.776 150.483 179.109C150.549 179.442 150.682 179.808 150.882 180.207H148.653C148.587 180.074 148.52 179.841 148.453 179.575C148.42 179.442 148.387 179.375 148.387 179.309C148.021 179.674 147.589 179.941 147.156 180.107C146.724 180.273 146.258 180.373 145.759 180.373C144.894 180.373 144.196 180.14 143.697 179.675C143.198 179.209 142.932 178.643 142.932 177.945C142.932 177.479 143.031 177.08 143.264 176.714C143.497 176.348 143.797 176.082 144.229 175.882C144.628 175.683 145.227 175.517 146.025 175.383C147.056 175.184 147.788 175.018 148.187 174.851V174.618C148.187 174.186 148.088 173.887 147.855 173.72C147.655 173.554 147.256 173.454 146.657 173.454C146.258 173.454 145.959 173.521 145.726 173.687C145.559 173.887 145.36 174.153 145.227 174.519ZM148.221 176.282C147.921 176.381 147.489 176.481 146.857 176.614C146.225 176.747 145.826 176.88 145.626 176.98C145.327 177.18 145.194 177.446 145.194 177.745C145.194 178.045 145.327 178.311 145.559 178.544C145.792 178.776 146.092 178.876 146.458 178.876C146.857 178.876 147.256 178.743 147.622 178.477C147.888 178.277 148.054 178.045 148.154 177.745C148.221 177.546 148.254 177.213 148.254 176.681V176.282H148.221Z" fill="#ED1C24"/>
<path d="M163.289 171.292L165.351 171.159L165.418 172.29C166.083 171.358 166.948 170.859 167.946 170.793C168.478 170.76 168.977 170.826 169.376 171.026C169.776 171.225 170.141 171.525 170.408 171.924C170.74 171.458 171.139 171.092 171.538 170.859C171.938 170.627 172.403 170.46 172.902 170.427C173.534 170.394 174.067 170.46 174.499 170.693C174.931 170.893 175.297 171.259 175.53 171.691C175.696 172.024 175.83 172.589 175.896 173.387L176.262 178.643L174.033 178.809L173.701 174.119C173.634 173.321 173.534 172.789 173.368 172.556C173.135 172.256 172.803 172.123 172.37 172.157C172.071 172.19 171.771 172.29 171.505 172.489C171.239 172.689 171.073 172.988 170.973 173.354C170.873 173.72 170.873 174.286 170.906 175.051L171.206 178.976L168.977 179.142L168.645 174.651C168.578 173.853 168.511 173.354 168.412 173.121C168.312 172.888 168.179 172.722 168.013 172.622C167.846 172.523 167.613 172.489 167.314 172.489C166.981 172.523 166.682 172.622 166.416 172.822C166.15 173.022 165.983 173.288 165.884 173.654C165.784 173.986 165.784 174.585 165.817 175.35L166.116 179.342L163.888 179.508L163.289 171.292Z" fill="#ED1C24"/>
<path d="M99.4256 141.288C98.4609 143.949 97.1636 146.245 95.5337 148.207C93.9038 150.17 91.9744 151.733 89.7458 152.864C87.5171 153.995 84.989 154.66 82.1616 154.86C79.3342 155.059 76.2739 154.694 72.9143 153.795C69.6877 152.931 66.9933 151.8 64.8977 150.369C62.802 148.972 61.2054 147.309 60.1742 145.413C59.143 143.517 58.6108 141.421 58.644 139.06C58.6773 136.698 59.1763 134.17 60.1742 131.409C61.1388 128.748 62.4361 126.453 64.0993 124.457C65.7625 122.461 67.6586 120.931 69.8872 119.8C72.1159 118.669 74.644 118.003 77.4381 117.837C80.2323 117.671 83.3258 118.003 86.6522 118.902C89.9121 119.766 92.6065 120.931 94.7021 122.328C96.831 123.725 98.3944 125.355 99.4256 127.251C100.457 129.147 100.956 131.243 100.922 133.604C100.956 135.966 100.423 138.527 99.4256 141.288ZM88.7146 138.793C89.2801 137.263 89.646 135.8 89.8456 134.436C90.0452 133.072 89.9786 131.808 89.646 130.677C89.3133 129.546 88.6813 128.548 87.7499 127.717C86.8185 126.885 85.488 126.22 83.7915 125.754C82.2614 125.355 80.8643 125.222 79.5338 125.388C78.2032 125.554 77.039 126.02 75.9413 126.719C74.8768 127.45 73.9122 128.382 73.0806 129.579C72.249 130.777 71.5172 132.207 70.9184 133.837C70.3529 135.367 69.987 136.831 69.8207 138.195C69.6544 139.558 69.7209 140.823 70.0203 141.953C70.3529 143.084 70.9849 144.082 71.9163 144.881C72.8477 145.679 74.1783 146.344 75.8747 146.81C77.4381 147.242 78.8685 147.342 80.1658 147.176C81.4963 147.01 82.6606 146.577 83.725 145.845C84.7895 145.147 85.7541 144.182 86.5524 142.985C87.4173 141.887 88.1158 140.457 88.7146 138.793Z" fill="white"/>
<path d="M111.599 153.329C111.533 153.595 111.4 153.795 111.2 153.961C111 154.128 110.668 154.228 110.235 154.261C109.803 154.294 109.237 154.294 108.572 154.228C107.907 154.161 107.042 154.028 106.011 153.795C104.98 153.595 104.148 153.363 103.516 153.163C102.884 152.963 102.352 152.764 101.986 152.531C101.62 152.331 101.387 152.099 101.254 151.866C101.121 151.633 101.088 151.4 101.154 151.134L113.163 99.708C113.229 99.4419 113.362 99.2423 113.562 99.0427C113.761 98.8432 114.094 98.7434 114.526 98.6768C114.959 98.6103 115.524 98.6103 116.19 98.6768C116.855 98.7434 117.72 98.8764 118.751 99.076C119.782 99.2756 120.614 99.5084 121.246 99.708C121.878 99.9076 122.41 100.14 122.776 100.373C123.142 100.606 123.375 100.839 123.508 101.072C123.641 101.305 123.641 101.571 123.607 101.837L111.599 153.329Z" fill="white"/>
<path d="M151.249 155.425C151.183 155.791 150.983 156.024 150.684 156.19C150.385 156.356 149.919 156.423 149.32 156.39C148.721 156.356 147.857 156.257 146.726 156.057C145.495 155.824 144.63 155.625 144.098 155.425C143.565 155.225 143.2 155.026 143 154.76C142.8 154.527 142.767 154.228 142.834 153.862L143.399 151.134C141.603 152.365 139.674 153.23 137.578 153.729C135.482 154.228 133.287 154.261 130.958 153.828C129.029 153.462 127.333 152.93 125.803 152.165C124.272 151.4 123.042 150.435 122.044 149.304C121.046 148.173 120.381 146.843 120.015 145.346C119.649 143.849 119.649 142.186 120.015 140.356C120.414 138.361 121.179 136.731 122.31 135.4C123.441 134.07 124.904 133.105 126.767 132.44C128.63 131.774 130.792 131.442 133.32 131.442C135.848 131.442 138.742 131.708 141.936 132.307L145.462 132.939L145.894 130.876C146.127 129.812 146.193 128.847 146.127 128.016C146.06 127.184 145.827 126.419 145.395 125.787C144.963 125.155 144.364 124.623 143.532 124.223C142.701 123.824 141.636 123.492 140.339 123.259C138.642 122.959 137.079 122.86 135.649 122.959C134.252 123.059 132.954 123.259 131.857 123.492C130.759 123.725 129.794 123.991 129.029 124.223C128.264 124.456 127.665 124.523 127.233 124.456C126.934 124.39 126.701 124.257 126.501 124.057C126.302 123.858 126.168 123.558 126.102 123.192C126.035 122.826 126.002 122.394 126.002 121.895C126.035 121.396 126.102 120.864 126.202 120.265C126.368 119.467 126.568 118.868 126.8 118.436C127.033 118.003 127.366 117.637 127.832 117.338C128.297 117.038 129.029 116.739 130.06 116.473C131.092 116.207 132.289 115.974 133.653 115.841C135.017 115.675 136.447 115.641 138.01 115.675C139.574 115.708 141.137 115.874 142.734 116.174C145.561 116.706 147.956 117.404 149.852 118.303C151.748 119.201 153.245 120.298 154.343 121.629C155.441 122.959 156.073 124.523 156.339 126.319C156.605 128.115 156.472 130.211 155.973 132.573L151.249 155.425ZM144.198 138.993L140.306 138.294C138.642 137.995 137.212 137.862 136.015 137.862C134.817 137.862 133.786 138.061 132.954 138.361C132.123 138.66 131.491 139.159 131.025 139.724C130.559 140.323 130.227 141.022 130.06 141.853C129.761 143.284 130.027 144.481 130.825 145.479C131.624 146.477 132.855 147.109 134.584 147.442C136.015 147.708 137.412 147.608 138.742 147.142C140.073 146.677 141.536 145.878 143.033 144.781L144.198 138.993Z" fill="white"/>
<path d="M191.4 128.315C191.233 129.18 191.034 129.912 190.868 130.444C190.701 130.976 190.502 131.409 190.302 131.708C190.102 132.007 189.87 132.174 189.637 132.274C189.404 132.34 189.105 132.34 188.772 132.274C188.506 132.207 188.206 132.107 187.874 131.974C187.541 131.841 187.209 131.642 186.809 131.475C186.41 131.276 185.978 131.109 185.479 130.91C184.98 130.71 184.448 130.577 183.849 130.444C183.15 130.311 182.419 130.278 181.653 130.311C180.888 130.378 180.09 130.544 179.258 130.843C178.427 131.143 177.495 131.542 176.531 132.107C175.566 132.673 174.502 133.405 173.337 134.269L169.213 154.66C169.179 154.893 169.013 155.093 168.78 155.226C168.547 155.359 168.182 155.459 167.649 155.459C167.15 155.492 166.485 155.459 165.654 155.325C164.822 155.192 163.791 155.059 162.56 154.793C161.329 154.527 160.298 154.294 159.5 154.061C158.701 153.829 158.069 153.629 157.604 153.396C157.138 153.163 156.839 152.964 156.672 152.731C156.506 152.498 156.439 152.265 156.506 152.032L163.125 119.334C163.159 119.101 163.292 118.902 163.491 118.735C163.691 118.602 164.024 118.502 164.489 118.469C164.955 118.436 165.52 118.469 166.252 118.536C166.984 118.602 167.816 118.768 168.88 118.968C169.945 119.201 170.843 119.4 171.541 119.6C172.24 119.8 172.772 119.999 173.138 120.199C173.504 120.398 173.737 120.598 173.87 120.831C174.003 121.064 174.036 121.263 174.003 121.529L173.171 125.588C174.602 124.59 175.899 123.825 177.13 123.226C178.36 122.627 179.458 122.228 180.489 121.929C181.52 121.662 182.518 121.529 183.516 121.529C184.481 121.529 185.446 121.629 186.41 121.829C186.843 121.929 187.308 122.028 187.807 122.161C188.306 122.294 188.805 122.461 189.337 122.66C189.87 122.86 190.302 123.06 190.701 123.226C191.067 123.425 191.366 123.592 191.5 123.758C191.666 123.924 191.766 124.091 191.832 124.257C191.899 124.423 191.932 124.623 191.932 124.922C191.932 125.188 191.932 125.588 191.865 126.12C191.699 126.752 191.566 127.45 191.4 128.315Z" fill="white"/>
<path d="M197.521 112.748C197.521 112.781 197.521 112.781 197.521 112.781L197.487 112.814C197.454 112.814 197.421 112.814 197.387 112.847C197.354 112.881 197.288 112.847 197.221 112.847C197.155 112.847 197.121 112.847 197.088 112.847C197.055 112.847 197.022 112.847 196.988 112.814C196.955 112.814 196.955 112.781 196.955 112.781C196.955 112.781 196.922 112.748 196.922 112.714L196.556 111.75C196.523 111.65 196.456 111.55 196.423 111.45C196.39 111.35 196.323 111.284 196.257 111.217C196.19 111.151 196.123 111.084 196.024 111.051C195.924 111.018 195.824 110.985 195.691 110.985H195.325V112.714C195.325 112.748 195.325 112.748 195.325 112.748L195.292 112.781C195.259 112.781 195.259 112.781 195.225 112.814C195.192 112.814 195.159 112.814 195.092 112.814C195.026 112.814 194.992 112.814 194.959 112.814C194.926 112.814 194.893 112.814 194.859 112.781C194.826 112.781 194.826 112.748 194.826 112.748V112.714V108.955C194.826 108.889 194.859 108.822 194.893 108.789C194.926 108.756 194.993 108.756 195.026 108.756H195.891C195.99 108.756 196.09 108.756 196.157 108.756C196.223 108.756 196.29 108.756 196.356 108.789C196.523 108.822 196.656 108.856 196.789 108.922C196.922 108.989 197.022 109.055 197.088 109.155C197.155 109.255 197.221 109.355 197.288 109.454C197.321 109.554 197.354 109.687 197.354 109.854C197.354 109.987 197.321 110.12 197.288 110.219C197.254 110.319 197.188 110.419 197.121 110.519C197.055 110.619 196.955 110.685 196.889 110.718C196.789 110.785 196.689 110.818 196.556 110.885C196.622 110.918 196.689 110.951 196.722 110.985C196.755 111.018 196.822 111.084 196.889 111.151C196.955 111.217 196.988 111.284 197.022 111.384C197.055 111.45 197.121 111.55 197.155 111.65L197.521 112.548C197.554 112.614 197.554 112.681 197.587 112.714C197.521 112.714 197.521 112.714 197.521 112.748ZM196.689 109.887C196.689 109.721 196.656 109.587 196.589 109.488C196.523 109.388 196.39 109.288 196.223 109.255C196.157 109.255 196.123 109.222 196.057 109.222C195.99 109.222 195.891 109.222 195.791 109.222H195.325V110.585H195.857C195.99 110.585 196.123 110.552 196.223 110.519C196.323 110.486 196.423 110.452 196.489 110.386C196.556 110.319 196.622 110.253 196.656 110.153C196.689 110.086 196.689 109.987 196.689 109.887Z" fill="#ED1C24"/>
<path d="M196.155 114.577C198.25 114.577 199.947 112.88 199.947 110.785C199.947 108.691 198.25 106.993 196.155 106.993C194.061 106.993 192.363 108.691 192.363 110.785C192.363 112.88 194.061 114.577 196.155 114.577Z" stroke="#ED1C24" stroke-width="0.35" stroke-miterlimit="10"/>
<path d="M56.1483 101.171C50.1608 97.9113 35.059 98.8095 29.3709 99.3084C29.0715 99.2751 28.8054 99.2419 28.5393 99.2086C27.874 99.1421 27.3085 99.1421 26.8761 99.2086C26.4437 99.2751 26.111 99.3749 25.9115 99.5745C25.7119 99.7408 25.5456 99.9737 25.5123 100.24L13.4708 151.632C13.4042 151.899 13.4375 152.131 13.5706 152.364C13.7036 152.597 13.9365 152.797 14.3024 153.03C14.6683 153.262 15.2005 153.462 15.8325 153.662C16.4978 153.861 17.3294 154.061 18.3273 154.294C19.3252 154.526 20.1901 154.66 20.8886 154.726C21.5539 154.793 22.1194 154.793 22.5518 154.759C22.9842 154.726 23.3169 154.593 23.5165 154.427C23.716 154.26 23.8824 154.061 23.9156 153.795L28.7721 132.971C33.2295 133.138 43.7742 133.47 47.7326 132.905C52.8219 132.173 59.1753 126.319 61.8697 119.633C64.5641 112.913 63.5662 105.263 56.1483 101.171ZM49.0631 116.872C46.2357 123.225 43.0091 124.955 40.7471 125.088C39.3168 125.154 34.2274 124.988 30.6682 124.855L34.7929 107.192C37.2877 107.159 41.3126 107.125 43.6744 107.225C47.3334 107.358 51.8905 110.518 49.0631 116.872Z" fill="white"/>
</svg>
