<svg width="19" height="19" viewBox="0 0 19 19" fill="none" xmlns="http://www.w3.org/2000/svg">
<path d="M9.50044 0.253906C6.46044 0.253906 2.78711 2.15391 2.78711 6.96724C2.78711 9.75391 6.58711 15.7072 8.61378 18.3672C8.99378 18.8739 9.75378 18.8739 10.1338 18.3672C12.0338 15.7072 16.0871 9.88057 16.0871 6.96724C16.2138 2.15391 12.5404 0.253906 9.50044 0.253906Z" fill="#336F91"/>
<path d="M8.7406 1.77344L9.1206 2.53344H12.7939L13.1739 1.77344H8.7406ZM9.1206 2.91344V3.8001C9.1206 3.8001 9.1206 5.82677 11.0206 5.82677C12.9206 5.82677 12.7939 3.8001 12.7939 3.8001V2.91344H9.1206ZM6.20727 4.05344C5.82727 4.05344 5.44727 4.43344 5.44727 4.81344V7.72677C5.44727 8.23344 5.82727 8.48677 6.33393 8.48677L8.3606 7.9801V11.4001L12.6673 6.33344C12.5406 6.33344 12.4139 6.33344 12.2873 6.33344H9.5006L6.96727 6.8401V4.81344C6.96727 4.30677 6.58727 4.05344 6.20727 4.05344ZM13.4273 6.71344L9.37393 11.4001H13.5539V7.34677C13.5539 7.09344 13.4273 6.96677 13.4273 6.71344Z" fill="white"/>
</svg>
