<svg width="19" height="19" viewBox="0 0 19 19" fill="none" xmlns="http://www.w3.org/2000/svg">
<path d="M9.50044 0.253906C6.46044 0.253906 2.78711 2.15391 2.78711 6.96724C2.78711 9.75391 6.58711 15.7072 8.61378 18.3672C8.99378 18.8739 9.75378 18.8739 10.1338 18.3672C12.0338 15.7072 16.0871 9.88057 16.0871 6.96724C16.2138 2.15391 12.5404 0.253906 9.50044 0.253906Z" fill="#8E5833"/>
<path d="M9.50055 1.64844C6.84055 1.64844 4.56055 3.80177 4.56055 6.58844C4.56055 9.3751 6.71388 11.5284 9.50055 11.5284C12.2872 11.5284 14.4405 9.3751 14.4405 6.58844C14.4405 3.80177 12.1605 1.64844 9.50055 1.64844ZM11.4005 3.80177L9.50055 5.82844L7.60055 3.80177C8.74055 3.04177 10.2605 3.04177 11.4005 3.80177ZM6.71388 4.68844L8.61388 6.58844L6.71388 8.48844C5.95388 7.34844 5.95388 5.82844 6.71388 4.68844ZM7.60055 9.3751L9.50055 7.4751L11.4005 9.3751C10.2605 10.1351 8.74055 10.1351 7.60055 9.3751ZM12.2872 8.48844L10.2605 6.58844L12.1605 4.68844C13.0472 5.82844 13.0472 7.34844 12.2872 8.48844Z" fill="white"/>
</svg>
