<svg width="19" height="19" viewBox="0 0 19 19" fill="none" xmlns="http://www.w3.org/2000/svg">
<path d="M9.50044 0.253906C6.46044 0.253906 2.78711 2.15391 2.78711 6.96724C2.78711 9.75391 6.58711 15.7072 8.61378 18.3672C8.99378 18.8739 9.75378 18.8739 10.1338 18.3672C12.0338 15.7072 16.0871 9.88057 16.0871 6.96724C16.2138 2.15391 12.5404 0.253906 9.50044 0.253906Z" fill="#9B78A3"/>
<path d="M4.56055 3.29516C4.56055 3.04182 4.68721 2.91516 4.81388 2.66182C4.94055 2.66182 5.19388 2.53516 5.44721 2.53516H13.6805C13.9339 2.53516 14.0605 2.66182 14.3139 2.78849C14.4405 2.91516 14.5672 3.16849 14.5672 3.42182C14.5672 3.67516 14.3139 3.80182 14.1872 3.92849C14.0605 4.05516 13.8072 4.18182 13.5539 4.18182H5.44721C5.19388 4.18182 5.06721 4.05516 4.81388 3.92849C4.68721 3.80182 4.56055 3.54849 4.56055 3.29516ZM13.5539 5.44849H5.44721C5.19388 5.44849 5.06721 5.57516 4.81388 5.70182C4.68721 5.82849 4.56055 5.95516 4.56055 6.20849C4.56055 6.46182 4.68721 6.58849 4.81388 6.84182C4.94055 6.96849 5.19388 7.09516 5.44721 7.09516H8.74055V10.7685C8.74055 11.0218 8.86721 11.1485 8.99388 11.4018C9.12055 11.5285 9.37388 11.6552 9.62721 11.6552C9.88055 11.6552 9.88055 11.5285 10.1339 11.2752C10.2605 11.1485 10.3872 10.8952 10.3872 10.6418V7.09516H13.6805C13.9339 7.09516 14.0605 6.96849 14.3139 6.84182C14.4405 6.71516 14.5672 6.46182 14.5672 6.20849C14.5672 5.95516 14.4405 5.82849 14.3139 5.57516C14.0605 5.44849 13.8072 5.44849 13.5539 5.44849Z" fill="white"/>
</svg>
