<svg width="21" height="21" viewBox="0 0 21 21" fill="none" xmlns="http://www.w3.org/2000/svg">
<g clip-path="url(#clip0_201_16)">
<path d="M14.3886 4.89647C14.3144 4.82226 14.2141 4.73691 14.1622 4.70351C14.073 4.64414 14.0953 4.64043 14.6819 4.63672C15.2574 4.63672 15.3057 4.64043 15.4802 4.72578C15.599 4.78515 15.7067 4.87421 15.7772 4.9744C15.8626 5.09314 15.8923 5.1822 15.9034 5.33806C15.9109 5.49391 15.896 5.58297 15.844 5.69429C15.8032 5.77593 15.7067 5.89838 15.6324 5.96518C15.5581 6.02826 15.4356 6.10247 15.3614 6.12103C15.2834 6.14329 14.9604 6.15443 14.0693 6.13958L14.2364 6.02826C14.3255 5.96518 14.4369 5.85756 14.4852 5.78706C14.5334 5.71655 14.5817 5.59039 14.5928 5.50875C14.604 5.42711 14.5928 5.2861 14.5706 5.19333C14.5409 5.08943 14.474 4.97811 14.3886 4.89647Z" fill="#444444"/>
<path d="M14.4971 18.2928L14.8238 18.2817H14.8201C15.002 18.2742 15.2879 18.2668 15.4624 18.2705C15.6963 18.2742 15.8077 18.2928 15.8819 18.341C15.9376 18.3744 16.0119 18.4486 16.0453 18.5043C16.0973 18.5822 16.1158 18.7047 16.1233 19.072C16.1307 19.3875 16.1196 19.5841 16.0861 19.6843C16.0564 19.7771 15.9933 19.8587 15.9079 19.9144C15.7854 19.996 15.7483 20.0034 14.4414 19.9997L14.5602 19.9255C14.627 19.8847 14.7087 19.7956 14.7421 19.7326C14.7904 19.6324 14.7978 19.5099 14.7756 18.5451L14.4971 18.2928Z" fill="#838383"/>
<path d="M10.3685 1.09648C10.2905 1.08535 10.2274 1.05566 10.2274 1.03711C10.2274 1.01484 10.4242 1 10.7472 1C11.1259 1 11.3709 1.02226 11.6494 1.07793C11.8573 1.11874 12.1952 1.21894 12.3994 1.29686C12.6036 1.3785 12.9303 1.54548 13.1234 1.67165C13.3164 1.79782 13.6171 2.03531 13.7842 2.20229C13.955 2.36556 14.1741 2.61048 14.2706 2.74406C14.3671 2.87765 14.5008 3.07803 14.5639 3.18936C14.627 3.30068 14.731 3.51962 14.7941 3.67176C14.8572 3.8239 14.9426 4.08365 14.9834 4.24693C15.0206 4.4102 15.054 4.56605 15.054 4.58832C15.054 4.62543 14.9018 4.63285 13.7434 4.618L13.6914 4.35825C13.6617 4.21724 13.58 3.95007 13.5095 3.76453C13.4389 3.57899 13.3127 3.31552 13.2273 3.1708C13.1419 3.02608 12.9971 2.81086 12.9043 2.6884C12.8115 2.56595 12.6258 2.35814 12.4922 2.22827C12.3585 2.09839 12.1358 1.90914 11.991 1.80524C11.8462 1.70505 11.59 1.55291 11.4155 1.46385C11.241 1.3785 10.9663 1.26346 10.8029 1.21151C10.6395 1.15956 10.4428 1.10761 10.3685 1.09648Z" fill="#E94444"/>
<path d="M6.45899 18.2737L6.44786 12.4106L6.44043 6.54761L13.5392 6.58471L13.7916 6.86302V18.2922L6.45899 18.2737Z" fill="#E94444"/>
<path d="M6.4588 6.54979L6.44766 6.35683L6.43652 6.16016H15.128V18.2944H13.7915V6.8652L13.539 6.5869L6.4588 6.54979Z" fill="#D83131"/>
<path d="M5.60829 18.3964C5.64913 18.3593 5.72709 18.3148 5.79021 18.2925C5.85333 18.274 6.09465 18.2628 6.34712 18.274C6.59216 18.2851 8.52649 18.2925 14.4966 18.2925L14.775 18.5449L14.7899 19.0792C14.7973 19.5097 14.7899 19.6321 14.7416 19.7323C14.7082 19.7954 14.6265 19.8844 14.5634 19.9253C14.4446 19.9995 14.3741 19.9995 10.1155 19.9995C5.85704 19.9995 5.7865 19.9995 5.6714 19.9253C5.60457 19.8844 5.52289 19.7917 5.49319 19.7212C5.45235 19.6284 5.4375 19.4577 5.4375 19.146C5.4375 18.8529 5.45606 18.6599 5.48948 18.582C5.51547 18.5152 5.57116 18.4298 5.60829 18.3964Z" fill="#9C9C9C"/>
<path d="M9.07608 1.33943C9.2283 1.27635 9.50676 1.17987 9.68868 1.13163C9.89288 1.07597 10.0822 1.04999 10.1713 1.06112C10.253 1.06855 10.4721 1.1205 10.654 1.17245C10.8359 1.2244 11.1478 1.34314 11.3408 1.43591C11.5339 1.52868 11.8161 1.69196 11.9683 1.79586C12.1205 1.90347 12.3544 2.09643 12.4881 2.23002C12.6255 2.36361 12.8111 2.57141 12.9039 2.69386C12.9967 2.81632 13.1415 3.03526 13.2269 3.17627C13.3123 3.32099 13.4385 3.58445 13.5091 3.76999C13.5796 3.95553 13.6613 4.2227 13.743 4.62347L10.1379 4.63089C8.15532 4.6346 6.52543 4.63089 6.51429 4.61976C6.50315 4.61234 6.52914 4.4639 6.5737 4.29692C6.61825 4.12993 6.70735 3.85163 6.7779 3.67722C6.84844 3.50281 6.99695 3.21337 7.10833 3.03155C7.21971 2.84972 7.44619 2.55657 7.61326 2.38216C7.78033 2.20775 8.0031 1.99253 8.11448 1.90718C8.22586 1.82183 8.42264 1.68824 8.5563 1.60661C8.68995 1.52497 8.92386 1.40623 9.07608 1.33943Z" fill="#EE6161"/>
<path d="M5.9052 4.84823C5.9646 4.79257 6.0797 4.72207 6.16138 4.69238C6.28761 4.64785 6.88907 4.64043 14.0695 4.63672L14.244 4.7666C14.3442 4.8371 14.4556 4.95213 14.4965 5.01522C14.5373 5.08201 14.5781 5.20447 14.593 5.2861C14.6041 5.36774 14.5967 5.50133 14.5744 5.58297C14.5559 5.6646 14.5002 5.77964 14.4519 5.83901C14.4036 5.89838 14.296 5.99486 14.0509 6.15814H10.2008C7.76528 6.15814 6.29503 6.14329 6.20964 6.12103C6.13167 6.09876 6.00915 6.02826 5.93119 5.96518C5.85693 5.89838 5.76783 5.77593 5.7307 5.69429C5.69357 5.61265 5.66016 5.47906 5.66016 5.39743C5.66016 5.31579 5.69357 5.1822 5.7307 5.10057C5.76783 5.01893 5.84579 4.90761 5.9052 4.84823Z" fill="#5A5A5A"/>
<path d="M7.95874 8.59253C7.95874 7.76132 7.96616 7.64257 8.01814 7.59062C8.07383 7.53867 8.37456 7.53125 10.7878 7.53125C13.1454 7.53125 13.5018 7.53867 13.5501 7.58691C13.5983 7.63515 13.6058 7.79843 13.6058 8.58882C13.6058 9.40148 13.5983 9.54249 13.5464 9.59073C13.4981 9.63897 13.138 9.64639 10.7804 9.64639C8.42283 9.64639 8.06641 9.63897 8.01814 9.59073C7.96988 9.54249 7.96245 9.37922 7.95874 8.59253Z" fill="#EE6161"/>
<path d="M7.9587 14.0882C7.95498 11.9693 7.96612 11.1047 7.99582 11.0528C8.03666 10.9823 8.10721 10.9823 10.7841 10.9823C13.4944 10.9823 13.5315 10.9823 13.5686 11.0565C13.5909 11.1047 13.6058 12.192 13.6058 14.0919C13.6058 16.3666 13.5983 17.0605 13.5612 17.0976C13.5278 17.131 12.9226 17.1422 10.7878 17.1422C8.6307 17.1422 8.04409 17.1347 8.00696 17.0976C7.96984 17.0605 7.96241 16.426 7.9587 14.0882Z" fill="#EE6161"/>
<path d="M9.11316 8.59178C9.11687 8.53983 9.15771 8.45448 9.20598 8.40624L9.29508 8.31347H10.7356C12.1094 8.30976 12.1799 8.31347 12.269 8.38397C12.3395 8.43593 12.3618 8.49159 12.3618 8.59178C12.3618 8.69197 12.3395 8.74763 12.269 8.79958C12.1799 8.87009 12.1094 8.8738 9.2988 8.87009L9.20598 8.77732C9.154 8.72537 9.11316 8.64373 9.11316 8.59178Z" fill="#A72B2B"/>
<path d="M8.84958 14.0169C8.84586 13.2933 8.84958 13.2562 8.92754 13.1635C8.98324 13.0967 9.04264 13.0633 9.12432 13.0633C9.19115 13.0633 9.28397 13.0929 9.42876 13.208L9.4399 13.9798C9.44733 14.5513 9.43619 14.7776 9.40277 14.8444C9.37679 14.8964 9.31367 14.9595 9.26169 14.9892C9.18001 15.0374 9.15402 15.0374 9.04264 14.9929C8.9721 14.9632 8.90156 14.9001 8.8867 14.8556C8.86814 14.811 8.85329 14.4325 8.84958 14.0169Z" fill="#A72B2B"/>
</g>
<defs>
<clipPath id="clip0_201_16">
<rect width="21" height="21" fill="white"/>
</clipPath>
</defs>
</svg>
