<svg width="19" height="19" viewBox="0 0 19 19" fill="none" xmlns="http://www.w3.org/2000/svg">
<path d="M9.50044 0.253906C6.46044 0.253906 2.78711 2.15391 2.78711 6.96724C2.78711 9.75391 6.58711 15.7072 8.61378 18.3672C8.99378 18.8739 9.75378 18.8739 10.1338 18.3672C12.0338 15.7072 16.0871 9.88057 16.0871 6.96724C16.2138 2.15391 12.5404 0.253906 9.50044 0.253906Z" fill="#7F348C"/>
<path d="M14.3142 3.29182C14.3142 3.41849 14.1875 3.67182 14.0608 3.67182L9.50083 6.71182L4.94083 3.67182C4.81417 3.54516 4.6875 3.41849 4.6875 3.29182C4.6875 3.03849 4.94083 2.78516 5.19417 2.78516H13.8075C14.0608 2.78516 14.3142 2.91182 14.3142 3.29182ZM14.3142 5.06516V9.11849C14.3142 9.49849 13.9342 9.87849 13.5542 9.87849H5.4475C5.0675 9.87849 4.6875 9.62516 4.6875 9.11849V5.06516C4.6875 4.93849 4.81417 4.81182 4.94083 4.93849L9.37417 7.97849L13.9342 4.93849C14.1875 4.81182 14.3142 4.93849 14.3142 5.06516Z" fill="white"/>
</svg>
