<svg width="21" height="21" viewBox="0 0 21 21" fill="none" xmlns="http://www.w3.org/2000/svg">
<rect width="21" height="21" rx="3" fill="white"/>
<path d="M19.3203 9.96037C19.0589 9.77215 18.787 9.22839 18.787 9.22839C18.6929 9.082 18.5047 8.51733 18.5047 8.51733C18.3897 8.13043 18.191 7.7749 18.191 7.7749C18.0132 7.40891 17.8982 7.29389 17.8982 7.29389C17.6472 6.95927 17.2603 6.81287 17.2603 6.81287C16.9571 6.67693 16.5074 6.68739 16.5074 6.68739C16.2565 6.68739 16.0473 6.73968 16.0473 6.73968C16.0892 6.33186 15.9428 5.98679 15.9428 5.98679C15.7964 5.6208 15.5559 5.40121 15.5559 5.40121C15.284 5.11887 14.7298 4.95156 14.7298 4.95156C14.4579 4.847 14.0605 4.79471 14.0605 4.79471C13.9141 4.79471 13.7155 4.75288 13.7155 4.75288C13.3599 4.66923 13.1926 4.51238 13.1926 4.51238C13.0462 4.40781 12.973 4.13593 12.973 4.13593C12.9312 4.42872 12.7221 4.53329 12.7221 4.53329C12.5652 4.63786 12.2515 4.69014 12.2515 4.69014C12.1051 4.71106 11.8019 4.71106 11.8019 4.71106C11.6032 4.71106 11.1117 4.78425 11.1117 4.78425C10.6412 4.847 10.4739 5.15024 10.4739 5.15024C10.2752 4.7738 9.6164 4.74243 9.6164 4.74243C9.43864 4.72151 8.92625 4.69014 8.92625 4.69014C8.57072 4.69014 8.36159 4.57512 8.36159 4.57512C7.9956 4.40781 7.97468 4.14639 7.97468 4.14639C7.89103 4.47055 7.65052 4.59603 7.65052 4.59603C7.42047 4.74243 7.09631 4.78425 7.09631 4.78425C6.89763 4.80517 6.42708 4.89928 6.42708 4.89928C6.06109 4.96202 5.73693 5.15024 5.73693 5.15024C5.47551 5.28618 5.235 5.56851 5.235 5.56851C5.06769 5.74628 4.98404 6.05998 4.98404 6.05998C4.87947 6.33186 4.91084 6.73968 4.91084 6.73968C4.83764 6.72922 4.6076 6.69785 4.6076 6.69785C4.21024 6.63511 3.79197 6.79196 3.79197 6.79196C3.37369 6.9279 3.12273 7.22069 3.12273 7.22069C2.94496 7.39845 2.74629 7.78535 2.74629 7.78535C2.57898 8.10952 2.48487 8.40231 2.48487 8.40231C2.41167 8.64281 2.34893 8.82058 2.34893 8.82058C2.20253 9.21794 2.05614 9.44799 2.05614 9.44799C1.9202 9.71986 1.66924 9.93946 1.66924 9.93946C1.40782 10.2009 1 10.3577 1 10.3577C1.3137 10.4937 1.47056 10.6191 1.54375 10.6819C1.87837 10.9747 2.11888 11.4348 2.11888 11.4348C2.27573 11.6857 2.40121 12.0831 2.40121 12.0831C2.43258 12.1563 2.56852 12.5537 2.56852 12.5537C2.58943 12.6582 2.86131 13.1601 2.86131 13.1601C3.01816 13.4634 3.26913 13.6516 3.26913 13.6516C3.75014 14.0699 4.41937 14.049 4.41937 14.049C4.69125 14.0699 4.90039 13.9967 4.90039 13.9967C4.86901 14.6555 5.11998 15.0005 5.11998 15.0005C5.3082 15.3456 5.7683 15.5861 5.7683 15.5861C6.13429 15.8057 6.80352 15.9103 6.80352 15.9103C7.03357 15.9207 7.32636 15.9939 7.32636 15.9939C7.90149 16.1612 7.96423 16.59 7.96423 16.59C8.03742 16.2867 8.36159 16.1403 8.36159 16.1403C8.60209 16.0149 8.98899 16.0253 8.98899 16.0253C9.21904 16.0149 9.60594 15.9939 9.60594 15.9939C10.3275 15.9312 10.4739 15.5861 10.4739 15.5861C10.5784 15.8998 11.2999 15.9939 11.2999 15.9939C11.53 16.0253 12.2201 16.0462 12.2201 16.0462C12.9207 16.1194 12.9939 16.59 12.9939 16.59C13.0671 16.1194 13.705 15.973 13.705 15.973C13.956 15.9207 14.1547 15.8998 14.1547 15.8998C14.8448 15.8162 15.2526 15.5548 15.2526 15.5548C15.7336 15.2724 15.9009 14.8751 15.9009 14.8751C16.1101 14.4882 16.0682 13.9967 16.0682 13.9967C16.2146 14.0385 16.5283 14.0385 16.5283 14.0385C16.9048 14.0699 17.2289 13.934 17.2289 13.934C17.7413 13.7457 18.0028 13.3275 18.0028 13.3275C18.2223 13.0451 18.4001 12.5746 18.4001 12.5746C18.4524 12.47 18.6302 11.9367 18.6302 11.9367C18.6929 11.6857 18.8707 11.393 18.8707 11.393C19.0589 11.0165 19.3412 10.7655 19.3412 10.7655C19.6654 10.4518 20.0209 10.3682 20.0209 10.3682C19.6549 10.2532 19.3203 9.96037 19.3203 9.96037Z" fill="#231F20"/>
<path d="M19.3099 9.82444C19.0484 9.63621 18.7766 9.09246 18.7766 9.09246C18.6824 8.94606 18.4942 8.3814 18.4942 8.3814C18.3792 7.9945 18.1805 7.63897 18.1805 7.63897C18.0028 7.27298 17.8877 7.15795 17.8877 7.15795C17.6368 6.82334 17.2499 6.67694 17.2499 6.67694C16.9466 6.541 16.497 6.55146 16.497 6.55146C16.246 6.55146 16.0369 6.60374 16.0369 6.60374C16.0787 6.18547 15.9323 5.85085 15.9323 5.85085C15.7859 5.48487 15.5454 5.26527 15.5454 5.26527C15.2735 4.98294 14.7193 4.81563 14.7193 4.81563C14.4474 4.71106 14.0501 4.65878 14.0501 4.65878C13.9037 4.65878 13.705 4.61695 13.705 4.61695C13.3495 4.5333 13.1822 4.37644 13.1822 4.37644C13.0358 4.27188 12.9626 4 12.9626 4C12.9207 4.29279 12.7116 4.39736 12.7116 4.39736C12.5548 4.50193 12.2411 4.55421 12.2411 4.55421C12.0947 4.57512 11.7914 4.57512 11.7914 4.57512C11.5927 4.57512 11.1013 4.64832 11.1013 4.64832C10.6307 4.71106 10.4634 5.01431 10.4634 5.01431C10.2647 4.65878 9.60594 4.62741 9.60594 4.62741C9.42818 4.60649 8.9158 4.57512 8.9158 4.57512C8.56026 4.57512 8.35113 4.4601 8.35113 4.4601C7.98514 4.28233 7.96423 4.01046 7.96423 4.01046C7.88057 4.33462 7.64007 4.4601 7.64007 4.4601C7.41002 4.60649 7.08586 4.64832 7.08586 4.64832C6.88718 4.66923 6.41662 4.76335 6.41662 4.76335C6.05063 4.82609 5.72647 5.01431 5.72647 5.01431C5.46505 5.15025 5.22455 5.43258 5.22455 5.43258C5.05724 5.61035 4.97358 5.92405 4.97358 5.92405C4.86901 6.19593 4.90039 6.60374 4.90039 6.60374C4.82719 6.59329 4.59714 6.56192 4.59714 6.56192C4.19978 6.49917 3.78151 6.65603 3.78151 6.65603C3.36324 6.79196 3.11227 7.08476 3.11227 7.08476C2.93451 7.26252 2.73583 7.64942 2.73583 7.64942C2.56852 7.97358 2.47441 8.26637 2.47441 8.26637C2.40121 8.50688 2.33847 8.68465 2.33847 8.68465C2.19207 9.082 2.04568 9.31205 2.04568 9.31205C1.90974 9.58393 1.65878 9.80352 1.65878 9.80352C1.40782 10.0649 1 10.2218 1 10.2218C1.3137 10.3577 1.47056 10.4832 1.54375 10.546C1.87837 10.8387 2.11888 11.2988 2.11888 11.2988C2.27573 11.5498 2.40121 11.9472 2.40121 11.9472C2.42212 12.0204 2.56852 12.4177 2.56852 12.4177C2.58943 12.5223 2.86131 13.0242 2.86131 13.0242C3.01816 13.3275 3.26913 13.5157 3.26913 13.5157C3.75014 13.934 4.41937 13.913 4.41937 13.913C4.69125 13.934 4.90039 13.8608 4.90039 13.8608C4.86901 14.5195 5.11998 14.8646 5.11998 14.8646C5.3082 15.2097 5.7683 15.4502 5.7683 15.4502C6.13429 15.6802 6.80352 15.7744 6.80352 15.7744C7.03357 15.7848 7.32636 15.858 7.32636 15.858C7.90149 16.0253 7.96423 16.454 7.96423 16.454C8.03742 16.1508 8.36159 16.0044 8.36159 16.0044C8.60209 15.8789 8.98899 15.8894 8.98899 15.8894C9.21904 15.8789 9.60594 15.858 9.60594 15.858C10.3275 15.7953 10.4739 15.4502 10.4739 15.4502C10.5784 15.7639 11.2999 15.858 11.2999 15.858C11.53 15.8894 12.2201 15.9103 12.2201 15.9103C12.9207 15.9835 12.9939 16.454 12.9939 16.454C13.0671 15.9835 13.705 15.8371 13.705 15.8371C13.956 15.7848 14.1547 15.7639 14.1547 15.7639C14.8448 15.6802 15.2526 15.4188 15.2526 15.4188C15.7232 15.1365 15.9009 14.7391 15.9009 14.7391C16.1101 14.3522 16.0682 13.8608 16.0682 13.8608C16.2146 13.9026 16.5283 13.9026 16.5283 13.9026C16.9048 13.934 17.2289 13.798 17.2289 13.798C17.7413 13.6098 18.0028 13.1915 18.0028 13.1915C18.2223 12.9092 18.4001 12.4386 18.4001 12.4386C18.4524 12.3341 18.6302 11.8008 18.6302 11.8008C18.6929 11.5498 18.8602 11.257 18.8602 11.257C19.0484 10.8806 19.3308 10.6296 19.3308 10.6296C19.6549 10.3159 20.0105 10.2323 20.0105 10.2323C19.6549 10.1172 19.3099 9.82444 19.3099 9.82444Z" fill="#FFF200"/>
<path d="M18.191 11.0688C18.191 11.0688 17.9714 11.3198 17.5636 12.1981C17.5636 12.1981 17.4277 12.5223 17.2813 12.7419C17.2813 12.7419 16.8107 13.5993 15.7337 13.5052C15.7337 13.5052 15.7337 14.4254 14.8762 14.8646C14.8762 14.8646 14.4788 15.0528 14.1338 15.1365C14.1338 15.1365 13.1404 15.2933 12.994 15.858C12.994 15.858 12.8162 15.3665 11.666 15.2933C11.666 15.2933 10.7249 15.3456 10.4739 14.8646C10.4739 14.8646 10.3589 15.3143 9.26091 15.2829C9.26091 15.2829 8.16294 15.3247 7.96426 15.8476C7.96426 15.8476 7.68193 15.2515 6.84539 15.147C6.84539 15.147 6.21798 15.0215 5.88336 14.7705C5.88336 14.7705 5.30824 14.4254 5.21412 13.5157C5.21412 13.5157 4.2521 13.6203 3.72926 12.8255C3.72926 12.8255 3.50967 12.5432 3.37373 12.1877C3.37373 12.1877 2.82997 10.6924 1.65881 10.2218C1.65881 10.2218 2.4117 9.96038 2.82997 9.27023C2.82997 9.27023 3.07048 8.96698 3.27962 8.47552C3.27962 8.47552 3.45738 8.00496 3.7188 7.63897C3.7188 7.63897 4.19982 6.88608 5.21412 6.94882C5.21412 6.94882 5.19321 6.05999 6.07158 5.57898C6.07158 5.57898 6.36437 5.44304 6.67808 5.34893C6.67808 5.34893 7.13818 5.27574 7.48325 5.08751C7.48325 5.08751 7.82832 4.94112 7.96426 4.58559C7.96426 4.58559 8.01655 4.95157 8.86355 5.10843C8.86355 5.10843 9.18771 5.18162 9.4805 5.17117C9.4805 5.17117 10.2438 5.15025 10.4739 5.58944C10.4739 5.58944 10.6621 5.19208 11.415 5.17117C11.415 5.17117 12.7639 5.17117 12.994 4.59604C12.994 4.59604 13.1508 5.12934 14.2383 5.33848C14.2383 5.33848 15.2213 5.53716 15.5245 6.2273C15.5245 6.2273 15.7337 6.60375 15.7232 6.94882C15.7232 6.94882 16.6434 6.88608 17.0721 7.46121C17.0721 7.46121 17.4486 7.9213 17.6263 8.40232C17.6263 8.40232 17.8982 8.99835 18.2015 9.38526C18.2015 9.38526 18.672 10.0336 19.3099 10.2113C19.3099 10.2218 18.6197 10.4728 18.191 11.0688Z" fill="#ED1C24"/>
<path d="M6.218 10.1486H4.86908V9.09246H6.27029C6.27029 9.09246 6.48988 9.09246 6.48988 9.31206V9.90809C6.48988 9.90809 6.54216 10.1486 6.218 10.1486ZM6.94998 9.14475C6.94998 8.72648 6.4376 8.70556 6.4376 8.70556H4.41943V11.7067H4.86908V10.5355H6.4376C7.03363 10.5355 6.94998 10.0649 6.94998 10.0649V9.14475Z" fill="white"/>
<path d="M9.34459 10.1486H7.93292V9.09247H9.35504C9.35504 9.09247 9.60601 9.07155 9.60601 9.27023V9.94993C9.60601 9.94993 9.66875 10.1486 9.34459 10.1486ZM9.79423 10.3787C10.1184 10.3891 10.0766 10.0336 10.0766 10.0336V9.19704C10.0766 8.65328 9.49098 8.69511 9.49098 8.69511H7.48328V11.6962H7.94338V10.5355H9.31322C9.59555 10.5355 9.61646 10.7446 9.61646 10.7446V11.6962H10.087V10.7133C10.0766 10.4205 9.79423 10.3787 9.79423 10.3787Z" fill="white"/>
<path d="M11.3314 10.4623L11.8124 9.18658C11.8124 9.18658 11.8333 9.09247 11.9483 9.09247C11.9483 9.09247 12.0529 9.08201 12.0947 9.18658L12.628 10.4623H11.3314ZM12.1156 8.70556H11.8228C11.4987 8.70556 11.3837 9.09247 11.3837 9.09247L10.3903 11.7067H10.8922L11.2059 10.8388H12.7953L13.1613 11.7067H13.6632L12.5757 9.09247C12.4502 8.68465 12.1156 8.70556 12.1156 8.70556Z" fill="white"/>
<path d="M16.058 8.70556V10.9851L14.5103 8.70556H13.9457V11.7067H14.4162V9.43754L15.9325 11.7067H16.518V8.70556H16.058Z" fill="white"/>
<path d="M17.229 14.6659C17.229 14.9274 17.0198 15.1365 16.7584 15.1365C16.497 15.1365 16.2878 14.9274 16.2878 14.6659C16.2878 14.4045 16.497 14.1954 16.7584 14.1954C17.0198 14.1954 17.229 14.4045 17.229 14.6659Z" stroke="#231F20" stroke-width="0.0882554"/>
<path d="M16.5389 14.9064H16.6435V14.6868H16.6644C16.7376 14.6868 16.7376 14.6973 16.8004 14.7914L16.8736 14.9064H16.999L16.9363 14.8019C16.884 14.7182 16.8631 14.6973 16.8213 14.6764C16.8422 14.6764 16.8631 14.6659 16.884 14.6659C16.9363 14.645 16.9572 14.5927 16.9572 14.5404C16.9572 14.4882 16.9363 14.4359 16.8736 14.4045C16.8526 14.4045 16.8317 14.3941 16.7585 14.3941H16.5389V14.9064ZM16.6435 14.4777H16.7272C16.8004 14.4777 16.8108 14.4777 16.8317 14.4882C16.8526 14.4986 16.8631 14.5195 16.8631 14.5404C16.8631 14.5509 16.8631 14.5927 16.8213 14.6032C16.8004 14.6136 16.7585 14.6136 16.7272 14.6136H16.654V14.4777H16.6435Z" fill="#231F20"/>
</svg>
