<svg width="19" height="19" viewBox="0 0 19 19" fill="none" xmlns="http://www.w3.org/2000/svg">
<path d="M9.50044 0.253906C6.46044 0.253906 2.78711 2.15391 2.78711 6.96724C2.78711 9.75391 6.58711 15.7072 8.61378 18.3672C8.99378 18.8739 9.75378 18.8739 10.1338 18.3672C12.0338 15.7072 16.0871 9.88057 16.0871 6.96724C16.2138 2.15391 12.5404 0.253906 9.50044 0.253906Z" fill="#5B595B"/>
<path d="M6.20703 2.02734V12.034H12.7937V2.02734H6.20703ZM10.8937 2.78734H12.0337V5.44734H10.8937V2.78734ZM6.96703 2.78734H8.10703V6.58734H6.96703V2.78734ZM8.86703 2.78734H10.1337V6.58734H8.86703V2.78734ZM11.4004 6.20734C11.7804 6.20734 12.0337 6.46068 12.0337 6.84068C12.0337 7.22068 11.7804 7.47401 11.4004 7.47401C11.0204 7.47401 10.767 7.22068 10.767 6.84068C10.8937 6.46068 11.147 6.20734 11.4004 6.20734ZM8.86703 7.47401H10.007V11.274H8.9937L8.86703 7.47401ZM6.96703 7.60068H8.10703V11.274H6.96703V7.60068ZM10.8937 8.23401H12.0337V11.274H10.8937V8.23401Z" fill="white"/>
</svg>
