<svg width="19" height="19" viewBox="0 0 19 19" fill="none" xmlns="http://www.w3.org/2000/svg">
<path d="M9.50044 0.253906C6.46044 0.253906 2.78711 2.15391 2.78711 6.96724C2.78711 9.75391 6.58711 15.7072 8.61378 18.3672C8.99378 18.8739 9.75378 18.8739 10.1338 18.3672C12.0338 15.7072 16.0871 9.88057 16.0871 6.96724C16.2138 2.15391 12.5404 0.253906 9.50044 0.253906Z" fill="#70AEB7"/>
<path d="M11.2733 9.3751C11.6533 8.9951 12.0333 8.6151 12.54 8.48844C13.3 8.2351 13.8066 8.48844 13.9333 8.74177C14.44 9.12177 14.9466 8.6151 14.44 8.10844C14.06 7.8551 13.3 7.4751 12.2866 7.72844C11.78 7.8551 11.4 8.36177 11.02 8.74177C10.64 8.9951 10.3866 9.3751 9.87997 9.62844C9.37331 9.88177 9.11997 9.62844 9.11997 9.12177C9.11997 8.48844 8.86664 8.10844 8.10664 8.10844C7.72664 8.10844 7.34664 8.36177 6.96664 8.48844C6.07997 8.86844 5.19331 9.50177 4.43331 10.1351C4.30664 10.2618 4.30664 10.5151 4.43331 10.6418C4.68664 10.8951 4.81331 10.7684 5.06664 10.6418C5.31997 10.3884 6.45997 9.62844 7.34664 9.12177C7.72664 8.9951 7.97997 8.86844 8.10664 8.86844C8.35997 8.86844 8.35997 8.9951 8.35997 9.12177C8.35997 10.1351 9.37331 10.7684 10.26 10.2618C10.64 10.0084 11.02 9.7551 11.2733 9.3751ZM5.44664 7.72844C6.58664 6.96844 7.97997 6.20844 9.24664 6.20844C9.87997 6.20844 9.87997 6.46177 9.87997 6.84177C9.87997 7.0951 9.87997 7.4751 10.5133 7.4751C12.4133 7.4751 14.5666 5.06844 14.6933 3.2951L12.7933 4.0551L10.8933 3.16844C10.5133 3.04177 10.26 3.6751 10.7666 3.92844L11.6533 4.30844L10.5133 4.68844L7.34664 3.6751C7.21997 3.6751 7.09331 3.6751 6.96664 3.92844L5.82664 6.20844L4.30664 6.96844L5.44664 7.72844ZM7.34664 2.40844C7.34664 2.02844 7.72664 1.64844 8.10664 1.64844C8.61331 1.64844 8.86664 2.02844 8.86664 2.40844C8.86664 2.78844 8.61331 3.16844 8.10664 3.16844C7.72664 3.16844 7.34664 2.78844 7.34664 2.40844Z" fill="white"/>
</svg>
