<svg width="19" height="19" viewBox="0 0 19 19" fill="none" xmlns="http://www.w3.org/2000/svg">
<path d="M9.50044 0.253906C6.46044 0.253906 2.78711 2.15391 2.78711 6.96724C2.78711 9.75391 6.58711 15.7072 8.61378 18.3672C8.99378 18.8739 9.75378 18.8739 10.1338 18.3672C12.0338 15.7072 16.0871 9.88057 16.0871 6.96724C16.2138 2.15391 12.5404 0.253906 9.50044 0.253906Z" fill="#9271B5"/>
<path d="M9.8794 2.15234L12.0327 4.30568H12.7927C14.1861 4.30568 14.1861 2.15234 12.7927 2.15234H9.8794ZM10.1327 3.54568C10.0061 3.54568 10.0061 3.54568 9.8794 3.67234L8.10607 5.44568L7.9794 5.57234V5.69901V5.82568C7.9794 5.82568 7.9794 5.95234 8.10607 5.95234L9.62607 7.21901L8.86607 8.73901C8.86607 8.86568 8.7394 8.86568 8.86607 8.99234C8.99273 9.11901 8.86607 9.24568 8.99273 9.24568C9.1194 9.24568 9.1194 9.37234 9.24607 9.24568C9.37273 9.24568 9.37273 9.11901 9.4994 9.11901L10.6394 7.34568C10.6394 7.21901 10.6394 7.21901 10.6394 7.09234C10.6394 6.96568 10.6394 6.96568 10.5127 6.83901L9.37273 5.95234L10.6394 4.68568L11.3994 5.57234C11.3994 5.57234 11.5261 5.57234 11.5261 5.69901H11.6527H13.4261C13.5527 5.69901 13.5527 5.69901 13.6794 5.57234C13.8061 5.44568 13.8061 5.44568 13.8061 5.31901C13.8061 5.19234 13.8061 5.19234 13.6794 5.06568C13.5527 4.93901 13.5527 4.93901 13.4261 4.93901H11.7794L10.5127 3.67234L10.3861 3.54568C10.2594 3.54568 10.2594 3.54568 10.1327 3.54568ZM6.20607 6.45901C5.6994 6.45901 5.06607 6.71234 4.68607 7.09234C4.30607 7.47234 4.05273 7.97901 4.05273 8.61234C4.05273 9.24568 4.30607 9.75234 4.68607 10.1323C5.06607 10.5123 5.6994 10.7657 6.20607 10.7657C6.71273 10.7657 7.34607 10.5123 7.72607 10.1323C8.10607 9.75234 8.3594 9.11901 8.3594 8.61234C8.3594 8.35901 8.3594 8.10568 8.23273 7.72568C8.10607 7.47234 7.9794 7.21901 7.72607 7.09234C7.5994 6.83901 7.34607 6.71234 7.09273 6.58568C6.8394 6.45901 6.4594 6.45901 6.20607 6.45901ZM12.6661 6.45901C12.1594 6.45901 11.5261 6.71234 11.1461 7.09234C10.7661 7.47234 10.6394 7.97901 10.6394 8.61234C10.6394 9.24568 10.8927 9.75234 11.2727 10.1323C11.6527 10.5123 12.2861 10.7657 12.7927 10.7657C13.2994 10.7657 13.9327 10.5123 14.3127 10.1323C14.6927 9.75234 14.9461 9.11901 14.9461 8.61234C14.9461 8.35901 14.9461 8.10568 14.8194 7.72568C14.6927 7.47234 14.5661 7.21901 14.3127 6.96568C14.0594 6.71234 13.8061 6.58568 13.5527 6.45901C13.2994 6.45901 13.0461 6.45901 12.6661 6.45901ZM12.7927 7.09234C13.1727 7.09234 13.5527 7.21901 13.8061 7.47234C14.0594 7.72568 14.1861 8.10568 14.1861 8.48568C14.1861 8.86568 14.0594 9.24568 13.8061 9.49901C13.5527 9.75234 13.1727 9.87901 12.7927 9.87901C12.4127 9.87901 12.0327 9.75234 11.7794 9.49901C11.3994 9.37234 11.2727 8.99234 11.2727 8.61234C11.2727 8.35901 11.2727 8.23234 11.3994 8.10568C11.5261 7.85234 11.6527 7.72568 11.7794 7.59901C11.9061 7.47234 12.0327 7.34568 12.2861 7.34568C12.4127 7.21901 12.5394 7.09234 12.7927 7.09234Z" fill="white"/>
</svg>
