<svg width="19" height="19" viewBox="0 0 19 19" fill="none" xmlns="http://www.w3.org/2000/svg">
<path d="M9.50044 0.253906C6.46044 0.253906 2.78711 2.15391 2.78711 6.96724C2.78711 9.75391 6.58711 15.7072 8.61378 18.3672C8.99378 18.8739 9.75378 18.8739 10.1338 18.3672C12.0338 15.7072 16.0871 9.88057 16.0871 6.96724C16.2138 2.15391 12.5404 0.253906 9.50044 0.253906Z" fill="#5A9E7C"/>
<path d="M7.60031 2.02844C7.60031 1.7751 7.47365 1.64844 7.34698 1.64844C7.09365 1.64844 6.96698 1.7751 6.96698 1.90177L5.32031 11.0218C5.32031 11.2751 5.44698 11.4018 5.57365 11.4018C5.82698 11.4018 5.95365 11.2751 5.95365 11.1484L6.46031 8.10844C7.09365 8.2351 7.72698 8.2351 8.23365 8.6151C8.74031 8.86844 9.12031 8.9951 9.50031 8.9951C10.2603 9.12177 10.8936 8.74177 11.6536 8.86844L12.667 8.9951C12.9203 8.9951 13.047 8.86844 13.047 8.6151L13.6803 4.0551C13.6803 3.80177 13.5536 3.6751 13.3003 3.6751L12.4136 3.54844C11.6536 3.42177 11.0203 3.92844 10.2603 3.80177C9.88031 3.80177 9.62698 3.6751 9.37365 3.42177C8.86698 3.04177 8.10698 2.9151 7.47365 2.9151L7.60031 2.02844ZM7.09365 4.68844L7.34698 3.16844C7.85365 3.16844 8.23365 3.2951 8.74031 3.42177L8.48698 4.94177C8.10698 4.8151 7.60031 4.8151 7.09365 4.68844ZM6.58698 7.72844L6.84031 6.20844C7.34698 6.3351 7.85365 6.3351 8.36031 6.46177L8.61365 4.94177C9.12031 5.1951 9.50031 5.44844 10.007 5.5751L10.2603 4.0551C10.767 4.18177 11.2736 3.92844 11.7803 3.92844L11.527 5.44844C11.0203 5.44844 10.5136 5.70177 10.007 5.70177L9.75365 7.0951C9.24698 7.0951 8.86698 6.7151 8.36031 6.46177L8.10698 7.98177C7.60031 7.8551 7.09365 7.8551 6.58698 7.72844ZM9.75365 7.0951C10.2603 7.22177 10.767 6.96844 11.2736 6.84177L11.527 5.32177C12.0336 5.32177 12.5403 5.44844 13.047 5.44844L12.7936 6.96844C12.287 7.0951 11.7803 6.96844 11.2736 6.96844L11.147 8.48844C10.5136 8.48844 10.1336 8.74177 9.50031 8.6151L9.75365 7.0951Z" fill="white"/>
</svg>
