<svg width="19" height="19" viewBox="0 0 19 19" fill="none" xmlns="http://www.w3.org/2000/svg">
<path d="M9.50044 0.253906C6.46044 0.253906 2.78711 2.15391 2.78711 6.96724C2.78711 9.75391 6.58711 15.7072 8.61378 18.3672C8.99378 18.8739 9.75378 18.8739 10.1338 18.3672C12.0338 15.7072 16.0871 9.88057 16.0871 6.96724C16.2138 2.15391 12.5404 0.253906 9.50044 0.253906Z" fill="#4A9167"/>
<path d="M11.5261 2.15234C11.3994 2.15234 11.1461 2.27901 11.0194 2.40568C10.8927 2.53234 10.7661 2.65901 10.7661 2.91234C10.7661 3.16568 10.8927 3.29234 11.0194 3.41901C11.1461 3.54568 11.3994 3.67234 11.5261 3.67234C11.7794 3.67234 11.9061 3.54568 12.0327 3.41901C12.1594 3.29234 12.2861 3.03901 12.2861 2.91234C12.2861 2.65901 12.1594 2.53234 12.0327 2.40568C11.9061 2.27901 11.7794 2.15234 11.5261 2.15234ZM8.10607 3.67234C7.9794 3.67234 7.34607 3.67234 7.72607 4.17901L8.61273 5.82568H7.34607C7.09273 5.82568 6.96607 5.95234 6.8394 5.95234C6.20607 5.31901 5.6994 5.57234 5.19273 5.95234C4.81273 6.07901 4.5594 6.33234 4.1794 6.33234H4.05273V6.45901V6.58568H4.1794C4.43273 6.58568 4.81273 6.45901 5.06607 6.45901C5.57273 6.33234 6.0794 6.20568 6.33273 6.45901C6.33273 6.58568 6.33273 7.09234 6.33273 7.47234V8.61234C6.20607 8.73901 6.0794 8.73901 5.95273 8.61234C5.82607 8.61234 5.6994 8.48568 5.57273 8.61234L4.81273 10.7657C4.81273 10.8923 5.06607 11.019 5.19273 10.7657L5.6994 9.49901C6.20607 9.49901 7.34607 8.99234 7.72607 8.23234L10.7661 8.99234L12.6661 10.7657C12.7927 10.8923 13.1727 10.639 13.0461 10.5123L11.5261 8.23234L13.0461 6.33234C13.1727 6.71234 13.4261 6.71234 13.8061 6.71234L14.3127 7.21901C14.5661 7.59901 15.1994 7.21901 14.9461 6.83901L13.6794 4.93901L13.8061 4.68568C13.8061 4.55901 13.5527 4.30568 13.4261 4.30568L11.9061 5.57234L10.7661 3.79901L10.6394 3.67234H10.5127H8.10607ZM10.7661 5.31901L11.1461 5.82568L9.1194 7.34568H8.99273H8.86607H8.7394L8.61273 7.21901V7.09234V6.96568V6.83901L8.7394 6.71234L10.7661 5.31901Z" fill="white"/>
</svg>
