<svg width="19" height="19" viewBox="0 0 19 19" fill="none" xmlns="http://www.w3.org/2000/svg">
<path d="M9.50044 0.253906C6.46044 0.253906 2.78711 2.15391 2.78711 6.96724C2.78711 9.75391 6.58711 15.7072 8.61378 18.3672C8.99378 18.8739 9.75378 18.8739 10.1338 18.3672C12.0338 15.7072 16.0871 9.88057 16.0871 6.96724C16.2138 2.15391 12.5404 0.253906 9.50044 0.253906Z" fill="#5A8240"/>
<path d="M7.98008 1.14062C7.98008 1.14062 7.47341 1.14062 7.22008 1.90063L6.08008 5.95396V8.61396C6.08008 9.37396 6.84008 9.37396 6.84008 9.37396H12.0334C12.0334 9.37396 12.7934 9.37396 12.7934 8.61396V5.95396L11.7801 1.90063C11.5267 1.14062 11.0201 1.14062 11.0201 1.14062H7.98008ZM8.74008 2.28063H10.2601C10.2601 2.28063 10.6401 2.28063 10.7667 3.04063L11.4001 5.57396C11.5267 6.33396 10.6401 6.33396 10.6401 6.33396H8.36008C8.36008 6.33396 7.47341 6.33396 7.60008 5.57396L8.10674 2.91396C8.36008 2.28063 8.74008 2.28063 8.74008 2.28063ZM7.60008 7.09396C7.98008 7.09396 8.36008 7.47396 8.36008 7.85396C8.36008 8.23396 7.98008 8.61396 7.60008 8.61396C7.22008 8.61396 6.84008 8.23396 6.84008 7.85396C6.84008 7.47396 7.22008 7.09396 7.60008 7.09396ZM8.99341 7.09396H10.1334C10.2601 7.09396 10.2601 7.22063 10.2601 7.22063C10.2601 7.22063 10.1334 7.47396 10.0067 7.47396H8.99341C8.86674 7.47396 8.74008 7.47396 8.74008 7.34729C8.74008 7.22063 8.86674 7.09396 8.99341 7.09396ZM11.4001 7.09396C11.7801 7.09396 12.1601 7.47396 12.1601 7.85396C12.1601 8.23396 11.7801 8.61396 11.4001 8.61396C11.0201 8.61396 10.6401 8.23396 10.6401 7.85396C10.6401 7.47396 10.8934 7.09396 11.4001 7.09396ZM6.96674 10.134L6.08008 12.414H7.22008L7.60008 11.654H11.4001L11.6534 12.414H12.7934L12.0334 10.134H10.8934L11.1467 10.894H7.85341L8.10674 10.134H6.96674Z" fill="white"/>
</svg>
