<svg width="19" height="19" viewBox="0 0 19 19" fill="none" xmlns="http://www.w3.org/2000/svg">
<path d="M9.50044 0.253906C6.46044 0.253906 2.78711 2.15391 2.78711 6.96724C2.78711 9.75391 6.58711 15.7072 8.61378 18.3672C8.99378 18.8739 9.75378 18.8739 10.1338 18.3672C12.0338 15.7072 16.0871 9.88057 16.0871 6.96724C16.2138 2.15391 12.5404 0.253906 9.50044 0.253906Z" fill="#848240"/>
<path d="M7.98008 1.64844C7.60008 1.64844 7.60008 2.02844 7.60008 2.02844V2.78844C7.60008 3.04177 7.72674 3.16844 7.98008 3.16844C8.23341 3.16844 8.36008 3.04177 8.36008 2.78844V2.40844H9.12008V3.92844H8.36008C8.36008 3.92844 6.84008 3.92844 6.84008 5.44844V7.72844C6.84008 10.0084 9.12008 10.0084 9.12008 10.0084H9.88008C9.88008 10.0084 12.1601 10.0084 12.1601 7.72844V5.44844C12.1601 3.92844 10.6401 3.92844 10.6401 3.92844H9.88008V2.40844H10.6401V2.78844C10.6401 3.04177 10.7667 3.16844 11.0201 3.16844C11.2734 3.16844 11.4001 3.04177 11.4001 2.78844V2.02844C11.4001 1.64844 11.0201 1.64844 11.0201 1.64844H7.98008ZM9.50008 4.68844L11.0201 5.32177L11.4001 6.58844C11.5267 6.96844 11.0201 6.96844 11.0201 6.96844H7.98008C7.98008 6.96844 7.47341 6.96844 7.60008 6.58844L7.98008 5.32177L9.50008 4.68844ZM9.50008 7.72844C9.75341 7.72844 9.88008 7.8551 9.88008 8.10844C9.88008 8.36177 9.75341 8.48844 9.50008 8.48844C9.24674 8.48844 9.12008 8.36177 9.12008 8.10844C9.12008 7.98177 9.24674 7.72844 9.50008 7.72844ZM6.96674 10.7684L6.08008 13.0484H7.22008L7.47341 12.2884H11.5267L11.7801 13.0484H12.9201L12.0334 10.7684H10.8934L11.1467 11.5284H7.72674L7.98008 10.7684H6.96674Z" fill="white"/>
</svg>
