<svg width="19" height="19" viewBox="0 0 19 19" fill="none" xmlns="http://www.w3.org/2000/svg">
<path d="M9.50044 0.253906C6.46044 0.253906 2.78711 2.15391 2.78711 6.96724C2.78711 9.75391 6.58711 15.7072 8.61378 18.3672C8.99378 18.8739 9.75378 18.8739 10.1338 18.3672C12.0338 15.7072 16.0871 9.88057 16.0871 6.96724C16.2138 2.15391 12.5404 0.253906 9.50044 0.253906Z" fill="#5491F5"/>
<path d="M6.33422 2.15234C5.95422 2.15234 5.57422 2.53234 5.57422 2.91234V8.61234C5.57422 8.99234 5.95422 9.37234 6.33422 9.37234H12.6676C13.0476 9.37234 13.4276 8.99234 13.4276 8.61234V2.91234C13.4276 2.53234 13.0476 2.15234 12.6676 2.15234H6.33422ZM8.23422 2.53234H10.7676C10.8942 2.53234 10.8942 2.53234 10.8942 2.65901C10.8942 2.78568 10.7676 2.78568 10.7676 2.78568H8.23422C8.10755 2.78568 8.10755 2.65901 8.10755 2.65901C8.10755 2.53234 8.10755 2.53234 8.23422 2.53234ZM6.71422 3.54568H9.24755V6.33234H6.71422C6.46089 6.45901 6.33422 6.20568 6.33422 6.07901V3.92568C6.33422 3.67234 6.46089 3.54568 6.71422 3.54568ZM9.88089 3.54568H12.4142C12.6676 3.54568 12.7942 3.67234 12.7942 3.92568V6.07901C12.7942 6.33234 12.6676 6.45901 12.4142 6.45901H9.88089V3.54568ZM7.72755 7.09234C8.10755 7.09234 8.48755 7.47234 8.48755 7.85234C8.48755 8.23234 8.10755 8.61234 7.72755 8.61234C7.34755 8.61234 6.96755 8.23234 6.96755 7.85234C6.96755 7.47234 7.34755 7.09234 7.72755 7.09234ZM11.2742 7.09234C11.6542 7.09234 12.0342 7.47234 12.0342 7.85234C12.0342 8.23234 11.6542 8.61234 11.2742 8.61234C10.8942 8.61234 10.5142 8.23234 10.5142 7.85234C10.5142 7.47234 10.8942 7.09234 11.2742 7.09234ZM11.6542 10.0057H11.5276C11.2742 10.1323 11.2742 10.259 11.2742 10.5123L11.4009 10.639H7.60089L7.72755 10.3857C7.72755 10.259 7.60089 10.1323 7.47422 10.0057C7.34755 9.87901 7.09422 10.0057 7.09422 10.1323L6.33422 11.6523V11.779C6.33422 12.0323 6.46089 12.159 6.71422 12.159C6.84089 12.159 6.96755 12.0323 6.96755 12.0323L7.22089 11.399H11.7809L12.0342 11.9057C12.0342 12.0323 12.1609 12.0323 12.2876 12.0323C12.5409 12.0323 12.6676 11.9057 12.6676 11.6523V11.5257L11.9076 10.1323C11.9076 10.0057 11.7809 10.0057 11.6542 10.0057Z" fill="white"/>
</svg>
