<svg width="19" height="19" viewBox="0 0 19 19" fill="none" xmlns="http://www.w3.org/2000/svg">
<path d="M9.50044 0.253906C6.46044 0.253906 2.78711 2.15391 2.78711 6.96724C2.78711 9.75391 6.58711 15.7072 8.61378 18.3672C8.99378 18.8739 9.75378 18.8739 10.1338 18.3672C12.0338 15.7072 16.0871 9.88057 16.0871 6.96724C16.2138 2.15391 12.5404 0.253906 9.50044 0.253906Z" fill="#407F52"/>
<path d="M10.5142 1.77344L9.12089 2.53344V5.19344L5.57422 7.09344V11.4001H8.48755V8.61344H10.6409V11.4001H13.5542V7.09344L9.88089 5.19344V4.30677L10.6409 3.92677L12.0342 4.68677L13.4276 3.92677V1.77344L12.0342 2.53344L10.5142 1.77344Z" fill="white"/>
</svg>
