<svg width="19" height="19" viewBox="0 0 19 19" fill="none" xmlns="http://www.w3.org/2000/svg">
<path d="M9.50044 0.253906C6.46044 0.253906 2.78711 2.15391 2.78711 6.96724C2.78711 9.75391 6.58711 15.7072 8.61378 18.3672C8.99378 18.8739 9.75378 18.8739 10.1338 18.3672C12.0338 15.7072 16.0871 9.88057 16.0871 6.96724C16.2138 2.15391 12.5404 0.253906 9.50044 0.253906Z" fill="#40717C"/>
<path d="M5.70055 7.47234C5.44721 7.979 4.94055 8.739 5.82721 9.37234C6.08055 9.499 6.33388 9.62567 6.71388 9.62567C6.96721 9.62567 6.96721 10.0057 6.71388 10.0057C6.33388 10.0057 4.94055 9.879 4.68721 8.86567C4.56055 8.23234 4.68721 7.599 5.06721 6.96567L5.57388 5.95234L4.56055 5.44567L7.22055 3.799V6.839L6.20721 6.459L5.70055 7.47234ZM8.99388 2.40567C9.88055 1.899 10.3872 2.78567 10.6405 3.16567L11.2739 4.179L10.2605 4.68567L13.0472 6.079L12.9205 2.91234L11.9072 3.67234L11.4005 2.78567C10.8939 2.15234 10.6405 1.77234 9.88055 1.64567C8.61388 1.39234 7.85388 2.91234 7.85388 2.91234C7.72721 3.039 8.10721 3.16567 8.23388 2.91234C8.48721 2.78567 8.74055 2.53234 8.99388 2.40567ZM14.0605 7.09234C13.9339 6.96567 13.6805 6.96567 13.6805 7.34567C13.8072 7.599 13.9339 7.979 13.8072 8.23234C13.6805 9.24567 12.7939 9.24567 12.2872 9.24567H11.1472V8.10567L8.48721 9.62567L11.1472 11.1457V10.0057H12.2872C12.9205 10.0057 13.5539 9.879 13.9339 9.499C14.9472 8.739 14.0605 7.09234 14.0605 7.09234Z" fill="white"/>
</svg>
