<svg width="19" height="19" viewBox="0 0 19 19" fill="none" xmlns="http://www.w3.org/2000/svg">
<path d="M9.50044 0.253906C6.46044 0.253906 2.78711 2.15391 2.78711 6.96724C2.78711 9.75391 6.58711 15.7072 8.61378 18.3672C8.99378 18.8739 9.75378 18.8739 10.1338 18.3672C12.0338 15.7072 16.0871 9.88057 16.0871 6.96724C16.2138 2.15391 12.5404 0.253906 9.50044 0.253906Z" fill="#2F8962"/>
<path d="M13.6803 2.78516H5.32026C4.94026 2.78516 4.56026 3.03849 4.43359 3.54516C4.43359 3.54516 4.43359 3.54516 4.43359 3.67182C4.43359 4.05182 4.68693 4.43182 5.19359 4.55849C5.19359 4.55849 5.19359 4.55849 5.32026 4.55849H5.70026V10.7652C5.70026 11.1452 5.95359 11.5252 6.46026 11.6518C6.46026 11.6518 6.46026 11.6518 6.58693 11.6518C6.96693 11.6518 7.34693 11.3985 7.47359 10.8918C7.47359 10.8918 7.47359 10.8918 7.47359 10.7652V7.34516H11.6536V10.6385C11.6536 11.0185 11.9069 11.3985 12.4136 11.5252C12.4136 11.5252 12.4136 11.5252 12.5403 11.5252C12.9203 11.5252 13.3003 11.2718 13.4269 10.7652C13.4269 10.7652 13.4269 10.7652 13.4269 10.6385V4.43182H13.8069C14.1869 4.43182 14.5669 4.17849 14.6936 3.67182C14.6936 3.67182 14.6936 3.67182 14.6936 3.54516C14.5669 3.16516 14.1869 2.78516 13.6803 2.78516ZM11.5269 5.69849H9.88026V4.43182H11.5269V5.69849ZM9.12026 5.69849H7.47359V4.43182H9.12026V5.69849Z" fill="white"/>
</svg>
