<svg width="19" height="19" viewBox="0 0 19 19" fill="none" xmlns="http://www.w3.org/2000/svg">
<path d="M9.50044 0.253906C6.46044 0.253906 2.78711 2.15391 2.78711 6.96724C2.78711 9.75391 6.58711 15.7072 8.61378 18.3672C8.99378 18.8739 9.75378 18.8739 10.1338 18.3672C12.0338 15.7072 16.0871 9.88057 16.0871 6.96724C16.2138 2.15391 12.5404 0.253906 9.50044 0.253906Z" fill="#449E82"/>
<path d="M14.5661 6.33229H14.0594C13.9327 5.44562 13.5527 4.55896 13.0461 3.79896L13.4261 3.41896C13.5527 3.29229 13.5527 3.03896 13.4261 2.78563C13.2994 2.65896 13.0461 2.65896 12.7927 2.78563L12.4127 3.16562C11.7794 2.53229 10.8927 2.27896 9.8794 2.15229V1.64562C9.8794 1.51896 9.75273 1.26562 9.4994 1.26562C9.24607 1.26562 9.1194 1.51896 9.1194 1.64562V2.15229C8.10607 2.27896 7.2194 2.53229 6.58607 3.16562L6.20607 2.91229C6.0794 2.78562 5.82607 2.78562 5.57273 2.91229C5.44607 3.03896 5.44607 3.29229 5.57273 3.54562L5.95273 3.79896C5.3194 4.55896 4.9394 5.44562 4.9394 6.33229H4.43273C4.1794 6.33229 4.05273 6.58563 4.05273 6.71229C4.05273 6.96563 4.1794 7.09229 4.43273 7.09229H4.9394C5.06607 7.97896 5.44607 8.86562 5.95273 9.62562L5.57273 10.0056C5.44607 10.1323 5.44607 10.3856 5.57273 10.639C5.6994 10.7656 5.95273 10.7656 6.20607 10.639L6.58607 10.259C7.34607 10.8923 8.23273 11.2723 9.1194 11.2723V11.779C9.1194 12.0323 9.24607 12.159 9.4994 12.159C9.75273 12.159 9.8794 12.0323 9.8794 11.779V11.399C10.7661 11.2723 11.6527 10.8923 12.4127 10.3856L12.7927 10.7656C12.9194 10.8923 13.1727 10.8923 13.4261 10.7656C13.5527 10.639 13.5527 10.3856 13.4261 10.1323L13.0461 9.75229C13.6794 8.99229 14.0594 8.10562 14.0594 7.21896H14.5661C14.8194 7.21896 14.9461 6.96563 14.9461 6.83896C14.9461 6.58563 14.8194 6.33229 14.5661 6.33229ZM9.8794 3.03896C10.6394 3.03896 11.2727 3.41896 11.9061 3.79896L10.0061 5.57229H9.8794V3.03896ZM9.1194 3.03896V5.57229H8.99273L7.09273 3.79896C7.72607 3.41896 8.3594 3.03896 9.1194 3.03896ZM6.58607 4.43229L8.3594 6.20563V6.33229H5.82607C5.82607 5.57229 6.0794 4.93896 6.58607 4.43229ZM5.6994 7.21896H8.23273V7.34563L6.58607 9.11896C6.0794 8.61229 5.82607 7.85229 5.6994 7.21896ZM9.1194 10.5123C8.3594 10.5123 7.72607 10.1323 7.09273 9.75229L8.86607 7.97896H8.99273L9.1194 10.5123ZM9.8794 10.5123V7.97896H10.0061L11.7794 9.75229C11.2727 10.1323 10.6394 10.5123 9.8794 10.5123ZM12.4127 9.11896L10.6394 7.34563V7.21896H13.1727C13.1727 7.85229 12.9194 8.61229 12.4127 9.11896ZM10.6394 6.33229L12.4127 4.43229C12.9194 4.93896 13.1727 5.69896 13.1727 6.33229H10.6394Z" fill="white"/>
</svg>
