<svg width="19" height="19" viewBox="0 0 19 19" fill="none" xmlns="http://www.w3.org/2000/svg">
<path d="M9.50044 0.253906C6.46044 0.253906 2.78711 2.15391 2.78711 6.96724C2.78711 9.75391 6.58711 15.7072 8.61378 18.3672C8.99378 18.8739 9.75378 18.8739 10.1338 18.3672C12.0338 15.7072 16.0871 9.88057 16.0871 6.96724C16.2138 2.15391 12.5404 0.253906 9.50044 0.253906Z" fill="#8ABA6E"/>
<path d="M9.49917 1.39453L8.10583 2.91453V4.30786H11.0192V2.91453L9.49917 1.39453ZM8.10583 4.68786L6.96583 5.7012H12.0325L10.8925 4.68786H8.10583ZM5.5725 6.0812C5.1925 6.0812 4.8125 6.33453 4.8125 6.8412V10.7679H6.3325V6.8412C6.3325 6.33453 5.9525 6.0812 5.5725 6.0812ZM6.96583 6.0812V10.7679H12.0325V6.0812H6.96583ZM13.4258 6.0812C13.0458 6.0812 12.6658 6.33453 12.6658 6.8412V10.7679H14.0592V6.8412C14.1858 6.33453 13.8058 6.0812 13.4258 6.0812Z" fill="white"/>
</svg>
