<svg width="19" height="19" viewBox="0 0 19 19" fill="none" xmlns="http://www.w3.org/2000/svg">
<path d="M9.50044 0.253906C6.46044 0.253906 2.78711 2.15391 2.78711 6.96724C2.78711 9.75391 6.58711 15.7072 8.61378 18.3672C8.99378 18.8739 9.75378 18.8739 10.1338 18.3672C12.0338 15.7072 16.0871 9.88057 16.0871 6.96724C16.2138 2.15391 12.5404 0.253906 9.50044 0.253906Z" fill="#307287"/>
<path d="M12.5395 10.3879V8.61458C13.0461 8.48792 13.4261 8.10792 13.4261 7.60125C13.4261 7.09458 12.9195 6.58792 12.4128 6.58792C11.7795 6.46125 11.2728 6.96792 11.2728 7.60125C11.2728 8.10792 11.6528 8.61458 12.1595 8.61458V10.3879H9.11945V2.28125H5.57279V10.3879H4.93945V10.7679H14.1861V10.3879H12.5395ZM8.48612 8.61458H6.33279V7.98125H8.48612V8.61458ZM8.48612 7.22125H6.33279V6.46125H8.48612V7.22125ZM8.48612 5.82792H6.33279V5.06792H8.48612V5.82792ZM8.48612 4.43458H6.33279V3.67458H8.48612V4.43458Z" fill="white"/>
</svg>
