<svg width="19" height="19" viewBox="0 0 19 19" fill="none" xmlns="http://www.w3.org/2000/svg">
<path d="M9.50044 0.253906C6.46044 0.253906 2.78711 2.15391 2.78711 6.96724C2.78711 9.75391 6.58711 15.7072 8.61378 18.3672C8.99378 18.8739 9.75378 18.8739 10.1338 18.3672C12.0338 15.7072 16.0871 9.88057 16.0871 6.96724C16.2138 2.15391 12.5404 0.253906 9.50044 0.253906Z" fill="#F29900"/>
<path d="M5.95279 6.96562L4.93945 6.58562C6.07945 4.17896 7.97945 2.27896 10.5128 1.26562L10.8928 2.27896C8.73945 3.16562 6.96612 4.81229 5.95279 6.96562ZM13.8061 10.639L6.71279 7.34563C7.59945 5.44563 9.24612 3.79896 11.2728 3.03896L11.9061 4.55896C11.3995 4.55896 11.0195 4.93896 11.0195 5.31896C11.0195 5.69896 11.3995 6.07896 11.7795 6.07896C12.0328 6.07896 12.1595 5.95229 12.2861 5.82562L14.0595 10.3856C14.0595 10.5123 14.0595 10.639 13.9328 10.639H13.8061ZM10.2595 6.71229C10.2595 6.33229 10.0061 6.07896 9.62612 6.07896C9.24612 6.07896 8.99279 6.33229 8.99279 6.71229C8.99279 7.09229 9.37279 7.34563 9.62612 7.34563C10.0061 7.34563 10.2595 7.09229 10.2595 6.71229ZM12.4128 8.23229C12.4128 7.85229 12.1595 7.59896 11.7795 7.59896C11.3995 7.47229 11.1461 7.85229 11.1461 8.23229C11.1461 8.61229 11.3995 8.86562 11.7795 8.86562C12.0328 8.86562 12.2861 8.73896 12.4128 8.48562C12.4128 8.35896 12.4128 8.23229 12.4128 8.23229Z" fill="white"/>
</svg>
