<svg width="19" height="19" viewBox="0 0 19 19" fill="none" xmlns="http://www.w3.org/2000/svg">
<path d="M9.50044 0.253906C6.46044 0.253906 2.78711 2.15391 2.78711 6.96724C2.78711 9.75391 6.58711 15.7072 8.61378 18.3672C8.99378 18.8739 9.75378 18.8739 10.1338 18.3672C12.0338 15.7072 16.0871 9.88057 16.0871 6.96724C16.2138 2.15391 12.5404 0.253906 9.50044 0.253906Z" fill="#4696AF"/>
<path d="M12.5405 8.61177H14.4405V9.2451H12.7939C13.4272 9.75177 13.8072 10.2584 14.0605 11.0184L13.5539 11.1451C13.3005 10.3851 12.7939 9.87844 12.1605 9.49844C12.0339 9.6251 11.7805 9.75177 11.4005 9.75177L10.2605 10.7651H8.74055L7.60055 9.75177C7.34721 9.75177 6.96721 9.6251 6.71388 9.37177C6.08055 9.75177 5.57388 10.3851 5.44721 11.0184L4.81388 10.8918C5.06721 10.1318 5.44721 9.6251 6.08055 9.11844H4.56055V8.61177H6.46055L7.09388 8.1051L6.33388 6.71177C6.20721 6.71177 6.20721 6.71177 6.08055 6.71177C5.19388 6.71177 4.56055 6.07844 4.56055 5.19177C4.56055 5.19177 4.56055 5.19177 4.56055 5.0651C4.56055 3.41844 6.08055 1.89844 6.08055 1.89844L5.44721 5.4451H6.71388L7.60055 3.1651V5.4451C7.60055 5.8251 7.34721 6.2051 7.09388 6.5851L7.72721 7.59844H7.85388C8.86721 6.83844 10.2605 6.83844 11.2739 7.59844L11.9072 6.45844C11.6539 6.2051 11.4005 5.8251 11.4005 5.4451V3.1651L12.1605 5.4451H13.5539L13.0472 2.0251C13.0472 2.0251 14.5672 3.67177 14.5672 5.19177C14.5672 6.07844 13.9339 6.71177 13.0472 6.83844C13.0472 6.83844 13.0472 6.83844 12.9205 6.83844C12.7939 6.83844 12.7939 6.83844 12.6672 6.83844L11.9072 8.1051L12.5405 8.61177C12.5405 8.4851 12.5405 8.4851 12.5405 8.61177Z" fill="white"/>
</svg>
