<svg width="19" height="19" viewBox="0 0 19 19" fill="none" xmlns="http://www.w3.org/2000/svg">
<path d="M9.50044 0.253906C6.46044 0.253906 2.78711 2.15391 2.78711 6.96724C2.78711 9.75391 6.58711 15.7072 8.61378 18.3672C8.99378 18.8739 9.75378 18.8739 10.1338 18.3672C12.0338 15.7072 16.0871 9.88057 16.0871 6.96724C16.2138 2.15391 12.5404 0.253906 9.50044 0.253906Z" fill="#B5A848"/>
<path d="M7.34612 10.3857L4.93945 7.59907V6.83907H14.0595V7.59907L11.6528 10.3857H7.34612ZM6.96612 3.6724C6.96612 3.41907 6.83945 3.2924 6.58612 3.2924C6.33279 3.2924 6.33279 3.41907 6.33279 3.6724V4.0524L5.06612 4.30573C4.93945 4.30573 4.93945 4.4324 4.93945 4.55907L5.06612 4.68573L6.33279 4.4324V4.8124H5.06612C4.93945 4.93907 4.93945 4.93907 4.93945 5.06573C4.93945 5.1924 5.06612 5.1924 5.06612 5.1924H6.33279V6.07907H7.09279V3.6724H6.96612ZM13.6795 4.68573L8.48612 4.93907V4.0524L13.8061 3.2924C14.0595 3.2924 14.1861 3.03907 14.0595 2.9124C14.0595 2.65907 13.8061 2.5324 13.6795 2.65907L8.48612 3.6724C8.48612 3.41907 8.35945 3.2924 8.10612 3.2924C7.97945 3.2924 7.72612 3.41907 7.72612 3.6724V3.79907L7.34612 3.92573V4.17907H7.72612V5.06573H7.34612V5.44573L13.6795 5.5724C13.9328 5.5724 14.0595 5.44573 14.0595 5.1924C14.0595 4.8124 13.9328 4.68573 13.6795 4.68573ZM11.2728 11.0191H7.72612V11.3991H11.2728V11.0191Z" fill="white"/>
</svg>
