<svg width="19" height="19" viewBox="0 0 19 19" fill="none" xmlns="http://www.w3.org/2000/svg">
<path d="M9.50044 0.253906C6.46044 0.253906 2.78711 2.15391 2.78711 6.96724C2.78711 9.75391 6.58711 15.7072 8.61378 18.3672C8.99378 18.8739 9.75378 18.8739 10.1338 18.3672C12.0338 15.7072 16.0871 9.88057 16.0871 6.96724C16.2138 2.15391 12.5404 0.253906 9.50044 0.253906Z" fill="#4552AD"/>
<path d="M8.10607 3.03906C7.85273 3.03906 7.72607 3.16573 7.72607 3.41906H6.0794C4.9394 3.41906 4.05273 4.30573 4.05273 5.44573C4.05273 6.07906 4.30607 6.58573 4.68607 6.96573C4.30607 7.0924 4.05273 7.59906 4.05273 8.10573C4.05273 8.86573 4.68607 9.62573 5.57273 9.62573H8.10607H9.62607H11.3994C12.1594 9.62573 12.9194 8.9924 12.9194 8.10573C12.9194 7.72573 12.7927 7.4724 12.5394 7.21906L14.1861 7.97906C14.4394 8.10573 14.8194 7.97906 14.9461 7.72573C15.0727 7.4724 14.9461 7.0924 14.6927 6.96573L13.4261 6.3324L14.5661 6.07906C14.8194 6.07906 15.0727 5.69906 15.0727 5.44573C15.0727 5.1924 14.8194 4.93906 14.5661 4.93906C14.5661 4.93906 14.5661 4.93906 14.4394 4.93906L12.6661 5.31906C12.2861 4.4324 11.3994 3.54573 10.0061 3.41906C10.0061 3.16573 9.8794 3.03906 9.62607 3.03906H8.10607ZM8.48607 3.6724H9.24607V7.34573V8.86573H8.48607V7.34573V3.6724ZM11.0194 6.7124C11.2727 6.7124 11.3994 6.83906 11.3994 6.96573V6.83906C11.5261 6.7124 11.7794 6.58573 11.9061 6.7124C12.0327 6.83906 12.1594 7.0924 12.0327 7.21906L11.9061 7.59906C12.0327 7.72573 12.1594 7.97906 12.1594 8.10573C12.1594 8.48573 11.7794 8.86573 11.3994 8.86573H10.0061V7.34573H10.7661V6.96573C10.6394 6.83906 10.8927 6.7124 11.0194 6.7124ZM5.82607 6.7124C5.95273 6.7124 6.0794 6.7124 6.20607 6.83906L6.33273 7.0924C6.4594 6.96573 6.4594 6.96573 6.58607 6.96573C6.8394 6.96573 6.96607 7.0924 6.96607 7.34573H7.72607V8.86573H5.57273C5.19273 8.86573 4.81273 8.48573 4.81273 8.10573C4.81273 7.72573 5.19273 7.34573 5.57273 7.34573H5.6994L5.57273 7.21906C5.44607 7.0924 5.57273 6.83906 5.6994 6.7124C5.82607 6.7124 5.82607 6.7124 5.82607 6.7124Z" fill="white"/>
</svg>
