<svg width="19" height="19" viewBox="0 0 19 19" fill="none" xmlns="http://www.w3.org/2000/svg">
<path d="M9.50044 0.253906C6.46044 0.253906 2.78711 2.15391 2.78711 6.96724C2.78711 9.75391 6.58711 15.7072 8.61378 18.3672C8.99378 18.8739 9.75378 18.8739 10.1338 18.3672C12.0338 15.7072 16.0871 9.88057 16.0871 6.96724C16.2138 2.15391 12.5404 0.253906 9.50044 0.253906Z" fill="#BA7D4A"/>
<path d="M12.1592 10.0068H13.8058L12.1592 11.6534V10.0068C11.9058 10.2601 11.6525 10.3868 11.3992 10.3868C11.1458 10.3868 10.8925 10.2601 10.7658 10.1334C8.86583 8.48677 8.6125 5.7001 10.2592 3.8001C10.3858 3.67344 10.6392 3.4201 10.7658 3.29344C11.1458 2.91344 11.7792 3.0401 12.1592 3.4201V1.77344L13.8058 3.4201H12.1592C12.1592 3.4201 12.1592 3.4201 12.2858 3.54677C12.6658 3.92677 12.5392 4.68677 12.0325 4.9401C11.5258 5.44677 11.2725 6.0801 11.2725 6.71344C11.2725 7.34677 11.5258 7.9801 12.0325 8.48677C12.5392 8.86677 12.6658 9.5001 12.1592 10.0068ZM5.82583 1.77344L5.1925 5.44677C5.06583 5.95344 6.3325 6.20677 6.3325 6.71344L6.20583 11.0201C6.20583 11.4001 6.45916 11.6534 6.83916 11.6534C7.21916 11.6534 7.4725 11.4001 7.4725 11.0201L7.34583 6.71344C7.34583 6.20677 8.48583 5.95344 8.48583 5.44677L7.8525 1.77344H7.4725L7.59916 4.43344L7.21916 4.68677L6.96583 1.77344H6.7125L6.58583 4.68677L6.07916 4.43344L6.20583 1.77344H5.82583Z" fill="white"/>
</svg>
