<svg width="21" height="21" viewBox="0 0 21 21" fill="none" xmlns="http://www.w3.org/2000/svg">
<rect width="21" height="21" rx="3" fill="white"/>
<path d="M8.87911 19.8753C5.44836 19.2963 2.49732 16.7778 1.40704 13.4631C1.07269 12.4499 1.01454 12.0157 1 10.5393C1 9.25112 1.05815 8.5853 1.26167 7.94843C2.13389 5.08252 3.98011 2.96927 6.61132 1.79685C7.99235 1.17446 8.96634 0.986291 10.6526 1.00077C13.2839 1.01524 15.3045 1.89817 17.267 3.86668C19.1278 5.73386 19.9855 7.81816 20 10.467C20 12.0881 19.7238 13.2894 19.0115 14.7369C17.2089 18.3989 12.964 20.5555 8.87911 19.8753ZM12.8477 18.7752C15.8424 17.8923 18.0811 15.5909 18.8952 12.5947C19.1568 11.6104 19.1568 9.30902 18.8806 8.31029C18.241 5.90755 16.4966 3.82325 14.2288 2.73768C12.8768 2.10081 11.8883 1.8837 10.3037 1.89817C5.85539 1.92712 2.17751 5.4299 1.84315 9.93141C1.47972 14.9829 5.81178 19.3831 10.8852 19.0792C11.5249 19.0357 12.3971 18.9055 12.8477 18.7752ZM9.24254 18.1962C9.09717 18.1383 9.05356 16.4593 9.05356 10.467V2.81005L9.82402 2.72321C10.2456 2.67978 10.9434 2.67978 11.394 2.75216C12.1936 2.86795 12.1936 2.88242 12.1936 3.37455C12.1936 3.86668 12.1936 3.88115 11.6121 3.82325C11.2923 3.79431 10.8416 3.76536 10.5945 3.75088L10.1584 3.73641L10.1148 6.87733L10.0712 10.0327H11.1614H12.2517V10.5393V11.0459H11.1614H10.0712L10.0275 14.6356C9.98393 18.0949 9.98393 18.2252 9.69319 18.2397C9.54782 18.2541 9.3443 18.2252 9.24254 18.1962ZM7.4254 17.6752L7.01836 17.5304V14.5342C7.01836 11.0749 7.00383 11.0459 5.81178 11.0459H5.12854V13.6224V16.1843L4.69243 15.7067L4.25631 15.229V10.4814V5.73386L5.17215 4.8654C6.62586 3.47587 7.46901 3.20086 7.86152 3.95352C8.12318 4.44565 8.03596 9.80114 7.77429 10.2933C7.62892 10.5683 7.62892 10.6696 7.77429 10.8578C7.91966 11.0315 7.97781 11.9144 8.00689 14.3461C8.03596 16.1409 8.00689 17.6462 7.9342 17.7041C7.86152 17.762 7.64346 17.7475 7.4254 17.6752ZM6.84392 9.85904C6.96021 9.74324 7.01836 8.99058 7.01836 7.39841C7.01836 5.15489 7.01836 5.11147 6.71308 5.11147C6.53864 5.11147 6.11706 5.34306 5.76817 5.63254L5.12854 6.15362V8.09317V10.0327H5.89901C6.32058 10.0327 6.75669 9.96036 6.84392 9.85904ZM13.1239 10.467C13.1239 6.08125 13.1821 3.22981 13.2548 3.22981C13.3275 3.22981 13.5601 3.2877 13.7636 3.37455L14.1415 3.51929V9.81562C14.1415 14.6356 14.1852 16.1119 14.316 16.1119C14.6358 16.1119 16.2494 14.3171 16.6855 13.4776C16.9181 13.0144 17.1653 12.6526 17.2234 12.6381C17.2816 12.6381 17.3397 12.9855 17.3397 13.4052C17.3397 14.3171 16.9181 15.0553 15.7988 16.1554C15.1591 16.7778 13.6618 17.6896 13.2693 17.6896C13.1821 17.7041 13.1239 15.3303 13.1239 10.467Z" fill="#EF1112"/>
</svg>
