<svg width="19" height="19" viewBox="0 0 19 19" fill="none" xmlns="http://www.w3.org/2000/svg">
<path d="M9.50044 0.253906C6.46044 0.253906 2.78711 2.15391 2.78711 6.96724C2.78711 9.75391 6.58711 15.7072 8.61378 18.3672C8.99378 18.8739 9.75378 18.8739 10.1338 18.3672C12.0338 15.7072 16.0871 9.88057 16.0871 6.96724C16.2138 2.15391 12.5404 0.253906 9.50044 0.253906Z" fill="#539991"/>
<path d="M9.50026 11.7818C12.2869 11.7818 14.5669 9.50177 14.5669 6.7151C14.5669 3.92844 12.2869 1.64844 9.50026 1.64844C6.71359 1.64844 4.43359 3.92844 4.43359 6.7151C4.43359 9.50177 6.71359 11.7818 9.50026 11.7818ZM13.0469 5.44844V7.8551H5.95359V5.44844H13.0469Z" fill="white"/>
</svg>
