<svg width="19" height="19" viewBox="0 0 19 19" fill="none" xmlns="http://www.w3.org/2000/svg">
<path d="M9.50044 0.253906C6.46044 0.253906 2.78711 2.15391 2.78711 6.96724C2.78711 9.75391 6.58711 15.7072 8.61378 18.3672C8.99378 18.8739 9.75378 18.8739 10.1338 18.3672C12.0338 15.7072 16.0871 9.88057 16.0871 6.96724C16.2138 2.15391 12.5404 0.253906 9.50044 0.253906Z" fill="#528099"/>
<path d="M12.92 7.98125L12.16 6.58792C12.0334 6.33458 11.78 6.20792 11.5267 6.20792H7.47336C7.22003 6.20792 6.96669 6.33458 6.84003 6.58792L6.08003 7.98125L5.32003 8.74125C5.19336 8.86792 5.19336 8.99458 5.19336 8.99458V11.7812C5.19336 11.9079 5.32003 12.1613 5.57336 12.1613H6.84003C6.96669 12.1613 7.22003 12.0346 7.22003 11.9079V11.5279H11.78V11.9079C11.78 12.0346 11.9067 12.2879 12.0334 12.2879H13.4267C13.5534 12.2879 13.8067 12.1612 13.8067 11.9079V8.99458C13.8067 8.86792 13.8067 8.86792 13.68 8.74125L12.92 7.98125ZM7.47336 6.96792H11.4L12.0334 8.23458H6.84003L7.47336 6.96792ZM7.85336 10.0079C7.85336 10.1346 7.60003 10.2613 7.47336 10.2613H6.08003C5.95336 10.2613 5.82669 10.0079 5.82669 9.88125V9.12125C5.95336 8.99458 6.08003 8.86792 6.20669 8.86792L7.47336 9.12125C7.60003 9.12125 7.72669 9.37458 7.72669 9.50125V10.0079H7.85336ZM13.1734 9.88125C13.1734 10.0079 13.0467 10.2613 12.92 10.2613H11.5267C11.4 10.2613 11.1467 10.1346 11.1467 10.0079V9.50125C11.1467 9.37458 11.2734 9.12125 11.4 9.12125L12.6667 8.86792C12.92 8.74125 13.0467 8.99458 13.0467 9.12125V9.88125H13.1734ZM9.88003 4.94125H9.12003L8.48669 2.28125H10.5134L9.88003 4.94125ZM5.32003 3.42125L6.96669 2.53458L7.72669 5.19458L7.22003 5.44792L5.32003 3.42125ZM12.0334 2.53458L13.8067 3.54792L11.78 5.44792L11.2734 5.19458L12.0334 2.53458Z" fill="white"/>
</svg>
