<svg width="19" height="19" viewBox="0 0 19 19" fill="none" xmlns="http://www.w3.org/2000/svg">
<path d="M9.50044 0.253906C6.46044 0.253906 2.78711 2.15391 2.78711 6.96724C2.78711 9.75391 6.58711 15.7072 8.61378 18.3672C8.99378 18.8739 9.75378 18.8739 10.1338 18.3672C12.0338 15.7072 16.0871 9.88057 16.0871 6.96724C16.2138 2.15391 12.5404 0.253906 9.50044 0.253906Z" fill="#556299"/>
<path d="M12.5403 2.53516C11.147 2.53516 9.37365 3.42182 8.23365 5.06849H7.09365C6.46031 5.06849 5.95365 5.57516 5.70031 6.20849L5.32031 6.96849H6.33365H7.34698L8.36031 7.98182L9.12031 8.86849V9.88182V10.8952L10.007 10.5152C10.5136 10.1352 11.147 9.62849 11.147 8.99516V7.85516C12.7936 6.71516 13.6803 4.81516 13.6803 3.42182V2.53516H12.5403ZM10.8936 4.43516C11.2736 4.43516 11.527 4.68849 11.527 5.06849C11.527 5.44849 11.2736 5.82849 10.8936 5.82849C10.5136 5.82849 10.387 5.44849 10.387 5.19516C10.387 4.94182 10.5136 4.43516 10.8936 4.43516ZM6.71365 8.23516L6.58698 8.61516C6.08031 9.12182 5.82698 10.1352 5.82698 10.1352C5.82698 10.1352 6.84031 10.0085 7.34698 9.50182L7.72698 9.12182L6.71365 8.23516Z" fill="white"/>
</svg>
