<svg width="19" height="19" viewBox="0 0 19 19" fill="none" xmlns="http://www.w3.org/2000/svg">
<path d="M9.50002 0.253326C6.46002 0.253326 2.78668 2.15333 2.78668 6.96666C2.78668 9.75333 6.58668 15.7067 8.61335 18.3667C8.99335 18.8733 9.75335 18.8733 10.1333 18.3667C12.0333 15.7067 16.0867 9.87999 16.0867 6.96666C16.2133 2.15333 12.54 0.253326 9.50002 0.253326Z" fill="#78909C"/>
<path d="M6.18843 3.03309C6.08062 3.05067 5.90545 3.08231 5.79764 3.10693L5.60225 3.14912L5.5753 5.96197C5.56183 7.50553 5.55846 8.77835 5.5652 8.78538C5.57194 8.79241 5.72016 8.77483 5.89534 8.7467C7.1418 8.55332 8.3512 8.95415 9.22035 9.84723L9.46627 10.1004V7.42818V4.75596L9.38205 4.58368C9.07886 3.95781 8.26024 3.33547 7.46183 3.12451C7.09126 3.02606 6.52531 2.98386 6.18843 3.03309Z" fill="white"/>
<path d="M12.0098 3.02606C11.2282 3.13154 10.578 3.45853 10.0424 4.01759C9.8571 4.20746 9.71224 4.40084 9.64149 4.53445L9.53369 4.75245V7.42466V10.1004L9.77961 9.84723C10.6353 8.95767 11.8582 8.55332 13.1046 8.7467C13.2798 8.77483 13.428 8.79241 13.4348 8.78889C13.4381 8.78186 13.4314 7.51256 13.4213 5.96549L13.3977 3.14912L13.2259 3.11044C12.8284 3.01902 12.3231 2.98386 12.0098 3.02606Z" fill="white"/>
<path d="M4.85106 3.52533L4.76684 3.54994L4.75674 6.65463L4.75 9.76283L4.90833 9.73822C5.9055 9.59406 7.10479 9.63977 8.21313 9.86128C8.53653 9.92457 9.04522 10.0617 9.21703 10.1285C9.31136 10.1637 9.11934 10.0019 8.82625 9.798C8.30072 9.42881 7.67412 9.16862 7.05763 9.06314C6.67359 8.99985 5.93919 9.01391 5.55177 9.09478L5.3227 9.14401L5.31596 6.32764L5.30585 3.51126L5.12057 3.50423C5.0195 3.50072 4.89823 3.51126 4.85106 3.52533Z" fill="white"/>
<path d="M13.7042 3.51478C13.6874 3.52884 13.6773 4.80518 13.6773 6.35225C13.6773 9.00688 13.6739 9.16159 13.62 9.13697C13.4853 9.08423 12.8957 9.01391 12.5824 9.01391C11.6998 9.01391 10.77 9.33739 10.0019 9.91754C9.85369 10.0265 9.73915 10.1215 9.74589 10.125C9.74926 10.132 9.87727 10.0969 10.0221 10.0476C10.7026 9.82964 11.7099 9.68196 12.6498 9.66438C13.2697 9.65384 13.5358 9.66438 14.058 9.73471L14.25 9.75932V6.66518C14.25 4.39028 14.2399 3.56049 14.2129 3.54291C14.1557 3.50775 13.7312 3.48313 13.7042 3.51478Z" fill="white"/>
</svg>
