<svg width="19" height="19" viewBox="0 0 19 19" fill="none" xmlns="http://www.w3.org/2000/svg">
<path d="M9.50044 0.253906C6.46044 0.253906 2.78711 2.15391 2.78711 6.96724C2.78711 9.75391 6.58711 15.7072 8.61378 18.3672C8.99378 18.8739 9.75378 18.8739 10.1338 18.3672C12.0338 15.7072 16.0871 9.88057 16.0871 6.96724C16.2138 2.15391 12.5404 0.253906 9.50044 0.253906Z" fill="#28774C"/>
<path d="M13.2995 3.29344H10.2595V2.53344C10.2595 2.15344 9.87945 1.77344 9.49945 1.77344C9.11945 1.77344 8.73945 2.15344 8.73945 2.53344V3.29344H5.69945C5.31945 3.29344 4.93945 3.67344 4.93945 4.05344C4.93945 4.43344 5.31945 4.81344 5.69945 4.81344H6.20612C6.45945 5.82677 6.96612 6.8401 7.72612 7.72677C7.97945 8.10677 8.23279 8.3601 8.48612 8.61344C7.85279 9.24677 7.21945 9.75344 6.45945 10.2601C6.07945 10.5134 5.95279 10.8934 6.20612 11.2734C6.33279 11.6534 6.83945 11.7801 7.21945 11.6534C7.97945 11.1468 8.86612 10.5134 9.49945 9.75344C10.1328 10.5134 11.0195 11.0201 11.7795 11.6534C12.1595 11.9068 12.6661 11.7801 12.7928 11.4001C13.0461 11.0201 12.9195 10.5134 12.5395 10.3868C11.7795 9.8801 11.1461 9.24677 10.5128 8.61344C10.7661 8.3601 11.0195 7.9801 11.2728 7.72677C11.9061 6.8401 12.5395 5.82677 12.7928 4.81344H13.2995C13.6795 4.81344 14.0595 4.43344 14.0595 4.05344C14.0595 3.67344 13.6795 3.29344 13.2995 3.29344ZM10.1328 6.8401C9.87945 7.09344 9.75279 7.34677 9.49945 7.47344C9.24612 7.34677 9.11945 7.09344 8.86612 6.8401C8.35945 6.20677 7.97945 5.57344 7.72612 4.81344H11.1461C10.8928 5.57344 10.5128 6.20677 10.1328 6.8401Z" fill="white"/>
</svg>
