<svg width="19" height="19" viewBox="0 0 19 19" fill="none" xmlns="http://www.w3.org/2000/svg">
<path d="M9.50044 0.253906C6.46044 0.253906 2.78711 2.15391 2.78711 6.96724C2.78711 9.75391 6.58711 15.7072 8.61378 18.3672C8.99378 18.8739 9.75378 18.8739 10.1338 18.3672C12.0338 15.7072 16.0871 9.88057 16.0871 6.96724C16.2138 2.15391 12.5404 0.253906 9.50044 0.253906Z" fill="#AA602E"/>
<path d="M7.72641 9.50125C7.97974 10.0079 7.59974 10.6412 7.09307 10.7679C6.58641 11.0212 5.95307 10.6412 5.82641 10.1346C5.69974 9.88125 5.69974 9.62792 5.82641 9.37458H7.72641V9.50125ZM13.6797 5.32125H13.2997V3.29458H13.5531C13.6797 3.29458 13.6797 3.29458 13.6797 3.16792L13.9331 2.78792C13.9331 2.66125 13.8064 2.66125 13.8064 2.66125H13.4264V2.40792C13.4264 2.28125 13.2997 2.28125 13.2997 2.28125H10.7664C10.6397 2.28125 10.6397 2.40792 10.6397 2.40792C10.6397 2.53458 10.7664 2.53458 10.7664 2.53458H12.6664V5.70125L9.62641 8.10792H8.48641V6.33458C8.48641 6.08125 8.35974 5.95458 8.10641 5.95458H7.72641V4.68792H8.99307C9.11974 4.68792 9.11974 4.56125 9.11974 4.56125C9.11974 4.56125 9.11974 4.30792 8.99307 4.30792L5.95307 4.05458C5.82641 4.05458 5.82641 4.18125 5.82641 4.18125V4.56125C5.82641 4.68792 5.95307 4.68792 5.95307 4.68792H6.45974V6.08125H6.07974C5.44641 6.08125 5.06641 6.46125 5.06641 7.09458V8.48792C5.06641 8.61458 5.19307 8.74125 5.31974 8.86792H9.49974L11.2731 8.23458H13.6797C13.8064 8.23458 14.0597 8.10792 14.0597 7.98125V5.82792C13.9331 5.57458 13.8064 5.32125 13.6797 5.32125ZM12.9197 8.86792C12.4131 8.86792 11.9064 9.24792 11.9064 9.88125C11.9064 10.5146 12.4131 10.8946 12.9197 10.8946C13.5531 10.8946 13.9331 10.3879 13.9331 9.88125C13.9331 9.24792 13.5531 8.86792 12.9197 8.86792Z" fill="white"/>
</svg>
