<svg width="19" height="19" viewBox="0 0 19 19" fill="none" xmlns="http://www.w3.org/2000/svg">
<path d="M9.50044 0.253906C6.46044 0.253906 2.78711 2.15391 2.78711 6.96724C2.78711 9.75391 6.58711 15.7072 8.61378 18.3672C8.99378 18.8739 9.75378 18.8739 10.1338 18.3672C12.0338 15.7072 16.0871 9.88057 16.0871 6.96724C16.2138 2.15391 12.5404 0.253906 9.50044 0.253906Z" fill="#913988"/>
<path d="M11.1466 5.70133C10.7666 5.57466 10.3866 5.32133 10.0066 5.06799L8.35997 2.78799C8.23331 2.53466 7.85331 2.53466 7.72664 2.66133C7.59997 2.78799 7.59997 2.91466 7.47331 3.04133V4.18133H6.07997C5.95331 4.18133 5.82664 4.18133 5.82664 4.05466C5.82664 4.05466 5.57331 3.42133 5.19331 3.42133H4.81331C4.55997 3.42133 4.30664 3.54799 4.30664 3.80133V7.34799H8.61331C9.75331 7.34799 10.26 8.10799 11.4 8.10799H14.5666V7.72799C14.6933 6.58799 11.9066 6.20799 11.1466 5.70133ZM11.1466 8.86799C10.7666 8.86799 10.26 8.74133 9.87997 8.48799C9.37331 8.23466 8.86664 8.10799 8.35997 8.10799H4.30664V9.24799C4.30664 9.50133 4.43331 9.62799 4.68664 9.62799H7.85331C8.10664 9.62799 8.23331 9.50133 8.23331 9.24799V8.86799C8.61331 8.86799 9.11997 8.99466 9.49997 9.24799C10.0066 9.50133 10.5133 9.62799 11.02 9.62799H14.1866C14.44 9.62799 14.5666 9.50133 14.5666 9.24799V8.86799H11.1466Z" fill="white"/>
</svg>
