<svg width="19" height="19" viewBox="0 0 19 19" fill="none" xmlns="http://www.w3.org/2000/svg">
<path d="M9.50044 0.253906C6.46044 0.253906 2.78711 2.15391 2.78711 6.96724C2.78711 9.75391 6.58711 15.7072 8.61378 18.3672C8.99378 18.8739 9.75378 18.8739 10.1338 18.3672C12.0338 15.7072 16.0871 9.88057 16.0871 6.96724C16.2138 2.15391 12.5404 0.253906 9.50044 0.253906Z" fill="#5491F5"/>
<path d="M13.9342 4.68844H12.5408L12.2875 2.9151C12.1608 2.28177 11.7808 1.90177 11.1475 1.7751C10.8942 1.64844 10.6408 1.64844 10.3875 1.64844H8.61417C8.36083 1.64844 8.1075 1.64844 7.7275 1.7751C7.22083 1.90177 6.84083 2.28177 6.71417 2.9151L6.46083 4.68844H5.0675C4.81417 4.68844 4.6875 4.8151 4.6875 5.06844V5.1951L6.08083 10.0084C6.2075 10.5151 6.71417 10.7684 7.22083 10.7684H11.7808C12.2875 10.7684 12.6675 10.3884 12.9208 10.0084L14.3142 5.1951C14.4408 4.94177 14.3142 4.68844 13.9342 4.68844C14.0608 4.68844 14.0608 4.68844 13.9342 4.68844ZM7.22083 4.68844L7.47417 3.04177C7.60083 2.66177 7.7275 2.5351 8.1075 2.40844C8.23417 2.40844 8.4875 2.28177 8.74083 2.28177H10.5142C10.7675 2.28177 10.8942 2.28177 11.1475 2.40844C11.2742 2.5351 11.4008 2.66177 11.5275 3.04177L11.7808 4.68844H7.22083Z" fill="white"/>
</svg>
