<svg width="19" height="19" viewBox="0 0 19 19" fill="none" xmlns="http://www.w3.org/2000/svg">
<path d="M9.50044 0.253906C6.46044 0.253906 2.78711 2.15391 2.78711 6.96724C2.78711 9.75391 6.58711 15.7072 8.61378 18.3672C8.99378 18.8739 9.75378 18.8739 10.1338 18.3672C12.0338 15.7072 16.0871 9.88057 16.0871 6.96724C16.2138 2.15391 12.5404 0.253906 9.50044 0.253906Z" fill="#49398E"/>
<path d="M4.05273 4.18135V4.05469H5.3194V4.30802C5.3194 4.94135 5.82607 5.44802 6.4594 5.44802H12.5394C13.1727 5.44802 13.6794 4.94135 13.6794 4.30802V4.05469H14.9461V4.30802C14.9461 5.70135 13.8061 6.71469 12.5394 6.71469H6.4594C5.06607 6.58802 4.05273 5.57469 4.05273 4.18135ZM7.34607 8.36135C7.34607 8.86802 6.96607 9.24802 6.4594 9.24802C5.95273 9.24802 5.57273 8.86802 5.57273 8.36135C5.57273 7.85469 5.95273 7.47469 6.4594 7.47469C6.96607 7.47469 7.34607 7.85469 7.34607 8.36135ZM13.4261 8.36135C13.4261 8.86802 13.0461 9.24802 12.5394 9.24802C12.0327 9.24802 11.6527 8.86802 11.6527 8.36135C11.6527 7.85469 12.0327 7.47469 12.5394 7.47469C13.0461 7.47469 13.4261 7.85469 13.4261 8.36135Z" fill="white"/>
</svg>
