<svg width="19" height="19" viewBox="0 0 19 19" fill="none" xmlns="http://www.w3.org/2000/svg">
<path d="M9.50044 0.253906C6.46044 0.253906 2.78711 2.15391 2.78711 6.96724C2.78711 9.75391 6.58711 15.7072 8.61378 18.3672C8.99378 18.8739 9.75378 18.8739 10.1338 18.3672C12.0338 15.7072 16.0871 9.88057 16.0871 6.96724C16.2138 2.15391 12.5404 0.253906 9.50044 0.253906Z" fill="#3A6E8C"/>
<path d="M14.9461 4.68625C14.9461 5.31958 14.4394 5.82625 13.8061 5.82625C13.1727 5.82625 12.6661 5.31958 12.6661 4.68625C12.6661 4.05292 13.1727 3.54625 13.8061 3.54625C14.4394 3.54625 14.9461 4.05292 14.9461 4.68625ZM14.0594 10.1329C14.0594 10.0062 13.9327 10.0062 13.8061 10.0062C13.2994 10.3862 12.6661 10.3863 12.0327 10.2596L7.34607 7.85292L9.37273 6.83958V4.68625L10.5127 5.19292V7.47292L11.6527 7.97958L12.7927 7.47292L11.6527 6.83958V3.54625L9.37273 2.40625L8.23273 3.03958V6.33292L6.33273 7.34625L4.30607 6.33292C4.1794 6.33292 4.05273 6.33292 4.05273 6.45958C4.05273 6.58625 4.05273 6.71292 4.1794 6.71292L12.0327 10.6396C12.1594 10.6396 12.4127 10.7662 12.6661 10.7662C13.1727 10.7662 13.5527 10.6396 13.9327 10.3862C14.0594 10.3862 14.0594 10.2596 14.0594 10.1329Z" fill="white"/>
</svg>
