<svg width="19" height="19" viewBox="0 0 19 19" fill="none" xmlns="http://www.w3.org/2000/svg">
<path d="M9.50044 0.253906C6.46044 0.253906 2.78711 2.15391 2.78711 6.96724C2.78711 9.75391 6.58711 15.7072 8.61378 18.3672C8.99378 18.8739 9.75378 18.8739 10.1338 18.3672C12.0338 15.7072 16.0871 9.88057 16.0871 6.96724C16.2138 2.15391 12.5404 0.253906 9.50044 0.253906Z" fill="#3A893F"/>
<path d="M14.5669 5.32021C14.5669 6.20688 13.6803 5.82688 13.6803 5.82688L12.9203 5.95355H11.9069C11.6536 6.46021 11.2736 6.84021 10.8936 7.22021C10.7669 7.47355 10.6403 7.85355 10.5136 7.98021C10.5136 7.98021 10.5136 8.10688 10.5136 8.23355V9.75355C10.5136 9.88021 10.3869 9.88021 10.3869 9.88021C10.2603 10.0069 10.1336 9.88021 10.1336 9.88021L9.88026 7.60021H7.09359V9.75355C7.09359 9.88021 6.96693 9.88021 6.96693 9.88021C6.84026 9.88021 6.84026 9.88021 6.84026 9.75355L6.46026 7.98021V7.60021C6.08026 7.60021 5.82693 7.60021 5.44693 7.47355C5.44693 7.85355 5.32026 8.23355 4.94026 8.48688C4.81359 8.48688 4.81359 8.61355 4.81359 8.74021L5.06693 9.75355C5.06693 9.88021 4.94026 9.88021 4.94026 9.88021C4.81359 9.88021 4.81359 9.88021 4.81359 9.75355L4.43359 8.74021C4.43359 8.61355 4.43359 8.61355 4.43359 8.48688C4.68693 7.98021 4.43359 6.71355 4.43359 6.71355C4.43359 6.58688 4.43359 6.58688 4.43359 6.46021V4.94021C4.43359 4.18021 5.06693 3.54688 5.82693 3.54688C5.95359 3.54688 6.20693 3.54688 6.33359 3.67355H6.46026C7.34693 3.80021 8.23359 3.80021 8.99359 3.67355H9.12026C9.37359 3.54688 9.75359 3.54688 10.0069 3.67355H10.1336C10.1336 3.67355 10.2603 3.67355 10.2603 3.80021C10.5136 3.80021 10.6403 3.92688 10.8936 3.92688H11.5269V3.16688L11.9069 3.54688C12.2869 2.53355 13.5536 2.91355 13.5536 2.91355C13.1736 2.91355 12.6669 3.16688 12.5403 3.54688L14.1869 4.94021H14.3136C14.4403 4.94021 14.5669 5.06688 14.5669 5.19355V5.32021Z" fill="white"/>
</svg>
