<svg width="19" height="19" viewBox="0 0 19 19" fill="none" xmlns="http://www.w3.org/2000/svg">
<path d="M9.50044 0.253906C6.46044 0.253906 2.78711 2.15391 2.78711 6.96724C2.78711 9.75391 6.58711 15.7072 8.61378 18.3672C8.99378 18.8739 9.75378 18.8739 10.1338 18.3672C12.0338 15.7072 16.0871 9.88057 16.0871 6.96724C16.2138 2.15391 12.5404 0.253906 9.50044 0.253906Z" fill="#3A8787"/>
<path d="M4.56055 8.61349L13.6805 9.75349V10.1335H4.56055V8.61349ZM13.6805 5.57349L12.9205 6.33349V6.71349L6.96721 4.30682V4.18016L7.98055 3.16682H8.61388C8.74055 3.16682 8.86721 3.04016 8.86721 2.91349C8.86721 2.78682 8.86721 2.66016 8.74055 2.66016H7.98055C7.85388 2.66016 7.85388 2.66016 7.85388 2.78682L6.58721 3.92682C6.58721 3.92682 6.58721 3.92682 6.58721 4.05349L6.46055 4.18016L4.56055 3.29349C4.56055 4.81349 4.56055 6.33349 6.71388 6.71349C7.72721 6.96682 12.9205 7.85349 12.9205 7.85349L14.4405 6.33349L13.6805 5.57349Z" fill="white"/>
</svg>
