<svg width="19" height="19" viewBox="0 0 19 19" fill="none" xmlns="http://www.w3.org/2000/svg">
<path d="M9.50044 0.253906C6.46044 0.253906 2.78711 2.15391 2.78711 6.96724C2.78711 9.75391 6.58711 15.7072 8.61378 18.3672C8.99378 18.8739 9.75378 18.8739 10.1338 18.3672C12.0338 15.7072 16.0871 9.88057 16.0871 6.96724C16.2138 2.15391 12.5404 0.253906 9.50044 0.253906Z" fill="#A2A362"/>
<path d="M14.9458 8.61464C14.9458 8.99464 14.5658 9.37464 14.1858 9.37464H10.8925C10.6391 9.37464 10.5125 9.24797 10.3858 9.12131L9.2458 7.98131C9.11913 7.85464 9.11913 7.85464 8.99247 7.85464H6.45913C6.33247 7.85464 6.2058 7.85464 6.07913 7.72797L5.0658 6.96797C4.93913 6.84131 4.81247 6.58797 4.81247 6.46131C4.81247 6.20797 4.93913 5.95464 5.19247 5.82797L7.7258 4.30797L8.4858 3.04131C8.4858 2.78797 8.73913 2.66131 8.8658 2.78797C8.99247 2.78797 9.11913 2.91464 9.11913 3.16797V5.70131L9.87913 6.46131H10.6391L14.5658 5.70131C14.8191 5.70131 14.9458 5.82797 14.9458 5.95464C14.9458 6.08131 14.9458 6.20797 14.8191 6.33464L13.5525 7.09464L14.6925 7.98131C14.8191 8.10797 14.9458 8.36131 14.9458 8.61464ZM8.1058 8.61464H6.33247C5.95247 8.61464 5.57247 8.48797 5.31913 8.36131L4.55913 7.85464C4.43247 7.72797 4.17913 7.85464 4.05247 7.98131C3.9258 8.10797 4.05247 8.36131 4.17913 8.48797L5.0658 8.99464C5.4458 9.12131 5.69913 9.24797 6.07913 9.24797H7.97913C8.23247 9.24797 8.35913 9.12131 8.35913 8.86797C8.35913 8.74131 8.23247 8.61464 8.1058 8.61464Z" fill="white"/>
</svg>
