<svg width="19" height="19" viewBox="0 0 19 19" fill="none" xmlns="http://www.w3.org/2000/svg">
<path d="M9.50044 0.253906C6.46044 0.253906 2.78711 2.15391 2.78711 6.96724C2.78711 9.75391 6.58711 15.7072 8.61378 18.3672C8.99378 18.8739 9.75378 18.8739 10.1338 18.3672C12.0338 15.7072 16.0871 9.88057 16.0871 6.96724C16.2138 2.15391 12.5404 0.253906 9.50044 0.253906Z" fill="#9FAA4D"/>
<path d="M12.5406 3.42182V9.50182H6.4606V3.42182H12.5406ZM12.7939 2.53516H6.20727C5.82727 2.53516 5.44727 2.91516 5.44727 3.29516V9.88182C5.44727 10.2618 5.82727 10.6418 6.20727 10.6418H12.7939C13.1739 10.6418 13.5539 10.2618 13.5539 9.88182V3.29516C13.5539 2.91516 13.1739 2.53516 12.7939 2.53516Z" fill="white"/>
</svg>
