<svg width="19" height="19" viewBox="0 0 19 19" fill="none" xmlns="http://www.w3.org/2000/svg">
<path d="M9.50044 0.253906C6.46044 0.253906 2.78711 2.15391 2.78711 6.96724C2.78711 9.75391 6.58711 15.7072 8.61378 18.3672C8.99378 18.8739 9.75378 18.8739 10.1338 18.3672C12.0338 15.7072 16.0871 9.88057 16.0871 6.96724C16.2138 2.15391 12.5404 0.253906 9.50044 0.253906Z" fill="#6ECD4A"/>
<path d="M9.1206 1.64844V3.16844V4.30844V4.68844C7.09393 4.56177 5.44727 5.1951 5.44727 5.9551V9.24844C5.44727 10.0084 7.2206 10.7684 9.5006 10.7684C11.7806 10.7684 13.5539 10.1351 13.5539 9.24844V5.9551C13.5539 5.1951 11.9073 4.56177 9.8806 4.56177V3.80177L12.0339 2.78844L9.1206 1.64844ZM6.20727 6.84177C6.58727 7.0951 7.09393 7.22177 7.72727 7.34844V9.50177C6.8406 9.24844 6.20727 8.86844 6.20727 8.48844V6.84177ZM12.7939 6.84177V8.6151C12.7939 8.9951 12.1606 9.3751 11.2739 9.50177V7.22177C11.9073 7.22177 12.4139 6.96844 12.7939 6.84177ZM8.3606 7.34844C8.7406 7.34844 9.1206 7.34844 9.5006 7.34844C9.8806 7.34844 10.2606 7.34844 10.6406 7.34844V9.50177C10.2606 9.50177 9.8806 9.62844 9.5006 9.62844C9.1206 9.62844 8.7406 9.62844 8.3606 9.50177V7.34844Z" fill="white"/>
</svg>
