<svg width="19" height="19" viewBox="0 0 19 19" fill="none" xmlns="http://www.w3.org/2000/svg">
<path d="M9.50044 0.253906C6.46044 0.253906 2.78711 2.15391 2.78711 6.96724C2.78711 9.75391 6.58711 15.7072 8.61378 18.3672C8.99378 18.8739 9.75378 18.8739 10.1338 18.3672C12.0338 15.7072 16.0871 9.88057 16.0871 6.96724C16.2138 2.15391 12.5404 0.253906 9.50044 0.253906Z" fill="#D1B339"/>
<path d="M9.50055 3.04063L10.2605 4.94063L10.3872 5.32062H12.5405L11.1472 6.58729L10.7672 6.84063L10.8939 7.22063L11.6539 9.37396L9.88055 8.10729L9.50055 7.98063L9.12055 8.23396L7.34721 9.50063L8.10721 7.34729L8.23388 6.96729L7.85388 6.58729L6.46055 5.32062H8.61388L8.74055 4.94063L9.50055 3.04063ZM9.50055 1.14062L8.10721 4.56063H4.56055L7.34721 6.96729L5.95388 11.274L9.50055 8.86729L13.0472 11.274L11.6539 7.09396L14.4405 4.68729H10.8939L9.50055 1.14062Z" fill="white"/>
</svg>
