<svg width="19" height="19" viewBox="0 0 19 19" fill="none" xmlns="http://www.w3.org/2000/svg">
<path d="M9.50044 0.253906C6.46044 0.253906 2.78711 2.15391 2.78711 6.96724C2.78711 9.75391 6.58711 15.7072 8.61378 18.3672C8.99378 18.8739 9.75378 18.8739 10.1338 18.3672C12.0338 15.7072 16.0871 9.88057 16.0871 6.96724C16.2138 2.15391 12.5404 0.253906 9.50044 0.253906Z" fill="#6ECD4A"/>
<path d="M11.273 2.53516L11.0197 2.66182L8.73969 3.80182C8.35969 3.92849 8.23302 4.43516 8.48635 4.68849L9.11969 5.70182L6.33302 7.09516L7.72635 8.10849L9.49969 7.09516L11.273 8.10849L12.033 7.34849L9.87969 4.68849L11.653 3.67516C12.033 3.54849 11.9064 3.16849 11.9064 3.04182C11.9064 2.78849 11.653 2.53516 11.273 2.53516ZM12.793 4.68849C12.1597 4.68849 11.5264 5.19516 11.5264 5.95516C11.5264 6.71516 12.033 7.22182 12.793 7.22182C13.553 7.22182 14.0597 6.71516 14.0597 5.95516C14.0597 5.19516 13.553 4.68849 12.793 4.68849ZM5.95302 8.10849L4.17969 9.24849V10.2618L5.95302 9.24849L7.72635 10.2618L9.49969 9.24849L11.273 10.2618L12.6664 9.24849L14.8197 10.2618V9.24849L12.6664 8.10849L11.273 9.24849L9.49969 8.10849L7.72635 9.24849L5.95302 8.10849Z" fill="white"/>
</svg>
