<svg width="19" height="19" viewBox="0 0 19 19" fill="none" xmlns="http://www.w3.org/2000/svg">
<path d="M9.50044 0.253906C6.46044 0.253906 2.78711 2.15391 2.78711 6.96724C2.78711 9.75391 6.58711 15.7072 8.61378 18.3672C8.99378 18.8739 9.75378 18.8739 10.1338 18.3672C12.0338 15.7072 16.0871 9.88057 16.0871 6.96724C16.2138 2.15391 12.5404 0.253906 9.50044 0.253906Z" fill="#65B7B7"/>
<path d="M12.7925 8.2345C12.4125 8.6145 11.9058 8.86784 11.3992 8.9945L6.83917 4.4345C6.96583 3.92784 7.21917 3.42117 7.59917 3.04117C9.24583 1.3945 11.3992 1.0145 13.1725 2.78784C14.9458 4.56117 14.4392 6.58784 12.7925 8.2345ZM7.72583 9.3745C7.97917 9.24784 8.2325 8.9945 8.6125 8.9945C9.11917 8.9945 9.49917 8.9945 10.0058 9.12117L6.58583 5.9545C6.83917 6.3345 6.83917 6.84117 6.7125 7.34784C6.7125 7.60117 6.58583 7.8545 6.3325 8.10784C5.5725 8.9945 4.8125 9.3745 4.8125 9.7545C4.8125 10.3878 5.44583 11.0212 6.07917 11.0212C6.45917 11.0212 6.7125 10.2612 7.72583 9.3745Z" fill="white"/>
</svg>
