<svg width="19" height="19" viewBox="0 0 19 19" fill="none" xmlns="http://www.w3.org/2000/svg">
<path d="M9.50044 0.253906C6.46044 0.253906 2.78711 2.15391 2.78711 6.96724C2.78711 9.75391 6.58711 15.7072 8.61378 18.3672C8.99378 18.8739 9.75378 18.8739 10.1338 18.3672C12.0338 15.7072 16.0871 9.88057 16.0871 6.96724C16.2138 2.15391 12.5404 0.253906 9.50044 0.253906Z" fill="#B28E66"/>
<path d="M9.87951 5.06786C9.87951 5.06786 11.5262 4.9412 11.5262 3.92786C11.5262 3.29453 10.8928 3.0412 10.2595 2.91453C9.87951 2.78786 9.49951 2.6612 9.49951 2.40786C9.49951 1.77453 9.87951 1.39453 9.87951 1.39453C9.87951 1.39453 9.11951 1.77453 9.11951 2.53453C9.11951 3.0412 9.62617 3.29453 10.0062 3.4212C10.3862 3.54786 10.7662 3.8012 10.7662 4.1812C10.7662 4.9412 9.87951 5.06786 9.87951 5.06786ZM13.0462 6.33453C12.6662 7.85453 12.1595 9.62787 10.7662 10.2612V11.7812H8.23284V10.2612C6.83951 9.62787 6.33284 7.85453 5.95284 6.33453C5.95284 6.20786 5.82617 5.95453 5.82617 5.82786H13.2995C13.1728 5.95453 13.1728 6.20786 13.0462 6.33453ZM9.11951 4.30786C9.11951 5.06786 7.85284 5.06786 7.85284 5.06786C7.85284 5.06786 8.48617 5.06786 8.48617 4.5612C8.48617 4.30786 8.23284 4.1812 7.97951 4.05453C7.72617 3.92786 7.47284 3.8012 7.47284 3.4212C7.47284 2.91453 8.23284 2.53453 8.23284 2.53453C8.23284 2.53453 7.85284 2.6612 7.85284 3.29453C7.85284 3.54786 8.10617 3.67453 8.48617 3.8012C8.73951 3.92786 9.11951 4.05453 9.11951 4.30786Z" fill="white"/>
</svg>
