<svg width="21" height="21" viewBox="0 0 21 21" fill="none" xmlns="http://www.w3.org/2000/svg">
<rect width="21" height="21" rx="3" fill="white"/>
<mask id="mask0_30_770" style="mask-type:luminance" maskUnits="userSpaceOnUse" x="1" y="5" width="19" height="11">
<path d="M1.00122 15.4878V5.76848H20V15.4878H1.00122Z" fill="white"/>
</mask>
<g mask="url(#mask0_30_770)">
<path fill-rule="evenodd" clip-rule="evenodd" d="M13.4034 15.4949C13.4034 15.4949 15.4487 13.1945 18.0171 12.8611C18.0171 12.8611 19.1745 12.4943 19.777 13.7281C19.777 13.7281 20.3002 12.1276 19.7452 11.2442C19.7452 11.2442 19.3647 10.4605 18.1916 10.6439C18.1916 10.6439 16.3684 10.8772 14.1011 12.9943C14.1011 12.9943 13.5462 15.2116 13.4034 15.4949Z" fill="#7BCB2A"/>
<path fill-rule="evenodd" clip-rule="evenodd" d="M14.2358 11.3484C14.2358 11.3484 16.935 8.63527 18.5402 9.08541C18.5402 9.08541 18.9802 9.04773 19.6103 9.84802C19.6103 9.84802 18.9089 7.5849 17.3987 7.40992C17.3987 7.40992 15.7934 7.18496 13.9979 9.26032C13.9979 9.26032 14.2713 10.7231 14.2358 11.3484Z" fill="#7BCB2A"/>
<path fill-rule="evenodd" clip-rule="evenodd" d="M13.5461 7.78511C13.5461 7.78511 14.4141 6.53486 15.9957 6.22228C15.9957 6.22228 16.1066 6.16811 15.9323 6.12658C15.9323 6.12658 13.8552 5.45133 12.5235 5.95127C12.5235 5.95127 12.4581 5.95972 12.5175 6.02222C12.5175 6.02222 13.2726 7.19733 13.439 7.75999C13.439 7.75999 13.4628 7.84335 13.5461 7.78511Z" fill="#7BCB2A"/>
<path fill-rule="evenodd" clip-rule="evenodd" d="M6.70106 9.5855L6.69092 9.58556L6.69308 9.57701L6.70106 9.5855ZM6.70106 9.5855L8.99192 9.573L9.76482 9.55218C9.76482 9.55218 9.75889 9.0854 9.50907 9.07285L7.96341 9.05408C7.96341 9.05408 7.90981 8.72905 8.14176 8.71015L9.41404 8.69156C9.41404 8.69156 10.0562 8.67882 10.1572 9.34786L10.1953 9.55931L10.1988 9.5791L13.0546 9.58556C13.0546 9.58556 13.0705 9.77934 12.8565 9.86057L12.2798 9.91052C12.2798 9.91052 12.3391 10.1169 12.3094 10.2418C12.3094 10.2418 13.0169 10.3107 13.0526 11.0545C13.0526 11.0545 13.0765 11.4546 12.6543 11.4796L12.6841 11.2731C12.6841 11.2731 12.7672 10.6669 12.4046 10.6044L12.3094 10.5856V12.5735C12.3094 12.5735 12.1015 12.5861 11.9705 12.336L11.9409 12.3171C11.9409 12.3171 10.9301 12.2737 10.6625 11.8984C10.6625 11.8984 9.9967 11.0108 10.9718 10.4169C10.9718 10.4169 11.4594 10.2606 11.9111 10.2355C11.9111 10.2355 11.9765 10.2439 11.9527 10.123C11.9527 10.123 11.9924 9.93971 11.814 9.92726H8.54802L8.56984 12.0421C8.56984 12.0421 8.53209 12.2111 8.68672 12.1902C8.68672 12.1902 9.41205 12.1026 9.59831 11.5025C9.59831 11.5025 9.65386 11.1943 9.53485 11.0899C9.53485 11.0899 9.39027 10.9326 9.07514 11.042L9.00682 10.6887C9.00682 10.6887 9.44071 10.5201 9.75297 10.7545C9.75297 10.7545 10.1215 10.9484 9.91142 11.6776C9.91142 11.6776 9.69352 12.24 8.89281 12.5069C8.89281 12.5069 8.29631 12.6549 8.21008 12.5174L8.18723 10.1855L8.1794 10.123C8.1794 10.123 8.16744 9.93964 8.03272 9.91871H7.01414L6.70106 9.5855ZM10.8113 11.0524C10.8746 10.5524 11.9607 10.5856 11.9607 10.5856V11.9442L11.4217 11.8858C10.6209 11.7275 10.8113 11.0524 10.8113 11.0524Z" fill="#8F8D8D"/>
<path fill-rule="evenodd" clip-rule="evenodd" d="M1.34613 9.59375H3.62123C3.62123 9.59375 3.67677 9.12286 3.20108 9.04773H1.79803C1.79803 9.04773 1.68296 8.7519 2.07148 8.70195C2.07148 8.70195 2.88797 8.66439 3.2527 8.71014C3.2527 8.71014 3.84324 8.69347 3.95813 9.23549C3.95813 9.23549 3.98578 9.38135 3.97794 9.58974H4.43773C4.43773 9.58974 4.39616 8.7227 5.03223 8.71649H7.11919C7.11919 8.71649 7.28563 8.75417 7.23206 8.99169C7.23206 8.99169 7.2083 9.077 7.08939 9.07285L5.04816 9.09785C5.04816 9.09785 4.75484 9.10623 4.75484 9.43119V9.573V9.58974H6.94077C6.94077 9.58974 7.33309 9.64168 7.29762 10.2418C7.3034 10.842 7.31532 12.4236 7.31532 12.4236C7.31532 12.4236 7.2836 12.5819 7.2083 12.5442C7.2083 12.5442 6.99429 12.5194 6.96655 12.2737C6.93874 12.0276 6.94669 11.4422 6.94669 11.4422C6.94669 11.4422 6.89508 11.1191 6.68501 11.0815C6.68501 11.0815 6.54241 11.0148 6.43937 11.1899L6.24126 11.536C6.24126 11.536 6.12033 11.5702 6.09348 11.3546C6.09348 11.3546 6.00735 11.0169 5.79328 11.02C5.79328 11.02 5.4901 11.0138 5.4514 11.4045C5.4514 11.4045 5.35935 11.892 5.73975 11.9766L5.96869 12.014C5.96869 12.014 6.03116 12.0984 5.93893 12.3142C5.93893 12.3142 5.90328 12.4267 5.75763 12.3985C5.75763 12.3985 5.19277 12.3736 5.09767 11.6859C5.09767 11.6859 4.9936 10.7231 5.71003 10.6262C5.71003 10.6262 6.01033 10.5639 6.24222 10.9169L6.28074 10.8545C6.28074 10.8545 6.41461 10.4607 6.7743 10.6982L6.93491 10.8232V10.1106C6.93491 10.1106 6.91689 9.9074 6.79817 9.91052H4.76261C4.76261 9.91052 4.80244 9.9854 4.79836 10.0731L4.81823 12.5278C4.81823 12.5278 4.70734 12.5569 4.64789 12.5361C4.64789 12.5361 4.47339 12.461 4.46555 12.3111L4.4258 10.0856C4.4258 10.0856 4.43173 9.94801 4.24737 9.9262L2.341 9.92308L2.36879 12.0359C2.36879 12.0359 2.33698 12.1777 2.53511 12.1777C2.53511 12.1777 2.73734 12.1652 2.87611 12.0819C2.87611 12.0819 3.43495 11.79 3.44289 11.3734C3.44289 11.3734 3.46869 11.0451 3.20108 11.0138L2.90087 11.02C2.90087 11.02 2.8443 10.8951 2.84736 10.7701C2.84736 10.7701 2.7968 10.6388 3.12088 10.6326C3.12088 10.6326 3.46869 10.567 3.66185 10.8576C3.66185 10.8576 3.79556 10.9575 3.77483 11.3984C3.77483 11.3984 3.85109 11.7234 3.39137 12.1527C3.39137 12.1527 3.02264 12.4819 2.52326 12.5442C2.52326 12.5442 2.2459 12.6112 2.11896 12.5651C2.11896 12.5651 2.0081 12.5153 1.99615 12.4401L1.95258 10.0669C1.95258 10.0669 1.96443 9.9168 1.75035 9.9168L1.35801 9.92308L1.35199 12.2672C1.35199 12.2672 1.34021 12.7549 1.73264 12.7799L2.01786 12.7986C2.01786 12.7986 2.16656 12.8236 2.01202 13.0237C2.01202 13.0237 1.97037 13.1614 1.49477 13.0862C1.49477 13.0862 1.04289 12.9048 1.03094 12.261L1.00122 9.90417C1.00122 9.90417 1.06669 9.65835 1.34613 9.59375Z" fill="#7BCB2A"/>
</g>
</svg>
