<svg width="19" height="19" viewBox="0 0 19 19" fill="none" xmlns="http://www.w3.org/2000/svg">
<path d="M9.50044 0.253906C6.46044 0.253906 2.78711 2.15391 2.78711 6.96724C2.78711 9.75391 6.58711 15.7072 8.61378 18.3672C8.99378 18.8739 9.75378 18.8739 10.1338 18.3672C12.0338 15.7072 16.0871 9.88057 16.0871 6.96724C16.2138 2.15391 12.5404 0.253906 9.50044 0.253906Z" fill="#8666AF"/>
<path d="M6.83945 7.3451C6.71279 7.47177 6.71279 7.7251 6.83945 7.85177L7.34612 8.35844L5.69945 10.1318L5.44612 9.87844C5.06612 9.49844 4.93945 9.11844 4.93945 8.73844V7.59844C4.93945 7.21844 5.19279 6.71177 5.44612 6.45844L9.37279 2.53177C9.62612 2.15177 10.1328 2.0251 10.5128 1.89844H11.6528C12.0328 1.89844 12.5395 2.15177 12.7928 2.4051L13.0461 2.65844L11.3995 4.55844L10.7661 3.9251C10.6395 3.79844 10.3861 3.79844 10.2595 3.9251L6.83945 7.3451ZM6.58612 11.0184C6.83945 11.2718 7.34612 11.3984 7.72612 11.0184L8.23279 10.5118C8.48612 10.2584 8.61279 9.75177 8.23279 9.37177L6.58612 11.0184ZM12.1595 5.31844C12.4128 5.57177 12.9195 5.69844 13.2995 5.31844L13.9328 4.6851C14.1861 4.43177 14.3128 3.9251 13.9328 3.5451L12.1595 5.31844Z" fill="white"/>
</svg>
