<svg width="19" height="19" viewBox="0 0 19 19" fill="none" xmlns="http://www.w3.org/2000/svg">
<path d="M9.50044 0.253906C6.46044 0.253906 2.78711 2.15391 2.78711 6.96724C2.78711 9.75391 6.58711 15.7072 8.61378 18.3672C8.99378 18.8739 9.75378 18.8739 10.1338 18.3672C12.0338 15.7072 16.0871 9.88057 16.0871 6.96724C16.2138 2.15391 12.5404 0.253906 9.50044 0.253906Z" fill="#BA6525"/>
<path d="M13.4257 2.28031C12.4124 1.14031 10.259 1.64698 8.99237 3.04031C8.23237 3.92698 7.7257 4.94031 7.7257 6.08031C7.7257 6.71365 7.59904 7.34698 7.3457 7.98031C7.21904 7.98031 6.9657 7.98031 6.83904 8.10698L5.0657 9.88031C4.93904 10.007 4.93904 10.387 5.0657 10.5136C5.31904 10.6403 5.57237 10.6403 5.69904 10.5136L7.59904 8.86698C7.7257 8.74031 7.7257 8.61365 7.7257 8.36031C8.4857 8.10698 9.11904 7.98031 9.87904 7.98031C10.8924 7.85365 11.9057 7.47365 12.6657 6.71365C14.1857 5.19365 14.439 3.29365 13.4257 2.28031ZM11.9057 2.15365C12.2857 2.15365 12.7924 2.28031 13.0457 2.53365C13.4257 3.04031 13.5524 3.67365 13.4257 4.30698L11.2724 2.28031C11.5257 2.28031 11.6524 2.15365 11.9057 2.15365ZM8.73904 6.96698C8.23237 6.46031 8.1057 5.82698 8.35904 5.19365L10.5124 7.34698C9.87904 7.47365 9.2457 7.34698 8.73904 6.96698ZM10.7657 7.22031L8.4857 4.94031C8.61237 4.68698 8.73904 4.43365 8.8657 4.18031L11.5257 6.84031C11.2724 7.09365 11.019 7.22031 10.7657 7.22031ZM11.6524 6.84031L8.8657 4.05365C8.99237 3.80031 9.2457 3.54698 9.37237 3.42031L12.2857 6.33365C12.159 6.46031 11.9057 6.71365 11.6524 6.84031ZM12.4124 6.08031L9.49904 3.29365C9.75237 3.04031 9.87904 2.91365 10.1324 2.78698L12.919 5.57365C12.7924 5.70031 12.6657 5.95365 12.4124 6.08031ZM13.0457 5.32031L10.3857 2.66031C10.5124 2.53365 10.8924 2.40698 11.1457 2.40698L13.4257 4.68698C13.299 4.81365 13.1724 5.06698 13.0457 5.32031Z" fill="white"/>
</svg>
