<svg width="19" height="19" viewBox="0 0 19 19" fill="none" xmlns="http://www.w3.org/2000/svg">
<path d="M9.50044 0.253906C6.46044 0.253906 2.78711 2.15391 2.78711 6.96724C2.78711 9.75391 6.58711 15.7072 8.61378 18.3672C8.99378 18.8739 9.75378 18.8739 10.1338 18.3672C12.0338 15.7072 16.0871 9.88057 16.0871 6.96724C16.2138 2.15391 12.5404 0.253906 9.50044 0.253906Z" fill="#568ECC"/>
<path d="M6.45969 2.78516C6.58635 2.78516 6.71302 2.78516 6.71302 2.78516L10.893 4.43182L13.4264 3.41849C13.933 3.16516 14.4397 3.41849 14.693 3.92516C14.9464 4.43182 14.693 5.06516 14.1864 5.19182L7.47302 7.72516C6.96635 7.97849 6.33302 7.85182 5.95302 7.47182L4.30635 5.69849C4.17969 5.57182 4.30635 5.57182 4.30635 5.44516L4.68635 5.31849C4.81302 5.31849 4.93969 5.31849 5.06635 5.31849L6.58635 6.33182L8.86635 5.44516L6.07969 3.29182C5.95302 3.16516 5.95302 3.03849 6.07969 3.03849L6.45969 2.78516ZM4.55969 9.87849C4.30635 9.87849 4.17969 10.0052 4.17969 10.2585C4.17969 10.5118 4.30635 10.6385 4.55969 10.6385H14.5664C14.8197 10.6385 14.9464 10.5118 14.9464 10.2585C14.9464 10.0052 14.8197 9.87849 14.5664 9.87849H4.55969Z" fill="white"/>
</svg>
