<svg width="19" height="19" viewBox="0 0 19 19" fill="none" xmlns="http://www.w3.org/2000/svg">
<path d="M9.50044 0.253906C6.46044 0.253906 2.78711 2.15391 2.78711 6.96724C2.78711 9.75391 6.58711 15.7072 8.61378 18.3672C8.99378 18.8739 9.75378 18.8739 10.1338 18.3672C12.0338 15.7072 16.0871 9.88057 16.0871 6.96724C16.2138 2.15391 12.5404 0.253906 9.50044 0.253906Z" fill="#6ECD4A"/>
<path d="M5.69974 2.28125C5.69974 2.28125 5.06641 2.28125 5.06641 2.91458V6.46125C5.06641 7.60125 5.31974 9.12125 7.47307 9.12125H7.85307V7.09458L6.07974 7.85458C6.07974 7.85458 6.07974 6.08125 7.85307 6.08125V5.06792C7.85307 4.56125 7.85307 4.18125 8.23307 3.80125C8.35974 3.54792 8.86641 3.04125 10.0064 3.54792L10.6397 3.92792V3.04125C10.6397 3.04125 10.6397 2.40792 10.0064 2.40792C9.49974 2.40792 8.61307 3.04125 7.97974 3.04125C7.34641 3.04125 6.33307 2.28125 5.69974 2.28125ZM6.45974 3.67458C6.83974 3.67458 7.09307 3.92792 7.09307 4.30792C7.09307 4.68792 6.83974 5.06792 6.45974 5.06792C6.07974 5.06792 5.69974 4.81458 5.69974 4.43458C5.69974 4.05458 6.07974 3.67458 6.45974 3.67458ZM9.11974 4.43458C9.11974 4.43458 8.48641 4.43458 8.48641 5.06792V8.48792C8.48641 9.88125 9.11974 11.2746 11.2731 11.2746C13.4264 11.2746 13.9331 9.88125 13.9331 8.48792V5.06792C13.9331 4.43458 13.2997 4.43458 13.2997 4.43458C12.7931 4.43458 11.9064 5.06792 11.2731 5.06792C10.6397 5.06792 9.75307 4.43458 9.11974 4.43458ZM9.87974 5.70125C10.2597 5.70125 10.5131 5.95458 10.5131 6.33458C10.5131 6.71458 10.2597 6.96792 9.87974 6.96792C9.49974 6.96792 9.24641 6.71458 9.24641 6.33458C9.11974 6.08125 9.49974 5.70125 9.87974 5.70125ZM12.5397 5.70125C12.9197 5.70125 13.1731 5.95458 13.1731 6.33458C13.1731 6.71458 12.9197 6.96792 12.5397 6.96792C12.1597 6.96792 11.9064 6.84125 11.9064 6.46125C11.9064 6.08125 12.1597 5.70125 12.5397 5.70125ZM9.49974 8.48792H11.2731H13.0464C13.0464 8.48792 13.0464 10.2613 11.2731 10.2613C9.49974 10.2613 9.49974 8.48792 9.49974 8.48792Z" fill="white"/>
</svg>
