<svg width="19" height="19" viewBox="0 0 19 19" fill="none" xmlns="http://www.w3.org/2000/svg">
<path d="M9.50044 0.253906C6.46044 0.253906 2.78711 2.15391 2.78711 6.96724C2.78711 9.75391 6.58711 15.7072 8.61378 18.3672C8.99378 18.8739 9.75378 18.8739 10.1338 18.3672C12.0338 15.7072 16.0871 9.88057 16.0871 6.96724C16.2138 2.15391 12.5404 0.253906 9.50044 0.253906Z" fill="#7986CB"/>
<path d="M6.46057 2.78677C6.46057 3.4201 6.84057 3.8001 7.4739 3.8001C8.10723 3.8001 8.48723 3.29344 8.48723 2.78677C8.48723 2.2801 7.98057 1.77344 7.4739 1.77344C6.84057 1.77344 6.46057 2.15344 6.46057 2.78677ZM12.2872 1.77344C12.9206 1.77344 13.3006 2.2801 13.3006 2.78677C13.3006 3.29344 12.9206 3.8001 12.2872 3.8001C11.6539 3.8001 11.2739 3.4201 11.2739 2.78677C11.2739 2.15344 11.7806 1.77344 12.2872 1.77344ZM6.58723 4.5601C6.3339 4.5601 6.08057 4.68677 5.9539 4.9401L4.68723 7.2201C4.56057 7.34677 4.68723 7.47344 4.8139 7.6001C4.94057 7.72677 5.1939 7.6001 5.32057 7.47344L6.3339 5.82677C5.9539 7.09344 5.44723 8.23344 5.06723 9.5001H6.46057V11.2734C6.46057 11.5268 6.58723 11.6534 6.84057 11.6534C7.0939 11.6534 7.22057 11.5268 7.22057 11.2734V9.37344H7.98057V11.1468C7.98057 11.4001 8.10723 11.5268 8.36057 11.5268C8.6139 11.5268 8.48723 11.4001 8.48723 11.1468V9.37344H9.88057L8.6139 5.7001L9.62723 7.47344C9.7539 7.72677 9.88057 7.72677 10.1339 7.6001C10.2606 7.6001 10.2606 7.34677 10.2606 7.2201L8.86723 4.9401C8.74057 4.68677 8.6139 4.5601 8.36057 4.5601H6.58723ZM10.6406 4.9401C10.6406 4.68677 10.7672 4.5601 11.0206 4.5601H13.8072C14.0606 4.5601 14.1872 4.68677 14.1872 4.9401V8.48677C14.1872 8.7401 14.0606 8.86677 13.8072 8.86677C13.5539 8.86677 13.4272 8.7401 13.4272 8.48677V11.2734C13.4272 11.5268 13.3006 11.6534 13.0472 11.6534C12.7939 11.5268 12.6672 11.4001 12.6672 11.1468V8.3601H12.0339V11.1468C12.0339 11.4001 11.9072 11.5268 11.6539 11.5268C11.4006 11.5268 11.2739 11.4001 11.2739 11.1468V8.3601C11.2739 8.61344 11.1472 8.7401 10.8939 8.7401C10.6406 8.7401 10.6406 8.61344 10.6406 8.3601V4.9401Z" fill="white"/>
</svg>
