<svg width="19" height="19" viewBox="0 0 19 19" fill="none" xmlns="http://www.w3.org/2000/svg">
<path d="M9.50044 0.253906C6.46044 0.253906 2.78711 2.15391 2.78711 6.96724C2.78711 9.75391 6.58711 15.7072 8.61378 18.3672C8.99378 18.8739 9.75378 18.8739 10.1338 18.3672C12.0338 15.7072 16.0871 9.88057 16.0871 6.96724C16.2138 2.15391 12.5404 0.253906 9.50044 0.253906Z" fill="#BF6D93"/>
<path d="M6.45997 2.53516C5.95331 2.53516 5.57331 2.91516 5.57331 3.42182C5.57331 3.92849 5.95331 4.30849 6.45997 4.30849H7.59997L7.09331 5.95516H5.19331C4.68664 5.95516 4.30664 6.33516 4.30664 6.84182C4.30664 7.34849 4.68664 7.72849 5.19331 7.72849H6.45997L5.57331 10.2618C5.57331 10.6418 5.69997 11.0218 6.07997 11.1485C6.45997 11.2752 6.83997 11.0218 6.83997 10.7685L7.85331 7.72849H11.1466L12.16 10.7685C12.2866 11.1485 12.6666 11.2752 12.92 11.1485C13.1733 11.0218 13.4266 10.6418 13.3 10.3885L12.4133 7.85516H13.68C14.1866 7.85516 14.5666 7.47516 14.5666 6.96849C14.5666 6.46182 14.1866 6.08182 13.68 6.08182H11.9066L11.4 4.30849H12.54C13.0466 4.30849 13.4266 3.92849 13.4266 3.42182C13.4266 2.91516 13.0466 2.53516 12.54 2.53516H6.45997ZM8.99331 4.30849H10.1333L10.64 6.08182H8.35997L8.99331 4.30849Z" fill="white"/>
</svg>
