<svg width="19" height="19" viewBox="0 0 19 19" fill="none" xmlns="http://www.w3.org/2000/svg">
<path d="M9.50044 0.253906C6.46044 0.253906 2.78711 2.15391 2.78711 6.96724C2.78711 9.75391 6.58711 15.7072 8.61378 18.3672C8.99378 18.8739 9.75378 18.8739 10.1338 18.3672C12.0338 15.7072 16.0871 9.88057 16.0871 6.96724C16.2138 2.15391 12.5404 0.253906 9.50044 0.253906Z" fill="#1D6A7C"/>
<path d="M10.8935 6.96677C12.1602 6.58677 12.9202 5.44677 12.9202 4.1801H5.9535C5.9535 5.44677 6.84017 6.58677 7.98017 6.96677L7.4735 7.9801C6.46017 7.85344 5.44683 8.48677 5.1935 9.62677C5.06683 10.6401 5.82683 11.6534 6.84017 11.7801C7.60017 11.9068 8.2335 11.6534 8.74017 11.1468H12.0335L12.2868 11.6534C12.2868 11.7801 12.4135 11.9068 12.6668 11.9068H12.7935C13.0468 11.7801 13.0468 11.5268 12.9202 11.4001L10.8935 6.96677ZM7.22017 10.8934C6.7135 10.8934 6.20683 10.5134 6.20683 9.8801C6.20683 9.24677 6.58683 8.86677 7.22017 8.86677C7.8535 8.86677 8.2335 9.24677 8.2335 9.8801C8.10683 10.5134 7.72683 10.8934 7.22017 10.8934ZM9.12017 10.2601C9.24683 9.50011 8.86683 8.7401 8.2335 8.23344L8.86683 7.09344C9.3735 7.2201 9.7535 7.2201 10.2602 7.09344L11.7802 10.2601H9.12017ZM7.34683 1.77344C7.22017 1.77344 7.0935 1.9001 7.0935 2.02677C7.0935 2.40677 6.7135 2.40677 6.7135 2.40677C5.9535 2.40677 5.9535 3.16677 5.9535 3.16677C5.9535 3.29344 6.08017 3.4201 6.20683 3.4201C6.3335 3.29344 6.3335 3.16677 6.3335 3.0401C6.3335 2.6601 6.7135 2.6601 6.7135 2.6601C7.60017 2.6601 7.60017 1.9001 7.60017 1.9001C7.60017 1.77344 7.4735 1.77344 7.34683 1.77344ZM8.86683 1.77344C8.86683 1.77344 8.74017 1.77344 8.74017 1.9001C8.74017 2.2801 8.36017 2.2801 8.36017 2.2801C7.60017 2.2801 7.60017 3.0401 7.60017 3.0401C7.60017 3.16677 7.60017 3.29344 7.72683 3.29344C7.8535 3.29344 7.98017 3.16677 7.98017 3.0401C7.98017 2.6601 8.36017 2.6601 8.36017 2.6601C9.12017 2.6601 9.12017 1.9001 9.12017 1.9001C9.12017 1.77344 8.9935 1.77344 8.86683 1.77344ZM10.5135 1.77344C10.3868 1.77344 10.2602 1.9001 10.2602 2.02677C10.2602 2.40677 9.88017 2.40677 9.88017 2.40677C9.12017 2.40677 9.12017 3.16677 9.12017 3.16677C9.12017 3.29344 9.24683 3.4201 9.3735 3.4201C9.50017 3.4201 9.62683 3.29344 9.62683 3.16677C9.62683 2.78677 10.0068 2.78677 10.0068 2.78677C10.7668 2.78677 10.7668 2.02677 10.7668 2.02677C10.6402 1.77344 10.6402 1.77344 10.5135 1.77344ZM12.0335 1.77344C11.9068 1.77344 11.7802 1.9001 11.7802 2.02677C11.7802 2.2801 11.4002 2.2801 11.4002 2.2801C10.6402 2.2801 10.6402 3.0401 10.6402 3.0401C10.6402 3.16677 10.7668 3.29344 10.8935 3.29344C11.0202 3.29344 11.1468 3.16677 11.1468 3.0401C11.0202 2.6601 11.4002 2.6601 11.4002 2.6601C12.1602 2.6601 12.1602 1.9001 12.1602 1.9001C12.2868 1.77344 12.1602 1.77344 12.0335 1.77344ZM13.5535 1.77344C13.4268 1.77344 13.3002 1.9001 13.3002 2.02677C13.3002 2.40677 12.9202 2.40677 12.9202 2.40677C12.1602 2.40677 12.1602 3.16677 12.1602 3.16677C12.1602 3.29344 12.2868 3.4201 12.4135 3.4201C12.5402 3.4201 12.6668 3.29344 12.6668 3.16677C12.6668 2.78677 13.0468 2.78677 13.0468 2.78677C13.8068 2.78677 13.8068 2.02677 13.8068 2.02677C13.8068 1.77344 13.6802 1.77344 13.5535 1.77344Z" fill="white"/>
</svg>
