<svg width="19" height="19" viewBox="0 0 19 19" fill="none" xmlns="http://www.w3.org/2000/svg">
<path d="M9.50044 0.253906C6.46044 0.253906 2.78711 2.15391 2.78711 6.96724C2.78711 9.75391 6.58711 15.7072 8.61378 18.3672C8.99378 18.8739 9.75378 18.8739 10.1338 18.3672C12.0338 15.7072 16.0871 9.88057 16.0871 6.96724C16.2138 2.15391 12.5404 0.253906 9.50044 0.253906Z" fill="#476596"/>
<path d="M13.1731 4.30844H10.5131V2.28177L9.49974 1.64844L8.48641 2.28177V4.30844H5.82641L5.06641 4.94177V5.5751H13.9331V4.94177L13.1731 4.30844ZM9.49974 2.66177C9.75307 2.66177 10.0064 2.9151 10.0064 3.16844C10.0064 3.42177 9.75307 3.6751 9.49974 3.6751C9.24641 3.6751 8.99307 3.42177 8.99307 3.04177C8.99307 2.78844 9.24641 2.66177 9.49974 2.66177ZM13.1731 6.3351H5.82641V8.9951L5.06641 10.0084V11.0218H13.9331V10.0084L13.2997 8.9951V6.3351H13.1731ZM7.85307 10.0084H7.09307V6.96844H7.72641V10.0084H7.85307ZM9.87974 10.0084H9.11974V6.96844H9.75307V10.0084H9.87974ZM11.9064 10.0084H11.1464V6.96844H11.7797V10.0084H11.9064Z" fill="white"/>
</svg>
