<svg width="19" height="19" viewBox="0 0 19 19" fill="none" xmlns="http://www.w3.org/2000/svg">
<path d="M9.50044 0.253906C6.46044 0.253906 2.78711 2.15391 2.78711 6.96724C2.78711 9.75391 6.58711 15.7072 8.61378 18.3672C8.99378 18.8739 9.75378 18.8739 10.1338 18.3672C12.0338 15.7072 16.0871 9.88057 16.0871 6.96724C16.2138 2.15391 12.5404 0.253906 9.50044 0.253906Z" fill="#479176"/>
<path d="M9.49923 2.28016C9.24589 2.15349 9.11923 2.28016 8.99256 2.53349L4.93923 9.88016C4.68589 10.2602 4.93923 10.7668 5.44589 10.7668H13.6792C14.1859 10.7668 14.4392 10.2602 14.1859 9.88016L10.0059 2.53349C9.87923 2.28016 9.75256 2.28016 9.49923 2.28016ZM9.49923 4.05349L12.5392 9.62683H6.45923L9.49923 4.05349Z" fill="white"/>
</svg>
