<svg width="23" height="22" viewBox="0 0 23 22" fill="none" xmlns="http://www.w3.org/2000/svg">
<path d="M9.73802 2.94856L1.26802 17.0886C1.09339 17.391 1.00099 17.7339 1.00001 18.0831C0.99903 18.4323 1.08951 18.7757 1.26245 19.0791C1.43538 19.3825 1.68474 19.6353 1.98573 19.8124C2.28671 19.9895 2.62882 20.0847 2.97802 20.0886H19.918C20.2672 20.0847 20.6093 19.9895 20.9103 19.8124C21.2113 19.6353 21.4607 19.3825 21.6336 19.0791C21.8065 18.7757 21.897 18.4323 21.896 18.0831C21.8951 17.7339 21.8027 17.391 21.628 17.0886L13.158 2.94856C12.9797 2.65467 12.7287 2.41168 12.4292 2.24305C12.1297 2.07441 11.7918 1.98582 11.448 1.98582C11.1043 1.98582 10.7663 2.07441 10.4668 2.24305C10.1673 2.41168 9.91629 2.65467 9.73802 2.94856Z" stroke="black" stroke-width="2" stroke-linecap="round" stroke-linejoin="round"/>
</svg>
