<svg width="21" height="19" viewBox="0 0 21 19" fill="none" xmlns="http://www.w3.org/2000/svg">
<path d="M8.73802 0.962744L0.268019 15.1027C0.0933869 15.4052 0.00098566 15.748 7.84213e-06 16.0973C-0.000969976 16.4465 0.0895097 16.7899 0.262445 17.0933C0.435381 17.3967 0.684744 17.6495 0.985727 17.8266C1.28671 18.0037 1.62882 18.0989 1.97802 18.1027H18.918C19.2672 18.0989 19.6093 18.0037 19.9103 17.8266C20.2113 17.6495 20.4607 17.3967 20.6336 17.0933C20.8065 16.7899 20.897 16.4465 20.896 16.0973C20.8951 15.748 20.8027 15.4052 20.628 15.1027L12.158 0.962744C11.9797 0.66885 11.7287 0.425863 11.4292 0.257228C11.1297 0.0885919 10.7918 0 10.448 0C10.1043 0 9.76635 0.0885919 9.46682 0.257228C9.1673 0.425863 8.91629 0.66885 8.73802 0.962744Z" fill="black"/>
</svg>
