<svg width="19" height="19" viewBox="0 0 19 19" fill="none" xmlns="http://www.w3.org/2000/svg">
<path d="M9.50044 0.253906C6.46044 0.253906 2.78711 2.15391 2.78711 6.96724C2.78711 9.75391 6.58711 15.7072 8.61378 18.3672C8.99378 18.8739 9.75378 18.8739 10.1338 18.3672C12.0338 15.7072 16.0871 9.88057 16.0871 6.96724C16.2138 2.15391 12.5404 0.253906 9.50044 0.253906Z" fill="#478C93"/>
<path d="M9.50083 2.53516C9.37417 2.53516 9.12083 2.66182 9.12083 2.78849L4.6875 9.88182C4.6875 9.88182 4.6875 10.0085 4.6875 10.1352C4.6875 10.5152 4.94083 10.6418 5.19417 10.6418H13.8075C14.0608 10.6418 14.3142 10.5152 14.3142 10.1352C14.3142 10.0085 14.3142 10.0085 14.3142 9.88182L10.0075 2.78849C9.88083 2.66182 9.75417 2.53516 9.50083 2.53516Z" fill="white"/>
</svg>
