<svg width="19" height="19" viewBox="0 0 19 19" fill="none" xmlns="http://www.w3.org/2000/svg">
<path d="M9.50044 0.253906C6.46044 0.253906 2.78711 2.15391 2.78711 6.96724C2.78711 9.75391 6.58711 15.7072 8.61378 18.3672C8.99378 18.8739 9.75378 18.8739 10.1338 18.3672C12.0338 15.7072 16.0871 9.88057 16.0871 6.96724C16.2138 2.15391 12.5404 0.253906 9.50044 0.253906Z" fill="#48688C"/>
<path d="M6.96583 2.53292C5.82583 2.53292 4.8125 3.54625 4.8125 4.68625V9.75292C4.8125 10.1329 5.1925 10.5129 5.5725 10.5129H6.3325V7.21958C6.3325 5.44625 7.72583 4.05292 9.49917 4.05292C11.2725 4.05292 12.6658 5.44625 12.6658 7.21958V10.3862H13.4258C13.8058 10.3862 14.1858 10.0062 14.1858 9.62625V4.55958C14.1858 3.41958 13.1725 2.40625 12.0325 2.40625H6.96583V2.53292ZM12.0325 8.23292V7.59958C12.0325 6.07958 10.8925 4.81292 9.49917 4.81292C8.10583 4.81292 6.96583 6.07958 6.96583 7.59958V10.3862L12.0325 8.23292Z" fill="white"/>
</svg>
