<svg width="19" height="19" viewBox="0 0 19 19" fill="none" xmlns="http://www.w3.org/2000/svg">
<path d="M9.50044 0.253906C6.46044 0.253906 2.78711 2.15391 2.78711 6.96724C2.78711 9.75391 6.58711 15.7072 8.61378 18.3672C8.99378 18.8739 9.75378 18.8739 10.1338 18.3672C12.0338 15.7072 16.0871 9.88057 16.0871 6.96724C16.2138 2.15391 12.5404 0.253906 9.50044 0.253906Z" fill="#894747"/>
<path d="M9.50091 5.06677C7.72758 5.06677 7.34758 6.71344 7.34758 7.47344C6.96758 7.6001 6.46091 7.85344 6.08091 8.10677C5.57424 8.61344 5.44758 9.5001 5.82758 10.1334C6.33424 10.7668 7.22091 10.8934 7.85424 10.3868C8.36091 10.1334 8.86758 9.8801 9.50091 9.8801C10.1342 9.8801 10.6409 10.1334 11.1476 10.3868C11.7809 10.8934 12.6676 10.7668 13.1742 10.1334C13.6809 9.5001 13.5542 8.7401 13.0476 8.23344L12.9209 8.10677C12.5409 7.85344 12.1609 7.6001 11.6542 7.47344C11.6542 6.71344 11.2742 5.06677 9.50091 5.06677ZM5.70091 3.8001C5.06758 4.05344 4.94091 4.68677 5.06758 5.3201C5.06758 5.95344 5.57424 6.33344 6.20758 6.33344C6.71424 6.0801 6.96758 5.44677 6.71424 4.9401C6.71424 4.30677 6.20758 3.8001 5.70091 3.8001ZM13.3009 3.8001C13.9342 4.05344 14.0609 4.68677 13.9342 5.3201C13.9342 5.95344 13.4276 6.33344 12.7942 6.33344C12.2876 5.95344 12.0342 5.44677 12.1609 4.81344C12.2876 4.30677 12.7942 3.8001 13.3009 3.8001ZM7.72758 1.77344C7.22091 1.9001 6.96758 2.40677 7.22091 3.0401C7.34758 3.67344 7.72758 4.05344 8.36091 4.1801C8.86758 4.05344 9.12091 3.4201 8.86758 2.78677C8.86758 2.15344 8.36091 1.77344 7.72758 1.77344ZM11.2742 1.77344C11.7809 1.9001 12.0342 2.40677 11.7809 3.0401C11.6542 3.67344 11.1476 4.05344 10.6409 4.1801C10.1342 4.05344 9.88091 3.4201 10.1342 2.78677C10.1342 2.15344 10.6409 1.77344 11.2742 1.77344Z" fill="white"/>
</svg>
