<svg width="19" height="19" viewBox="0 0 19 19" fill="none" xmlns="http://www.w3.org/2000/svg">
<path d="M9.50044 0.253906C6.46044 0.253906 2.78711 2.15391 2.78711 6.96724C2.78711 9.75391 6.58711 15.7072 8.61378 18.3672C8.99378 18.8739 9.75378 18.8739 10.1338 18.3672C12.0338 15.7072 16.0871 9.88057 16.0871 6.96724C16.2138 2.15391 12.5404 0.253906 9.50044 0.253906Z" fill="#484887"/>
<path d="M8.36055 7.22182C8.23388 7.34849 8.10721 7.47516 7.98055 7.60182L4.56055 4.94182C4.94055 4.43516 5.32055 4.05516 5.70055 3.80182L8.36055 7.22182ZM13.3005 3.80182L10.6405 7.22182C10.7672 7.34849 10.8939 7.47516 11.0205 7.60182L14.4405 4.94182C14.0605 4.43516 13.6805 4.05516 13.3005 3.80182ZM9.37388 8.48849C8.74055 8.61516 8.36055 9.12182 8.36055 9.75516C8.48721 10.3885 8.99388 10.7685 9.62721 10.7685C10.2605 10.6418 10.6405 10.1352 10.6405 9.50182C10.5139 8.86849 10.0072 8.36182 9.37388 8.48849ZM8.74055 2.53516C8.10721 2.66182 7.60055 2.78849 7.09388 2.91516L8.74055 6.96849C8.86721 6.84182 8.99388 6.84182 9.24721 6.84182L8.74055 2.53516ZM10.2605 2.53516L9.75388 6.84182C9.88055 6.84182 10.0072 6.84182 10.2605 6.96849L11.9072 2.91516C11.4005 2.78849 10.8939 2.66182 10.2605 2.53516Z" fill="white"/>
</svg>
