<svg width="19" height="19" viewBox="0 0 19 19" fill="none" xmlns="http://www.w3.org/2000/svg">
<path d="M9.50044 0.253906C6.46044 0.253906 2.78711 2.15391 2.78711 6.96724C2.78711 9.75391 6.58711 15.7072 8.61378 18.3672C8.99378 18.8739 9.75378 18.8739 10.1338 18.3672C12.0338 15.7072 16.0871 9.88057 16.0871 6.96724C16.2138 2.15391 12.5404 0.253906 9.50044 0.253906Z" fill="#478447"/>
<path d="M8.23318 2.27859C8.10651 2.15193 7.97984 2.15193 7.97984 2.27859L4.55984 5.69859C4.43318 5.82526 4.43318 5.95193 4.55984 5.95193H4.68651H5.82651V11.1453C5.69984 11.3986 5.82651 11.3986 5.95318 11.3986H8.61318C8.73984 11.3986 8.86651 11.3986 8.86651 11.2719V5.57193V5.44526L10.0065 4.17859L8.23318 2.27859ZM8.10651 9.87859H7.21984V9.11859H7.97984V9.87859H8.10651ZM8.10651 8.35859H7.21984V7.59859H7.97984V8.35859H8.10651ZM8.10651 6.07859V6.83859H7.21984V6.07859H8.10651ZM13.2998 3.67193H12.9198C12.7932 3.67193 12.6665 3.79859 12.6665 3.92526V5.31859L11.6532 3.79859C11.5265 3.79859 11.5265 3.79859 11.3998 3.79859L9.62651 5.95193V6.07859V11.2719C9.62651 11.3986 9.62651 11.3986 9.75318 11.3986H10.8932C11.0198 11.3986 11.1465 11.3986 11.1465 11.2719V9.87859H11.9065V11.2719C11.9065 11.3986 12.0332 11.3986 12.1598 11.3986H13.2998C13.4265 11.3986 13.5532 11.2719 13.5532 11.1453V3.92526C13.4265 3.79859 13.4265 3.67193 13.2998 3.67193ZM11.1465 7.59859H10.3865V6.83859H11.1465V7.59859ZM12.6665 7.59859H11.9065V6.83859H12.6665V7.59859ZM11.1465 9.11859H10.3865V8.35859H11.1465V9.11859ZM12.6665 9.11859H11.9065V8.35859H12.6665V9.11859Z" fill="white"/>
</svg>
