<svg width="19" height="19" viewBox="0 0 19 19" fill="none" xmlns="http://www.w3.org/2000/svg">
<path d="M9.50044 0.253906C6.46044 0.253906 2.78711 2.15391 2.78711 6.96724C2.78711 9.75391 6.58711 15.7072 8.61378 18.3672C8.99378 18.8739 9.75378 18.8739 10.1338 18.3672C12.0338 15.7072 16.0871 9.88057 16.0871 6.96724C16.2138 2.15391 12.5404 0.253906 9.50044 0.253906Z" fill="#AF6D31"/>
<path d="M10.2598 1.89844C10.1331 1.89844 10.0065 1.89844 10.0065 2.0251L8.7398 3.67177L7.47313 2.4051C7.09313 2.15177 6.4598 2.65844 6.8398 3.03844L8.10646 4.93844C8.23313 5.19177 8.61313 5.19177 8.7398 4.93844C8.86646 4.81177 9.1198 4.43177 9.4998 4.43177C9.8798 4.43177 10.1331 4.81177 10.2598 4.93844C10.3865 5.0651 10.6398 5.19177 10.7665 4.93844L12.1598 3.79844C12.5398 3.5451 12.1598 2.91177 11.7798 3.1651L10.6398 3.67177V2.27844C10.6398 2.0251 10.5131 1.89844 10.2598 1.89844ZM7.47313 5.95177L5.19313 10.6384C5.19313 10.6384 5.19313 10.7651 5.19313 10.8918C5.06646 11.3984 5.44646 11.5251 5.6998 11.5251H13.4265C13.6798 11.5251 13.9331 11.3984 13.9331 10.8918C13.9331 10.7651 13.9331 10.7651 13.9331 10.6384L11.5265 5.95177C11.1465 5.95177 10.6398 6.33177 10.6398 6.71177V7.09177C10.6398 7.3451 10.5131 7.47177 10.2598 7.47177C10.0065 7.47177 9.8798 7.3451 9.8798 7.09177V6.71177C9.8798 6.45844 9.75313 6.33177 9.4998 6.33177C9.24646 6.33177 9.11979 6.45844 9.11979 6.71177V8.35844C9.11979 8.61177 8.99313 8.73844 8.7398 8.73844C8.48646 8.73844 8.3598 8.61177 8.3598 8.35844V6.71177C8.3598 6.33177 7.85313 5.95177 7.47313 5.95177Z" fill="white"/>
</svg>
