<svg width="19" height="19" viewBox="0 0 19 19" fill="none" xmlns="http://www.w3.org/2000/svg">
<path d="M9.50044 0.253906C6.46044 0.253906 2.78711 2.15391 2.78711 6.96724C2.78711 9.75391 6.58711 15.7072 8.61378 18.3672C8.99378 18.8739 9.75378 18.8739 10.1338 18.3672C12.0338 15.7072 16.0871 9.88057 16.0871 6.96724C16.2138 2.15391 12.5404 0.253906 9.50044 0.253906Z" fill="#C97043"/>
<path d="M14.4405 6.96844C14.4405 7.22177 14.4405 7.4751 14.3139 7.72844C13.9339 7.22177 13.3005 6.84177 12.6672 6.58844C12.2872 6.3351 12.0339 6.20844 11.6539 6.08177C11.1472 5.9551 10.6405 5.82844 10.2605 5.82844C9.88055 5.44844 9.62721 4.94177 9.50055 4.4351C9.88055 4.4351 10.2605 4.4351 10.6405 4.56177C11.0205 4.68844 11.4005 4.8151 11.9072 4.94177C12.2872 5.06844 12.6672 5.1951 12.9205 5.44844C13.5539 5.82844 14.0605 6.3351 14.4405 6.96844ZM13.0472 3.16844C12.6672 2.66177 12.1605 2.40844 11.6539 2.1551C11.4005 2.02844 11.1472 1.90177 10.8939 1.90177C10.3872 1.7751 10.0072 1.64844 9.62721 1.64844C9.50055 1.64844 9.50055 1.64844 9.37388 1.64844C9.37388 2.02844 9.24721 2.40844 9.24721 2.78844C9.24721 2.9151 9.24721 3.04177 9.24721 3.2951C9.37388 3.2951 9.37388 3.2951 9.50055 3.2951C9.62721 3.2951 9.62721 3.2951 9.75388 3.2951C10.1339 3.2951 10.5139 3.2951 10.8939 3.42177C11.2739 3.54844 11.6539 3.54844 11.9072 3.6751C12.2872 3.80177 12.6672 3.92844 13.0472 4.18177C13.4272 4.4351 13.8072 4.68844 14.0605 4.94177C13.9339 4.18177 13.5539 3.6751 13.0472 3.16844ZM6.84055 7.60177C6.58721 7.22177 6.46055 6.96844 6.33388 6.58844C6.20721 6.20844 6.08055 5.82844 6.08055 5.44844C5.95388 5.06844 5.95388 4.56177 5.95388 4.18177C5.95388 3.80177 5.95388 3.54844 6.08055 3.16844C5.44721 3.6751 5.06721 4.30844 4.81388 4.94177C4.68721 5.44844 4.56055 6.08177 4.56055 6.58844C4.56055 6.7151 4.56055 6.84177 4.56055 6.96844C4.56055 7.22177 4.56055 7.4751 4.68721 7.72844C4.81388 8.10844 4.81388 8.36177 5.06721 8.74177C5.19388 8.74177 5.44721 8.6151 5.57388 8.6151C6.08055 8.48844 6.58721 8.2351 7.09388 7.98177C6.84055 7.72844 6.84055 7.72844 6.84055 7.60177ZM8.86721 5.82844C8.61388 5.44844 8.48721 4.94177 8.36055 4.4351C8.23388 4.0551 8.23388 3.6751 8.10721 3.2951C8.10721 3.04177 8.10721 2.9151 8.10721 2.66177C8.10721 2.40844 8.10721 2.02844 8.10721 1.7751C7.85388 1.7751 7.60055 1.90177 7.34721 2.02844C7.22055 2.66177 7.09388 3.16844 7.09388 3.6751C7.09388 3.80177 7.09388 4.0551 7.09388 4.18177C7.09388 4.4351 7.09388 4.68844 7.09388 4.94177C7.09388 5.32177 7.22055 5.82844 7.34721 6.20844C7.47388 6.58844 7.60055 6.84177 7.85388 7.22177C8.23388 6.7151 8.61388 6.3351 8.86721 5.82844ZM13.5539 8.48844C13.1739 8.10844 12.6672 7.8551 12.1605 7.60177C12.1605 7.72844 12.0339 7.72844 12.0339 7.8551C11.9072 8.2351 11.6539 8.48844 11.4005 8.74177C11.1472 9.12177 10.8939 9.37511 10.5139 9.62844C10.2605 9.88177 9.88055 10.1351 9.50055 10.3884C8.86721 10.7684 8.23388 11.0218 7.47388 11.1484C8.74055 11.7818 10.2605 11.7818 11.5272 11.1484C12.2872 10.8951 12.9205 10.3884 13.4272 9.62844C13.6805 9.50177 13.8072 9.24844 13.9339 8.86844C13.8072 8.74177 13.6805 8.6151 13.5539 8.48844ZM9.50055 6.96844C9.24721 7.34844 8.86721 7.72844 8.48721 8.10844C8.23388 8.36177 7.98055 8.61511 7.60055 8.74177C6.96721 9.24844 6.33388 9.50177 5.57388 9.7551C5.70055 9.88177 5.82721 10.0084 5.95388 10.1351C6.84055 10.1351 7.60055 9.88177 8.36055 9.62844C8.86721 9.50177 9.12055 9.24844 9.50055 8.99511C9.88055 8.74177 10.1339 8.36177 10.5139 8.10844C10.7672 7.85511 11.0205 7.4751 11.1472 7.22177C10.6405 7.0951 10.0072 6.96844 9.50055 6.96844Z" fill="white"/>
</svg>
