<svg width="19" height="19" viewBox="0 0 19 19" fill="none" xmlns="http://www.w3.org/2000/svg">
<path d="M9.50044 0.253906C6.46044 0.253906 2.78711 2.15391 2.78711 6.96724C2.78711 9.75391 6.58711 15.7072 8.61378 18.3672C8.99378 18.8739 9.75378 18.8739 10.1338 18.3672C12.0338 15.7072 16.0871 9.88057 16.0871 6.96724C16.2138 2.15391 12.5404 0.253906 9.50044 0.253906Z" fill="#409B72"/>
<path d="M14.06 4.9401H13.9333L9.49999 2.6601L5.06666 4.9401C4.81333 5.06677 4.55999 4.9401 4.43333 4.68677C4.30666 4.43344 4.43333 4.30677 4.55999 4.1801L9.37333 1.77344L14.1867 4.1801C14.44 4.1801 14.5667 4.43344 14.44 4.68677C14.44 4.9401 14.3133 5.06677 14.06 4.9401ZM7.59999 8.86677H5.19333V11.1468H7.59999V8.86677ZM10.64 8.86677H8.35999V11.1468H10.64V8.86677ZM13.68 8.86677H11.4V11.1468H13.68V8.86677ZM12.16 5.7001H9.87999V7.9801H12.16V5.7001ZM9.11999 5.7001H6.71333V7.9801H8.99333V5.7001H9.11999Z" fill="white"/>
</svg>
