<svg width="19" height="19" viewBox="0 0 19 19" fill="none" xmlns="http://www.w3.org/2000/svg">
<path d="M9.50044 0.253906C6.46044 0.253906 2.78711 2.15391 2.78711 6.96724C2.78711 9.75391 6.58711 15.7072 8.61378 18.3672C8.99378 18.8739 9.75378 18.8739 10.1338 18.3672C12.0338 15.7072 16.0871 9.88057 16.0871 6.96724C16.2138 2.15391 12.5404 0.253906 9.50044 0.253906Z" fill="#ff0000"/>
<path d="M13.3003 5.1951L12.287 11.2751C12.287 11.4018 12.0336 11.5284 11.907 11.5284H7.09365C6.96698 11.5284 6.71365 11.4018 6.71365 11.2751L5.70031 5.1951C5.70031 4.94177 5.82698 4.8151 6.08031 4.8151H12.7936C13.047 4.68844 13.3003 4.94177 13.3003 5.1951ZM13.6803 3.54844C13.6803 3.80177 13.5536 3.92844 13.3003 3.92844H5.70031C5.44698 3.92844 5.32031 3.80177 5.32031 3.54844C5.32031 3.2951 5.44698 3.16844 5.70031 3.16844H7.60031V2.02844C7.60031 1.7751 7.72698 1.64844 7.98031 1.64844H11.0203C11.2736 1.64844 11.4003 1.7751 11.4003 2.02844V3.16844H13.3003C13.5536 3.16844 13.6803 3.42177 13.6803 3.54844ZM10.6403 3.16844V2.40844H8.36031V3.16844H10.6403Z" fill="white"/>
</svg>
