<svg width="19" height="19" viewBox="0 0 19 19" fill="none" xmlns="http://www.w3.org/2000/svg">
<path d="M9.50044 0.253906C6.46044 0.253906 2.78711 2.15391 2.78711 6.96724C2.78711 9.75391 6.58711 15.7072 8.61378 18.3672C8.99378 18.8739 9.75378 18.8739 10.1338 18.3672C12.0338 15.7072 16.0871 9.88057 16.0871 6.96724C16.2138 2.15391 12.5404 0.253906 9.50044 0.253906Z" fill="#427299"/>
<path d="M13.1725 6.20844H12.7925C12.6658 5.1951 12.1591 4.30844 11.2725 3.6751V2.02844C11.2725 1.7751 11.1458 1.64844 10.8925 1.64844H7.72579C7.59912 1.64844 7.34579 1.7751 7.34579 2.02844V3.80177C5.82579 4.8151 5.31912 6.96844 6.45912 8.48844C6.71245 8.86844 6.96579 9.24844 7.34579 9.50177V11.2751C7.34579 11.4018 7.59912 11.6551 7.72579 11.6551H10.7658C11.0191 11.6551 11.1458 11.5284 11.1458 11.2751V9.50177C12.0325 8.86844 12.5391 7.98177 12.6658 6.96844H13.0458C13.2991 6.96844 13.4258 6.84177 13.4258 6.58844C13.4258 6.3351 13.4258 6.20844 13.1725 6.20844ZM9.24579 9.24844C7.72579 9.24844 6.58579 7.98177 6.58579 6.58844C6.58579 5.1951 7.85245 3.92844 9.24579 3.92844C10.6391 3.92844 11.9058 5.1951 11.9058 6.58844C11.9058 7.98177 10.7658 9.24844 9.24579 9.24844ZM10.5125 6.20844H9.75245V5.06844C9.75245 4.8151 9.62579 4.68844 9.37245 4.68844C9.11912 4.68844 8.86579 4.8151 8.86579 5.06844V6.58844C8.86579 6.84177 8.99245 6.96844 9.24579 6.96844H10.3858C10.6391 6.96844 10.7658 6.84177 10.7658 6.58844C10.7658 6.3351 10.6391 6.20844 10.5125 6.20844Z" fill="white"/>
</svg>
