<svg width="19" height="19" viewBox="0 0 19 19" fill="none" xmlns="http://www.w3.org/2000/svg">
<path d="M9.50044 0.253906C6.46044 0.253906 2.78711 2.15391 2.78711 6.96724C2.78711 9.75391 6.58711 15.7072 8.61378 18.3672C8.99378 18.8739 9.75378 18.8739 10.1338 18.3672C12.0338 15.7072 16.0871 9.88057 16.0871 6.96724C16.2138 2.15391 12.5404 0.253906 9.50044 0.253906Z" fill="#6281A0"/>
<path d="M5.06664 8.74125L6.71331 7.72792L8.73997 8.86792L9.87997 8.10792C9.62664 8.10792 9.37331 7.98125 9.24664 7.85458L10.3866 6.71458C10.5133 6.84125 10.7666 6.96792 11.02 6.96792V7.98125L11.2733 8.10792V6.96792C11.5266 6.96792 11.78 6.84125 11.9066 6.71458L13.0466 7.85458C12.6666 8.10792 12.2866 8.36125 11.78 8.48792L12.6666 8.99458L13.1733 8.61458C14.06 7.98125 14.5666 6.96792 14.5666 5.82792C14.5666 3.80125 12.92 2.28125 11.02 2.28125C10.0066 2.28125 8.99331 2.78792 8.35997 3.42125L7.09331 2.28125L4.30664 4.56125H5.06664V8.74125ZM13.1733 7.72792L12.0333 6.58792C12.16 6.33458 12.2866 6.20792 12.2866 5.95458H13.9333C13.8066 6.58792 13.5533 7.22125 13.1733 7.72792ZM13.8066 5.70125H12.2866C12.2866 5.44792 12.16 5.19458 12.0333 5.06792L13.1733 3.92792C13.5533 4.43458 13.8066 5.06792 13.8066 5.70125ZM11.1466 3.04125C11.78 3.04125 12.4133 3.29458 12.92 3.80125L11.9066 4.94125C11.6533 4.68792 11.4 4.68792 11.1466 4.56125V3.04125ZM11.02 3.04125V4.68792C10.7666 4.68792 10.5133 4.81458 10.3866 4.94125L9.24664 3.80125C9.62664 3.29458 10.26 3.04125 11.02 3.04125ZM9.11997 3.92792L10.1333 5.06792C10.0066 5.19458 9.87997 5.44792 9.87997 5.70125H8.35997C8.35997 5.06792 8.61331 4.43458 9.11997 3.92792ZM9.87997 5.95458C9.87997 6.20792 10.0066 6.33458 10.1333 6.58792L9.11997 7.72792C8.61331 7.22125 8.35997 6.58792 8.35997 5.95458H9.87997ZM10.64 8.61458L8.73997 9.75458L6.71331 8.61458L4.68664 9.75458V10.8946L6.71331 9.75458L8.73997 10.8946L10.7666 9.75458L12.6666 11.0212L14.6933 9.88125V8.61458L12.6666 9.75458L10.64 8.61458Z" fill="white"/>
</svg>
