<svg width="19" height="19" viewBox="0 0 19 19" fill="none" xmlns="http://www.w3.org/2000/svg">
<path d="M9.50044 0.253906C6.46044 0.253906 2.78711 2.15391 2.78711 6.96724C2.78711 9.75391 6.58711 15.7072 8.61378 18.3672C8.99378 18.8739 9.75378 18.8739 10.1338 18.3672C12.0338 15.7072 16.0871 9.88057 16.0871 6.96724C16.2138 2.15391 12.5404 0.253906 9.50044 0.253906Z" fill="#5C4499"/>
<path d="M14.3142 2.91406H7.7275C6.46083 2.91406 5.4475 3.80073 5.4475 5.0674V8.61406C5.0675 8.99406 4.6875 9.37406 4.6875 10.0074C4.6875 10.8941 5.4475 11.6541 6.33417 11.6541C6.71417 11.6541 6.9675 11.5274 7.22083 11.4007C7.60083 11.5274 7.85417 11.6541 8.23417 11.6541C8.61417 11.6541 8.99417 11.5274 9.2475 11.2741H9.50083C9.88083 11.5274 10.2608 11.6541 10.7675 11.6541C12.0342 11.6541 13.1742 10.6407 13.1742 9.2474C13.1742 8.23406 12.5408 7.3474 11.6542 7.09406V5.8274C11.6542 5.0674 12.2875 4.3074 13.1742 4.3074H14.3142V2.91406ZM12.4142 9.2474C12.4142 10.1341 11.6542 10.8941 10.7675 10.8941C10.3875 10.8941 10.0075 10.7674 9.75417 10.5141H8.99417C8.74083 10.7674 8.4875 10.8941 8.23417 10.8941C7.98083 10.8941 7.60083 10.7674 7.47417 10.5141H7.09417C6.9675 10.7674 6.71417 10.8941 6.33417 10.8941C5.8275 10.8941 5.4475 10.5141 5.4475 10.0074C5.4475 9.6274 5.70083 9.2474 6.2075 9.12073V6.33406C6.2075 6.08073 6.46083 5.8274 6.71417 5.8274C6.9675 5.8274 7.22083 6.08073 7.22083 6.33406V8.74073C7.22083 8.99406 7.3475 9.12073 7.60083 9.12073C7.85417 9.12073 7.98083 8.8674 7.98083 8.74073V7.09406C7.98083 6.84073 8.23417 6.5874 8.4875 6.5874C8.74083 6.5874 8.99417 6.84073 8.99417 7.09406V8.74073C8.99417 8.99406 9.12083 9.12073 9.37417 9.12073C9.6275 9.12073 9.88083 8.8674 9.88083 8.74073V6.33406C9.88083 6.08073 10.1342 5.8274 10.3875 5.8274C10.6408 5.8274 10.8942 6.08073 10.8942 6.33406V7.60073C11.7808 7.7274 12.4142 8.4874 12.4142 9.2474Z" fill="white"/>
</svg>
