<svg width="19" height="19" viewBox="0 0 19 19" fill="none" xmlns="http://www.w3.org/2000/svg">
<path d="M9.50044 0.253906C6.46044 0.253906 2.78711 2.15391 2.78711 6.96724C2.78711 9.75391 6.58711 15.7072 8.61378 18.3672C8.99378 18.8739 9.75378 18.8739 10.1338 18.3672C12.0338 15.7072 16.0871 9.88057 16.0871 6.96724C16.2138 2.15391 12.5404 0.253906 9.50044 0.253906Z" fill="#639D9E"/>
<path d="M5.06664 3.92511C5.31997 3.67178 5.69997 3.54511 6.20664 3.54511C7.09331 3.54511 7.85331 4.05178 7.97997 4.93844L8.48664 8.23178C7.97997 7.97844 7.47331 7.97844 7.09331 8.23178L6.45997 5.06511C6.20664 4.43178 5.69997 3.92511 5.06664 3.92511ZM9.24664 8.73844C9.49997 8.48511 9.87997 8.35844 10.1333 8.23178L11.02 2.78511C11.2733 2.15178 11.78 1.77178 12.4133 1.77178C12.2866 1.51844 11.9066 1.39178 11.4 1.51844C10.5133 1.51844 9.75331 2.02511 9.62664 2.91178L8.73997 8.48511C8.99331 8.48511 9.11997 8.61178 9.24664 8.73844ZM12.4133 8.35844C12.54 8.23178 12.6666 8.23178 12.7933 8.10511L13.1733 5.06511C13.4266 4.43178 13.9333 4.05178 14.5666 4.05178C14.3133 3.79844 13.9333 3.67178 13.5533 3.67178C12.6666 3.54511 11.9066 4.17844 11.78 5.06511L11.2733 7.85178C11.78 7.97844 12.0333 8.10511 12.4133 8.35844ZM13.9333 9.24511C13.68 9.24511 13.3 9.37178 13.0466 9.49844L12.6666 9.75178C12.4133 9.87844 12.16 9.87844 11.9066 9.75178C11.9066 9.75178 11.9066 9.75178 11.78 9.62511C11.2733 9.24511 10.5133 9.24511 10.0066 9.62511C9.87997 9.75178 9.75331 9.75178 9.62664 9.87844C9.49997 10.1318 9.11997 10.1318 8.99331 9.87844C8.86664 9.75178 8.73997 9.75178 8.61331 9.62511C8.10664 9.24511 7.34664 9.24511 6.83997 9.62511C6.71331 9.75178 6.71331 9.75178 6.58664 9.87844C6.45997 9.87844 6.45997 10.0051 6.33331 10.0051C6.07997 10.0051 5.95331 10.0051 5.82664 9.87844C5.57331 9.62511 5.44664 9.49844 5.19331 9.37178C5.06664 9.37178 4.93997 9.24511 4.68664 9.24511C4.43331 9.24511 4.30664 9.37178 4.30664 9.62511C4.30664 9.87844 4.43331 10.0051 4.68664 10.0051C4.81331 10.0051 5.06664 10.1318 5.19331 10.2584L5.44664 10.3851C5.95331 10.7651 6.58664 10.7651 7.09331 10.3851C7.21997 10.3851 7.34664 10.2584 7.47331 10.1318C7.59997 9.87844 7.97997 9.87844 8.10664 10.1318L8.35997 10.3851C8.86664 10.7651 9.62664 10.8918 10.1333 10.3851C10.26 10.3851 10.3866 10.2584 10.5133 10.1318C10.7666 9.87844 11.02 9.87844 11.2733 10.1318L11.5266 10.3851C11.9066 10.6384 12.2866 10.7651 12.7933 10.6384C13.0466 10.5118 13.3 10.3851 13.5533 10.2584C13.68 10.1318 13.8066 10.0051 13.9333 10.0051C14.1866 10.0051 14.3133 9.87844 14.3133 9.62511C14.3133 9.37178 14.1866 9.24511 13.9333 9.24511Z" fill="white"/>
</svg>
