<svg width="19" height="19" viewBox="0 0 19 19" fill="none" xmlns="http://www.w3.org/2000/svg">
<path d="M9.50044 0.253906C6.46044 0.253906 2.78711 2.15391 2.78711 6.96724C2.78711 9.75391 6.58711 15.7072 8.61378 18.3672C8.99378 18.8739 9.75378 18.8739 10.1338 18.3672C12.0338 15.7072 16.0871 9.88057 16.0871 6.96724C16.2138 2.15391 12.5404 0.253906 9.50044 0.253906Z" fill="#9B8662"/>
<path d="M12.7942 2.53286C12.7942 3.03953 12.2875 3.5462 11.7808 3.5462C11.2742 3.5462 10.7675 3.03953 10.7675 2.53286C10.7675 2.0262 11.2742 1.51953 11.7808 1.51953C12.4142 1.51953 12.7942 1.89953 12.7942 2.53286ZM6.5875 4.81286L7.7275 3.67286L8.99417 4.55953L8.4875 5.31953C9.2475 5.57286 9.88083 5.95286 10.3875 6.5862L11.0208 5.57286C11.1475 5.31953 11.0208 4.93953 10.7675 4.81286L10.2608 4.55953L7.85417 2.91286C7.7275 2.7862 7.60083 2.7862 7.47417 2.91286L6.08083 4.3062C5.95417 4.43286 6.08083 4.6862 6.2075 4.81286C6.33417 4.81286 6.46083 4.81286 6.5875 4.81286ZM10.1342 8.8662C10.1342 9.75286 9.75417 10.5129 9.12083 11.0195C8.61417 11.3995 8.1075 11.6529 7.47417 11.6529C5.95417 11.6529 4.6875 10.3862 4.6875 8.8662C4.6875 8.23286 4.94083 7.59953 5.32083 7.09286C5.4475 6.9662 5.57417 6.83953 5.70083 6.71287C6.2075 6.33286 6.84083 6.07953 7.47417 6.07953C8.99417 6.07953 10.1342 7.3462 10.1342 8.8662ZM8.74083 9.75286C9.2475 9.11953 9.12083 8.1062 8.4875 7.59953C7.85417 7.09286 7.09417 7.09286 6.5875 7.59953C6.33417 7.7262 6.2075 7.85286 6.08083 7.97953C5.70083 8.73953 5.8275 9.6262 6.5875 10.1329C7.09417 10.5129 7.7275 10.5129 8.23417 10.1329C8.4875 10.0062 8.61417 9.87953 8.74083 9.75286ZM14.3142 10.3862L12.6675 7.09286C12.5408 6.83953 12.2875 6.71287 12.1608 6.71287H10.3875C10.6408 6.9662 10.7675 7.3462 10.8942 7.7262H11.7808L13.3008 10.8929C13.4275 11.1462 13.6808 11.2729 13.9342 11.1462C14.1875 11.0195 14.4408 10.6395 14.3142 10.3862Z" fill="white"/>
</svg>
