<svg width="19" height="19" viewBox="0 0 19 19" fill="none" xmlns="http://www.w3.org/2000/svg">
<path d="M9.50044 0.253906C6.46044 0.253906 2.78711 2.15391 2.78711 6.96724C2.78711 9.75391 6.58711 15.7072 8.61378 18.3672C8.99378 18.8739 9.75378 18.8739 10.1338 18.3672C12.0338 15.7072 16.0871 9.88057 16.0871 6.96724C16.2138 2.15391 12.5404 0.253906 9.50044 0.253906Z" fill="#57A953"/>
<path d="M10.1324 3.80016C10.1324 3.80016 9.62578 4.56016 9.11911 4.56016H7.21911C6.71245 4.56016 6.20578 4.81349 5.95245 5.19349L4.30578 6.84016C4.05245 6.96682 3.92578 7.34682 3.92578 7.60016C3.92578 7.98016 3.92578 8.36016 3.92578 8.36016C3.92578 8.36016 4.68578 8.36016 4.68578 7.60016V7.22016L5.44578 6.46016H5.82578L5.95245 6.71349C5.95245 6.71349 5.19245 8.10682 5.19245 9.37349C5.19245 9.88016 5.69911 9.88016 5.69911 9.88016H6.20578C6.20578 9.88016 6.45911 9.88016 6.20578 9.62682L5.95245 9.24682C5.95245 8.74016 6.58578 7.98016 6.83911 7.47349C6.83911 7.47349 6.83911 8.36016 6.83911 8.99349C6.83911 9.24682 7.09245 9.75349 7.34578 9.75349H7.85245C7.85245 9.75349 8.10578 9.75349 7.85245 9.50016L7.72578 9.24682C7.47245 8.86682 7.97911 7.22016 7.97911 7.22016C8.99245 7.22016 9.11912 7.60016 10.2591 7.60016L10.5124 9.37349C10.6391 9.88016 11.0191 9.88016 11.0191 9.88016H12.1591C12.4124 9.88016 12.9191 9.62682 12.4124 9.24682L12.1591 8.99349V7.60016C13.0458 7.47349 13.6791 6.84016 13.6791 6.08016H14.4391C14.6924 6.08016 15.1991 6.08016 15.1991 5.70016V4.94016L13.9324 3.67349C13.4258 3.16682 12.9191 2.66016 12.2858 2.66016C11.0191 2.78682 10.5124 3.16682 10.1324 3.80016Z" fill="white"/>
</svg>
