<svg xmlns="http://www.w3.org/2000/svg" xmlns:xlink="http://www.w3.org/1999/xlink" version="1.1" x="0px" y="0px" viewBox="0 0 68 85" enable-background="new 0 0 68 68" xml:space="preserve"><g><path d="M34,9.9359C20.731,9.9359,9.9359,20.7315,9.9359,34S20.731,58.063,34,58.063c13.2685,0,24.0635-10.7945,24.0635-24.063   S47.2685,9.9359,34,9.9359z M43.5492,49.8206h-0.0005c-2.7724,2.1298-6.2545,2.4505-9.2245,1.0738l-0.2497-0.1157   c-3.1235-1.5232-5.1288-4.7717-5.1288-8.2851V31.917h-4.4803c-1.9141,0-3.4712-1.5576-3.4712-3.4717s1.557-3.4717,3.4712-3.4717   h4.4803v-0.3941c0-1.4568-1.2522-1.5116-2.5902-1.0186l-0.0214,0.0209c-1.8404,0.662-3.5013,0.9597-4.7921-0.6276   c-1.2026-1.5107-0.9576-3.701,0.5385-4.8927c2.2816-1.8307,7.2019-2.9869,10.9838,0.1804   c1.7953,1.5065,2.8243,3.8157,2.8243,6.3376v0.3941h7.0476c1.9141,0,3.4717,1.5576,3.4717,3.4717s-1.5576,3.4717-3.4717,3.4717   h-7.0476v10.5766c0,0.8726,0.478,1.6702,1.2177,2.0298l0.1673,0.0897c1.4905,0.6798,3.2835-0.8415,2.9671-2.647   c-0.208-1.201-0.8293-2.1633-2.1456-3.3268c-1.4351-1.2688-1.5711-3.4675-0.3049-4.901c1.2636-1.4272,3.4597-1.5649,4.8974-0.3086   c2.5167,2.2248,3.9127,4.5601,4.3969,7.352C47.6808,44.219,46.3266,47.6824,43.5492,49.8206z"/><path d="M62.6799,34.0021c0-0.5901,0.478-1.0676,1.0676-1.0676H66c-0.1663-5.05-1.5015-9.808-3.7522-14.0087l-1.9522,1.127   c-0.5108,0.2942-1.1629,0.1194-1.4585-0.391c-0.2945-0.5108-0.1194-1.1635,0.391-1.4585l1.9466-1.1238   c-2.592-4.1478-6.1049-7.6607-10.2523-10.253l-1.1241,1.947c-0.2976,0.5153-0.9535,0.6826-1.4585,0.391   c-0.5108-0.295-0.6855-0.9477-0.391-1.4585l1.1274-1.9527c-4.2006-2.2511-8.9587-3.5866-14.0086-3.7532v2.254   c0,0.5901-0.478,1.0676-1.0676,1.0676s-1.0676-0.4775-1.0676-1.0676v-2.254c-5.0502,0.1665-9.8083,1.5022-14.009,3.7534   l1.1273,1.9525c0.2945,0.5108,0.1199,1.1635-0.391,1.4585c-0.5062,0.2924-1.1616,0.1232-1.4585-0.391l-1.124-1.9467   c-4.1474,2.5923-7.6601,6.1054-10.2521,10.253l1.9462,1.1235c0.5103,0.295,0.6855,0.9477,0.391,1.4585   c-0.2956,0.5103-0.9475,0.6852-1.4585,0.391l-1.9518-1.1267C3.5014,23.1267,2.1663,27.8846,2,32.9345h2.252   c0.5896,0,1.0676,0.4775,1.0676,1.0676c0,0.5901-0.478,1.0676-1.0676,1.0676H2.0001c0.1669,5.0496,1.5025,9.8072,3.7536,14.0075   l1.9501-1.1258c0.5108-0.2961,1.163-0.1189,1.4585,0.391c0.2945,0.5108,0.1194,1.1635-0.391,1.4585l-1.9443,1.1224   c2.5921,4.147,6.1047,7.6593,10.2519,10.251l1.1222-1.9436c0.295-0.5108,0.9472-0.687,1.4585-0.391   c0.5108,0.295,0.6855,0.9477,0.391,1.4585l-1.1255,1.9492c4.2002,2.2506,8.9578,3.5859,14.0072,3.7524v-2.2509   c0-0.5901,0.478-1.0676,1.0676-1.0676s1.0676,0.4775,1.0676,1.0676v2.2509c5.0492-0.1665,9.8067-1.5017,14.0068-3.7522   l-1.1256-1.9495c-0.2945-0.5108-0.1199-1.1635,0.391-1.4585c0.5103-0.2961,1.163-0.1199,1.4585,0.391l1.1224,1.9439   c4.1473-2.5918,7.6599-6.1041,10.2521-10.2511l-1.9447-1.1226c-0.5103-0.295-0.6855-0.9477-0.391-1.4585   c0.2945-0.5098,0.9451-0.687,1.4585-0.391l1.9505,1.126c2.2511-4.2003,3.5868-8.958,3.7537-14.0077h-2.2524   C63.158,35.0697,62.6799,34.5922,62.6799,34.0021z M34,60.1982C19.5539,60.1982,7.8008,48.4455,7.8008,34   C7.8008,19.5534,19.5539,7.8008,34,7.8008S60.1987,19.5534,60.1987,34C60.1987,48.4455,48.4461,60.1982,34,60.1982z"/><path d="M41.2775,35.0332c-0.5619-0.491-1.3934-0.441-1.8875,0.1199c-0.4874,0.5505-0.4337,1.3981,0.1194,1.887   c1.6696,1.4752,2.5443,2.8816,2.8347,4.5591c0.599,3.4188-2.8179,6.3914-6.0259,4.9229l-0.1897-0.1001   c-1.4262-0.6943-2.3749-2.2446-2.3749-3.9283V29.7819h9.1828c0.7371,0,1.3365-0.5995,1.3365-1.3365   c0-0.7371-0.5995-1.3365-1.3365-1.3365h-9.1828v-2.5292c0-1.8891-0.7512-3.603-2.0606-4.7019   c-3.099-2.5959-6.9825-1.1885-8.2789-0.148c-0.5838,0.4635-0.6666,1.3115-0.2085,1.886c0.3003,0.3691,0.6375,0.5953,2.1878,0.0365   l0.0016,0.0042c2.708-1.2845,5.6861-0.1721,5.6861,2.9233v2.5292h-6.6155c-0.7366,0-1.336,0.5995-1.336,1.3365   c0,0.7371,0.5995,1.3365,1.336,1.3365h6.6155v12.7118c0,2.7033,1.5346,5.1981,3.9101,6.3575l0.2304,0.1063   c5.0626,2.3398,10.7327-2.2035,9.7593-7.8108C44.5839,38.8583,43.4069,36.916,41.2775,35.0332z"/></g><text x="0" y="83" fill="#000000" font-size="5px" font-weight="bold" font-family="'Helvetica Neue', Helvetica, Arial-Unicode, Arial, Sans-serif">Created by Vectors Point</text><text x="0" y="88" fill="#000000" font-size="5px" font-weight="bold" font-family="'Helvetica Neue', Helvetica, Arial-Unicode, Arial, Sans-serif">from the Noun Project</text></svg>